<svg width="166" height="34" viewBox="0 0 166 34" fill="none" xmlns="http://www.w3.org/2000/svg">
<path d="M58.1434 26.48C59.1934 26.48 60.1734 26.265 61.0834 25.835C62.0034 25.395 62.8134 24.775 63.5134 23.975V26H68.1184V10.64H63.5134V12.515C62.9034 11.775 62.1284 11.2 61.1884 10.79C60.2484 10.37 59.2334 10.16 58.1434 10.16C56.6634 10.16 55.3484 10.52 54.1984 11.24C53.0584 11.95 52.1634 12.92 51.5134 14.15C50.8634 15.37 50.5384 16.75 50.5384 18.29C50.5384 19.87 50.8784 21.28 51.5584 22.52C52.2384 23.75 53.1484 24.72 54.2884 25.43C55.4384 26.13 56.7234 26.48 58.1434 26.48ZM59.5084 22.565C58.3184 22.565 57.3334 22.165 56.5534 21.365C55.7734 20.565 55.3834 19.55 55.3834 18.32C55.3834 17.09 55.7734 16.075 56.5534 15.275C57.3434 14.475 58.3284 14.075 59.5084 14.075C60.6984 14.075 61.6784 14.475 62.4484 15.275C63.2284 16.065 63.6184 17.08 63.6184 18.32C63.6184 19.56 63.2334 20.58 62.4634 21.38C61.6934 22.17 60.7084 22.565 59.5084 22.565ZM73.5353 26H78.1403V17.42C78.1403 16.85 78.3053 16.32 78.6353 15.83C78.9753 15.33 79.4103 14.925 79.9403 14.615C80.4803 14.305 81.0503 14.15 81.6503 14.15C82.5203 14.15 83.3403 14.4 84.1103 14.9L86.0303 11.015C85.6303 10.765 85.1403 10.56 84.5603 10.4C83.9903 10.24 83.4353 10.16 82.8953 10.16C81.9453 10.16 81.0553 10.395 80.2253 10.865C79.4053 11.325 78.7103 11.985 78.1403 12.845V10.64H73.5353V26ZM95.6031 26.48C96.6131 26.48 97.5631 26.335 98.4531 26.045C99.3431 25.765 100.078 25.41 100.658 24.98L99.0831 21.875C98.3731 22.425 97.4531 22.7 96.3231 22.7C95.4331 22.7 94.6481 22.505 93.9681 22.115C93.2981 21.725 92.7781 21.2 92.4081 20.54C92.0381 19.87 91.8531 19.13 91.8531 18.32C91.8531 17.58 92.0231 16.875 92.3631 16.205C92.7131 15.535 93.2181 14.99 93.8781 14.57C94.5381 14.15 95.3431 13.94 96.2931 13.94C97.4231 13.94 98.3531 14.215 99.0831 14.765L100.658 11.66C100.098 11.22 99.3581 10.86 98.4381 10.58C97.5281 10.3 96.5781 10.16 95.5881 10.16C94.3581 10.16 93.2231 10.38 92.1831 10.82C91.1431 11.26 90.2381 11.86 89.4681 12.62C88.6981 13.38 88.0981 14.25 87.6681 15.23C87.2381 16.21 87.0231 17.245 87.0231 18.335C87.0231 19.475 87.2481 20.54 87.6981 21.53C88.1481 22.51 88.7681 23.37 89.5581 24.11C90.3481 24.85 91.2581 25.43 92.2881 25.85C93.3281 26.27 94.4331 26.48 95.6031 26.48ZM110.643 26.48C111.693 26.48 112.673 26.265 113.583 25.835C114.503 25.395 115.313 24.775 116.013 23.975V26H120.618V10.64H116.013V12.515C115.403 11.775 114.628 11.2 113.688 10.79C112.748 10.37 111.733 10.16 110.643 10.16C109.163 10.16 107.848 10.52 106.698 11.24C105.558 11.95 104.663 12.92 104.013 14.15C103.363 15.37 103.038 16.75 103.038 18.29C103.038 19.87 103.378 21.28 104.058 22.52C104.738 23.75 105.648 24.72 106.788 25.43C107.938 26.13 109.223 26.48 110.643 26.48ZM112.008 22.565C110.818 22.565 109.833 22.165 109.053 21.365C108.273 20.565 107.883 19.55 107.883 18.32C107.883 17.09 108.273 16.075 109.053 15.275C109.843 14.475 110.828 14.075 112.008 14.075C113.198 14.075 114.178 14.475 114.948 15.275C115.728 16.065 116.118 17.08 116.118 18.32C116.118 19.56 115.733 20.58 114.963 21.38C114.193 22.17 113.208 22.565 112.008 22.565ZM126.035 26H130.64V16.91C130.64 16.02 130.935 15.275 131.525 14.675C132.115 14.065 132.92 13.76 133.94 13.76C134.94 13.76 135.725 14.07 136.295 14.69C136.875 15.3 137.165 16.155 137.165 17.255V26H141.77V16.28C141.77 15.06 141.515 13.995 141.005 13.085C140.495 12.165 139.79 11.45 138.89 10.94C138 10.42 136.965 10.16 135.785 10.16C134.725 10.16 133.75 10.365 132.86 10.775C131.97 11.175 131.23 11.7 130.64 12.35V10.64H126.035V26ZM153.3 26.48C154.35 26.48 155.33 26.265 156.24 25.835C157.16 25.395 157.97 24.775 158.67 23.975V26H163.275V10.64H158.67V12.515C158.06 11.775 157.285 11.2 156.345 10.79C155.405 10.37 154.39 10.16 153.3 10.16C151.82 10.16 150.505 10.52 149.355 11.24C148.215 11.95 147.32 12.92 146.67 14.15C146.02 15.37 145.695 16.75 145.695 18.29C145.695 19.87 146.035 21.28 146.715 22.52C147.395 23.75 148.305 24.72 149.445 25.43C150.595 26.13 151.88 26.48 153.3 26.48ZM154.665 22.565C153.475 22.565 152.49 22.165 151.71 21.365C150.93 20.565 150.54 19.55 150.54 18.32C150.54 17.09 150.93 16.075 151.71 15.275C152.5 14.475 153.485 14.075 154.665 14.075C155.855 14.075 156.835 14.475 157.605 15.275C158.385 16.065 158.775 17.08 158.775 18.32C158.775 19.56 158.39 20.58 157.62 21.38C156.85 22.17 155.865 22.565 154.665 22.565Z" fill="white"/>
<path fill-rule="evenodd" clip-rule="evenodd" d="M22.486 27.2465C23.0564 27.9739 23.7694 28.58 24.5825 29.0286C25.3956 29.4771 26.2919 29.7589 27.2178 29.8569C28.1437 29.955 29.0801 29.8673 29.9709 29.5991C30.8617 29.331 31.6885 28.8879 32.4019 28.2964C33.1152 27.7049 33.7004 26.9772 34.1223 26.1569C34.5442 25.3366 34.7942 24.4406 34.8573 23.5225C34.9204 22.6044 34.7952 21.6832 34.4894 20.8141C34.1836 19.945 33.7033 19.1458 33.0774 18.4644L22.9974 6.5934C21.8231 5.15534 20.1191 4.23685 18.2598 4.03978C16.4004 3.84271 14.538 4.3832 13.0818 5.54245C11.6733 6.75811 10.8109 8.47668 10.6842 10.3204C10.5575 12.1642 11.1768 13.9822 12.406 15.3748L22.486 27.2465ZM29.8818 25.3288C29.22 25.8558 28.3734 26.1015 27.5283 26.012C26.6832 25.9225 25.9086 25.505 25.3748 24.8513L15.2948 12.9828C14.7362 12.3498 14.4547 11.5235 14.5122 10.6854C14.5697 9.84744 14.9616 9.06629 15.6017 8.51362C16.2636 7.98658 17.1102 7.74082 17.9555 7.83034C18.8007 7.91987 19.5754 8.33735 20.1093 8.99104L30.1893 20.8571C30.4663 21.1706 30.6782 21.5349 30.8128 21.9294C30.9473 22.3238 31.0019 22.7405 30.9734 23.1558C30.9449 23.571 30.8339 23.9767 30.6467 24.3495C30.4595 24.7224 30.1998 25.0551 29.8824 25.3288H29.8818Z" fill="url(#paint0_linear)"/>
<path fill-rule="evenodd" clip-rule="evenodd" d="M12.33 27.2465C11.1557 28.6847 9.45154 29.6034 7.59207 29.8004C5.73261 29.9975 3.87005 29.4569 2.4138 28.2975C1.00519 27.0817 0.142796 25.3629 0.0161947 23.5191C-0.110407 21.6752 0.509148 19.8571 1.73866 18.4644L11.8187 6.5934C12.993 5.15534 14.697 4.23685 16.5563 4.03978C18.4156 3.84271 20.2781 4.3832 21.7343 5.54245C23.1428 6.75811 24.0052 8.47668 24.1319 10.3204C24.2586 12.1642 23.6393 13.9822 22.41 15.3748L12.33 27.2465ZM4.93427 25.3288C5.59611 25.8558 6.44264 26.1015 7.28777 26.012C8.13291 25.9225 8.90748 25.505 9.44125 24.8513L19.52 12.9828C20.0787 12.3498 20.3602 11.5235 20.3026 10.6854C20.2451 9.84744 19.8532 9.06629 19.2132 8.51362C18.5513 7.98678 17.7048 7.74113 16.8597 7.83065C16.0146 7.92017 15.2401 8.33753 14.7062 8.99104L4.62682 20.8571C4.34977 21.1706 4.13795 21.535 4.00345 21.9294C3.86896 22.3239 3.81443 22.7406 3.84298 23.1559C3.87153 23.5712 3.98261 23.9768 4.16985 24.3496C4.3571 24.7224 4.61685 25.0552 4.93427 25.3288Z" fill="url(#paint1_linear)"/>
<defs>
<linearGradient id="paint0_linear" x1="22.7706" y1="2.83469" x2="22.7706" y2="29.9217" gradientUnits="userSpaceOnUse">
<stop stop-color="#0085FF"/>
<stop offset="1" stop-color="#29C8FA"/>
</linearGradient>
<linearGradient id="paint1_linear" x1="12.0741" y1="2.83719" x2="12.0741" y2="29.866" gradientUnits="userSpaceOnUse">
<stop stop-color="#0085FF"/>
<stop offset="1" stop-color="#29C8FA"/>
</linearGradient>
</defs>
</svg>
