<svg width="13" height="677" viewBox="0 0 13 677" fill="none" xmlns="http://www.w3.org/2000/svg">
<path d="M7.80189 627.493C7.77054 627.836 7.73724 628.186 7.70868 628.537C7.71577 628.945 7.74274 629.354 7.78496 629.746C7.81537 629.566 7.83104 629.477 7.86045 629.305C7.73344 628.676 7.84004 628.097 7.80189 627.493ZM8.4941 613.541C8.59895 614.235 8.49936 614.912 8.60412 615.623C8.75102 614.791 8.62169 613.909 8.65041 613.044C8.62304 613.191 8.59491 613.305 8.5756 613.044C8.54326 613.231 8.52654 613.337 8.4941 613.541ZM7.24172 626.119C7.20937 626.469 7.17612 626.812 7.14761 627.155C7.1546 627.579 7.17978 627.971 7.22295 628.363C7.25335 628.184 7.26902 628.094 7.30033 627.923C7.17042 627.302 7.27887 626.731 7.24172 626.119ZM8.4887 600.67C8.44675 599.258 8.54779 597.847 8.50489 596.435C8.38392 597.691 8.35103 600.245 8.4887 600.67ZM7.39234 615.722C7.37218 615.607 7.37773 615.306 7.38333 614.995C7.3687 614.906 7.35691 614.816 7.34517 614.718C7.34052 615.191 7.37454 615.689 7.42098 616.171C7.45895 615.992 7.47326 615.812 7.48103 615.616C7.46082 615.51 7.44169 615.379 7.42162 615.249C7.41125 615.404 7.40362 615.575 7.39234 615.722ZM8.02578 628.074C8.13113 625.112 8.14851 622.133 8.17333 619.179C8.03034 622.1 8.01201 625.079 8.02578 628.074ZM8.03581 616.942C8.01569 616.819 7.99647 616.705 7.97555 616.558C7.96697 616.729 7.95944 616.884 7.94816 617.031C7.92894 616.917 7.93355 616.615 7.93905 616.321C7.92352 616.223 7.91268 616.133 7.90004 616.027C7.89529 616.516 7.92937 617.006 7.9767 617.496C8.01278 617.317 8.02718 617.121 8.03581 616.942ZM6.98033 634.401C6.93784 634.866 6.9088 635.298 6.9015 635.739C6.91163 635.788 6.92157 635.87 6.93136 635.976C6.95788 635.976 6.98236 636.001 7.00887 636.001C7.01892 635.577 7.00417 635.022 7.00229 634.532C6.99491 634.499 6.98468 634.466 6.98033 634.401ZM8.419 564.735C8.4791 564.498 8.48249 564.89 8.483 565.29C8.60518 564.475 8.66406 563.634 8.62195 562.736C8.51213 563.381 8.42878 564.033 8.419 564.735ZM8.58928 561.52C8.64394 560.753 8.80221 558.298 8.56514 558.353C8.49921 559.104 8.58592 562.908 8.58928 561.52ZM8.76421 557.832C8.62964 556.387 8.94284 555.295 8.73683 553.759C8.61985 554.82 8.56213 557.733 8.76421 557.832ZM8.51608 584.617C8.52899 583.54 8.52391 582.462 8.58408 581.402C8.4501 582.29 8.4051 584.486 8.51608 584.617ZM7.49638 585.068C7.47841 585.713 7.46817 586.333 7.47094 586.831C7.51185 586.798 7.55068 586.798 7.5904 586.807C7.61328 586.619 7.64179 586.44 7.66774 586.211C7.56278 585.86 7.49293 586.472 7.49638 585.068ZM7.7791 593.419C7.78751 592.627 7.77442 591.95 7.71245 591.696C7.77854 593.353 7.65563 594.618 7.49598 595.686C7.5606 596.135 7.62531 596.405 7.69515 596.446C7.70899 596.022 7.72918 595.483 7.74667 594.92C7.79355 594.839 7.83905 594.831 7.88806 594.709C7.81731 596.284 7.78029 597.761 7.76198 598.789C7.72188 598.519 7.67975 598.274 7.60355 598.837C7.60058 599.996 7.5655 601.138 7.53933 602.215C7.53147 602.264 7.5246 602.305 7.51494 602.338C7.52218 602.395 7.52753 602.452 7.53279 602.526C7.50576 603.75 7.49715 604.9 7.57368 605.905C7.54224 605.774 7.51787 605.406 7.4681 605.659C7.30737 608.05 7.66467 607.513 7.62678 609.3C7.76189 604.159 8.40503 595.21 8.22732 589.798C8.08296 591.168 7.9849 592.718 7.91364 594.219C7.84751 593.868 7.88636 593.052 7.7791 593.419ZM7.61568 592.7C7.6018 591.671 7.59459 589.174 7.8217 589.689C7.64999 588.929 7.79387 587.804 7.74496 586.449C7.54609 588.072 7.48783 591.728 7.61568 592.7ZM8.24491 596.36C8.33985 595.993 8.41389 596.287 8.51898 595.643C8.3652 595.544 8.48319 593.986 8.29335 594.874C8.4598 595.398 8.16079 595.845 8.24491 596.36ZM8.45045 606.416C8.60683 605.258 8.52183 604.082 8.49739 602.915C8.41298 604.073 8.39854 605.248 8.45045 606.416ZM1.74873 561.276C1.95326 561.441 1.90004 561.636 1.94994 562.983C2.06086 562.315 2.05553 561.441 1.93431 560.306C1.88644 560.396 1.84064 560.779 1.79099 560.362C1.80423 559.391 1.87258 558.551 1.76026 557.514C1.696 557.815 1.43695 558.23 1.6243 558.256C1.80451 558.208 1.53987 560.067 1.74873 561.276ZM1.95504 537.601C1.85293 538.547 1.80005 541.118 1.9749 541.176C1.85823 539.91 2.12834 538.9 1.95504 537.601ZM1.30589 522.098C1.29765 522.049 1.28799 522.082 1.28042 522.082C1.26516 522.588 1.25733 523.118 1.26091 523.641C1.27132 523.641 1.2781 523.616 1.28671 523.6C1.2891 523.029 1.30399 522.425 1.30589 522.098ZM1.80065 541.664C1.74466 542.333 1.82244 545.721 1.82499 544.472C1.8707 543.779 2.00671 541.568 1.80065 541.664ZM1.40369 521.242C1.48128 523.201 1.32132 525.135 1.39342 527.061C1.55366 525.079 1.60477 522.973 1.62364 520.876C1.54862 521.398 1.48601 520.28 1.40369 521.242ZM2.06255 512.195C1.94723 513.133 1.89648 515.826 2.06647 515.419C2.07744 514.35 2.21772 513.191 2.06255 512.195ZM2.10858 424.124C2.21811 424.99 2.03422 427.78 2.28626 427.431C2.13875 426.581 2.34447 423.783 2.10858 424.124ZM1.86575 514.438C1.83429 513.499 1.87883 512.52 1.81224 511.598C1.74684 513.393 1.52285 512.992 1.60576 514.526C1.70446 513.515 1.75726 516.315 1.86575 514.438ZM7.10163 631.627C7.09609 631.602 7.08771 631.578 7.08118 631.562C7.06455 633.112 6.88747 634.735 7.17558 636.157C7.17757 636.141 7.17776 636.108 7.18169 636.084C7.19735 636.32 7.22202 636.476 7.25137 636.476C7.25005 636.378 7.24783 636.272 7.24551 636.182C7.33348 636.362 7.4061 636.738 7.44262 637.456C7.45631 637.383 7.46801 637.326 7.48174 637.244C7.48808 637.293 7.49452 637.326 7.50067 637.408C7.52624 637.408 7.55171 637.424 7.57733 637.416C7.58231 637.212 7.58004 636.951 7.57768 636.706C7.63134 636.437 7.68257 636.258 7.72987 636.266C7.62228 635.392 7.4582 635.922 7.55266 634.666C7.4189 634.706 7.50146 635 7.38123 635.644C7.35619 635.391 7.37177 635.154 7.36468 634.909C7.32661 634.942 7.29678 635.023 7.27073 635.105C7.25861 635.235 7.25056 635.317 7.23896 635.358C7.27425 634.827 7.29709 634.321 7.29701 633.848C7.31732 633.938 7.33573 634.028 7.35988 634.11C7.61932 631.842 7.3959 629.882 7.332 627.849C7.18443 629.122 7.09991 630.46 7.10163 631.627ZM7.10415 636.875C7.03794 637.674 7.10278 638.409 7.00806 639.225C7.00417 639.241 7.00133 639.241 6.99849 639.241C7.00024 639.265 6.9983 639.274 7.00015 639.282C6.98717 639.396 6.97235 639.502 6.95184 639.608C6.97073 639.779 6.98692 639.926 7.00216 640.073C6.95805 640.816 6.82375 641.599 6.92197 642.293C7.02278 642.22 7.07383 643.371 7.22003 642.172C7.22112 642.148 7.22131 642.115 7.22425 642.099C7.22704 642.107 7.22983 642.115 7.23158 642.14C7.23476 642.083 7.23793 642.025 7.24111 641.968C7.23628 641.985 7.23249 641.985 7.22865 641.993C7.23268 641.952 7.23491 641.895 7.23903 641.838C7.23983 641.862 7.24248 641.895 7.24324 641.928C7.24973 641.789 7.25428 641.658 7.25604 641.52C7.25509 641.52 7.25509 641.52 7.25509 641.52C7.25831 641.454 7.26338 641.397 7.26565 641.332C7.3221 641.071 7.3739 640.957 7.42561 640.859C7.45366 638.648 7.51777 635.939 7.10415 636.875ZM7.89996 636.006C7.89603 636.031 7.89408 636.039 7.89209 636.055C7.89853 636.088 7.90303 636.129 7.90663 636.161C7.87244 636.177 7.83717 636.218 7.8017 636.291C7.81155 636.389 7.82149 636.471 7.82944 636.569C7.8201 636.708 7.81092 636.822 7.79576 636.822C7.79326 636.765 7.79359 636.707 7.79298 636.65C7.76968 636.748 7.74728 636.854 7.73236 636.976C7.7405 637.042 7.74613 637.213 7.74825 637.499C7.76387 637.744 7.78758 637.899 7.81789 637.899C7.81562 637.801 7.81425 637.711 7.81203 637.605C7.899 637.794 7.97072 638.161 8.00715 638.896C8.10835 638.268 8.20657 637.665 8.28881 637.69C8.18316 636.808 8.02183 637.354 8.11453 636.073C8.04242 636.097 8.03229 636.211 8.02073 636.407C7.98778 636.211 7.95118 636.153 7.91425 636.153C7.90975 636.112 7.9072 636.063 7.89996 636.006ZM8.63079 638.32C8.5597 637.357 8.46216 637.519 8.36159 637.715C8.43632 638.539 8.51471 639.225 8.63079 638.32ZM7.7466 634.536C7.75729 634.814 7.76898 635.083 7.79032 635.32C7.89479 634.619 7.90031 632.374 7.75052 633.377C7.82484 633.786 7.77724 634.153 7.7466 634.536ZM1.61347 559.464C1.35956 564.514 1.54179 570.775 1.57034 576.594C1.75242 571.192 1.5561 564.752 1.61347 559.464ZM1.47316 562.736C1.46146 561.495 1.46884 560.393 1.4442 559.259C1.36454 560.091 1.28449 562.449 1.47316 562.736ZM7.33496 643.087C7.33543 643.169 7.33505 643.234 7.33647 643.316C7.31649 643.169 7.30457 642.94 7.30268 642.613C7.28903 643.168 7.28821 643.47 7.28399 643.707C7.2999 643.903 7.31291 644.107 7.32393 644.328C7.32844 644.205 7.33942 644.107 7.34951 644.001C7.36493 644.442 7.40328 644.687 7.50754 644.508C7.53146 647.063 7.42887 651.012 7.57318 652.735C7.54962 649.144 7.7325 644.256 7.57961 641.57C7.56168 642.37 7.5475 643.178 7.51447 643.97C7.45516 643.586 7.40182 642.826 7.33496 643.087ZM1.8654 572.605C1.80002 569.528 1.98406 565.252 1.71108 562.859C1.79427 565.806 1.57586 571.428 1.8654 572.605ZM8.4142 527.902C8.4936 526.629 8.59359 525.397 8.42782 523.944C8.27873 525.151 8.4426 526.604 8.4142 527.902ZM8.03726 523.688C8.14479 522.302 8.26757 526.252 8.37049 523.707C8.31292 522.376 8.35098 521.046 8.24425 519.699C8.19773 522.155 7.9005 521.484 8.03726 523.688ZM8.6461 525.161C8.64341 523.676 8.80188 522.159 8.5803 520.696C8.45199 521.912 8.43681 525.65 8.6461 525.161ZM8.23929 474.778C8.55044 475.335 8.24466 477.267 8.3785 478.998C8.49219 477.203 8.62343 473.213 8.44394 472.975C8.53063 474.51 8.29672 473.538 8.23929 474.778ZM8.7059 451.936C8.89056 451.611 8.55509 449.218 8.77963 450.011C8.87473 450.754 8.72481 451.292 8.8887 452.093C8.99133 451.383 9.04356 451.032 9.14704 450.339C8.96654 449.139 8.79903 448.958 8.63931 449.553C8.66215 450.345 8.61994 451.087 8.7059 451.936ZM7.86612 524.618C7.91539 526.397 7.52652 528.125 7.72082 529.881C8.1318 528.423 8.12506 524.709 7.86612 524.618ZM8.24877 545.22C8.26292 545.228 8.27793 545.253 8.29304 545.261C8.36297 553.725 8.42682 561.772 8.13341 570.185C8.08771 570.389 8.04552 570.642 8.02643 570.992C8.03921 571.074 8.05284 571.172 8.06846 571.254C7.9403 570.984 7.89926 573.473 8.06259 572.911C8.00831 573.286 7.94964 573.604 7.87009 573.603C7.87218 573.407 7.86187 573.228 7.84597 573.032C7.83318 573.113 7.82238 573.178 7.8086 573.268C7.82644 573.619 7.83845 573.995 7.84853 574.378C7.84923 574.419 7.85089 574.46 7.85165 574.493C7.85377 574.615 7.85689 574.729 7.85907 574.844C7.92793 574.24 8.01317 573.914 8.09992 573.653C8.08323 575.702 8.03364 577.709 7.97567 579.692C7.94158 579.692 7.90484 579.659 7.86796 579.488C7.86539 579.928 7.86182 580.377 7.8583 580.818C7.8869 580.785 7.91773 580.696 7.9495 580.606C7.94931 580.639 7.94912 580.671 7.94798 580.704C7.89972 581.349 7.87895 582.148 7.89281 582.695C7.88442 582.997 7.88256 583.315 7.87696 583.626C7.86939 583.625 7.86266 583.642 7.85603 583.642C7.85768 583.846 7.86128 584.042 7.86577 584.246C7.85595 584.792 7.84045 585.339 7.83626 585.894C7.80719 586.008 7.78247 586.188 7.75774 586.367C7.81163 586.22 7.85887 586.564 7.90512 586.915C7.94279 585.976 7.97786 584.997 8.01194 584.026C8.10201 583.358 8.19694 582.183 8.18361 581.546C8.15775 581.758 8.13331 581.889 8.10902 581.995C8.16046 581.456 8.18074 580.901 8.18118 580.338C8.21395 580.404 8.24429 580.559 8.27009 580.845C8.34056 580.29 8.37437 580.013 8.4448 579.466C8.39658 578.642 8.36692 579.017 8.33306 579.466C8.32549 579.139 8.32664 578.78 8.32774 578.429C8.33929 578.397 8.3516 578.397 8.36444 578.307C8.34943 578.282 8.33665 578.201 8.32666 578.127C8.32601 577.752 8.32015 577.458 8.29629 577.327C8.29526 577.017 8.2983 576.658 8.30816 576.266C8.30007 576.193 8.29103 576.119 8.2781 576.062C8.27757 576.478 8.26837 576.919 8.25358 577.343C8.23085 577.506 8.21063 577.727 8.19135 577.947C8.23094 576.356 8.26498 574.74 8.29544 573.091C8.35794 572.929 8.41585 572.741 8.45535 572.464C8.45549 572.439 8.45668 572.399 8.45871 572.374C8.45961 572.382 8.45952 572.399 8.46042 572.407C8.46738 572.35 8.47344 572.285 8.47861 572.211C8.4162 572.194 8.34915 572.488 8.30412 572.577C8.31801 571.818 8.33092 571.068 8.34197 570.309C8.35173 570.26 8.36059 570.203 8.36935 570.162C8.363 570.113 8.35344 570.129 8.34416 570.096C8.42549 564.596 8.45873 558.9 8.45745 553.276C8.45716 550.567 8.48921 547.833 8.46202 545.188C8.48826 545.074 8.51482 544.903 8.54196 544.634C8.52455 544.372 8.49027 544.242 8.45083 544.184C8.41998 542.332 8.35527 540.438 8.2193 538.584C8.23358 540.682 8.26135 542.575 8.2843 544.485C8.25101 544.673 8.23244 544.934 8.24877 545.22ZM8.28261 579.996C8.2559 580.192 8.22536 580.232 8.18309 579.849C8.18328 579.816 8.18352 579.775 8.18381 579.726C8.21407 579.408 8.20542 579.106 8.23284 578.788C8.23682 578.755 8.23862 578.772 8.2435 578.747C8.24656 579.196 8.24223 579.775 8.28261 579.996ZM7.42214 554.78C7.44103 553.491 7.73524 552.244 7.66151 550.921C7.40159 551.972 7.15377 554.844 7.42214 554.78ZM7.6952 574.851C7.79239 573.937 7.7998 572.991 7.77952 572.085C7.90735 570.788 7.66848 569.529 8.06769 568.952C7.77738 566.608 8.03992 562.349 7.87259 561.002C7.72609 564.2 7.72854 567.351 7.71423 570.452C7.68277 569.84 7.65286 569.284 7.64885 568.836C7.60475 570.876 7.50568 572.924 7.6952 574.851ZM7.55633 560.51C7.40896 561.097 7.35259 561.831 7.49171 562.82C7.66523 563.106 7.68223 561.654 7.55633 560.51ZM7.89737 533.057C8.0264 535.776 7.86278 538.337 7.97079 540.762C8.05286 541.791 7.84767 542.712 7.85701 543.708C8.15912 542.893 7.81061 546.792 8.11087 545.97C7.94908 544.483 8.28914 541.221 7.97917 540.786C8.13479 538.461 8.17977 535.458 8.17201 532.569C8.08254 533.295 7.98572 531.711 7.89737 533.057ZM7.95623 577.505C7.92095 577.709 7.89713 577.896 7.8761 578.092C7.87604 578.427 7.87215 578.769 7.87015 579.112C7.9533 578.819 8.07273 578.15 7.95623 577.505ZM8.30624 561.339C8.22344 562.22 8.113 563.133 8.17012 564.056C8.24301 563.248 8.29915 562.392 8.30624 561.339ZM4.49635 134.976C4.23327 136.893 4.48429 138.992 4.398 140.958C4.53921 138.992 4.45154 136.976 4.49635 134.976ZM4.35041 148.467C4.20688 149.208 4.24992 151.894 4.37536 151.495C4.29433 150.449 4.53735 149.537 4.35041 148.467ZM10.1293 208.618C10.1859 208.822 10.232 208.708 10.2749 208.496C10.2735 208.088 10.2701 207.696 10.2687 207.288C10.2017 207.9 10.1222 208.055 10.1293 208.618ZM10.4432 192.476C10.5722 196.982 10.6158 201.675 10.6106 206.474C10.6617 206.793 10.7344 207.005 10.7874 207.324C10.7718 207.406 10.7596 207.389 10.7443 207.414C10.7828 207.463 10.8129 207.822 10.8384 208.328C10.8535 208.01 10.8753 207.684 10.9442 207.39C10.9223 204.991 10.8002 202.207 10.8032 199.913C10.7319 198.828 10.6508 199.904 10.5838 198.239C10.4999 194.933 10.6713 192.657 10.4743 188.926C10.4592 189.073 10.446 189.236 10.4346 189.399C10.4352 190.428 10.4368 191.464 10.4432 192.476ZM4.17011 172.877C4.08569 178.744 3.85951 184.562 4.0113 190.521C4.05097 186.318 4.19859 180.981 4.25214 176.672C4.26652 175.505 4.32824 173.367 4.17011 172.877ZM3.15875 365.049C3.18549 365.335 3.20186 365.613 3.21639 365.882C3.23563 365.344 3.257 364.928 3.28877 364.838C3.24717 364.34 3.2056 364.16 3.15875 365.049ZM2.88385 398.045C3.02161 398.78 2.98074 394.748 3.15762 393.647C2.94921 391.875 2.91904 396.396 2.88385 398.045ZM2.93618 380.637C3.09648 379.781 3.14108 375.382 3.16772 371.464C3.09224 374.663 3.01946 377.887 2.93618 380.637ZM9.40748 367.232C9.57801 363.65 9.57104 358.027 9.45645 355.594C9.45461 359.479 9.3337 363.323 9.40748 367.232ZM10.0522 264.36C10.0954 264.426 10.1389 264.426 10.1788 264.255C10.179 263.235 10.1581 261.945 10.1439 260.648C10.1391 260.656 10.1389 260.696 10.1351 260.705C10.1156 260.476 10.1218 260.052 10.1339 259.603C10.1304 259.072 10.1306 258.558 10.1362 258.077C10.1225 257.995 10.1018 257.962 10.0653 258.052C10.0256 259.986 10.0272 262.149 10.0522 264.36ZM9.59456 273.327C9.67414 275.107 9.36619 276.762 9.58473 278.583C9.75419 277.131 9.75468 273.638 9.59456 273.327ZM9.26651 357.797C9.28483 360.662 9.16211 363.517 9.18218 366.407C9.31759 363.812 9.439 359.234 9.26651 357.797ZM10.7126 207.495C10.6784 207.503 10.6463 207.495 10.6099 207.56C10.611 207.854 10.6112 208.147 10.6095 208.441C10.6805 208.115 10.7494 207.675 10.7411 209.584C10.7686 209.421 10.7827 209.266 10.7951 209.095C10.7667 208.613 10.7346 208.107 10.6932 207.576C10.6992 207.519 10.7058 207.519 10.7126 207.495ZM10.2469 259.554C10.2364 259.563 10.2265 259.644 10.2207 259.824C10.216 259.815 10.2114 259.962 10.2034 260.509C10.202 261.415 10.2381 261.88 10.3088 261.922C10.3545 263.505 10.382 265.13 10.302 266.99C10.229 266.834 10.1572 266.646 10.0862 266.483C10.1519 269.992 10.2788 273.405 10.4198 275.854C10.3865 271.504 10.4561 265.905 10.3746 261.685C10.4527 260.804 10.4216 260.127 10.3706 259.123C10.3476 259.343 10.3291 259.433 10.3118 259.473C10.3024 259.285 10.2971 259.073 10.2887 258.877C10.2694 259.106 10.2586 259.326 10.2469 259.554ZM10.9102 220.848C10.8743 221.158 10.8528 221.436 10.8352 221.697C10.8517 221.787 10.8741 221.844 10.9084 221.811C10.9072 221.697 10.9098 221.575 10.9105 221.452C10.8952 221.485 10.8804 221.583 10.8653 221.574C10.8884 221.338 10.9037 221.158 10.917 220.987C10.9216 220.685 10.9273 220.359 10.9331 220.008C10.9022 219.624 10.835 219.297 10.9016 217.788C10.9024 217.804 10.9043 217.804 10.9061 217.829C10.9063 217.469 10.9065 217.11 10.9085 216.759C10.8959 216.645 10.8794 216.563 10.8588 216.522C10.8252 217.412 10.8302 218.334 10.7455 219.215C10.7704 219.827 10.8182 220.391 10.9102 220.848ZM4.51599 73.5042C4.37012 74.6459 4.30028 76.0656 4.26344 77.6732C4.30924 77.1267 4.36839 76.7271 4.43611 76.4827C4.46119 76.7276 4.45905 77.2581 4.46258 77.7886C4.45003 77.9926 4.45196 78.3109 4.48996 78.7764C4.51871 78.5562 4.5368 78.3767 4.54623 78.2217C4.65688 76.7859 4.50116 75.0711 4.51599 73.5042ZM4.57182 78.8666C4.26595 81.9498 4.58014 87.9912 4.635 89.9503C4.74013 86.3762 4.67288 82.646 4.57182 78.8666ZM4.372 70.5897C4.45791 68.6885 4.47759 64.8283 4.27137 65.276C4.32751 67.3411 4.22602 69.4789 4.30786 71.5197C4.36109 71.1609 4.37536 70.8264 4.372 70.5897ZM4.52867 92.4307C4.46064 92.2427 4.47557 90.1697 4.47113 89.7943C4.27595 91.7601 4.40894 93.4747 4.62922 94.3493C4.45655 94.079 4.66604 99.2382 4.80552 99.3533C4.80917 99.3778 4.81485 99.3778 4.81873 99.3616C4.70391 96.6431 4.79136 93.6647 4.6986 90.8974C4.66856 91.6644 4.61059 92.1864 4.52867 92.4307ZM7.80945 17.0458C7.84981 16.6217 7.92797 12.6393 7.69806 12.2789C7.52953 17.1422 7.61117 21.1662 7.65391 26.0144C7.76962 23.2239 7.89457 20.3109 7.81692 17.3887C7.8383 18.107 7.88863 19.5437 7.80945 17.0458ZM6.58365 55.0957C6.55769 55.4874 6.61585 55.0959 6.58365 55.0957V55.0957ZM10.1264 123.583C10.2439 118.05 9.96383 116.221 9.77424 112.196C9.92382 116.098 9.7622 122.7 10.1264 123.583ZM10.4534 156.794C10.683 154.461 10.5483 148.168 10.6231 144.112C10.3712 144.919 10.5287 153.155 10.4534 156.794ZM11.3234 80.2445C11.4653 79.6169 11.4651 81.7552 11.5416 81.3149C11.4828 80.1802 11.5656 77.6832 11.4938 76.3525C11.5582 76.516 11.5453 75.7978 11.368 75.5111C11.5362 77.2015 11.2692 78.4976 11.3234 80.2445ZM10.3547 140.609C10.3434 140.919 10.3436 141.377 10.3568 141.703C10.3557 141.736 10.3555 141.777 10.3553 141.809C10.3226 141.556 10.2969 141.262 10.276 140.944C10.27 141.645 10.2631 142.355 10.26 143.049C10.2875 143.033 10.3152 143.001 10.3428 142.976C10.327 144.535 10.3142 146.086 10.3042 147.644C10.2904 147.579 10.2763 147.546 10.2607 147.465C10.2748 152.508 10.3226 157.471 10.2582 162.669C10.2925 163.608 10.3181 164.58 10.3408 165.551C10.3439 164.857 10.345 164.18 10.348 163.502C10.3918 163.788 10.4413 164.074 10.4538 164.205C10.5715 163.022 10.5246 161.643 10.5153 160.312C10.569 160.198 10.6077 160.386 10.6316 160.827C10.6669 160.46 10.6724 160.329 10.6688 160.297C10.7304 159.31 10.7285 158.338 10.651 157.35C10.586 159.717 10.4723 158.1 10.416 159.797C10.4032 160.532 10.4019 161.242 10.4119 161.96C10.4156 162.793 10.384 162.85 10.3503 162.784C10.3543 161.78 10.3572 160.785 10.3602 159.797C10.4048 154.101 10.4542 148.388 10.436 142.748C10.4391 142.21 10.4423 141.663 10.4473 141.124C10.4409 141.083 10.4345 141.059 10.428 141.026C10.422 139.949 10.4141 138.871 10.4024 137.794C10.3901 138.757 10.3779 139.712 10.3666 140.675C10.363 140.65 10.3584 140.626 10.3547 140.609ZM10.7938 178.318C11.0004 178.45 10.8454 175.797 10.941 174.508C10.8943 174.083 10.6943 177.183 10.7938 178.318ZM10.2965 225.081C10.0268 228.131 10.4325 228.224 10.4808 230.019C10.5577 229.653 10.5359 229.008 10.5076 228.828C10.5006 227.44 10.4426 225.359 10.41 225.261C10.3859 225.179 10.3747 226.118 10.3638 226.215C10.3167 226.003 10.2952 225.636 10.2965 225.081ZM10.2112 186.631C10.4015 187.277 10.3154 183.857 10.2867 182.771C10.3073 181.025 10.1711 185.546 10.2112 186.631ZM7.62357 38.5176C7.67577 39.3096 7.59081 39.9131 7.61043 40.6069C7.60877 40.7293 7.61814 40.909 7.65066 41.1784C7.74179 40.3302 7.80228 39.3756 7.83233 38.2822C7.74859 39.1632 7.71614 38.3958 7.62357 38.5176ZM9.4851 0.90403C9.11137 4.25622 9.2593 10.876 8.69779 12.8152C8.73119 12.1217 8.75986 11.4281 8.78483 10.7182C8.80352 12.7097 8.88327 10.7269 8.83827 9.83705C8.77974 8.66964 8.90352 6.76872 8.7715 5.86205C8.75401 7.88597 8.66621 9.7871 8.63182 11.7864C8.59885 13.7043 8.71514 15.0352 8.59113 16.4873C8.3723 19.0977 8.55531 21.8165 8.42705 24.3214C8.045 31.6971 8.47205 39.8203 8.13573 47.3106C8.07487 46.2166 7.99386 46.1426 7.89554 47.0888C7.94072 48.1093 8.00348 47.4159 8.08609 47.702C7.99439 48.8115 8.07376 49.8158 7.90527 50.6147C8.01229 48.8279 7.69664 46.9326 7.93115 45.3669C7.67108 44.9818 7.8624 42.5427 7.72982 41.2442C7.44484 45.4539 7.21681 49.9658 7.20832 54.8301C7.03075 50.8544 7.13725 46.0724 7.02323 41.9175C6.77992 43.2056 7.12733 45.3377 6.88397 46.634C6.70011 42.4379 7.10374 35.7478 7.2889 31.7661C7.18371 32.9163 7.04972 36.8902 6.93191 37.2812C6.81752 34.3261 7.03286 35.723 6.99173 33.8456C7.22426 30.6721 7.30691 26.8938 7.45395 23.4424C7.34414 25.0577 7.24892 26.7711 7.11516 28.272C7.15676 27.3092 7.18799 26.3381 7.2109 25.3344C7.14325 26.3787 7.0747 27.4148 7.00426 28.4509C6.99465 24.0926 7.38355 20.2508 7.33426 15.876C7.13455 17.3194 7.10389 19.4902 6.98324 21.3421C6.93838 22.0519 6.87534 22.631 6.79251 23.0304C6.55275 24.1962 6.58737 25.4043 6.52716 27.7707C6.34696 34.7967 6.17798 41.8473 6.05611 48.9389C6.0262 48.547 6.0757 40.8755 5.77496 44.7014C6.09842 46.8824 5.80268 49.8515 5.85514 52.7083C6.2525 49.3644 5.85232 63.7427 5.89807 64.6652C5.86828 63.4408 6.13709 65.899 6.15607 66.2174C6.08176 66.6169 6.00476 66.9918 5.92701 67.3342C6.18055 69.0006 6.41058 69.8262 6.39092 73.0336C6.30404 70.0705 5.99129 75.1451 5.88213 75.6749C5.86914 73.357 6.22925 72.5022 6.11702 70.151C5.9022 70.2885 5.86262 73.0142 5.71017 73.9845C5.40718 75.9252 5.81419 75.6338 5.63472 77.6649C5.56739 76.3832 5.5692 78.8316 5.50415 78.7823C5.41381 78.6838 5.59503 76.8404 5.50747 75.7789C5.45891 76.6356 5.39227 77.3452 5.30375 77.9078C5.0557 79.3591 5.2903 79.7278 5.163 82.0693C4.98685 85.3166 5.19412 90.2066 5.18258 93.9689C5.16829 98.2047 5.10953 102.432 5.12279 106.652C5.13044 108.749 5.15613 110.839 5.2135 112.855C5.3235 113.802 5.41923 112.652 5.47713 114.415C5.34815 115.745 5.3188 112.986 5.19713 113.712C5.0157 116.567 4.92933 119.684 4.88164 122.826C4.8452 125.34 4.82849 127.878 4.79011 130.4C4.74541 133.354 4.62952 134.063 4.90889 135.036C4.8309 135.419 4.75129 135.753 4.67084 136.071C4.85423 138.561 5.04496 133.951 5.09461 134.368C5.10639 134.784 5.11234 135.225 5.10787 135.666C5.28778 134.532 5.38919 135.006 5.46615 133.015C5.52599 136.068 5.02781 135.755 4.9164 138.456C4.97414 137.811 5.1869 138.514 5.06585 139.46C4.93467 140.194 4.8573 138.847 4.73078 139.108C4.77168 140.862 4.77311 141.915 4.93836 143.132C4.92747 143.214 4.91837 143.312 4.90828 143.418C4.88661 143.075 4.86465 142.781 4.84487 142.601C4.81369 143.238 4.80448 144.005 4.80085 144.788C4.75172 145.743 4.73791 146.812 4.79176 147.645C4.78987 147.808 4.78626 147.939 4.78446 148.086C4.54752 148.443 4.47171 154.458 4.4572 160.84C4.20035 160.39 3.93611 160.233 3.96438 163.016C4.07735 161.507 4.27281 161.28 4.45556 161.77C4.4537 162.252 4.45557 162.742 4.45471 163.215C4.26865 165.401 4.32833 167.67 4.30766 169.915C4.39211 168.911 4.43405 167.891 4.45894 166.871C4.46899 170.993 4.49302 174.503 4.49998 175.743C4.52004 179.285 4.54184 182.852 4.56175 186.419C4.55248 186.223 4.54614 186.011 4.5417 185.798C4.47523 187.128 4.53441 188.508 4.58228 189.879C4.58698 191.022 4.59073 192.165 4.59642 193.299C4.58993 193.438 4.58718 193.585 4.57695 193.715C4.46032 192.768 4.65439 190.019 4.45017 190.287C4.44961 194.278 4.54443 199.289 4.10863 201.107C4.07096 200.584 4.1249 200.103 4.06076 199.572C3.98537 200.159 3.94776 200.437 3.87336 201.016C3.84424 202.436 3.95857 201.506 4.03063 202.951C4.13159 202.527 4.23995 201.646 4.3273 201.932C4.16764 203.327 4.04294 202.951 3.88794 204.036C4.02216 205.864 4.27 202.177 4.42191 203.084C4.33718 203.81 4.49354 204.602 4.37567 205.328C4.23828 203.556 4.24618 206.584 4.06132 207.105C4.11911 207.75 4.14859 208.379 4.14108 209.015C4.33371 207.164 4.43718 209.556 4.57128 210.593C4.56683 210.707 4.55953 210.822 4.55328 210.92C4.44406 211.947 4.32181 211.8 4.31549 212.559C4.23982 212.868 4.15837 213.194 4.08071 213.684C4.24524 213.562 4.33764 214.281 4.39191 215.367C4.28595 216.647 4.14151 217.708 3.99989 217.633C4.04397 219.331 4.17644 216.753 4.22046 218.459C4.03553 219.478 4.23779 221.332 4.06428 222.18C4.22035 221.887 4.17367 224.694 4.11261 225.583C4.02254 225.762 3.934 225.843 3.84228 226.145C3.84338 225.631 3.84828 225.116 3.84271 224.61C3.78891 225.067 3.76294 225.785 3.75297 226.52C3.7462 226.544 3.73952 226.552 3.73554 226.585C3.73871 226.691 3.74515 226.724 3.7504 226.797C3.7426 227.972 3.77585 229.091 3.82869 229.124C3.82894 228.593 3.83298 228.063 3.83797 227.532C3.93687 227.786 4.05683 227.027 4.12818 228.595C4.12441 229.566 4.1407 230.831 4.14965 232.219C4.10168 232.488 4.07203 232.7 4.04376 232.838C4.02962 232.34 4.01235 231.891 3.98964 231.565C3.9963 232.046 3.99533 232.536 3.99158 233.018C3.95332 233.083 3.909 233.05 3.83036 232.894C3.85795 233.523 3.82402 234.143 3.91018 234.796C3.92312 234.364 3.95035 234.078 3.98374 233.874C3.94374 236.347 3.8243 238.803 3.87028 241.309C4.04876 239.123 4.09854 235.785 4.05809 233.467C4.06382 233.459 4.06874 233.426 4.07267 233.402C4.07395 233.508 4.07148 233.606 4.0774 233.728C4.10296 233.728 4.13066 233.688 4.15647 233.647C4.1629 235.467 4.15071 237.393 4.07244 239.123C4.13609 239.899 4.16795 240.282 4.23165 241.05C4.24809 242.291 4.25889 243.523 4.27253 244.755C4.25398 247.449 4.23724 249.668 4.2286 250.338C4.18497 253.757 4.10731 257.168 3.95763 260.424C4.11501 260.555 4.18401 263.012 4.17993 263.061C4.18248 264.898 4.03938 271.083 3.9933 271.352C4.19602 272.153 4.08779 274.634 4.01719 276.184C3.97867 277.106 3.91809 277.914 3.83625 278.631C3.88292 280.533 3.90089 282.484 3.90646 284.451C3.91611 287.667 3.89621 290.915 3.93725 294.106C3.98122 297.444 4.08974 298.971 3.98462 302.219C3.91902 304.21 3.48833 317.649 3.5966 318.246C3.86539 319.733 3.53939 322.857 3.50616 325.468C3.48533 326.929 3.50455 328.341 3.56483 329.696C3.61887 330.496 3.71727 328.726 3.7762 329.338C3.77368 329.608 3.77584 330.048 3.78506 330.579C3.73887 331.517 3.70855 332.007 3.69197 332.088C3.67985 334.977 3.68813 337.94 3.71133 340.944C3.73657 339.377 3.76001 337.794 3.78227 336.251C3.76514 334.48 3.7759 332.799 3.79508 331.134C3.8111 332.122 3.84065 333.387 3.87308 334.807C3.84696 335.713 3.82217 336.717 3.80494 337.884C3.79313 338.61 3.77573 339.32 3.76671 340.054C3.74136 340.666 3.7197 341.295 3.6952 341.923C3.69947 341.678 3.70184 341.433 3.70711 341.18C3.61385 340.608 3.52392 339.792 3.42525 341.121C3.47708 342.95 3.43091 344.533 3.39772 346.165C3.42693 346.19 3.44416 346.32 3.45339 346.525C3.46236 345.635 3.47531 345.039 3.52993 345.578C3.53125 347.137 3.51203 348.647 3.48343 350.14C3.48636 350.287 3.4856 350.418 3.48858 350.557C3.55711 348.549 3.60864 346.37 3.65389 344.134C3.68535 343.449 3.71345 342.853 3.7422 342.307C3.73134 342.87 3.71958 343.425 3.70479 344.012C3.61507 346.893 3.52525 349.79 3.43609 352.735C3.43107 352.784 3.42685 352.858 3.42458 352.923C3.34436 356.285 3.25267 359.827 3.29128 363.434C3.39001 361.77 3.30603 359.77 3.43558 358.179C3.54202 361.036 3.36931 363.369 3.36932 365.965C3.35507 365.81 3.34405 365.589 3.3317 365.434C3.30767 366.144 3.2862 366.903 3.26448 367.703C3.27535 368.274 3.29451 368.886 3.35883 369.548C3.52804 367.002 3.40906 364.023 3.5511 361.428C3.3885 371.604 3.1965 381.789 3.20242 391.974C3.28868 389.2 3.18713 383.233 3.33886 382.385C3.3535 386.368 3.34462 398.602 3.11093 395.32C3.01593 400.078 2.93761 406.198 2.85992 411.56C2.87219 411.568 2.88156 411.585 2.89477 411.593C2.90241 414.017 3.18768 416.736 2.74404 418.113C2.80648 419.909 2.77896 421.541 2.88186 422.57C2.90626 423.582 2.90026 424.611 2.83242 425.687C2.85475 424.782 2.87221 423.9 2.86225 423.011C2.71343 424.658 2.60478 428.347 2.77181 428.772C2.77482 427.932 2.79677 427.091 2.81867 426.259C2.88525 426.047 2.90782 426.561 2.91533 427.059C2.82279 429.287 2.75047 431.457 2.96121 431.532C2.88225 430.944 2.97523 428.48 3.04968 429.19C3.07774 429.737 3.09055 430.3 3.09674 430.863C3.06724 430.888 3.03954 430.928 3.00753 431.059C3.02319 431.296 3.04222 431.443 3.0596 431.549C3.01634 432.307 2.96736 433.074 2.9269 433.841C2.71646 433.228 2.46 434.01 2.26871 432.548C2.3709 430.778 2.49492 428.999 2.47826 427.31C2.06786 429.968 2.35901 430.867 1.99804 432.032C2.21508 433.788 2.29999 436.115 2.3288 438.319C2.3278 438.327 2.3278 438.327 2.32492 438.335C2.32776 438.335 2.3287 438.335 2.3305 438.351C2.33484 438.743 2.33829 439.127 2.34083 439.502C2.32846 440 2.32319 440.416 2.32881 440.751C2.32649 440.824 2.32659 440.808 2.32872 440.767C2.33269 440.898 2.33581 441.012 2.34187 441.11C2.34024 441.714 2.33596 442.285 2.33017 442.791C2.36356 442.261 2.39432 440.074 2.4924 440.629C2.47119 442.155 2.44783 444.049 2.73477 443.561C2.61509 444.76 2.59275 445.992 2.6178 447.216C2.60118 447.306 2.59033 447.379 2.56898 447.469C2.6013 447.771 2.62691 448.09 2.65152 448.416C2.67305 448.947 2.69741 449.477 2.72557 450.008C2.68181 450.367 2.62398 450.864 2.54161 451.672C2.61881 454.023 2.61674 456.488 2.58309 459.009C2.53729 459.229 2.49141 459.466 2.43321 459.702C2.46327 461.367 2.46548 463.098 2.45984 464.877C2.44908 465.26 2.4421 465.644 2.43144 466.011C2.43049 466.011 2.43049 466.011 2.43049 466.011C2.43035 466.036 2.43035 466.036 2.4303 466.044C2.38924 467.725 2.35121 469.373 2.32962 470.964C2.32223 470.932 2.31689 470.875 2.30941 470.858C2.37697 472.262 2.1672 471.372 2.10377 472.506C2.39058 473.013 2.0857 474.791 2.19578 476.375C2.23685 475.828 2.28219 475.037 2.31715 474.237C2.3214 474.809 2.3246 475.396 2.33845 475.943C2.32146 477.232 2.30934 478.497 2.30296 479.754C2.2004 481.264 2.23193 482.839 2.28751 484.512C2.28256 485.361 2.28134 486.218 2.28117 487.059C2.17459 488.609 2.1647 489.98 2.18904 491.327C2.06758 492.991 2.11435 494.713 2.26229 494.192C2.27018 494.461 2.27524 494.73 2.27926 495.016C2.26173 496.722 2.24089 498.346 2.17819 500.002C2.27043 501.235 2.33644 502.582 2.38672 504.027C2.39187 504.443 2.39787 504.876 2.40302 505.292C2.14055 507.266 2.24994 506.695 1.92467 509.37C1.88595 509.027 1.91844 508.652 1.89492 508.301C1.65032 511.27 2.17412 508.653 2.17412 508.653C2.17412 508.653 2.07971 510.065 2.16321 510.686C2.31561 509.56 2.35008 508.361 2.40034 507.537C2.41274 507.684 2.42703 507.831 2.43849 507.978C2.44104 508.19 2.44553 508.394 2.44803 508.614C2.36022 509.544 2.18572 510.237 2.27748 511.715C2.40211 511.291 2.32144 509.372 2.46384 510.124C2.35316 511.078 2.30113 513.829 2.46558 513.397C2.4524 512.573 2.46114 511.724 2.47939 510.867C2.49692 512.083 2.51156 513.307 2.53013 514.507C2.49072 520.775 2.51532 527.109 2.54499 533.385C2.54096 533.426 2.53883 533.466 2.53391 533.499C2.53615 534.25 2.5403 535.001 2.54354 535.744C2.51419 535.417 2.47125 535.311 2.39671 535.751C2.37632 538.109 2.35574 540.501 2.33706 542.892C2.31302 542.304 2.28411 541.741 2.24919 541.235C2.14937 551.689 2.24277 562.136 2.36326 572.486C2.32929 576.036 2.38836 579.545 2.45633 582.99C2.48061 586.295 2.4949 589.528 2.50284 592.711C2.42706 593.363 2.33978 594.04 2.32087 594.685C2.39649 594.383 2.45065 594.514 2.50761 594.653C2.50742 594.686 2.50817 594.718 2.50789 594.767C2.46071 595.387 2.46192 595.991 2.50953 596.595C2.50843 597.11 2.50926 597.616 2.5091 598.13C2.49981 598.424 2.49242 598.717 2.48223 599.003C2.48384 599.052 2.48828 599.101 2.48994 599.142C2.4272 602.267 2.42204 606.397 2.36532 609.302C2.35261 610.02 2.23688 611.676 2.2154 612.598C2.26952 612.574 2.30929 612.738 2.33329 613.007C2.36525 612.885 2.39925 612.738 2.44812 612.477C2.44604 612.51 2.44585 612.543 2.44556 612.592C2.44523 612.649 2.44499 612.69 2.44466 612.747C2.43895 613.4 2.43046 614.044 2.42475 614.697C2.41352 615.162 2.40607 615.627 2.39393 616.084C2.40189 616.019 2.40511 615.954 2.41127 615.872C2.40614 616.264 2.39863 617.064 2.39863 617.064C2.39863 617.064 2.52505 614.224 2.55228 612.804C2.58114 613.376 2.60886 613.98 2.63564 614.584C2.62447 615.849 2.61662 617.032 2.67672 618.094C2.51498 618.06 2.4341 619.912 2.2401 618.916C2.22028 618.418 2.45591 616.175 2.22753 616.851C2.18436 617.756 2.16114 618.328 2.14626 618.768C2.15209 618.744 2.15517 618.703 2.16009 618.67C2.16031 619.119 2.14813 619.584 2.14456 620.033C2.15402 620.36 2.17167 620.743 2.19187 621.339C2.40036 619.202 2.5692 619.481 2.75047 618.764C2.67214 620.501 2.66147 621.195 2.7112 622.248C2.66036 621.873 2.6026 621.546 2.50736 622.288C2.36464 624.189 2.82704 622.845 2.69239 624.011C2.61173 623.39 2.51364 624.459 2.46158 625.103C2.47302 625.577 2.4551 626.213 2.44272 626.874C2.49258 626.768 2.52488 626.589 2.50349 626.197C2.64002 625.521 2.55282 626.508 2.5822 627.153C2.58211 627.169 2.58116 627.169 2.58116 627.169C2.58116 627.169 2.58211 627.169 2.58305 627.169C2.59143 627.357 2.61126 627.528 2.6516 627.594C2.56929 628.067 2.50267 628.123 2.44354 628.033C2.44968 628.278 2.45877 628.507 2.48438 628.662C2.3409 629.232 2.35162 628.53 2.35846 627.845C2.29137 627.657 2.22528 627.461 2.14161 627.68C2.11369 627.272 2.1618 627.142 2.23036 627.077C2.21907 626.253 2.40514 625.201 2.32514 624.466C2.36885 624.442 2.39683 624.515 2.41998 624.605C2.42008 624.426 2.41445 624.254 2.38515 624.083C2.28079 624.115 2.17222 624.22 2.06782 624.26C1.78587 632.657 1.37188 640.8 1.77548 649.208C1.93609 647.487 1.86847 646.091 1.8172 644.654C2.15106 646.999 1.68424 654.945 2.26498 657.014C2.09028 658.229 2.33332 660.883 2.53998 662.63C2.73375 660.583 2.40156 659.251 2.67435 657.13C2.57357 660.77 2.97337 663.824 2.63801 667.903C2.73584 668.989 2.82075 670.181 2.89277 671.471C2.95812 671.145 2.96733 671.676 2.93573 672.222C2.95201 672.516 2.96246 672.835 2.97775 673.137C3.12798 673.195 3.28361 673.139 3.42797 673.392C3.70748 672.717 3.5677 670.218 3.73425 670.889C3.78404 671.444 3.85165 671.542 3.91836 671.632C3.92249 672.873 3.56271 677.89 3.94936 676.383C3.84498 675.607 3.89805 672.84 4.05693 670.768C4.1622 671.715 4.31879 671.333 4.4586 671.391C5.27195 666.866 6.38604 668.252 7.28509 664.943C7.41709 659.525 7.50586 653.886 7.33548 648.841C7.35263 648.661 7.37522 648.523 7.42517 648.564C7.41046 648.164 7.3633 648.131 7.31429 648.253C7.29186 647.714 7.27039 647.176 7.24313 646.653C7.30688 646.115 7.29321 645.535 7.27581 644.948C7.24034 645.184 7.20865 645.42 7.18066 645.673C7.09922 644.375 7.00239 643.118 6.86616 641.958C6.84577 635.551 6.8657 628.565 7.02386 622.396C7.06681 622.012 7.06512 621.653 7.05396 621.294C7.06714 620.821 7.08121 620.356 7.09624 619.891C7.12082 619.736 7.15108 619.581 7.19559 619.418C7.17122 619.05 7.1592 618.675 7.15386 618.291C7.20737 616.912 7.26901 615.599 7.34059 614.367C7.33308 613.869 7.32751 613.363 7.32393 612.84C7.34744 612.057 7.35286 611.29 7.31941 610.531C7.32226 608.907 7.336 607.201 7.35466 605.463C7.40701 603.145 7.43137 600.917 7.42695 598.754C7.44729 596.241 7.45504 593.776 7.42477 591.499C7.47407 591.001 7.48176 590.495 7.4122 590.731C7.39127 589.45 7.35684 588.209 7.30191 587.074C7.34065 586.765 7.36807 586.446 7.39739 586.128C7.41443 586.128 7.4266 586.153 7.45047 586.12C7.44469 585.974 7.44555 585.827 7.44167 585.68C7.68704 582.58 7.50537 579.632 7.6852 576.565C7.65783 576.711 7.64182 576.858 7.62197 577.013C7.65014 575.757 7.65132 574.581 7.57569 573.585C7.45296 575.143 7.53746 578.514 7.28925 580.317C7.26601 579.917 7.24756 579.508 7.23295 579.092C7.30527 578.383 7.2301 577.631 7.21834 576.888C7.23364 576.538 7.25818 576.228 7.30113 576.007C7.21303 575.525 7.16187 574.88 7.13685 574.138C7.19869 572.628 7.33083 569.944 7.14778 570.155C7.21449 567.323 7.33892 564.337 7.18453 562.72C7.2027 564.311 7.23807 565.879 7.03754 567.461C6.71927 555.951 7.73777 544.507 7.81376 532.942C7.63517 534.174 7.59795 537.144 7.29246 535.779C7.31209 535.012 7.31642 534.27 7.33482 533.388C7.37651 532.736 7.38027 532.091 7.37457 531.446C7.46196 526.044 7.41049 520.257 7.54412 515.532C7.6566 518.814 7.61424 514.227 7.79599 514.562C7.75836 517.117 7.68965 520.291 7.836 523.287C7.9649 519.697 7.92213 515.828 7.92493 512.751C7.98768 512.384 8.03712 512.026 8.00215 511.691C7.97767 511.666 7.94982 511.731 7.92416 511.747C7.91845 506.883 7.8367 502.067 7.99832 497.09C7.99159 498.73 8.05053 500.314 8.03812 501.954C8.05868 501.514 8.07351 501.081 8.0884 500.641C8.11125 501.269 8.14499 501.816 8.23235 501.613C8.21324 501.156 8.23655 499.27 8.13584 499.164C8.25826 494.088 8.06353 489.321 8.03245 484.26C8.02473 482.987 8.14717 481.478 8.14329 480.033C8.12924 475.136 7.99313 470.385 7.96174 466.19C8.03396 465.66 8.12176 465.22 8.23161 464.894C8.07303 462.535 8.2127 459.695 8.34598 456.978C8.34702 457.125 8.34711 457.272 8.35771 457.403C8.35819 457.158 8.35953 456.929 8.35996 456.693C8.48907 454.041 8.59938 451.528 8.4199 449.666C8.49096 445.439 8.61021 441.718 8.70756 437.205C8.59667 437.384 8.49309 436.796 8.38975 436.33C8.47246 433.515 8.56076 430.716 8.64428 427.925C8.71995 427.615 8.79548 427.33 8.86916 427.2C8.84487 430.064 8.58811 432.846 8.70638 435.785C8.84283 431.55 9.23839 425.431 8.97808 422.328C8.93865 423.405 8.83368 424.841 8.71306 425.55C8.80004 422.49 8.87652 419.447 8.92538 416.427C8.76187 415.724 8.89466 414.876 8.73299 414.182C8.84639 409.677 8.91879 405.221 8.95033 400.79C8.89615 401.149 8.85523 401.507 8.818 401.883C8.81692 401.581 8.80789 401.344 8.78294 401.238C8.7692 400.022 8.74386 398.846 8.70095 397.76C8.78293 394.423 9.0231 389.454 8.85588 387.6C8.83707 387.902 8.81836 388.188 8.79875 388.465C8.79884 388.449 8.79908 388.408 8.79927 388.375C8.71764 388.571 8.71374 389.077 8.71353 389.599C8.69018 389.868 8.66773 390.146 8.64722 390.415C8.60691 389.37 8.60532 386.073 8.6047 386.179C8.61779 383.934 8.68036 381.813 8.72262 379.601C8.82227 375.831 8.81782 367.18 9.13376 364.644C8.90211 358.089 9.17267 350.508 9.3466 343.906C9.25667 344.387 9.21167 347.88 9.10203 347.357C9.19897 322.302 9.22508 297.214 9.41582 272.151C9.41676 272.151 9.41676 272.151 9.41681 272.143C9.41681 272.143 9.41691 272.126 9.41596 272.126C9.42495 270.91 9.43394 269.694 9.44297 268.47C9.48929 267.997 9.54844 267.761 9.60638 268.055C9.40508 264.74 9.76057 261.592 9.78426 258.344C9.57167 253.878 9.72768 249.537 9.84028 245.172C9.78515 245.53 9.73244 245.799 9.69657 245.293C9.70554 244.567 9.71253 243.857 9.7233 243.147C9.72823 242.788 9.73412 242.429 9.73995 242.078C9.75006 241.482 9.76011 240.894 9.76728 240.315C9.8116 237.426 9.85492 234.545 9.90587 231.656C9.95416 228.898 9.90233 226.906 9.88617 224.646C9.91 221.21 9.94643 217.888 10.0282 214.747C10.002 214.697 9.98261 214.608 9.96533 214.485C9.97714 212.624 9.98809 210.747 9.99516 208.886C10.0254 208.413 10.0461 207.94 10.0338 207.458C10.0196 207.613 10.0076 207.719 9.99761 207.817C9.99834 207.205 9.99902 206.601 10.0016 205.989C10.0045 205.989 10.0074 205.981 10.0093 205.981C10.0225 206.642 9.9838 207.425 10.0743 206.838C10.0607 206.585 10.0716 206.332 10.0873 206.071C10.1163 206.137 10.1434 206.202 10.1704 206.276C10.1723 206.602 10.1733 206.929 10.1827 207.255C10.2007 206.929 10.2213 206.643 10.2453 206.423C10.2519 206.431 10.2586 206.423 10.2652 206.423C10.2464 201.689 10.2467 196.931 10.2566 192.149C10.2632 192.32 10.2688 192.5 10.2755 192.647C10.4633 191.301 10.2303 189.202 10.3637 187.75C10.246 187.488 10.2127 189.284 10.2308 190.9C10.1809 188.892 10.2061 187.17 10.2036 185.334C10.2002 184.942 10.1978 184.542 10.1944 184.15C10.1853 183.269 10.1642 182.354 10.1208 181.342C10.1157 181.726 10.1023 182.077 10.0733 182.346C10.0681 181.619 10.0628 180.893 10.0623 180.167C10.058 180.101 10.0537 180.028 10.0503 179.962C10.0618 178.632 10.0743 177.302 10.0943 175.98C10.0945 175.955 10.0945 175.947 10.0946 175.939C10.1029 176.143 10.1131 176.331 10.1318 176.535C10.1481 176.184 10.1632 175.858 10.1793 175.54C10.1769 174.324 10.1756 173.083 10.1725 171.842C10.1867 171.19 10.2009 170.537 10.2161 169.876C10.2785 167.468 10.1792 166.79 10.1663 164.456C10.1536 161.608 10.2333 159.144 10.255 156.238C10.1989 156.27 10.1661 156.548 10.1574 157.054C10.1341 156.352 10.0901 155.764 10.0295 155.282C10.0274 155.323 10.0262 155.363 10.025 155.396C10.0025 150.173 10.0344 144.696 10.0665 139.196C10.0591 139.163 10.0491 139.106 10.0398 139.073C10.11 140.347 9.88161 141.513 9.82224 142.761C9.97932 143.431 10.0251 144.345 9.92758 145.806C9.95353 144.28 9.87036 145.063 9.77802 145.634C9.80569 142.026 9.86078 138.427 9.92217 134.886C9.72981 134.419 9.71589 138.59 9.523 138.376C9.44484 138.303 9.44759 125.008 9.43638 123.196C9.4165 120.11 9.49707 116.365 9.46325 113.883C9.4444 112.569 9.54804 111.362 9.50992 110.105C9.57369 107.453 9.65447 111.624 9.64879 111.461C9.80846 108.115 9.59202 104.311 9.75481 101.08C9.72081 102.851 9.85707 102.868 10.0098 102.991C10.0493 104.338 10.0729 107.097 10.2431 107.8C10.1761 105.653 10.2469 103.409 10.2704 101.654C10.2575 102.25 10.334 105.197 10.4634 104.446C10.4522 102.316 10.3789 100.431 10.4106 98.2434C9.91351 100.012 10.3539 98.2186 10.2209 98.4464C10.5058 97.183 10.3642 93.3708 10.3302 91.4118C10.3046 89.9426 10.4196 84.3689 10.2823 84.5232C10.4036 82.8916 10.5247 83.8717 10.5186 81.6844C10.5145 79.9378 10.5146 78.1504 10.5093 76.2896C10.496 70.6091 10.4781 64.9286 10.2294 59.6712C10.0545 60.2577 9.93528 61.3833 9.85124 62.803C9.78059 61.4396 9.58386 54.4196 9.6282 53.7995C9.755 52.0292 9.77899 46.9447 9.5824 45.5806C9.64655 47.2459 9.62359 48.421 9.49883 49.8404C9.23464 35.0666 9.81442 20.4201 9.70552 5.97358C9.68572 6.44686 9.65186 6.56904 9.60509 6.30759C9.66798 4.45533 9.52055 2.61813 9.4851 0.90403ZM2.84259 649.394C2.45038 650.396 2.72814 651.32 2.63576 652.707C2.68299 653.539 2.70123 654.47 2.63018 655.449C2.37943 653.79 2.42164 651.75 2.41612 649.775C2.43083 650.175 2.47622 650.673 2.52322 651.22C2.45343 648.249 2.37768 645.327 2.46016 642.226C2.65312 643.239 2.48333 647.507 2.84259 649.394ZM1.9164 637.228C1.65933 637.627 1.86245 634.788 2.09994 633.524C2.18566 634.577 1.91847 636.061 1.9164 637.228ZM2.44903 612.322C2.39965 612.183 2.4252 611.212 2.46278 610.29C2.45882 610.968 2.45392 611.645 2.44903 612.322ZM7.11379 572.897C7.11012 572.064 7.12388 571.167 7.14436 570.253C7.22908 571.314 7.188 572.187 7.11379 572.897ZM2.90498 453.829C2.90162 453.918 2.9002 454 2.89683 454.09C2.84117 455.028 2.81567 455.828 2.88947 456.163C2.88933 456.187 2.88919 456.212 2.89094 456.236C2.88895 456.253 2.88786 456.277 2.88677 456.302C2.7977 456.472 2.72475 456.154 2.66478 455.558C2.93005 453.266 2.75647 453.477 2.78651 451.249C2.78945 451.233 2.78945 451.233 2.79044 451.225C2.83927 452.106 2.88252 452.972 2.90498 453.829ZM3.26422 420.499C3.2655 420.442 3.26867 420.385 3.2709 420.328C3.27431 420.393 3.27482 420.467 3.27738 420.516C3.27359 420.516 3.26796 420.507 3.26422 420.499ZM3.45432 417.456C3.43649 418.403 3.41766 419.358 3.39784 420.32C3.39206 420.337 3.38529 420.361 3.38041 420.386C3.3442 420.1 3.3132 419.569 3.28173 419.12C3.27442 418.263 3.26143 417.406 3.31737 416.582C3.41716 417.17 3.30575 418.737 3.45432 417.456ZM3.22186 418.508C3.19814 418.352 3.17376 418.311 3.14506 418.523C3.17455 418.826 3.19447 419.144 3.21653 419.422C3.21363 419.756 3.21281 420.058 3.21285 420.377C3.14676 420.18 3.0874 419.804 3.04538 418.89C3.09253 417.789 3.18144 416.671 3.22646 415.284C3.23244 416.369 3.22814 417.43 3.22186 418.508ZM3.45265 412.061C3.41955 412.216 3.38001 412.338 3.32499 412.354C3.42371 412.477 3.46674 412.894 3.502 413.343C3.42631 413.979 3.38059 414.836 3.32654 415.823C3.25913 415.366 3.29642 414.493 3.24462 414.607C3.25254 414.223 3.25762 413.839 3.25531 413.423C3.15894 414.035 3.06987 414.369 2.99658 414.107C3.04007 413.308 3.05326 412.508 3.04088 411.708C3.18126 411.831 3.30006 411.922 3.45265 412.061ZM3.56269 387.684C3.51664 389.732 3.53007 394.735 3.33902 394.856C3.39164 392.816 3.33878 387.756 3.56269 387.684ZM8.5099 392.201C8.45623 392.96 8.40876 393.792 8.37255 394.804C8.36911 394.42 8.37125 394.053 8.37538 393.67C8.40159 392.911 8.42865 392.168 8.44634 391.409C8.4691 391.728 8.48945 391.973 8.5099 392.201ZM7.83678 388.598C7.82258 388.598 7.80652 388.59 7.79118 388.622C7.80244 387.504 7.75034 386.533 7.65146 385.79C7.66193 385.618 7.6705 385.447 7.67804 385.292C7.6938 385.349 7.70966 385.39 7.72528 385.472C7.71625 385.235 7.71105 384.99 7.70485 384.753C7.70803 384.696 7.71035 384.623 7.71059 384.582C7.70855 384.606 7.70562 384.623 7.70168 384.647C7.69705 384.468 7.69729 384.264 7.69266 384.084C7.83385 384.232 7.84718 386.329 7.83678 388.598ZM3.93383 382.503C3.9433 383.801 3.95372 385.099 3.96319 386.396C3.94676 386.453 3.92735 386.535 3.90078 386.706C3.92937 386.837 3.94277 386.976 3.95152 387.098C3.94764 387.278 3.94375 387.457 3.9418 387.629C3.89685 388.192 3.77543 388.713 3.90245 389.342C3.90557 389.293 3.90851 389.277 3.91249 389.245C3.89318 390.281 3.87667 391.325 3.86021 392.362C3.85969 392.288 3.85827 392.207 3.8569 392.117C3.87398 391.138 3.84012 389.962 3.77852 389.807C3.75217 389.293 3.72373 388.811 3.69822 388.313C3.90431 388.698 3.90555 385.564 3.89434 382.291C3.90518 382.381 3.92095 382.438 3.93383 382.503ZM3.69515 378.127C3.48333 374.829 3.66813 368.799 3.7934 367.779C3.75408 371.272 3.75373 374.741 3.69515 378.127ZM3.88968 348.355C3.90336 348.445 3.90255 348.584 3.87413 348.91C3.87897 348.731 3.88381 348.551 3.88968 348.355ZM3.85677 350.102C3.87892 350.363 3.89146 350.485 3.91361 350.747C3.94848 350.127 3.98335 349.507 3.99928 348.886C4.00761 348.919 4.01674 348.976 4.02403 349.025C4.01757 348.185 4.00226 347.401 3.96947 346.691C3.99942 347.401 4.03147 347.589 4.06527 347.638C4.05649 349.793 4.00227 351.457 3.87431 352.126C3.85937 351.44 3.85206 350.746 3.85677 350.102ZM4.48664 346.996C4.48151 347.388 4.47629 347.796 4.47022 348.187C4.45645 347.787 4.45045 347.355 4.48049 346.914C4.48219 346.947 4.48494 346.963 4.48664 346.996ZM4.51117 329.645C4.53384 328.355 4.55647 327.074 4.58009 325.785C4.57629 331.955 4.58286 338.133 4.52049 344.278C4.50292 344.368 4.48445 344.449 4.46471 344.425C4.48199 344.547 4.4987 344.605 4.51811 344.686C4.51217 345.217 4.50444 345.731 4.49755 346.261C4.4235 346.294 4.31751 347.256 4.32236 347.884C4.32094 347.966 4.32321 348.064 4.3339 348.178C4.38358 347.942 4.39077 348.17 4.38569 348.554C4.37916 348.538 4.37243 348.554 4.36595 348.529C4.37504 348.595 4.37934 348.668 4.3837 348.734C4.38042 348.97 4.37606 349.231 4.37363 349.484C4.34654 349.909 4.30055 350.325 4.33486 350.774C4.35419 350.545 4.36754 350.366 4.3809 350.186C4.38871 350.309 4.39671 350.399 4.41143 350.472C4.42029 350.415 4.42626 350.366 4.43416 350.309C4.4206 351.011 4.40888 351.721 4.39437 352.423C4.36307 352.594 4.35208 352.692 4.38806 352.692C4.36118 353.892 4.3306 355.075 4.29623 356.258C4.19397 353.336 4.12958 350.087 4.10393 346.855C4.10995 345.337 4.12288 343.77 4.13983 342.162C4.19627 342.391 4.2406 343.395 4.26095 343.64C4.29917 337.413 4.34299 331.202 4.36322 324.975C4.55659 324.781 4.44922 328.738 4.51117 329.645ZM6.6528 90.313C6.65176 90.3293 6.65261 90.3456 6.66251 90.4355C6.68188 90.1989 6.68496 100.221 6.69404 101.911C6.32254 99.3622 6.42601 92.9886 6.60108 89.6026C6.61769 89.8394 6.63619 90.0762 6.6528 90.313ZM6.76521 56.925C6.91124 62.4104 6.59672 68.1134 6.58522 73.655C6.38155 71.5563 6.36736 66.847 6.48254 64.3095C6.47379 64.187 6.46574 64.1053 6.4576 64.04C6.38466 63.3948 6.3915 65.4679 6.33876 65.4186C6.27105 65.3366 6.31574 64.333 6.22216 64.9527C6.15399 63.165 6.34346 63.4762 6.46763 62.9709C6.38548 62.9296 6.36371 62.6031 6.40033 62.0075C6.52579 62.4163 6.56619 61.8207 6.52259 60.2045C6.51108 58.9312 6.51482 57.6418 6.53176 56.3605C6.5655 57.0707 6.5623 57.7808 6.52592 58.4988C6.58266 57.6993 6.66246 57.1692 6.76521 56.925ZM6.53314 56.287C6.54963 55.8953 6.56612 55.5037 6.58365 55.0957C7.03095 55.0412 6.50988 56.5399 6.53314 56.287ZM7.28326 33.3821C7.48294 34.3789 7.20505 36.0749 7.29688 36.8916C7.3888 37.692 7.52423 34.4445 7.5411 32.5266C7.56246 32.437 7.57189 32.1187 7.52774 31.4084C7.514 31.49 7.50197 31.6042 7.48895 31.7265C7.48786 31.751 7.48388 31.7836 7.48284 31.7999C7.42406 32.4607 7.38222 33.4643 7.28326 33.3821ZM7.39735 39.6345C7.39465 41.2341 7.19498 42.6693 7.25918 44.3265C7.36206 43.0866 7.52993 39.6352 7.39735 39.6345ZM9.76361 47.9567C9.78884 43.9577 10.1005 35.9938 9.75941 33.2578C9.9375 38.4414 9.68495 41.476 9.76361 47.9567ZM9.10203 347.357C9.24486 348.036 9.25675 307.367 9.10203 347.357V347.357Z" fill="white"/>
</svg>
