<svg width="1440" height="722" viewBox="0 0 1440 722" fill="none" xmlns="http://www.w3.org/2000/svg">
<path d="M100 408H108V416H100V408Z" fill="#A91079"/>
<path d="M912 481H920V489H912V481Z" fill="#A91079"/>
<path d="M734 700H742V708H734V700Z" fill="#A91079"/>
<path d="M820 318H828V326H820V318Z" fill="#A91079"/>
<path d="M240 788H248V796H240V788Z" fill="#A91079"/>
<path d="M961 855H969V863H961V855Z" fill="#A91079"/>
<path d="M1316 448H1324V456H1316V448Z" fill="#A91079"/>
<path d="M60 662H68V670H60V662Z" fill="#A91079"/>
<path d="M1082 682H1090V690H1082V682Z" fill="#A91079"/>
<path d="M742 95H750V103H742V95Z" fill="#A91079"/>
<path d="M300 39H308V47H300V39Z" fill="#A91079"/>
<path d="M23 166H31V174H23V166Z" fill="#A91079"/>
<path d="M308 849H326V869.25H308V849Z" fill="#A91079"/>
<path d="M1423 204H1441V224.25H1423V204Z" fill="#A91079"/>
<path d="M1087 361H1105V381.25H1087V361Z" fill="#A91079"/>
<path d="M1038 796H1046V804H1038V796Z" fill="#A91079"/>
<g style="mix-blend-mode:multiply">
<path d="M921 75C921 74.4477 920.552 74 920 74C919.448 74 919 74.4477 919 75H921ZM920 420.5H919V420.914L919.293 421.207L920 420.5ZM1016 516.5H1017V516.086L1016.71 515.793L1016 516.5ZM1016 829.5H1015V830.5H1016V829.5ZM1288.5 829.5V830.5H1289.5V829.5H1288.5ZM1288.5 788V787H1287.5V788H1288.5ZM1440 789C1440.55 789 1441 788.552 1441 788C1441 787.448 1440.55 787 1440 787V789ZM1.06996e-05 174C-0.552274 174 -0.999989 174.448 -0.999989 175C-0.999989 175.552 -0.552274 176 1.08064e-05 176L1.06996e-05 174ZM285.5 175L286.152 174.242L285.871 174H285.5V175ZM571.5 421L570.848 421.758L571.129 422H571.5V421ZM1084 422H1085V420H1084V422ZM1084 576C1084.55 576 1085 575.552 1085 575C1085 574.448 1084.55 574 1084 574V576ZM798.5 575V574H798.129L797.848 574.242L798.5 575ZM512.5 821V822H512.871L513.152 821.758L512.5 821ZM1.19093e-07 820H-1L-1 822H-1.19093e-07L1.19093e-07 820ZM1441.5 224.5C1442.05 224.5 1442.5 224.052 1442.5 223.5C1442.5 222.948 1442.05 222.5 1441.5 222.5V224.5ZM1150.5 223.5V222.5H1149.5V223.5H1150.5ZM1150.5 475H1149.5V475.449L1149.84 475.748L1150.5 475ZM1240 554.5H1241V554.051L1240.66 553.752L1240 554.5ZM1239 827.5V828.5H1241V827.5H1239ZM919 75V420.5H921V75H919ZM919.293 421.207L1015.29 517.207L1016.71 515.793L920.707 419.793L919.293 421.207ZM1015 516.5V829.5H1017V516.5H1015ZM1289.5 829.5V788H1287.5V829.5H1289.5ZM1288.5 789H1440V787H1288.5V789ZM1.08064e-05 176L285.5 176V174L1.06996e-05 174L1.08064e-05 176ZM284.848 175.758L570.848 421.758L572.152 420.242L286.152 174.242L284.848 175.758ZM571.5 422H1084V420H571.5V422ZM1084 574H798.5V576H1084V574ZM797.848 574.242L511.848 820.242L513.152 821.758L799.152 575.758L797.848 574.242ZM512.5 820L1.19093e-07 820L-1.19093e-07 822L512.5 822V820ZM1441.5 222.5H1150.5V224.5H1441.5V222.5ZM1149.5 223.5V475H1151.5V223.5H1149.5ZM1149.84 475.748L1239.34 555.248L1240.66 553.752L1151.16 474.252L1149.84 475.748ZM1239 554.5V827.5H1241V554.5H1239ZM1016 830.5H1288.5V828.5H1016V830.5Z" fill="#2E0249"/>
</g>
</svg>
