<svg width="75" height="75" viewBox="0 0 75 75" fill="none" xmlns="http://www.w3.org/2000/svg">
<path d="M67.3171 32.4465L64.2713 45.4375C61.6607 56.657 56.5016 61.1945 46.805 60.2621C45.251 60.1378 43.5728 59.8581 41.7702 59.423L36.549 58.1799C23.5891 55.103 19.5799 48.7008 22.6256 35.7098L25.6713 22.6878C26.2929 20.0461 27.0388 17.7462 27.9712 15.8504C31.6074 8.32931 37.7921 6.30918 48.1725 8.76441L53.3626 9.97649C66.3847 13.0222 70.3628 19.4556 67.3171 32.4465V32.4465Z" stroke="#2E0249" stroke-width="4.66183" stroke-linecap="round" stroke-linejoin="round"/>
<path d="M39.2836 26.5106L54.3569 30.3334M36.2379 38.5382L45.2508 40.838M46.8047 60.2623C44.8778 61.5676 42.4537 62.6554 39.5012 63.6188L34.5907 65.235C22.2524 69.213 15.7569 65.8876 11.7477 53.5493L7.76961 41.2731C3.79152 28.9348 7.08588 22.4082 19.4242 18.4301L24.3347 16.814C25.6089 16.41 26.821 16.0681 27.9709 15.8506C27.0385 17.7464 26.2926 20.0462 25.6711 22.6879L22.6253 35.71C19.5796 48.701 23.5888 55.1032 36.5487 58.18L41.7699 59.4232C43.5725 59.8583 45.2508 60.138 46.8047 60.2623V60.2623Z" stroke="#2E0249" stroke-width="4.66183" stroke-linecap="round" stroke-linejoin="round"/>
</svg>
