<svg width="602" height="899" viewBox="0 0 602 899" fill="none" xmlns="http://www.w3.org/2000/svg">
<path d="M610.664 743.404V731.215H586.645V725.235H610.893V673.766L599.047 665.123V526.713L588.149 518.772V407.665L597.037 401.129V319.27L578.508 296.493V15.9962H381.097V368.614L394.169 385.46V654.535H383.646V661.43H433.301L441.03 667.051V791.409H428.645L416.701 825.722H406.309V794.007H364.823V787.553H385.362V781.018H360.575V772.374H412.305V779.286H416.733V747.097H402.78V735.545H394.61V693.472H390.051V735.3H382.633V748.649H367.552V692.589L359.758 686.92V572.643L350.821 566.107V497.841H312.162V518.2H302.358V486.927H234.877V899.249H558.901V743.404H610.664Z" fill="#570A57"/>
<path d="M441.03 791.344H571.009L580.845 824.12H602.821L616.399 899.167H542.154L441.03 791.344Z" fill="#570A57"/>
<path d="M243.57 792.177H217.018L207.198 824.954H185.206L171.628 900H245.89L243.57 792.177Z" fill="#570A57"/>
<path d="M289.336 491.159H249.566L253.014 463.3H285.888L289.336 491.159Z" fill="#570A57"/>
<path d="M257.131 465.947L259.484 371.424L260.546 465.947H257.131Z" fill="#570A57"/>
<path d="M262.801 465.947L264.108 391.62L264.843 465.947H262.801Z" fill="#570A57"/>
<path d="M269.451 465.947L270.758 428.775L271.51 465.947H269.451Z" fill="#570A57"/>
<path d="M610.435 817.993H570.666L574.113 801.85H606.971L610.435 817.993Z" fill="#570A57"/>
<path d="M600.877 803.386L603.23 766.361L604.292 803.386H600.877Z" fill="#570A57"/>
<path d="M593.492 803.386L595.665 780.511L596.661 803.386H593.492Z" fill="#570A57"/>
<path d="M576.63 185.81L594.031 173.801V136.711H634.879L646.611 123.394H667.672L672.721 117.398H576.63V185.81Z" fill="#570A57"/>
<path d="M749.058 111.123H576.63V104.865H754.107L749.058 111.123Z" fill="#570A57"/>
<path d="M712.899 347.52L697.409 336.818V303.78H661.022L650.565 291.918H631.791L627.298 286.575H712.899V347.52Z" fill="#570A57"/>
<path d="M559.31 280.987H712.899V275.399H554.8L559.31 280.987Z" fill="#570A57"/>
<path d="M238.766 754.058L221.512 744.516V715.088H181.007L169.357 704.517H148.475L143.475 699.746H238.766V754.058Z" fill="#570A57"/>
<path d="M8.0716 694.762H247.524V689.795H0L8.0716 694.762Z" fill="#570A57"/>
<path d="M240.955 517.563H216.855V639.095L237.965 660.189L240.955 517.563Z" fill="#570A57"/>
<path d="M258.831 486.927V632.15L276.346 649.666V717.572H257.131V731.068L271.543 745.479H283.487V749.45H270.301V792.177H259.648L247.524 828.222H238.766V833.156H252.066V837.274H237.328L226.953 886.079H396.685V835.182H370.117V828.303H382.78L370.117 794.007H352.749V768.436H386.538V761.018H352.34V749.238H367.568V692.589L359.791 686.92V572.643L350.837 566.123V497.825H312.162L312.162 518.2L302.391 518.2V486.927H258.831Z" fill="url(#paint0_linear_427_199)"/>
<path d="M320.985 609.014V591.122H326.508V609.014H320.985ZM282.98 486.927V514.001H280.055V530.21H282.98V562.333H314.89V497.841L312.162 497.841V518.2H302.358V486.927L282.98 486.927ZM257.131 731.068L271.543 745.479L277.653 745.48V730.578H257.131L257.131 731.068ZM298.796 886.079V835.803H301.476V863.825H320.119V803.468H319.711V728.176H321.606V740.888H330.413V777.554H352.83V768.436H357.732V761.018H352.503V749.238H357.732V711.657H367.748V692.54L359.954 686.871V606.416H337.243V660.009H328.55V629.373H318.55V623.605H315.283V629.373H297.881V703.684H294.009V590.845H269.647V510.913H258.847V632.15L276.346 649.666L276.346 710.121H284.794V755.741H284.434V806.278H277.653V749.45H270.317V792.177H259.664L247.556 828.222H242.655V833.123H252.18V837.241H242.556V844.267H266.428V886.046L298.796 886.079ZM370.313 835.182H370.101V828.303H370.297V794.514L370.15 794.122H357.078V794.007H352.7V787.161H346.948V794.122H337.586V886.079H370.264L370.313 835.182ZM382.797 828.303L371.588 797.945V828.287L382.797 828.303ZM371.588 835.182V857.469H395.084V835.182H371.588ZM386.538 761.018H380.427V768.436H386.538V761.018Z" fill="url(#paint1_linear_427_199)"/>
<path d="M319.645 679.73H306.574V676.936H305.675V672.034H318.158V674.567H319.662L319.645 679.73ZM320.528 591.956H330.511V587.985H320.528V591.956ZM339.481 673.897H347.814V670.629H339.481V673.897ZM297.162 684.158H293.045V683.08H286.509V685.694H286.64V688.357H297.179L297.162 684.158ZM300.43 711.935H292.44V715.121H300.43V711.935ZM285.856 746.411H294.483V742.98H285.856V746.411ZM318.354 694.632H309.825V698.03H318.354V694.632ZM334.073 523.069H341.082V520.275H334.155L334.073 523.069ZM350.412 620.696H344.089V618.246H334.155V622.232H339.187V625.19H350.494L350.412 620.696ZM338.566 704.517H345.87V701.609H338.566V704.517ZM349.138 633.899H341.344V637.003H349.138V633.899ZM337.422 507.253H346.801V503.511H337.422V507.253ZM349.742 717.719H338.664V722.131H349.742V717.719ZM354.954 582.577H345.151V586.498H354.954V582.577ZM293.944 754.924H297.457V753.535H293.944V754.924ZM347.324 600.485H348.958V599.848H347.324V600.485ZM330.429 555.192H336.148V552.856H330.429V555.192ZM312.734 574.473H320.903V571.205H312.734V574.473ZM281.215 704.468H276.314V709.239H281.215V704.468ZM278.911 660.695H276.346V663.162H278.911V660.695ZM290.022 698.194H288.388V695.612H277.751V699.844H285.137V700.122H290.039L290.022 698.194ZM311.002 539.539H314.27V538.15H311.002V539.539ZM321.606 548.934H314.711V551.679H321.606V548.934ZM286.591 762.195V759.548H282.947V756.59H274.941V759.776H279.957V762.195H286.591ZM281.068 726.052H286.46V723.928H281.068V726.052ZM304.172 570.47H311.999V567.349H304.172V570.47ZM270.431 726.15H262.115V729.418H270.431V726.15ZM259.19 732.588H263.994V730.676H259.19V732.588ZM292.032 766.508H283.405V769.939H292.032V766.508ZM258.128 718.667H257.131V719.811H258.128V718.667ZM272.065 734.696V736.003H275.333V734.696H272.065ZM268.111 739.597H265.677L267.67 741.591H268.111V739.597ZM269.925 735.937V733.568H270.431V731.215H264.517V732.588H261.657V735.529L262.017 735.888L269.925 735.937ZM341.736 711.428H331.769V715.399H341.736V711.428ZM352.7 650.957H359.791V647.983H352.7V650.957ZM337.88 507.4V511.452H343.027V514.295H350.853V510.374H348.059V507.449L337.88 507.4ZM300.806 523.445H307.048V523.037H310.789V525.651H323.224V522.71H324.465V517.4H312.162V518.2L305.152 518.2V520.945H300.806V523.445ZM361.931 702.328H366.261V700.596H361.931V702.328ZM356.343 736.803V741.607H367.585V736.803H356.343ZM350.772 695.596H363.189V690.694H350.772V695.596ZM265.807 501.616V502.204H267.294V501.616H265.807ZM295.43 539.376H306.165V535.095H295.43V539.376ZM352.275 759.695H347.667V765.021H361.016V761.018H352.275V759.695ZM357.634 766.23V768.469H369.529V766.23H357.634ZM304.139 728.781H298.273V728.34H297.195V726.052H289.548V729.108H292.293V730.742H293.551V732.114H290.284V734.042H295.185V733.013H304.139V728.781ZM303.061 744.368V743.274H300.332V744.368H303.061ZM365.738 713.945V716.935H367.519V713.945H365.738ZM278.781 761.476H271.412V764.417H278.781V761.476ZM268.977 557.986H258.847V562.659H269.075L268.977 557.986ZM276.019 770.593V769.629H273.699V770.593H276.019ZM341.017 544.506H349.187V541.239H341.017V544.506ZM338.55 566.679H342.488V565.045H338.55V566.679ZM347.226 556.45H341.703V558.64H347.226V556.45ZM353.092 571.156H350.379V572.234H353.092V571.156ZM345.592 537.497H350.935V532.873H345.592V537.497ZM338.092 548.215H347.193V544.588H338.092V548.215ZM334.547 659.682H337.815V658.391H334.547V659.682ZM331.638 597.593H343.958V592.691H331.606L331.638 597.593ZM358.663 604.668H359.807V603.034H358.663V604.668ZM352.34 641.79H357.797V639.601H352.34V641.79ZM353.321 645.63H358.958V643.392H353.321V645.63ZM330.789 707.932V707.376H329.383V707.932H330.789ZM356.523 676.348V678.374H359.791V676.348H356.523ZM335.135 627.02H327.88V629.912H335.135V627.02ZM340.903 607.984H339.416V611.334H347.814V611.236H353.549V606.187H340.903V607.984ZM352.798 616.056H355.902V614.814H352.798V616.056ZM345.02 526.909H350.641V524.671H345.02V526.909ZM310.414 699.909H305.741V701.772H310.414V699.909ZM314.891 766.23H310.381V768.028H314.891V766.23ZM305.577 699.321H299.041V701.935H305.577V699.321ZM306.607 691.74H304.597V690.972H300.937V691.74H294.107V696.641H306.607V691.74ZM310.365 724.124H315.266V723.242H317.717V718.552H305.937V723.242H310.397L310.365 724.124ZM318.91 727.31H313.502V729.467H318.91V727.31ZM318.273 775.07H308.126V779.106H318.273V775.07ZM315.479 739.679V740.758H318.028V739.745L315.479 739.679ZM273.323 595.893H268.879V597.674H273.323V595.893ZM319.335 707.164H307.897V711.723H309.531V712.017H312.668V711.723H319.286L319.335 707.164ZM279.369 644.944V641.856H271.608V644.911L279.369 644.944ZM270.758 592.658H266.575V594.292H270.758V592.658ZM290.463 770.168H276.967V775.527H290.447L290.463 770.168ZM268.454 562.757H258.847V567.169H268.454V562.757ZM298.96 786.605H300.202V783.485H292.359V784.318H289.94V787.913H298.96V786.605ZM305.332 717.082H301.166V718.716H305.332V717.082ZM283.209 718.716V715.905H276.346V717.621H276.183V718.716H283.209ZM350.053 499.377H350.853V497.907H350.053V499.377ZM312.472 516.256V516.615H320.168V513.478H318.763V513.119H316.41V509.361H312.195V516.19L312.472 516.256ZM316.851 505.292H312.195V507.449H316.851V505.292ZM358.843 589.211H359.824V587.43H358.843V589.211ZM351.115 595.338H359.791V590.436H351.115V595.338ZM267.245 638.49H265.186L267.245 640.549V638.49ZM258.847 545.503H265.53V542.137H258.847V545.503ZM295.496 487.058H302.391L302.391 486.927H295.496V487.058ZM329.253 685.416H328.959V684.207H324.776V685.416H315.92V690.727H329.253V685.416ZM333.436 761.77H321.443V766.541H333.436V761.77ZM323.779 753.829H332.521V750.316H323.714L323.779 753.829ZM332.488 739.695H320.675V744.385H332.521L332.488 739.695ZM344.007 735.415H342.373V732.588H345.102V729.124H336.377V730.66H331.671V736.379H333.305V739.646H343.958L344.007 735.415ZM337.962 756.95H329.792V760.218H337.962V756.95ZM352.34 749.254H353.255V745.659H342.635V749.891H352.34V749.254ZM349.317 755.463H345.347V757.097H349.317V755.463ZM283.813 633.98H275.055V637.477H283.813V633.98ZM285.725 630.124H282.555V631.284H285.725V630.124ZM295.398 657.901H285.594V661.806H295.398V657.901ZM277.964 554.032H280.235V553.101H277.898L277.964 554.032ZM286.28 601.612H281.215V603.508H286.28V601.612ZM281.967 529.981H288.601V527.334H281.967V529.981ZM282.555 589.113H290.447V585.976H282.555V589.113ZM278.209 620.157H288.78V615.942H278.209V620.157ZM284.173 571.434V572.169H286.019V571.434H284.173ZM312.913 632.02H308.175V633.899H312.913V632.02ZM317.554 621.056H301.639V625.075H305.071V626.089H317.554V621.056ZM298.208 650.891H311.034V645.794H298.208V650.891ZM271.967 541.124H282.49V536.925H271.967V541.124ZM298.11 584.93H302.93V583.018H298.045L298.11 584.93ZM292.375 600.55H298.355V598.181H292.375V600.55ZM305.446 596.596V598.393H309.989V596.596H305.446ZM284.385 614.945H289.744V616.007H295.725V614.945H297.767V609.618H284.385V614.945ZM322.472 663.963H319.106V665.319H322.472V663.963ZM323.746 513.642H326.508V512.547H323.746V513.642ZM275.987 556.124V554.702H272.425V556.124H275.987ZM323.126 650.124H314.237V651.855H313.322V652.672H314.237V653.669H323.126V650.124ZM267.719 527.579H280.79V522.383H267.719V527.579ZM318.975 667.803H314.074V669.747H318.975V667.803ZM278.34 492.972H291.15V487.875H278.34V492.972ZM289.777 549.898H302.244V544.997H289.777V549.898ZM291.411 534.245H295.283V532.709H291.411V534.245ZM294.679 497.4H302.407V494.329H294.679V497.4ZM313.714 655.564H302.277V660.14H313.714V655.564ZM284.728 623.703H272.245V628.605H284.728V623.703ZM271.363 581.531H278.372V578.737H271.363V581.531ZM275.186 606.253H270.088V608.409H275.186V606.253ZM302.473 680.106H298.388V679.534H293.176V681.609H297.244V682.198H302.473V680.106ZM312.178 579.587H320.348V576.319H312.636V572.528H302.571V576.548H312.113L312.178 579.587ZM279.287 668.456V670.09H283.16V668.456H279.287Z" fill="url(#paint2_linear_427_199)"/>
<path d="M430.066 21.9762V248.635L439.674 258.226V328.877L428.399 340.135V415.916L438.268 425.932V463.3L427.632 471.159V656.577H459.542L467.712 664.747V744.989H478.577V750.561H467.891V791.344H458.153L445.637 826.277H485.407V829.61H444.33L424.347 883.579H596.661L581.368 834.3H551.875V831.016H580.257L571.009 791.344H558.901L558.901 743.404H610.664V731.215L586.629 731.215V725.235L610.893 725.235L610.893 673.701L599.047 665.057V526.631L588.149 518.69V407.632L597.037 401.162V319.302L578.508 296.525V21.9762H430.066Z" fill="url(#paint3_linear_427_199)"/>
<path d="M599.047 640.222L599.047 665.057L610.893 673.701V685.808H596.89V640.222H599.047ZM461.96 268.552V196.267H474.313V158.54H484.982V195.189H520.814V151.873H522.808V179.372H527.71V232.475H546.794V240.253H549.833V237.704H555.552V216.577H554.163V152.543H542.725V118.917H534.736V52.0569H547.938V21.9762H526.697V45.9296H525.896V21.9762H493.561V86.2876H489.263V70.9287H489.116V56.6155H492.123V21.9762H473.447V44.5735H460.065V21.9762H437.762V80.2911H454.101V118.541H448.726V142.054H431.961V167.723H430.066L430.066 248.635L439.674 258.226L439.674 268.552H461.96ZM610.648 731.281H595.273V743.47H610.648V731.281ZM582.25 686.593H563.411V743.47H593.067V731.281H586.645L586.645 725.235L593.067 725.235V706.853H582.266L582.25 686.593ZM458.072 829.676V845.492H478.921V849.528H472.123V881.765H482.728V854.446H484.084V838.793H480.914V829.676H458.072ZM431.863 645.32H445.441V604.047H431.863V645.32ZM442.386 834.855L424.413 883.53H442.386V834.855ZM502.841 840.639V862.273H515.128V836.718H512.743V830.052H497.384V795.069H491.861V779.285H491.012V818.206H480.881V826.277H458.006V791.278H467.81V750.561H478.479V744.989H467.614V664.747L459.444 656.577H450.163V610.043H468.594V575.861H473.071V575.028H459.019V570.829H437.778V468.055H443.628V435.05H438.35V425.932L428.547 415.916V367.062H435.262V342.7H465.653V404.544H479.917V512.008H477.94V536.516H474.476V556.124H492.646V474.868H481.208V391.799H508.527V450.18H512.547V389.724H496.73V339.399H482.221V249.648H502.727V236.102H525.602V305.74H511.697V325.348H517.857V365.215H531.141V287.49H547.938V278.127H540.781V245.792H551.418V275.578H553.379V268.667H577.234V325.593H595.583V317.57L596.972 319.204V401.064L588.083 407.6V435.376H573.737V382.012H568.378V349.775H573.737V341.18H571.466V347.455H559.637V374.398H545.487V430.033H554.735V531.615H534.539V549.784H528.004V555.519H541.663V600.011H526.958V557.758H494.279V575.077H517.988V622.804H530.438V627.232H532.072V630.418H542.546V655.074H562.904V723.405H554.424V766.41H547.039V784.612H549.457V883.563H487.368V862.322H492.123V840.672L502.841 840.639ZM521.272 722.376V711.118H516.076V693.733H515.978V686.838H509.442V660.695H498.315V665.956H475.44V667.035H483.61V707.327H506.567V722.425L521.272 722.376ZM564.293 821.473V830.787H567.349V821.473H564.293ZM557.529 36.2568H572.087V42.4494H550.078V121.695H576.221V105.16H578.574V21.9926H557.529V36.2568ZM568.035 875.148H566.401V866.374H556.32V883.563H568.084L568.035 875.148ZM572.152 513.396H588.149V460.947H572.152V513.396ZM595.289 690.579V725.235L610.893 725.235L610.893 690.579H595.289ZM563.509 791.409V796.752H572.25L571.074 791.409H563.509ZM556.597 790.478H558.901V779.416H556.597V790.478ZM598.573 555.47H588.312V575.486H585.779V525.651H562.087V581.727H559.816V611.138H564.538V647.28H586.923V630.124H589.783V586.58H598.557L598.573 555.47ZM599.047 526.68L589.047 519.344V551.516H599.031L599.047 526.68Z" fill="url(#paint4_linear_427_199)"/>
<path d="M449.771 488.691H455.196V490.538H449.771V488.691ZM518.788 392.731V391.881H516.337V392.731H518.788ZM520.765 376.391H513.396V378.908H520.798L520.765 376.391ZM509.883 356.523H514.181V355.052H509.883V356.523ZM496.567 348.876H489.884V352.144H497.008V354.546H506.24V351.409H511.142V346.507H496.6L496.567 348.876ZM506.959 438.906H503.936V439.935H506.959V438.906ZM509.622 414.397H499.982V417.664H509.622V414.397ZM502.645 364.317H514.72V360.216H502.645V364.317ZM503.822 301.198V301.754H505.455V301.231L503.822 301.198ZM487.09 404.691H498.626V400.9H487.09V404.691ZM498.675 307.946H507.955V304.776H498.675V307.946ZM508.135 334.792V333.615H515.308V329.155H502.237V331.704H500.815V332.978H502.286V333.615H504.083V334.792H508.135ZM508.282 305.005H514.573V302.865H508.282V305.005ZM516.092 302.832V301.46H512.04V302.865L516.092 302.832ZM517.22 295.414H509.197V298.143H517.22V295.414ZM499.982 447.99V443.873H494.868V441.536H480.881V443.709H476.698V445.931H473.561V447.68H478.692V447.092H486.616V446.307H487.874V447.941L499.982 447.99ZM477.27 324.253H491.78V319.351H477.27V324.253ZM459.395 437.729V434.069H456.307V432.027H454.117V431.488H444.935V432.027H443.056V436.536H448.595V437.729H459.395ZM490.015 342.961H477.613V347.193H490.048L490.015 342.961ZM490.472 417.893V417.24H495.031V413.792H484.966V417.24H486.191V418.089L490.472 417.893ZM475.31 394.724H486.829V390.803H475.31V394.724ZM484.574 487.237H478.463V486.159H474.019V487.237H470.13V492.139H484.607L484.574 487.237ZM489.753 409.135V410.328H493.25V409.135H489.753ZM497.204 405.524H494.443V406.472H497.204V405.524ZM485.979 360.64V359.121H481.518V360.64H485.979ZM457.63 408.335V407.665H455.719V408.335H457.63ZM472.826 428.187H458.905V432.925H472.826V428.187ZM458.48 396.685H448.105V400.214H458.48V396.685ZM482.842 290.414V292.293H488.348V290.414H482.842ZM466.715 264.664H476.306V261.396H466.682L466.715 264.664ZM478.855 317.129H489.378V313.551H478.871L478.855 317.129ZM471.715 242.311V243.733H475.898V242.311H471.715ZM507.171 312.309H509.05V311.672H507.171V312.309ZM451.013 500.309H436.308V504.785H435.458V508.478H446.324V505.308H450.948L451.013 500.309ZM449.297 510.798H440.638V513.739H449.297V510.798ZM448.709 523.87V522.236H443.938V523.87H448.709ZM476.796 164.88H491.502V159.978H476.796V164.88ZM469.607 175.843H472.221V178.245H481.731V174.977H477.417V173.18H469.607V175.843ZM479.035 148.066H475.604V149.276H479.035V148.066ZM490.636 185.777H492.645V185.222H490.701L490.636 185.777ZM503.707 611.808V611.236H502.073V611.808H503.707ZM509.998 591.874H497.417V596.155H509.998V591.874ZM530.177 324.531H543.052V320.152H530.177V324.531ZM510.57 605.256H498.152V609.471H510.57V605.256ZM459.918 473.12H450.114V472.221H446.111V473.594H447.745V474.215H440.981V477.695H451.193V477.319H460.081L459.918 473.12ZM475.636 574.93H487.94V570.829H475.636V574.93ZM460.931 568.737V567.218H456.454V568.737H460.931ZM510.847 585.992H496.926V590.73H510.847V585.992ZM492.188 554.49H484.982V550.552H471.584V555.11H481.633V556.973H469.46V560.241H458.415V564.555H454.853V566.858H461.601V564.767H471.715V561.908H483.773V558.15H492.188V554.49ZM462.352 558.689H463.872V558.182H462.352V558.689ZM497.841 484.803V480.554H491.093V480.228H484.312V482.531H485.358V484.803H497.841ZM505.537 529.768V525.896H492.123V528.804H494.279V529.768H505.537ZM493.511 470.947V471.6H495.456V470.947H493.511ZM467.369 534.065H458.104V537.219H467.369V534.065ZM467.173 540.471H458.807V543.33H467.173V540.471ZM460.817 548.199H462.99V547.464H460.817V548.199ZM522.775 453.676V450.703H514.05V453.676H522.775ZM536.762 335.805V337.177H534.376V341.344H546.63V337.177H544.147V335.772L536.762 335.805ZM548.346 298.224H542.513V300.201H548.346V298.224ZM532.285 473.823H519.72V478.103H532.285V473.823ZM492.645 478.398H505.145V474.149H492.645V478.398ZM539.458 277.424V278.405H542.317V277.424H539.458ZM523.233 434.282H511.893V438.138H523.233V434.282ZM519.148 496.91H523.494V495.439H519.148V496.91ZM448.889 259.37H454.297V257.54H448.889V259.37ZM475.424 270.186H487.09V266.216H475.424V270.186ZM466.307 216.936H473.659V214.388H466.307V216.936ZM472.025 240.71H480.587V237.802H472.025V240.71ZM460.588 222.639H466.96V220.417H460.588V222.639ZM444.477 270.186H439.674V273.83H442.582V277.098H454.363V273.095H445.703V270.823H447.761V272.065H457.826V268.65H454.689V267.343H444.477V270.186ZM449.101 242.181H460.719V238.227H449.101V242.181ZM454.134 250.023H458.447V248.553H454.134V250.023ZM525.651 464.836V461.813H519.246V458.692H508.985V457.99H503.838V456.16H492.972V459.869H497.547V461.911H505.341V463.464H516.779V464.836H525.651ZM484.476 337.488H479.852V342.308H494.034V339.955H496.583V335.837H484.476V337.488ZM485.571 454.559H486.289V451.814H478.234V454.559H479.509V456.094H485.571V454.559ZM480.783 461.192H467.712V465.653H480.783V461.192ZM488.691 297.13H495.227V294.908H488.691V297.13ZM489.557 287.244H493.315V285.97H489.557V287.244ZM493.103 297.293V297.947H495.031V297.293H493.103ZM482.597 276.902H491.012V274.059H482.646L482.597 276.902ZM474.427 457.5H470.048V459.003H474.427V457.5ZM458.774 519.409H460.571V518.788H458.774V519.409ZM459.902 506.338H470.571V502.694H459.902V506.338ZM429.903 377.372H428.416V381.767H429.903V377.372ZM472.924 505.766V506.812H475.979V505.766H472.924ZM466.699 458.545H459.967V460.817H466.65L466.699 458.545ZM474.493 527.579H459.787V532.595H474.493V527.579ZM476.126 512.351H467.303V515.275H476.126V512.351ZM460.424 525.945H462.483V525.242H460.424V525.945ZM441.667 382.6H433.04V385.541H441.667V382.6ZM446.765 396.227H460.457V391.456H446.471V394.365H438.448V397.191H446.765V396.227ZM433.938 387.437H428.416V389.332H433.938V387.437ZM438.971 458.088H443.497V456.536H438.971V458.088ZM445.735 477.924H439.298V480.113H445.735V477.924ZM439.363 430.213H447.81V427.337H439.363V430.213ZM463.022 444.33H449.101V449.052H463.022V444.33ZM452.533 384.349H445.376V386.8H452.533V384.349ZM446.732 302.326H444.2V299.793H439.674V304.401H446.896V302.456H457.157V298.894H446.732V302.326ZM453.529 310.185H465.114V306.247H453.529V310.185ZM443.366 357.879H457.957V352.977H443.366V357.879ZM449.51 373.205V372.584H447.647V373.205H449.51ZM460.049 285.643H470.522V282.081H460.049V285.643ZM456.699 362.062H446.896V365.33H456.699V362.062ZM453.251 334.073V334.824H455.457V334.073H453.251ZM463.055 370.493H471.094V367.764H463.055V370.493ZM472.042 386.832H476.306V385.362H472.009L472.042 386.832ZM469.999 326.377H476.29V324.237H469.999V326.377ZM463.235 256.298H469.068V254.321H463.235V256.298ZM485.538 400.247H496.24V396.603H485.538V400.247ZM469.199 303.224H472.466V302.08H469.199V303.224ZM446.079 347.275H450.621V345.641H446.079V347.275ZM463.758 345.347V346.654H467.614V345.347H463.758ZM460.261 378.728H457.843V379.545H460.261V378.728ZM474.623 379.398H460.392V384.3H474.672L474.623 379.398ZM457.974 372.323H450V375.035H457.974V372.323ZM444.82 290.431H439.674V292.832H444.82V290.431ZM461.601 313.371H447.206V317.162H446.569V319.008H451.977V318.256H461.601V313.371ZM469.264 426.112V424.821H465.457V426.112H469.264ZM470.44 408.645H473.398V405.557H464.313V408.106H460.669V411.374H470.473L470.44 408.645ZM469.493 423.089H465.048V424.592H469.493V423.089ZM468.529 442.402H474.166V441.209H476.094V437.647H465.62V441.209H468.529V442.402ZM434.804 333.73L434.347 334.203H434.804V333.73ZM439.706 290.218H450.507V286.215H439.706V290.218ZM436.732 333.256H439.837V332.275H436.732V333.256ZM445.735 369.725H435.932V372.993H445.735V369.725ZM456.699 387.829H446.405V391.342H456.699V387.829ZM453.709 376.98H450.605V378.025H453.709V376.98ZM490.325 370.444H497.024V368.222H490.325V370.444ZM499.851 419.462H491.012V422.501H499.916L499.851 419.462ZM589.717 674.698H583.884V676.675H589.717V674.698ZM529.442 83.9184H529.523V87.1863H539.327V80.6506H529.393L529.442 83.9184ZM519.916 174.258H525.863V172.298H519.916V174.258ZM573.035 347.291H577.937V345.657H573.035V347.291ZM591.923 390.786V391.669H594.505V390.786H591.923ZM569.048 362.046H575.584V359.84H569.048V362.046ZM577.789 362.617H580.682V361.686H577.789V362.617ZM540.029 70.847H529.915V74.2782H540.029V70.847ZM500.701 106.94V107.757H503.103V106.94H500.701ZM469.101 78.7552H480.93V74.7357H469.101V78.7552ZM571.94 454.934H581.58V451.667H571.94V454.934ZM498.822 113.329H494.132V117.349H505.929V113.607H513.641V108.558H498.822V113.329ZM520.275 165.451H525.7V163.605H520.275V165.451ZM504.835 103.003H511.55V100.715H504.835V103.003ZM506.648 69.8176H508.282V69.2131H506.648V69.8176ZM520.912 58.5762V59.5566H523.805V58.5762H520.912ZM581.286 521.811H587.707V519.687H581.286V521.811ZM572.969 420.818V421.39H574.603V420.818H572.969ZM596.841 546.483H583.574V551.009H596.841V546.483ZM586.041 491.73H588.149V490.57H586.041V491.73ZM581.956 557.937H593.295V554.081H581.956V557.937ZM589.472 689.24V687.524H584.391V689.24H589.472ZM572.708 506.256H581.923V503.135H572.708V506.256ZM567.267 516.484H573.803V514.279H567.267V516.484ZM576.825 542.17H571.401V537.693H557.823V542.317H568.166V545.143H576.891L576.825 542.17ZM582.61 667.525H594.717V663.407H582.675L582.61 667.525ZM567.904 450.604H579.914V446.52H567.97L567.904 450.604ZM579.897 643.686H585.404V641.807H579.897V643.686ZM557.561 480.652V483.038H564.571V480.652H557.561ZM567.136 561.859H568.77V561.319H567.136V561.859ZM556.973 489.394H571.679V484.394H556.973V489.394ZM460.571 92.7253H474.182V95.0781H485.097V91.3528H475.162V87.7908H460.669L460.571 92.7253ZM479.574 25.8813V27.5152H484.378V25.8813H479.574ZM477.074 29.9988H463.235V34.7209H471.65V36.9267H484.361V32.5967H477.156V30.1622H484.541V27.6133H477.058L477.074 29.9988ZM499.949 57.2364H514.328V52.3346H499.949V57.2364ZM520.014 34.5738V31.404H510.7V34.5738H520.014ZM445.948 36.6489V39.2305H453.562V36.6489H445.948ZM521.958 25.5872H509.475V29.8354H521.958V25.5872ZM502.351 30.2766V31.3876H505.619V30.2766H502.351ZM444.951 52.6124H455.931V48.8707H444.951V52.6124ZM545.813 755.561H548.722V753.094H541.467V755.463H537.644V758.24H545.813V755.561ZM604.864 736.82V733.699H595.714V736.82H604.864ZM609.324 733.715H610.664L610.664 731.215L609.324 731.215V733.715ZM502.727 766.067V765.707H510.782V760.904H496.665V765.707H498.054V766.067H502.727ZM500.374 713.896V711.804H494.41V711.428H487.744V713.7H494.279V713.896H500.374ZM541.222 791.491V790.609H538.624V791.491H541.222ZM507.531 40.554H515.945V42.7598H525.52V39.4919H520.324V36.2241H507.531V40.554ZM482.286 783.239V783.991H484.476V783.239H482.286ZM451.797 85.8301H447.32V87.3497H451.797V85.8301ZM457.957 75.5854H466.323V72.726H457.957V75.5854ZM447.778 98.6238V96.6631H442.582V95.4539H435.638V97.8232H441.994V98.6238H447.778ZM472.728 61.0434H481.404V58.1514H472.728V61.0434ZM463.594 45.276H465.947V44.4754H463.594V45.276ZM451.618 598.083H439.886V602.086H451.618V598.083ZM452.908 86.6634H467.189V81.7616H452.908V86.6634ZM446.079 602.985H443.53V603.851H446.079V602.985ZM523.805 711.935H512.367V715.824H523.805V711.935ZM520.847 746.836V746.117H518.788V746.836H520.847ZM525.749 725.398H529.785V724.026H525.814L525.749 725.398ZM515.03 687.818H527.236V683.733H515.03V687.818ZM477.76 82.2845H470.963V85.9608H481.78V82.5786H483.414V80.6506H477.744L477.76 82.2845ZM547.872 524H543.657V525.291H536.582V528.559H546.042V525.487H547.872V524ZM445.637 631.006H443.252V631.807H445.637V631.006ZM443.873 608.573H441.634V609.324H443.873V608.573ZM509.23 148.883V147.446H505.047V148.883H509.23ZM513.298 211.724H509.606V215.515H520.716V215.172H526.778V210.58H513.298V211.724ZM502.09 138.197H514.507V133.917H502.09V138.197ZM542.758 124.146H532.954V127.414H542.758V124.146ZM537.856 136.09V134.57H533.494V136.073L537.856 136.09ZM517.154 193.882V194.846H519.997V193.882H517.154ZM518.069 131.531V129.423H511.844V131.531H518.069ZM530.977 164.34H544.866V159.618H530.977V164.34ZM518.037 120.355H505.521V124.62H518.037V120.355ZM445.262 160.599H459.313V155.811H445.262V160.599ZM450.163 144.799H453.725V143.589H450.163V144.799ZM459.085 133.443H472.466V128.884H458.987L459.085 133.443ZM484.067 119.277V120.077H486.388V119.277H484.067ZM484.067 144.913H497.433V140.371H484.067V144.913ZM464.95 117.218V117.773H466.584V117.218H464.95ZM550.47 238.913V237.165H545.307V238.913H550.47ZM558.542 232.655H553.101V234.501H558.542V232.655ZM551.369 382.47V383.728H555.062V382.47H551.369ZM554.326 583.721H552.398V584.39H554.326V583.721ZM555.552 555.143H541.663V559.849H555.503L555.552 555.143ZM553.918 566.924H551.467V567.773H553.999L553.918 566.924ZM543.853 551.058H553.101V547.954H543.885L543.853 551.058ZM547.268 389.773H546.843V390.509H549V389.871H555.927V386.914H547.268V389.773ZM554.424 515.586V511.109H541.222V515.275H539.016V519.344H542.562V520.88H554.114V516.942H550.977V515.488L554.424 515.586ZM568.803 222.802H556.369V227.034H568.819L568.803 222.802ZM555.405 219.224H558.999V218.064H555.405V219.224ZM550.503 241.511H553.33V240.547H550.503V241.511ZM542.513 291.917H554.555V287.816H542.513V291.917ZM547.693 272.931V274.402H551.973V272.931H547.693ZM543.33 199.404H556.009V195.025H543.297L543.33 199.404ZM456.993 119.13H450.163V121.499H457.059L456.993 119.13ZM596.433 632.657H599.047V630.516H596.433V632.657ZM578.084 407.91H588.149V407.632L591.237 405.394V403.433H578.165L578.084 407.91ZM579.718 411.014V414.74H586.433V418.334H588.067V411.014H579.718ZM583.688 428.906V431.7H588.067V428.906H583.688ZM580.894 371.343H582.855V370.673H580.894V371.343ZM571.074 376.784H582.136V373.009H571.074V376.784ZM577.283 393.744H571.482V397.91H583.753V396.276H590.044V391.914H577.283V393.744ZM564.391 420.932H569.849V419.07H564.391V420.932ZM580.992 486.551H588.132V481.649H580.992V486.551ZM580.502 627.673H578.035V628.506H580.502V627.673ZM576.123 657.901H580.878V656.267H576.139L576.123 657.901ZM583.378 528.821H581.744V526.517H574.799V528.821H569.685V533.477H583.378V528.821ZM591.972 623.833H599.031V618.932H591.988L591.972 623.833ZM577.675 457.794H583.574V455.784H577.675V457.794ZM593.671 590.452H580.878V594.815H593.688L593.671 590.452ZM599.031 633.31H590.975V637.444H599.031V633.31ZM438.726 142.38H447.141V139.472H438.726V142.38ZM473.038 588.067V587.168H470.473V588.05L473.038 588.067ZM464.526 588.72H452.385V592.854H464.526V588.72ZM470.179 582.838V582.266H468.137V582.887L470.179 582.838ZM457.843 595.91V595.109H455.392V595.91H457.843ZM439.69 128.034V129.391H443.628V128.034H439.69ZM431.324 161.955H442.941V157.984H431.324V161.955ZM436.618 155.239V156.105H439.183V155.239H436.618ZM548.199 586.694H538.199V590.109H548.199V586.694ZM545.961 602.217H541.876V603.605H545.961V602.217ZM546.68 610.19H545.046V610.746H546.68V610.19ZM548.019 613.818H546.385V614.389H548.019V613.818ZM555.829 480.26H570.437V475.358H555.829V480.26ZM512.579 702.703H505.096V705.236H512.579V702.703ZM478.479 566.238H465.996V570.486H478.479V566.238ZM505.717 717.065V717.605H504.083V721.15H514.556V717.588H510.341V717.049L505.717 717.065ZM536.124 784.056H521.697V788.958H536.124V784.056ZM499.459 707.36H489.165V710.873H499.459V707.36ZM491.878 705.53H489.084V706.445H491.878V705.53ZM490.57 667.819H496.828V665.695H490.57V667.819ZM497.531 737.947H507.335V734.679H497.531V737.947ZM509.344 740.12H505.57V741.411H509.344V740.12ZM433.203 590.338H427.811V592.184H433.203V590.338ZM503.217 642.379H492.433V645.99H503.217V642.379ZM492.433 663.718H487.695V665.352H492.433V663.718ZM459.967 605.991H449.33V609.602H459.967V605.991ZM441.994 558.721H430.556V554.898H427.664V559.685H428.465V563.28H441.879L441.994 558.721ZM465.849 613.589H455.523V617.102H465.849V613.589ZM486.012 631.938H477.401V634.879H486.012V631.938ZM471.993 635.336H461.895V638.768H471.993V635.336ZM487.744 728.928H483.937V730.219H487.744V728.928ZM483.169 698.275H471.911V702.115H483.169V698.275ZM504.214 708.079H501.681V708.945H504.214V708.079ZM562.185 703.046H547.284V708.079H562.185V703.046ZM556.565 638.245H561.973V636.349H556.565V638.245ZM553.787 679.632V680.809H557.202V679.632H553.787ZM553.362 664.796H558.918V662.901H553.362V664.796ZM565.519 586.466H556.663V589.472H565.519V586.466ZM540.127 642.395H554.604V637.493H540.127V642.395ZM561.565 616.824H551.761V620.174H561.565V616.824ZM516.141 729.271H517.563V727.457H512.253V727.539H505.455V731.199H516.174L516.141 729.271ZM531.239 672.263H522.481V675.237H531.239V672.263ZM524.785 695.383H522.742V696.069H524.785V695.383ZM519.654 698.553V699.615H522.808V698.553H519.654ZM546.01 678.292H542.48V679.501H546.01V678.292ZM549.67 671.43H545.503V672.851H549.67V671.43ZM558.248 600.86H555.111V601.873H558.248V600.86ZM535.275 675.645H530.471V677.279H535.275V675.645ZM459.967 102.202V101.499H457.892V102.202H459.967ZM558.967 203.963H568.868V200.597H558.967V203.963ZM506.681 191.921H521.386V186.856H506.681V191.921ZM569.636 252.916H555.339V254.893H543.902V259.909H558.607V257.785H569.636V252.916ZM556.565 209.453H567.447V205.744H556.565V209.453ZM545.127 182.624H557.774V178.327H545.127V182.624ZM520.422 204.829H533.494V200.401H520.422V204.829ZM546.385 100.568H536.582V103.836H546.385V100.568ZM550.552 260.383V260.922H552.186V260.383H550.552ZM559.947 460.817H563.362V459.722H559.947V460.817ZM547.398 540.258H556.369V537.203H547.431L547.398 540.258ZM551.058 382.11H560.486V378.842H551.058V382.11ZM556.303 282.931V284.009H559.571V282.931H556.303ZM548.509 358.5H557.61V355.395H548.509V358.5ZM564.751 264.941H554.539V266.069H544.114V270.464H557.055V268.405H564.751V264.941ZM560.045 331.573H551.156V334.596H560.045V331.573ZM450.49 71.4352H454.657V70.0137H450.49V71.4352ZM450.637 111.81H454.853V112.055H457.32V111.81H464.591V107.071H450.637V111.81ZM448.023 116.025H456.193V113.329H448.023V116.025ZM456.323 94.6206H451.323V96.2546H456.323V94.6206ZM430.556 582.724H427.697V585.698H430.556V582.724ZM430.066 148.181H439.592V144.668H430.066V148.181ZM437.745 121.107H447.32V117.839H437.745V121.107ZM443.628 149.079H452.778V146.138H456.176V144.88H452.451V146.008H443.628V149.079ZM508.985 87.9215H516.158V85.5523H508.985V87.9215ZM452.451 80.0623H455.719V79.0166H452.451V80.0623ZM511.37 64.5237H516.403V62.8898H511.37V64.5237ZM514.377 94.4409H518.2V93.1501H514.377V94.4409ZM507.531 51.9588H517.154V48.6909H507.482L507.531 51.9588ZM510.619 156.203H503.625V158.622H510.766V157.821H518.298V155.207H510.619V156.203ZM567.643 612.069H562.904V613.703H567.659L567.643 612.069ZM480.849 101.336H477.041V103.771H484.231V103.428H494.492V98.7872H480.849V101.336ZM544.392 701.543H532.089V705.726H544.392V701.543ZM519.883 760.168H511.256V763.109H519.883V760.168ZM513.543 778.419H499.851V783.076H513.543V778.419ZM493.936 774.547H491.796V775.282H493.936V774.547ZM536.418 736.787H532.824V738.012H536.418V736.787ZM492.4 775.838H480.326V779.972H492.4V775.838ZM530.667 771.23H520.994V774.498H530.667V771.23ZM526.778 755.299H513.07V759.972H526.811L526.778 755.299ZM436.095 77.154H446.144V73.739H436.095V77.154ZM542.039 715.317H528.723V719.843H542.039V715.317ZM432.942 84.3759H443.17V80.8957H432.942V84.3759ZM498.021 515.439H493.332V517.073H498.021V515.439ZM433.693 612.249H427.632V616.873H433.693V612.249ZM427.762 632.412H427.632V635.794H427.762V632.412ZM430.066 103.248H430.556V101.614H430.033L430.066 103.248ZM430.066 108.231H441.798V106.074H452.843V101.973H440.768V103.607H430.066V108.231ZM591.972 718.323H600.485V714.124H588.067V716.902H582.675V720.055H591.972V718.323ZM453.595 69.932H461.764V67.1707H453.595V69.932ZM533.526 22.5481H538.559V21.9435H533.494L533.526 22.5481ZM595.616 352.275V355.641H597.102V348.615H595.583L595.616 352.275ZM590.714 337.569H597.119V334.971H590.681L590.714 337.569ZM474.983 25.2931H487.891V22.0252H474.983V25.2931ZM557.758 718.209H546.565V722H557.741L557.758 718.209ZM430.066 66.3374H433.04V62.3833H430.066V66.3374ZM428.922 639.176H427.599V642.885H428.922V639.176ZM573.345 659.371H564.604V662.329H573.345V659.371ZM569.048 621.366H558.836V623.637H553.526V626.17H560.927V624.846H569.097L569.048 621.366ZM562.316 728.601H552.267V732.016H562.316V728.601ZM572.545 682.099H566.009V684.338H572.545V682.099ZM583.786 725.055H570.878V729.451H583.786V725.055ZM580.518 723.732V721.232H573.165V723.732H580.518ZM581.074 701.265H570.192V704.958H581.074V701.265ZM588.41 668.685H575.061V673.227H588.41V668.685ZM581.515 329.367H587.56V327.374H581.515V329.367ZM585.077 346.409H589.26V344.987H585.126L585.077 346.409ZM591.612 361.833H596.939V359.399H591.612V361.833ZM583.623 378.172H586.972V381.702H596.939V376.065H595.076V377.568H593.933V374.66H583.623V378.172ZM564.538 336.556H556.091V341.164H569.669V339.726H578.427V335.004H564.538V336.556ZM575.175 343.092H580.714V341.213H575.159L575.175 343.092ZM577.479 369.529H588.41V365.82H577.479V369.529ZM605.877 710.301H603.606V711.069H605.877V710.301ZM571.564 582.152H561.107V585.714H571.564V582.152ZM570.78 700.383H585.567V696.478H589.472V694.06H595.828V690.383H584.962V692.753H578.427V695.35H570.698L570.78 700.383ZM578.443 574.718H578.77V570.714H567.038V574.603H564.702V579.276H578.443V574.718ZM557.807 174.209H571.074V169.716H557.872L557.807 174.209ZM596.22 651.757H588.475V654.388H596.22V651.757ZM605.386 700.922H597.952V703.438H605.386V700.922ZM457.99 57.1547H464.019V55.1286H457.99V57.1547ZM598.508 646.725H590.126V649.568H598.508V646.725ZM535.667 39.3449H542.35V37.0737H535.667V39.3449ZM495.766 76.9252H508.298V72.628H495.766V76.9252ZM528.445 44.4754H518.2V48.789H530.863V45.2433H539.703V41.4363H528.445V44.4754ZM499.639 66.1576H507.923V63.5107H510.276V60.7003H502.008V63.3309H499.639V66.1576ZM484.558 41.4363H489.655V39.7043H484.558V41.4363ZM493.07 66.7949H496.338V65.6674H493.07V66.7949ZM481.992 88.5588H494.802V84.1962H481.992V88.5588ZM558.28 138.263H566.303V135.534H558.28V138.263ZM557.137 120.633H565.535V117.773H557.137V120.633ZM551.14 105.699H560.682V102.431H551.14V105.699ZM562.349 142.38V141.106H558.64V142.364L562.349 142.38ZM537.056 92.0881H545.65V89.2123H537.056V92.0881ZM545.732 151.775H553.199V154.014H563.836V150.419H559.637V147.151H545.813L545.732 151.775ZM538.493 55.3737H543.787V53.511H538.493V55.3737ZM543.853 77.8239H547.562V76.5167H543.853V77.8239ZM455.898 63.1185H451.797V64.5237H455.931L455.898 63.1185ZM494.835 279.189H500.407V277.294H494.835V279.189ZM464.068 145.256H472.417V142.413H464.068V145.256ZM484.558 240.498H497.629V236.037H484.558V240.498ZM473.725 223.505H487.531V218.815H473.725V223.505ZM462.287 171.219H470.065V168.523H462.287V171.219ZM447.99 166.121H454.019V163.981H447.99V166.121ZM449.804 207.068H455.457V207.476H457.353V207.068H463.627V202.313H449.804V207.068ZM512.253 347.193H526.615V342.602H527.072V342.079H525.438V342.34H512.253V347.193ZM520.945 318.632H532.383V314.743H520.945V318.632ZM500.815 281.624H499.72V286.28H513.413V281.624H506.174V281.052H500.815V281.624ZM540.16 366.898H531.696V369.774H540.16V366.898ZM445.392 197.28H448.807V196.12H445.392V197.28ZM504.54 221.087H509.246V219.453H504.54V221.087ZM507.808 228.782H511.795V227.426H507.808V228.782ZM506.501 237.851H519.279V233.505H506.501V237.851ZM433.824 416.815H439.265V417.599H446.896V415.018H446.487V412.158H432.811V416.194H428.759L433.22 420.72H433.873L433.824 416.815ZM497.939 565.747H494.279V566.989H497.956L497.939 565.747ZM498.233 547.692H493.528V549.326H498.233V547.692ZM462.581 550.96H452.5V554.49H462.581V550.96ZM496.126 536.958H490.129V536.288H478.43V540.258H485.718V540.487H496.093L496.126 536.958ZM530.928 506.174H517.448V510.766H530.928V506.174ZM515.52 467.418H509.998V469.297H515.52V467.418ZM514.442 563.084H507.906V565.29H514.442V563.084ZM430.834 249.37L437.86 256.396H438.056V253.128H444.69V248.455H430.834V249.37ZM430.05 237.638H430.622V233.178H430.05V237.638ZM446.896 245.955H450.163V247.589H457.369V245.138H456.356V242.72H446.896V245.955ZM439.625 265.971H451.291V262.017H452.614V261.036H449.739V261.363H439.625V265.971ZM461.699 493.446H449.395V497.629H461.699V493.446ZM457.353 502.629V501.24H453.235V502.629H457.353ZM528.853 573.999H522.955V576.008H528.853V573.999ZM537.399 385.623H542.039V383.989H537.399V385.623ZM428.04 485.456H427.582V489.132H428.04V485.456ZM511.844 497.188H498.168V501.844H511.844V497.188ZM511.517 511.305H510.619V510.602H500.276V514.132H502.612V514.36H511.599L511.517 511.305ZM504.426 549.931H506.632V549.179H504.426V549.931ZM509.328 453.398H503.446V455.408H509.328V453.398ZM492.645 465.718H478.12V470.62H487.335V471.715H492.76V469.868H492.645V465.718ZM508.184 581.155H502.792V582.985H508.184V581.155ZM502.956 449.559H506.681V447.68H501.158V448.807H491.142V452.827H502.956V449.559ZM538.902 418.514H550.536V414.56H538.886L538.902 418.514ZM506.387 505.014H497.662V507.988H506.387V505.014ZM503.674 575.273H499.949V576.548H503.674V575.273ZM497.139 500.88H490.75V503.054H497.139V500.88ZM499.394 493.283H493.087V495.423H499.394V493.283ZM504.769 487.956H492.123V492.253H504.769V487.956ZM518.004 422.174H511.828V420.981H505.521V422.141H504.099V426.88H518.004V422.174ZM498.724 519.605H487.286V523.445H498.724V519.605ZM500.815 554.359H498.495V555.159H500.815V554.359ZM535.748 444.494H527.448V447.32H535.765L535.748 444.494ZM535.373 442.271H549.98V437.37H535.373V442.271ZM532.595 474.623H540.765V471.846H532.595V474.623ZM534.964 489.149H531.86V490.211H534.964V489.149ZM552.137 481.404H545.16V483.773H552.137V481.404ZM534.392 423.596H546.255V419.56H534.392V423.596ZM547.742 501.746H533.167V506.648H547.742V501.746ZM534.441 428.138H519.736V433.121H534.441V428.138ZM538.134 354.317H528.592V357.585H538.085L538.134 354.317ZM536.402 325.266H525.814V328.861H536.402V325.266ZM524.801 330.887H529.85V329.171H524.801V330.887ZM523.69 395.803V399.266H533.935V395.786L523.69 395.803ZM525.161 363.598H536.173V359.856H525.161V363.598ZM535.732 405.639H540.879V403.891H535.732V405.639ZM537.987 392.371V393.205H540.471V392.371H537.987ZM555.96 590.403H550.519V592.25H555.96V590.403ZM479.574 628.212H475.375V629.65H479.574V628.212ZM479.149 612.02V610.762H475.424V612.02H479.149ZM479.901 612.445H476.96V613.458H479.95L479.901 612.445ZM494.361 623.801H482.352V627.902H494.41L494.361 623.801ZM466.176 579.407H462.434V580.632H466.176V579.407ZM490.211 603.916H477.483V608.246H490.211V603.916ZM483.675 622.134H493.201V618.866H483.675V622.134ZM448.595 544.604H440.866V547.235H448.595V544.604ZM441.994 523.706H433.04V526.713H441.994V523.706ZM431.814 550.96H427.681V554.228H431.814V550.96ZM439.51 540.83H432.974V538.935H434.608V534.686H427.762V545.895H439.592L439.51 540.83ZM451.503 548.885H442.337V552.006H451.503V548.885ZM461.601 584.129H449.755V588.148H461.601V584.129ZM441.16 581.629H451.667V580.943H453.954V577.446H443.677V578.051H441.16V581.629ZM441.389 574.93H448.529V572.463H441.422L441.389 574.93ZM495.423 630.68H491.812V631.905H495.423V630.68ZM538.624 578.998H534.719V578.819H520.896V583.524H534.719V580.616H538.624V578.998ZM536.092 659.061H526.746V662.329H536.092V659.061ZM527.415 617.412H517.416V620.811H527.415V617.412ZM551.581 570.714H552.3V568.068H544.523V569.701H540.601V573.443H551.581V570.714ZM525.079 637.624H520.177V639.258H525.079V637.624ZM539.703 652.525H545.356V650.597H539.703V652.525ZM551.009 654.257H537.742V658.767H551.009V654.257ZM515.243 678.766H506.926V681.593H515.243V678.766ZM513.266 624.438H498.56V629.438H513.266V624.438ZM503.756 623.115H511.681V620.419H503.756V623.115ZM507.58 617.51H510.962V614.781H495.815V618.785H507.58V617.51ZM507.58 689.828V691.331H511.991V689.828H507.58ZM519.017 632.314H510.57V635.189H519.017V632.314ZM495.734 598.606H496.616V593.884H482.842V597.348H482.678V601.873H495.75L495.734 598.606ZM521.517 647.411H517.154V648.914H521.566L521.517 647.411ZM492.874 209.404H497.776V207.77H492.874V209.404ZM528.363 270.039H542.072V265.382H528.363V270.039ZM530.226 227.443H536.369V225.351H530.226V227.443ZM535.601 184.634H531.043V186.268H535.667L535.601 184.634ZM522.056 242.409V243.913H526.468V242.409H522.056ZM534.621 228.799H530.651V230.155H534.621V228.799ZM533.494 292.898V292.179H531.386V292.898H533.494ZM521.337 307.178H534.262V302.865H521.337V307.178ZM537.186 552.513H528.755V555.372H537.186V552.513ZM538.395 531.615H532.758V533.543H538.395V531.615ZM556.369 409.577H548.558V412.338H556.369V409.577ZM500.815 200.058H515.52V195.156H500.979L500.815 200.058ZM556.026 314.351H544V318.436H556.026V314.351ZM539.196 379.333H547.366V376.555H539.196V379.333ZM547.202 314.204H555.209V311.492H547.202V314.204ZM541.222 246.282H531.86V249.55H541.435L541.222 246.282ZM480.62 152.772H489.753V149.668H480.62V152.772ZM477.466 156.808H486.959V153.54H477.466V156.808ZM430.082 190.712H434.51V186.317H430.066L430.082 190.712ZM471.993 137.07H461.732V141.188H473.872V137.201H480.407V134.341H472.042L471.993 137.07ZM486.24 195.189H497.449V191.366H486.24V195.189ZM472.303 126.989H479.672V124.489H472.303V126.989ZM438.187 167.249H431.945V169.373H438.187V167.249ZM435.327 206.038H446.977V202.035H435.327V206.038ZM490.129 230.972H499.737V227.704H490.129V230.972ZM511.713 177.216H505.406V179.372H511.713V177.216ZM531.321 558.427H523.363V561.14H531.321V558.427ZM515.52 180.173H507.024V183.065H515.52V180.173ZM500.014 171.301H513.445V166.742H500.014V171.301ZM499.034 120.192H501.877V119.228H499.034V120.192ZM500.276 203.081H503.74V201.904H500.276V203.081ZM498.054 210.515H504.344V208.375H498.054V210.515Z" fill="url(#paint5_linear_427_199)"/>
<path d="M586.155 802.798H449.559L454.085 790.56H582.152L586.155 802.798Z" fill="#C265AF"/>
<path d="M572.528 541.451V542.709H593.541V541.451H572.528Z" fill="#570A57"/>
<path d="M572.528 548.199V549.457H593.541V548.199H572.528Z" fill="#570A57"/>
<path d="M572.512 554.931V556.189H593.524V554.931H572.512Z" fill="#570A57"/>
<path d="M572.528 561.679V562.937H593.541V561.679H572.528Z" fill="#570A57"/>
<path d="M572.528 568.411V569.669H593.541V568.411H572.528Z" fill="#570A57"/>
<path d="M572.528 575.159V576.417H593.541V575.159H572.528Z" fill="#570A57"/>
<path d="M572.528 581.907V583.165H593.541V581.907H572.528Z" fill="#570A57"/>
<path d="M572.512 588.639V589.897H593.524V588.639H572.512Z" fill="#570A57"/>
<path d="M572.528 595.387V596.645H593.541V595.387H572.528Z" fill="#570A57"/>
<path d="M572.528 602.135V603.393H593.541V602.135H572.528Z" fill="#570A57"/>
<path d="M572.512 608.867V610.125H593.524V608.867H572.512Z" fill="#570A57"/>
<path d="M572.528 615.615V616.873H593.541V615.615H572.528Z" fill="#570A57"/>
<path d="M572.512 622.347V623.605H593.524V622.347H572.512Z" fill="#570A57"/>
<path d="M572.528 629.095V630.353H593.541V629.095H572.528Z" fill="#570A57"/>
<path d="M572.528 635.843V637.101H593.541V635.843H572.528Z" fill="#570A57"/>
<path d="M572.512 642.575V643.833H593.524V642.575H572.512Z" fill="#570A57"/>
<path d="M572.528 649.323V650.581H593.541V649.323H572.528Z" fill="#570A57"/>
<path d="M572.528 656.055V657.313H593.541V656.055H572.528Z" fill="#570A57"/>
<path d="M572.528 662.803V664.061H593.541V662.803H572.528Z" fill="#570A57"/>
<path d="M572.528 669.551V670.809H593.541V669.551H572.528Z" fill="#570A57"/>
<path d="M572.512 676.283V677.541H593.524V676.283H572.512Z" fill="#570A57"/>
<path d="M572.528 683.031V684.289H593.541V683.031H572.528Z" fill="#570A57"/>
<path d="M572.528 689.779V691.037H593.541V689.779H572.528Z" fill="#570A57"/>
<path d="M572.528 696.511V697.769H593.541V696.511H572.528Z" fill="#570A57"/>
<path d="M572.528 703.259V704.517H593.541V703.259H572.528Z" fill="#570A57"/>
<path d="M572.528 709.991V711.249H593.541V709.991H572.528Z" fill="#570A57"/>
<path d="M572.528 716.739V717.997H593.541V716.739H572.528Z" fill="#570A57"/>
<path d="M557.512 322.374V323.632H578.525V322.374H557.512Z" fill="#570A57"/>
<path d="M557.496 329.122V330.38H578.508V329.122H557.496Z" fill="#570A57"/>
<path d="M557.512 335.87V337.128H578.525V335.87H557.512Z" fill="#570A57"/>
<path d="M557.512 342.602V343.86H578.525V342.602H557.512Z" fill="#570A57"/>
<path d="M557.496 349.35V350.608H578.508V349.35H557.496Z" fill="#570A57"/>
<path d="M557.512 356.082V357.34H578.525V356.082H557.512Z" fill="#570A57"/>
<path d="M557.496 362.83V364.088H578.508V362.83H557.496Z" fill="#570A57"/>
<path d="M557.512 369.578V370.836H578.525V369.578H557.512Z" fill="#570A57"/>
<path d="M557.512 376.31V377.568H578.525V376.31H557.512Z" fill="#570A57"/>
<path d="M557.496 383.058V384.316H578.508V383.058H557.496Z" fill="#570A57"/>
<path d="M557.512 389.806V391.064H578.525V389.806H557.512Z" fill="#570A57"/>
<path d="M557.512 396.538V397.796H578.525V396.538H557.512Z" fill="#570A57"/>
<path d="M557.512 403.286V404.544H578.525V403.286H557.512Z" fill="#570A57"/>
<path d="M557.512 410.018V411.276H578.525V410.018H557.512Z" fill="#570A57"/>
<path d="M557.496 416.766V418.024H578.508V416.766H557.496Z" fill="#570A57"/>
<path d="M557.512 423.514V424.772H578.525V423.514H557.512Z" fill="#570A57"/>
<path d="M557.512 430.246V431.504H578.525V430.246H557.512Z" fill="#570A57"/>
<path d="M557.496 436.994V438.252H578.508V436.994H557.496Z" fill="#570A57"/>
<path d="M557.512 443.742V445H578.525V443.742H557.512Z" fill="#570A57"/>
<path d="M557.496 450.474V451.732H578.508V450.474H557.496Z" fill="#570A57"/>
<path d="M434.919 644.258V645.516H455.931V644.258H434.919Z" fill="#570A57"/>
<path d="M434.919 637.526V638.784H455.931V637.526H434.919Z" fill="#570A57"/>
<path d="M434.903 630.778V632.036H455.915V630.778H434.903Z" fill="#570A57"/>
<path d="M434.919 624.046V625.304H455.931V624.046H434.919Z" fill="#570A57"/>
<path d="M434.903 617.298V618.556H455.915V617.298H434.903Z" fill="#570A57"/>
<path d="M434.919 610.55V611.808H455.931V610.55H434.919Z" fill="#570A57"/>
<path d="M434.919 603.818V605.076H455.931V603.818H434.919Z" fill="#570A57"/>
<path d="M434.903 597.07V598.328H455.915V597.07H434.903Z" fill="#570A57"/>
<path d="M434.919 590.338V591.596H455.931V590.338H434.919Z" fill="#570A57"/>
<path d="M434.919 583.59V584.848H455.931V583.59H434.919Z" fill="#570A57"/>
<path d="M434.919 576.842V578.1H455.931V576.842H434.919Z" fill="#570A57"/>
<path d="M434.919 570.11V571.368H455.931V570.11H434.919Z" fill="#570A57"/>
<path d="M434.903 563.362V564.62H455.915V563.362H434.903Z" fill="#570A57"/>
<path d="M434.919 556.614V557.872H455.931V556.614H434.919Z" fill="#570A57"/>
<path d="M434.919 549.882V551.14H455.931V549.882H434.919Z" fill="#570A57"/>
<path d="M434.903 543.134V544.392H455.915V543.134H434.903Z" fill="#570A57"/>
<path d="M434.919 536.402V537.66H455.931V536.402H434.919Z" fill="#570A57"/>
<path d="M434.903 529.654V530.912H455.915V529.654H434.903Z" fill="#570A57"/>
<path d="M434.919 522.906V524.164H455.931V522.906H434.919Z" fill="#570A57"/>
<path d="M434.919 516.174V517.432H455.931V516.174H434.919Z" fill="#570A57"/>
<path d="M434.903 509.426V510.684H455.915V509.426H434.903Z" fill="#570A57"/>
<path d="M434.919 502.678V503.936H455.931V502.678H434.919Z" fill="#570A57"/>
<path d="M434.919 495.946V497.204H455.931V495.946H434.919Z" fill="#570A57"/>
<path d="M434.903 489.198V490.456H455.915V489.198H434.903Z" fill="#570A57"/>
<path d="M434.919 482.466V483.724H455.931V482.466H434.919Z" fill="#570A57"/>
<path d="M437.354 26.6331V27.8913H458.366V26.6331H437.354Z" fill="#570A57"/>
<path d="M437.37 33.3647V34.6228H458.382V33.3647H437.37Z" fill="#570A57"/>
<path d="M437.354 40.113V41.3712H458.366V40.113H437.354Z" fill="#570A57"/>
<path d="M437.37 46.8446V48.1027H458.382V46.8446H437.37Z" fill="#570A57"/>
<path d="M437.37 53.5927V54.8509H458.382V53.5927H437.37Z" fill="#570A57"/>
<path d="M437.354 60.3409V61.599H458.366V60.3409H437.354Z" fill="#570A57"/>
<path d="M437.37 67.0726V68.3308H458.382V67.0726H437.37Z" fill="#570A57"/>
<path d="M437.354 73.8208V75.0789H458.366V73.8208H437.354Z" fill="#570A57"/>
<path d="M437.354 80.5689V81.827H458.366V80.5689H437.354Z" fill="#570A57"/>
<path d="M437.37 87.3007V88.5588H458.382V87.3007H437.37Z" fill="#570A57"/>
<path d="M437.354 94.0488V95.3069H458.366V94.0488H437.354Z" fill="#570A57"/>
<path d="M437.37 100.781V102.039H458.382V100.781H437.37Z" fill="#570A57"/>
<path d="M437.354 107.529V108.787H458.366V107.529H437.354Z" fill="#570A57"/>
<path d="M437.354 114.277V115.535H458.366V114.277H437.354Z" fill="#570A57"/>
<path d="M437.37 121.009V122.267H458.382V121.009H437.37Z" fill="#570A57"/>
<path d="M437.354 127.757V129.015H458.366V127.757H437.354Z" fill="#570A57"/>
<path d="M437.37 134.489V135.747H458.382V134.489H437.37Z" fill="#570A57"/>
<path d="M437.37 141.237V142.495H458.382V141.237H437.37Z" fill="#570A57"/>
<path d="M437.354 147.985V149.243H458.366V147.985H437.354Z" fill="#570A57"/>
<path d="M437.37 154.717V155.975H458.382V154.717H437.37Z" fill="#570A57"/>
<path d="M437.354 161.465V162.723H458.366V161.465H437.354Z" fill="#570A57"/>
<path d="M437.354 168.213V169.471H458.366V168.213H437.354Z" fill="#570A57"/>
<path d="M437.37 174.945V176.203H458.382V174.945H437.37Z" fill="#570A57"/>
<path d="M437.354 181.693V182.951H458.366V181.693H437.354Z" fill="#570A57"/>
<path d="M437.37 188.424V189.683H458.382V188.424H437.37Z" fill="#570A57"/>
<path d="M437.354 195.173V196.431H458.366V195.173H437.354Z" fill="#570A57"/>
<path d="M437.354 201.921V203.179H458.366V201.921H437.354Z" fill="#570A57"/>
<path d="M437.37 208.653V209.911H458.382V208.653H437.37Z" fill="#570A57"/>
<path d="M437.354 215.401V216.659H458.366V215.401H437.354Z" fill="#570A57"/>
<path d="M437.354 222.132V223.391H458.366V222.132H437.354Z" fill="#570A57"/>
<path d="M495.113 791.344H493.479V697.148L467.124 670.809L468.284 669.649L495.113 696.478V791.344Z" fill="#570A57"/>
<path d="M545.699 791.736H544.065V593.557L560.045 577.561V469.819L567.055 462.81L567.185 451.095L568.819 451.111L568.672 463.496L561.679 470.489V578.247L545.699 594.227V791.736Z" fill="#570A57"/>
<path d="M479.394 682.443H477.761V390.296L414.887 327.439L416.047 326.279L479.394 389.626V682.443Z" fill="#570A57"/>
<path d="M480.26 441.912L479.1 440.752L522.759 397.093V0H524.393V397.763L480.26 441.912Z" fill="#570A57"/>
<path d="M376.669 804.579H253.193L256.004 794.939H371.114L376.669 804.579Z" fill="#C265AF"/>
<path d="M328.55 792.994H310.021V791.36H326.916V678.652L305.103 656.823V581.041L252.622 528.559L253.765 527.399L306.737 580.371V656.153L328.55 677.966V792.994Z" fill="#570A57"/>
<path d="M581.384 864.397H533.804V866.031H581.384V864.397Z" fill="#570A57"/>
<path d="M496.355 842.698H464.558V844.332H496.355V842.698Z" fill="#570A57"/>
<path d="M326.067 806H298.519V807.634H326.067V806Z" fill="#570A57"/>
<path d="M389.463 816H352.749V817.634H389.463V816Z" fill="#570A57"/>
<path d="M256.004 864.397H220.923V866.031H256.004V864.397Z" fill="#570A57"/>
<path d="M357.569 798.811H331.54L333.795 784.824H355.314L357.569 798.811Z" fill="#C265AF"/>
<path d="M336.475 786.164L338.011 738.699L338.713 786.164H336.475Z" fill="#C265AF"/>
<path d="M340.2 786.164L341.05 748.845L341.54 786.164H340.2Z" fill="#C265AF"/>
<path d="M344.546 786.164L345.412 767.505L345.886 786.164H344.546Z" fill="#C265AF"/>
<path d="M473.708 797.553H447.68L449.935 783.566H471.454L473.708 797.553Z" fill="#C265AF"/>
<path d="M452.631 784.89L454.167 737.441L454.869 784.89H452.631Z" fill="#C265AF"/>
<path d="M456.34 784.89L457.189 747.571L457.68 784.89H456.34Z" fill="#C265AF"/>
<path d="M460.702 784.89L461.552 766.23L462.042 784.89H460.702Z" fill="#C265AF"/>
<path d="M366.555 164.536H406.521V150.942H366.555V164.536Z" fill="#570A57"/>
<path d="M366.555 147.364H406.521V133.77H366.555V147.364Z" fill="#570A57"/>
<path d="M366.555 130.175H406.521V116.581H366.555V130.175Z" fill="#570A57"/>
<path d="M366.555 112.986H406.521V99.3917H366.555V112.986Z" fill="#570A57"/>
<path d="M366.555 95.7972H406.521V82.2029H366.555V95.7972Z" fill="#570A57"/>
<path d="M366.555 78.6246H406.521V65.0303H366.555V78.6246Z" fill="#570A57"/>
<path d="M366.555 61.4356H406.521V47.8414H366.555V61.4356Z" fill="#570A57"/>
<path d="M511.501 82.8074H509.622V74.8828H511.501V82.8074ZM495.57 74.8828H493.691V82.8074H495.57V74.8828ZM487.401 74.8828H485.522V82.8074H487.401V74.8828ZM473.545 74.8828H471.666V82.8074H473.545V74.8828ZM460.474 74.8828H458.595V82.8074H460.474V74.8828ZM452.124 74.8828H450.245V82.8074H452.124V74.8828ZM492.646 98.6238H490.767V106.548H492.646V98.6238ZM512.432 123.247H510.553V131.172H512.432V123.247ZM499.181 123.247H497.302V131.172H499.181V123.247ZM483.577 123.247H481.698V131.172H483.577V123.247ZM473.414 123.247H471.535V131.172H473.414V123.247ZM463.856 123.247H461.977V131.172H463.856V123.247ZM515.717 143.72H513.887V151.645H515.749L515.717 143.72ZM496.289 143.72H494.41V151.645H496.289V143.72ZM485.522 143.72H483.643V151.645H485.522V143.72ZM533.886 102.415H532.007V110.339H533.886V102.415ZM516.174 102.415H514.295V110.339H516.174V102.415ZM502.204 102.415H500.325V110.339H502.204V102.415ZM478.774 163.327H476.895V171.252H478.774V163.327ZM467.99 163.327H466.127V171.252H467.99V163.327ZM500.815 176.252H498.936V184.176H500.815V176.252ZM486.796 176.252H484.933V184.176H486.796V176.252ZM496.142 251.756H494.28V259.68H496.159L496.142 251.756ZM484.476 251.756H482.613V259.68H484.476V251.756ZM475.963 251.756H474.084V259.68H475.963V251.756ZM506.076 239.24H504.214V247.164H506.076V239.24ZM488.479 239.24H486.6V247.164H488.479V239.24ZM484.754 315.593H482.842V323.518H484.721L484.754 315.593ZM466.78 315.593H464.869V323.518H466.748L466.78 315.593ZM466.944 332.7H465.032V340.625H466.911L466.944 332.7ZM451.765 332.7H449.886V340.625H451.797L451.765 332.7ZM485.701 346.458H483.822V354.383H485.701V346.458ZM468.872 346.458H466.993V354.383H468.872V346.458ZM499.181 303.486H497.319V311.41H499.181V303.486ZM477.189 303.486H475.31V311.41H477.189V303.486ZM510.374 362.307H508.495V370.232H510.374V362.307ZM497.629 362.307H495.75V370.232H497.547L497.629 362.307ZM490.129 376.914H488.234V384.839H490.113L490.129 376.914ZM538.314 444.494H536.435V452.418H538.314V444.494ZM525.978 444.494H524.099V452.418H525.978V444.494ZM509.736 444.494H507.841V452.418H509.72L509.736 444.494ZM518.494 460.343H516.615V468.267H518.494V460.343ZM520.7 487.874H518.788V495.799H520.651L520.7 487.874ZM507.22 487.874H505.358V495.799H507.22V487.874ZM542.954 509.116H541.075V517.056H542.954V509.116ZM532.595 509.116H530.716V517.056H532.579L532.595 509.116ZM521.354 509.116H519.475V517.056H521.354V509.116ZM508.478 509.116H506.599V517.056H508.478V509.116ZM535.928 527.481H534.049V535.405H535.928V527.481ZM524.36 527.481H522.481V535.405H524.36V527.481ZM515.161 527.481H513.282V535.405H515.161V527.481ZM533.951 544.163H532.072V552.088H533.951V544.163ZM513.07 544.163H511.191V552.088H513.07V544.163ZM523.216 556.679H521.337V564.604H523.216V556.679ZM514.916 556.679H513.037V564.604H514.916V556.679ZM498.887 556.679H497.008V564.604H498.887V556.679ZM527.056 569.62H525.161V577.544H527.04L527.056 569.62ZM515.619 569.62H513.74V577.544H515.521L515.619 569.62ZM512.253 586.76H510.39V594.684H512.253V586.76ZM491.012 586.76H489.133V594.684H491.012V586.76ZM506.06 611.775H504.083V619.716H505.962L506.06 611.775ZM492.253 611.775H490.374V619.716H492.253V611.775ZM503.103 630.974H501.224V638.898H503.103V630.974ZM507.694 660.597H505.717V668.521H507.596L507.694 660.597ZM550.47 191.758H548.591V199.682H550.47V191.758ZM538.085 191.758H536.206V199.682H538.085V191.758ZM559.49 203.44H557.611V211.365H559.49V203.44ZM549.343 203.44H547.464V211.365H549.343V203.44ZM557.66 225.122H555.781V233.047H557.66V225.122ZM546.843 225.122H544.931V233.047H546.81L546.843 225.122ZM538.085 247.654H536.206V255.481H538.085V247.654ZM546.843 276.722H544.931V284.646H546.81L546.843 276.722ZM554.375 317.194H552.496V325.119H554.375V317.194ZM543.918 317.194H542.039V325.119H543.918V317.194ZM542.676 340.56H540.797V348.615H542.676V340.56ZM501.371 272.964H499.492V280.905H501.371V272.964ZM533.919 383.107H532.04V391.097H533.919V383.107ZM532.17 410.165H530.226V418.089H532.105L532.17 410.165ZM445.474 393.531H443.628V401.456H445.507L445.474 393.531ZM453.399 405.214H451.52V413.139H453.431L453.399 405.214ZM457.157 391.032H455.278V398.956H457.157V391.032ZM517.154 638.065H515.276V645.99H517.154V638.065ZM520.079 651.414H518.2V659.339H520.079V651.414ZM517.988 675.613H516.174V683.57H518.053L517.988 675.613ZM521.256 617.2H519.377V625.124H521.256V617.2ZM526.68 626.791H524.801V634.732H526.68V626.791ZM509.573 626.791H507.841V634.732H509.72L509.573 626.791ZM504.982 721.559H503.103V729.483H504.982V721.559ZM534.229 741.591H532.35V749.515H534.229V741.591ZM525.635 741.591H523.756V749.515H525.635V741.591ZM511.24 741.591H509.361V749.515H511.24V741.591ZM519.164 721.984H517.285V729.908H519.164V721.984ZM341.589 526.059H339.71V533.984H341.589V526.059ZM320.217 526.059H318.338V533.984H320.217V526.059ZM311.41 526.059H309.646V533.984H311.525L311.41 526.059ZM293.862 526.059H291.999V533.984H293.862V526.059ZM276.853 526.059H274.974V533.984H276.967L276.853 526.059ZM334.432 512.71H332.553V520.635H334.432V512.71ZM325.25 512.71H323.371V520.635H325.25V512.71ZM267.392 512.71H265.53V520.635H267.409L267.392 512.71ZM330.478 544.408H328.599V552.333H330.478V544.408ZM317.717 544.408H315.838V552.333H317.815L317.717 544.408ZM305.218 544.408H303.339V552.333H305.218V544.408ZM329.58 566.107H327.782V574.097H329.661L329.58 566.107ZM319.122 566.107H317.325V574.097H319.204L319.122 566.107ZM320.756 581.123H318.877V589.047H320.756V581.123ZM322.39 618.393H320.511V626.382H322.39V618.393ZM349.955 638.98H348.076V646.905H349.955V638.98ZM332.537 638.98H330.887V646.905H332.749L332.537 638.98ZM312.391 638.98H310.512V646.905H312.391V638.98ZM296.051 596.694H294.172V604.619H296.051V596.694ZM286.068 596.694H284.189V604.619H286.068V596.694ZM273.993 596.694H272.114V604.619H273.993V596.694ZM278.601 608.409H276.722V616.334H278.601V608.409ZM302.669 699.076H300.79V707H302.669V699.076ZM286.95 699.076H285.137V707H287.016L286.95 699.076ZM306.28 712.425H304.401V720.35H306.28V712.425ZM293.617 712.425H291.672V720.35H293.551L293.617 712.425ZM294.172 740.79H292.293V748.715H294.172V740.79ZM289.728 771.394H287.849V779.318H289.728V771.394Z" fill="url(#paint6_linear_427_199)"/>
<defs>
<linearGradient id="paint0_linear_427_199" x1="377.053" y1="1513.8" x2="377.053" y2="-848.7" gradientUnits="userSpaceOnUse">
<stop stop-color="#C165B4"/>
<stop offset="0.55" stop-color="#774584"/>
<stop offset="1" stop-color="#3F2D60"/>
</linearGradient>
<linearGradient id="paint1_linear_427_199" x1="377.053" y1="1361.7" x2="377.053" y2="-1000.8" gradientUnits="userSpaceOnUse">
<stop stop-color="#C165B4"/>
<stop offset="0.55" stop-color="#774584"/>
<stop offset="1" stop-color="#3F2D60"/>
</linearGradient>
<linearGradient id="paint2_linear_427_199" x1="377.053" y1="1371.6" x2="377.053" y2="-991.8" gradientUnits="userSpaceOnUse">
<stop stop-color="#C165B4"/>
<stop offset="0.55" stop-color="#774584"/>
<stop offset="1" stop-color="#3F2D60"/>
</linearGradient>
<linearGradient id="paint3_linear_427_199" x1="377.053" y1="1059.3" x2="377.053" y2="42.3" gradientUnits="userSpaceOnUse">
<stop stop-color="#C165B4"/>
<stop offset="0.55" stop-color="#774584"/>
<stop offset="1" stop-color="#3F2D60"/>
</linearGradient>
<linearGradient id="paint4_linear_427_199" x1="377.053" y1="951.3" x2="377.053" y2="39.6" gradientUnits="userSpaceOnUse">
<stop stop-color="#C165B4"/>
<stop offset="0.55" stop-color="#774584"/>
<stop offset="1" stop-color="#3F2D60"/>
</linearGradient>
<linearGradient id="paint5_linear_427_199" x1="377.053" y1="1020.6" x2="377.053" y2="4.50005" gradientUnits="userSpaceOnUse">
<stop stop-color="#C165B4"/>
<stop offset="0.55" stop-color="#774584"/>
<stop offset="1" stop-color="#3F2D60"/>
</linearGradient>
<linearGradient id="paint6_linear_427_199" x1="838.491" y1="809.256" x2="838.491" y2="68.403" gradientUnits="userSpaceOnUse">
<stop stop-color="#F4FFDB"/>
<stop offset="0.05" stop-color="#E2FCD6"/>
<stop offset="0.21" stop-color="#B2F6C9"/>
<stop offset="0.33" stop-color="#94F2C1"/>
<stop offset="0.39" stop-color="#89F0BE"/>
<stop offset="0.48" stop-color="#7FEABB"/>
<stop offset="0.62" stop-color="#64D9B3"/>
<stop offset="0.8" stop-color="#38BEA6"/>
<stop offset="1" stop-color="#009C96"/>
</linearGradient>
</defs>
</svg>
