<svg width="104" height="104" viewBox="0 0 104 104" fill="none" xmlns="http://www.w3.org/2000/svg">
<path d="M60.6243 34.4201V55.8725M77.7862 34.4201V55.8725M26.3006 55.8725V73.0343M56.3339 94.4866H22.0102C13.4293 94.4866 9.13879 90.1961 9.13879 81.6152V47.2915C9.13879 38.7106 13.4293 34.4201 22.0102 34.4201H43.4625V81.6152C43.4625 90.1961 47.7529 94.4866 56.3339 94.4866ZM43.9344 17.2583C43.5912 18.5454 43.4625 19.9613 43.4625 21.5488V34.4201H22.0102V25.8392C22.0102 21.1197 25.8716 17.2583 30.5911 17.2583H43.9344ZM73.4957 73.0343H64.9148C62.555 73.0343 60.6243 74.965 60.6243 77.3248V94.4866H77.7862V77.3248C77.7862 74.965 75.8555 73.0343 73.4957 73.0343Z" stroke="#2E0249" stroke-width="6.43569" stroke-miterlimit="10" stroke-linecap="round" stroke-linejoin="round"/>
<path d="M43.4624 81.6156V21.5491C43.4624 12.9682 47.7529 8.67773 56.3338 8.67773H82.0766C90.6575 8.67773 94.9479 12.9682 94.9479 21.5491V81.6156C94.9479 90.1965 90.6575 94.487 82.0766 94.487H56.3338C47.7529 94.487 43.4624 90.1965 43.4624 81.6156Z" stroke="#2E0249" stroke-width="6.43569" stroke-miterlimit="10" stroke-linecap="round" stroke-linejoin="round"/>
</svg>
