<svg width="851" height="513" viewBox="0 0 851 513" fill="none" xmlns="http://www.w3.org/2000/svg">
<g filter="url(#filter0_d_806_223)">
<path d="M7 485L789.559 485L828 462.415V54.2655H808.779V27.2951H828V1.99997L46.8144 1.99997L7 26.8472L7 485Z" fill="#121211"/>
<path d="M284.662 73V47.08H305.218C306.202 47.08 307.09 47.32 307.882 47.8C308.698 48.28 309.346 48.928 309.826 49.744C310.33 50.536 310.582 51.424 310.582 52.408V67.672C310.582 68.632 310.33 69.52 309.826 70.336C309.346 71.152 308.698 71.8 307.882 72.28C307.09 72.76 306.202 73 305.218 73H284.662ZM290.206 67.384H304.93V52.696H290.206V67.384ZM315.513 73V47.08H321.021V73H315.513ZM331.168 73C330.208 73 329.32 72.76 328.504 72.28C327.688 71.8 327.04 71.152 326.56 70.336C326.08 69.52 325.84 68.632 325.84 67.672V65.26H331.42V67.384H346.108V62.848H331.168C330.208 62.848 329.32 62.608 328.504 62.128C327.688 61.648 327.04 61.012 326.56 60.22C326.08 59.404 325.84 58.504 325.84 57.52V52.408C325.84 51.424 326.08 50.536 326.56 49.744C327.04 48.928 327.688 48.28 328.504 47.8C329.32 47.32 330.208 47.08 331.168 47.08H346.432C347.392 47.08 348.268 47.32 349.06 47.8C349.876 48.28 350.524 48.928 351.004 49.744C351.508 50.536 351.76 51.424 351.76 52.408V54.82H346.108V52.696H331.42V57.232H346.432C347.392 57.232 348.268 57.472 349.06 57.952C349.876 58.432 350.524 59.08 351.004 59.896C351.508 60.688 351.76 61.576 351.76 62.56V67.672C351.76 68.632 351.508 69.52 351.004 70.336C350.524 71.152 349.876 71.8 349.06 72.28C348.268 72.76 347.392 73 346.432 73H331.168ZM362.853 73C361.869 73 360.969 72.76 360.153 72.28C359.361 71.8 358.725 71.164 358.245 70.372C357.765 69.556 357.525 68.656 357.525 67.672V52.408C357.525 51.424 357.765 50.536 358.245 49.744C358.725 48.928 359.361 48.28 360.153 47.8C360.969 47.32 361.869 47.08 362.853 47.08H383.373V52.696H364.293C363.909 52.696 363.609 52.792 363.393 52.984C363.201 53.176 363.105 53.476 363.105 53.884V66.196C363.105 66.58 363.201 66.88 363.393 67.096C363.609 67.288 363.909 67.384 364.293 67.384H383.373V73H362.853ZM388.963 73V47.044H394.543V67.384H414.883V73H388.963ZM418.853 73V52.408C418.853 51.424 419.093 50.536 419.573 49.744C420.053 48.928 420.701 48.28 421.517 47.8C422.333 47.32 423.221 47.08 424.181 47.08H439.409C440.393 47.08 441.281 47.32 442.073 47.8C442.889 48.28 443.537 48.928 444.017 49.744C444.521 50.536 444.773 51.424 444.773 52.408V73H439.121V64.648H424.433V73H418.853ZM424.433 59.032H439.121V52.696H424.433V59.032ZM449.775 73V47.08H455.283V73H449.775ZM460.174 73V47.08H465.934L474.718 57.556L483.466 47.08H489.262V73H483.646V55.612L474.718 66.268L465.754 55.648V73H460.174ZM495.445 73V47.08H519.385V52.696H501.097V57.232H515.821V62.848H501.097V67.384H519.385V73H495.445ZM544.859 73L537.335 64.036H544.643L550.619 71.092V73H544.859ZM524.735 73V47.116H545.291C546.275 47.116 547.163 47.356 547.955 47.836C548.771 48.316 549.419 48.964 549.899 49.78C550.403 50.596 550.655 51.484 550.655 52.444V59.14C550.655 60.1 550.403 60.988 549.899 61.804C549.419 62.62 548.771 63.268 547.955 63.748C547.163 64.228 546.275 64.468 545.291 64.468L530.315 64.504V73H524.735ZM530.315 58.852H545.003V52.696H530.315V58.852ZM95.4544 433V412.408C95.4544 411.424 95.6944 410.536 96.1744 409.744C96.6544 408.928 97.3024 408.28 98.1184 407.8C98.9344 407.32 99.8224 407.08 100.782 407.08H116.01C116.994 407.08 117.882 407.32 118.674 407.8C119.49 408.28 120.138 408.928 120.618 409.744C121.122 410.536 121.374 411.424 121.374 412.408V433H115.722V424.648H101.034V433H95.4544ZM101.034 419.032H115.722V412.696H101.034V419.032ZM127.132 433V417.34C127.132 416.404 127.372 415.54 127.852 414.748C128.332 413.956 128.968 413.32 129.76 412.84C130.552 412.36 131.428 412.12 132.388 412.12H143.908V417.628H132.64V433H127.132ZM153.417 433C152.481 433 151.617 432.76 150.825 432.28C150.033 431.8 149.397 431.164 148.917 430.372C148.437 429.58 148.197 428.716 148.197 427.78V417.34C148.197 416.404 148.437 415.54 148.917 414.748C149.397 413.956 150.033 413.32 150.825 412.84C151.617 412.36 152.481 412.12 153.417 412.12H164.145C165.105 412.12 165.981 412.36 166.773 412.84C167.565 413.32 168.189 413.956 168.645 414.748C169.125 415.54 169.365 416.404 169.365 417.34V425.332H153.705V427.492H169.365V433H153.417ZM153.705 420.508H163.857V417.628H153.705V420.508ZM191.312 440.488V434.944H203.696V433H193.256C192.296 433 191.42 432.76 190.628 432.28C189.836 431.8 189.2 431.164 188.72 430.372C188.24 429.58 188 428.716 188 427.78V412.192H193.508V427.492H203.696V412.192H209.204V435.268C209.204 436.228 208.964 437.104 208.484 437.896C208.028 438.688 207.404 439.312 206.612 439.768C205.82 440.248 204.944 440.488 203.984 440.488H191.312ZM219.075 433C218.139 433 217.275 432.76 216.483 432.28C215.691 431.8 215.055 431.164 214.575 430.372C214.095 429.58 213.855 428.716 213.855 427.78V417.34C213.855 416.404 214.095 415.54 214.575 414.748C215.055 413.956 215.691 413.32 216.483 412.84C217.275 412.36 218.139 412.12 219.075 412.12H229.803C230.763 412.12 231.639 412.36 232.431 412.84C233.223 413.32 233.847 413.956 234.303 414.748C234.783 415.54 235.023 416.404 235.023 417.34V427.78C235.023 428.716 234.783 429.58 234.303 430.372C233.847 431.164 233.223 431.8 232.431 432.28C231.639 432.76 230.763 433 229.803 433H219.075ZM219.363 427.492H229.515V417.628H219.363V427.492ZM244.888 433C243.928 433 243.052 432.76 242.26 432.28C241.468 431.8 240.832 431.164 240.352 430.372C239.896 429.58 239.668 428.716 239.668 427.78V412.12H245.176V427.492H255.328V412.12H260.836V427.78C260.836 428.716 260.596 429.58 260.116 430.372C259.66 431.164 259.036 431.8 258.244 432.28C257.452 432.76 256.576 433 255.616 433H244.888ZM285.121 433C284.161 433 283.285 432.76 282.493 432.28C281.701 431.8 281.065 431.164 280.585 430.372C280.129 429.58 279.901 428.716 279.901 427.78V412.12H285.409V427.492H295.561V412.12H301.069V427.78C301.069 428.716 300.829 429.58 300.349 430.372C299.893 431.164 299.269 431.8 298.477 432.28C297.685 432.76 296.809 433 295.849 433H285.121ZM305.819 441.28V412.12H321.767C322.727 412.12 323.603 412.36 324.395 412.84C325.187 413.32 325.811 413.956 326.267 414.748C326.747 415.54 326.987 416.404 326.987 417.34V427.78C326.987 428.716 326.747 429.58 326.267 430.372C325.811 431.164 325.187 431.8 324.395 432.28C323.603 432.76 322.727 433 321.767 433H311.327V441.28H305.819ZM311.327 427.492H321.479V417.628H311.327V427.492ZM344.891 433V410.5C344.891 409.564 345.131 408.7 345.611 407.908C346.091 407.116 346.727 406.48 347.519 406C348.311 405.52 349.187 405.28 350.147 405.28H358.139V410.824H350.399V412.12H358.139V417.628H350.399V433H344.891ZM368.046 433C367.11 433 366.246 432.76 365.454 432.28C364.662 431.8 364.026 431.164 363.546 430.372C363.066 429.58 362.826 428.716 362.826 427.78V417.34C362.826 416.404 363.066 415.54 363.546 414.748C364.026 413.956 364.662 413.32 365.454 412.84C366.246 412.36 367.11 412.12 368.046 412.12H378.774C379.734 412.12 380.61 412.36 381.402 412.84C382.194 413.32 382.818 413.956 383.274 414.748C383.754 415.54 383.994 416.404 383.994 417.34V427.78C383.994 428.716 383.754 429.58 383.274 430.372C382.818 431.164 382.194 431.8 381.402 432.28C380.61 432.76 379.734 433 378.774 433H368.046ZM368.334 427.492H378.486V417.628H368.334V427.492ZM388.638 433V417.34C388.638 416.404 388.878 415.54 389.358 414.748C389.838 413.956 390.474 413.32 391.266 412.84C392.058 412.36 392.934 412.12 393.894 412.12H405.414V417.628H394.146V433H388.638ZM428.081 433C427.121 433 426.245 432.76 425.453 432.28C424.661 431.8 424.025 431.164 423.545 430.372C423.065 429.58 422.825 428.716 422.825 427.78V405.928H428.333V412.12H436.073V417.628H428.333V427.492H436.073V433H428.081ZM441.606 433V405.28H447.114V412.12H457.554C458.49 412.12 459.354 412.36 460.146 412.84C460.938 413.32 461.574 413.956 462.054 414.748C462.534 415.54 462.774 416.404 462.774 417.34V433H457.266V417.628H447.114V433H441.606ZM472.53 433C471.594 433 470.73 432.76 469.938 432.28C469.146 431.8 468.51 431.164 468.03 430.372C467.55 429.58 467.31 428.716 467.31 427.78V417.34C467.31 416.404 467.55 415.54 468.03 414.748C468.51 413.956 469.146 413.32 469.938 412.84C470.73 412.36 471.594 412.12 472.53 412.12H483.258C484.218 412.12 485.094 412.36 485.886 412.84C486.678 413.32 487.302 413.956 487.758 414.748C488.238 415.54 488.478 416.404 488.478 417.34V425.332H472.818V427.492H488.478V433H472.53ZM472.818 420.508H482.97V417.628H472.818V420.508ZM512.658 433C511.722 433 510.858 432.76 510.066 432.28C509.274 431.8 508.638 431.164 508.158 430.372C507.678 429.58 507.438 428.716 507.438 427.78V417.34C507.438 416.404 507.678 415.54 508.158 414.748C508.638 413.956 509.274 413.32 510.066 412.84C510.858 412.36 511.722 412.12 512.658 412.12H528.57V417.628H512.946V427.492H528.606V433H512.658ZM533.357 433V405.28H538.865V412.12H549.305C550.241 412.12 551.105 412.36 551.897 412.84C552.689 413.32 553.325 413.956 553.805 414.748C554.285 415.54 554.525 416.404 554.525 417.34V433H549.017V417.628H538.865V433H533.357ZM564.352 433C563.392 433 562.516 432.76 561.724 432.28C560.932 431.8 560.296 431.164 559.816 430.372C559.36 429.58 559.132 428.716 559.132 427.78V419.788H574.792V417.628H559.132V412.12H575.08C576.04 412.12 576.916 412.36 577.708 412.84C578.5 413.32 579.124 413.956 579.58 414.748C580.06 415.54 580.3 416.404 580.3 417.34V433H564.352ZM564.64 427.492H574.792V424.612H564.64V427.492ZM590.199 433C589.263 433 588.399 432.76 587.607 432.28C586.815 431.8 586.179 431.164 585.699 430.372C585.219 429.58 584.979 428.716 584.979 427.78V405.244H590.523V427.492H594.735V433H590.199ZM604.479 433C603.543 433 602.679 432.76 601.887 432.28C601.095 431.8 600.459 431.164 599.979 430.372C599.499 429.58 599.259 428.716 599.259 427.78V405.244H604.803V427.492H609.015V433H604.479ZM618.759 433C617.823 433 616.959 432.76 616.167 432.28C615.375 431.8 614.739 431.164 614.259 430.372C613.779 429.58 613.539 428.716 613.539 427.78V417.34C613.539 416.404 613.779 415.54 614.259 414.748C614.739 413.956 615.375 413.32 616.167 412.84C616.959 412.36 617.823 412.12 618.759 412.12H629.487C630.447 412.12 631.323 412.36 632.115 412.84C632.907 413.32 633.531 413.956 633.987 414.748C634.467 415.54 634.707 416.404 634.707 417.34V425.332H619.047V427.492H634.707V433H618.759ZM619.047 420.508H629.199V417.628H619.047V420.508ZM640.373 433V412.12H656.321C657.281 412.12 658.157 412.36 658.949 412.84C659.741 413.32 660.365 413.956 660.821 414.748C661.301 415.54 661.541 416.404 661.541 417.34V433H656.033V417.628H645.881V433H640.373ZM669.732 441.244V435.7H682.116V433H671.676C670.716 433 669.84 432.76 669.048 432.28C668.256 431.8 667.62 431.164 667.14 430.372C666.66 429.58 666.42 428.716 666.42 427.78V417.34C666.42 416.404 666.66 415.54 667.14 414.748C667.62 413.956 668.256 413.32 669.048 412.84C669.84 412.36 670.716 412.12 671.676 412.12H682.404C683.364 412.12 684.24 412.36 685.032 412.84C685.824 413.32 686.448 413.956 686.904 414.748C687.384 415.54 687.624 416.404 687.624 417.34V436.024C687.624 436.984 687.384 437.86 686.904 438.652C686.448 439.444 685.824 440.068 685.032 440.524C684.24 441.004 683.364 441.244 682.404 441.244H669.732ZM671.928 427.492H682.116V417.628H671.928V427.492ZM697.565 433C696.629 433 695.765 432.76 694.973 432.28C694.181 431.8 693.545 431.164 693.065 430.372C692.585 429.58 692.345 428.716 692.345 427.78V417.34C692.345 416.404 692.585 415.54 693.065 414.748C693.545 413.956 694.181 413.32 694.973 412.84C695.765 412.36 696.629 412.12 697.565 412.12H708.293C709.253 412.12 710.129 412.36 710.921 412.84C711.713 413.32 712.337 413.956 712.793 414.748C713.273 415.54 713.513 416.404 713.513 417.34V425.332H697.853V427.492H713.513V433H697.565ZM697.853 420.508H708.005V417.628H697.853V420.508ZM721.843 426.016V423.208C721.843 422.248 722.071 421.372 722.527 420.58C723.007 419.788 723.643 419.164 724.435 418.708C725.227 418.228 726.103 417.988 727.063 417.988H735.235V412.588H718.351V407.08H735.487C736.447 407.08 737.323 407.32 738.115 407.8C738.907 408.256 739.543 408.88 740.023 409.672C740.503 410.464 740.743 411.34 740.743 412.3V418.276C740.743 419.236 740.503 420.112 740.023 420.904C739.543 421.696 738.907 422.332 738.115 422.812C737.323 423.292 736.447 423.532 735.487 423.532H727.387V426.016H721.843ZM721.843 433V427.492H727.387V433H721.843Z" fill="#F806CC"/>
<path d="M89.0263 163V142.696H78.8743V137.08H104.794V142.696H94.6423V163H89.0263ZM109.215 163V135.28H114.723V142.12H125.163C126.099 142.12 126.963 142.36 127.755 142.84C128.547 143.32 129.183 143.956 129.663 144.748C130.143 145.54 130.383 146.404 130.383 147.34V163H124.875V147.628H114.723V163H109.215ZM134.99 163V142.12H140.498V163H134.99ZM134.99 140.824V135.28H140.498V140.824H134.99ZM151.534 163C150.598 163 149.734 162.76 148.942 162.28C148.15 161.8 147.514 161.164 147.034 160.372C146.554 159.58 146.314 158.716 146.314 157.78V156.736H151.822V157.492H161.974V155.332H151.534C150.598 155.332 149.734 155.092 148.942 154.612C148.15 154.132 147.514 153.496 147.034 152.704C146.554 151.912 146.314 151.048 146.314 150.112V147.34C146.314 146.404 146.554 145.54 147.034 144.748C147.514 143.956 148.15 143.32 148.942 142.84C149.734 142.36 150.598 142.12 151.534 142.12H162.262C163.222 142.12 164.098 142.36 164.89 142.84C165.682 143.32 166.318 143.956 166.798 144.748C167.278 145.54 167.518 146.404 167.518 147.34V148.384H161.974V147.628H151.822V149.788H162.262C163.222 149.788 164.098 150.028 164.89 150.508C165.682 150.988 166.318 151.624 166.798 152.416C167.278 153.208 167.518 154.072 167.518 155.008V157.78C167.518 158.716 167.278 159.58 166.798 160.372C166.318 161.164 165.682 161.8 164.89 162.28C164.098 162.76 163.222 163 162.262 163H151.534ZM193.935 163L185.727 142.12H191.559L196.059 152.956L200.775 142.12H206.103L211.143 153.1L215.319 142.12H221.151L213.303 163H209.127L203.475 150.544L198.075 163H193.935ZM230.061 163C229.125 163 228.261 162.76 227.469 162.28C226.677 161.8 226.041 161.164 225.561 160.372C225.081 159.58 224.841 158.716 224.841 157.78V147.34C224.841 146.404 225.081 145.54 225.561 144.748C226.041 143.956 226.677 143.32 227.469 142.84C228.261 142.36 229.125 142.12 230.061 142.12H240.789C241.749 142.12 242.625 142.36 243.417 142.84C244.209 143.32 244.833 143.956 245.289 144.748C245.769 145.54 246.009 146.404 246.009 147.34V155.332H230.349V157.492H246.009V163H230.061ZM230.349 150.508H240.501V147.628H230.349V150.508ZM251.675 163V135.28H257.183V142.12H267.623C268.583 142.12 269.459 142.36 270.251 142.84C271.043 143.32 271.667 143.956 272.123 144.748C272.603 145.54 272.843 146.404 272.843 147.34V157.78C272.843 158.716 272.603 159.58 272.123 160.372C271.667 161.164 271.043 161.8 270.251 162.28C269.459 162.76 268.583 163 267.623 163H251.675ZM257.183 157.492H267.335V147.628H257.183V157.492ZM282.491 163C281.555 163 280.691 162.76 279.899 162.28C279.107 161.8 278.471 161.164 277.991 160.372C277.511 159.58 277.271 158.716 277.271 157.78V156.736H282.779V157.492H292.931V155.332H282.491C281.555 155.332 280.691 155.092 279.899 154.612C279.107 154.132 278.471 153.496 277.991 152.704C277.511 151.912 277.271 151.048 277.271 150.112V147.34C277.271 146.404 277.511 145.54 277.991 144.748C278.471 143.956 279.107 143.32 279.899 142.84C280.691 142.36 281.555 142.12 282.491 142.12H293.219C294.179 142.12 295.055 142.36 295.847 142.84C296.639 143.32 297.275 143.956 297.755 144.748C298.235 145.54 298.475 146.404 298.475 147.34V148.384H292.931V147.628H282.779V149.788H293.219C294.179 149.788 295.055 150.028 295.847 150.508C296.639 150.988 297.275 151.624 297.755 152.416C298.235 153.208 298.475 154.072 298.475 155.008V157.78C298.475 158.716 298.235 159.58 297.755 160.372C297.275 161.164 296.639 161.8 295.847 162.28C295.055 162.76 294.179 163 293.219 163H282.491ZM303.894 163V142.12H309.402V163H303.894ZM303.894 140.824V135.28H309.402V140.824H303.894ZM319.916 163C318.956 163 318.08 162.76 317.288 162.28C316.496 161.8 315.86 161.164 315.38 160.372C314.9 159.58 314.66 158.716 314.66 157.78V135.928H320.168V142.12H327.908V147.628H320.168V157.492H327.908V163H319.916ZM337.85 163C336.914 163 336.05 162.76 335.258 162.28C334.466 161.8 333.83 161.164 333.35 160.372C332.87 159.58 332.63 158.716 332.63 157.78V147.34C332.63 146.404 332.87 145.54 333.35 144.748C333.83 143.956 334.466 143.32 335.258 142.84C336.05 142.36 336.914 142.12 337.85 142.12H348.578C349.538 142.12 350.414 142.36 351.206 142.84C351.998 143.32 352.622 143.956 353.078 144.748C353.558 145.54 353.798 146.404 353.798 147.34V155.332H338.138V157.492H353.798V163H337.85ZM338.138 150.508H348.29V147.628H338.138V150.508ZM377.977 163C377.041 163 376.177 162.76 375.385 162.28C374.593 161.8 373.957 161.164 373.477 160.372C372.997 159.58 372.757 158.716 372.757 157.78V147.34C372.757 146.404 372.997 145.54 373.477 144.748C373.957 143.956 374.593 143.32 375.385 142.84C376.177 142.36 377.041 142.12 377.977 142.12H393.889V147.628H378.265V157.492H393.925V163H377.977ZM404.457 163C403.521 163 402.657 162.76 401.865 162.28C401.073 161.8 400.437 161.164 399.957 160.372C399.477 159.58 399.237 158.716 399.237 157.78V147.34C399.237 146.404 399.477 145.54 399.957 144.748C400.437 143.956 401.073 143.32 401.865 142.84C402.657 142.36 403.521 142.12 404.457 142.12H415.185C416.145 142.12 417.021 142.36 417.813 142.84C418.605 143.32 419.229 143.956 419.685 144.748C420.165 145.54 420.405 146.404 420.405 147.34V157.78C420.405 158.716 420.165 159.58 419.685 160.372C419.229 161.164 418.605 161.8 417.813 162.28C417.021 162.76 416.145 163 415.185 163H404.457ZM404.745 157.492H414.897V147.628H404.745V157.492ZM425.051 163V142.12H440.999C441.959 142.12 442.835 142.36 443.627 142.84C444.419 143.32 445.043 143.956 445.499 144.748C445.979 145.54 446.219 146.404 446.219 147.34V163H440.711V147.628H430.559V163H425.051ZM457.138 163C456.178 163 455.302 162.76 454.51 162.28C453.718 161.8 453.082 161.164 452.602 160.372C452.122 159.58 451.882 158.716 451.882 157.78V135.928H457.39V142.12H465.13V147.628H457.39V157.492H465.13V163H457.138ZM476.198 163C475.238 163 474.362 162.76 473.57 162.28C472.778 161.8 472.142 161.164 471.662 160.372C471.206 159.58 470.978 158.716 470.978 157.78V149.788H486.638V147.628H470.978V142.12H486.926C487.886 142.12 488.762 142.36 489.554 142.84C490.346 143.32 490.97 143.956 491.426 144.748C491.906 145.54 492.146 146.404 492.146 147.34V163H476.198ZM476.486 157.492H486.638V154.612H476.486V157.492ZM497.774 163V142.12H503.282V163H497.774ZM497.774 140.824V135.28H503.282V140.824H497.774ZM509.314 163V142.12H525.262C526.222 142.12 527.098 142.36 527.89 142.84C528.682 143.32 529.306 143.956 529.762 144.748C530.242 145.54 530.482 146.404 530.482 147.34V163H524.974V147.628H514.822V163H509.314ZM540.481 163C539.545 163 538.681 162.76 537.889 162.28C537.097 161.8 536.461 161.164 535.981 160.372C535.501 159.58 535.261 158.716 535.261 157.78V156.736H540.769V157.492H550.921V155.332H540.481C539.545 155.332 538.681 155.092 537.889 154.612C537.097 154.132 536.461 153.496 535.981 152.704C535.501 151.912 535.261 151.048 535.261 150.112V147.34C535.261 146.404 535.501 145.54 535.981 144.748C536.461 143.956 537.097 143.32 537.889 142.84C538.681 142.36 539.545 142.12 540.481 142.12H551.209C552.169 142.12 553.045 142.36 553.837 142.84C554.629 143.32 555.265 143.956 555.745 144.748C556.225 145.54 556.465 146.404 556.465 147.34V148.384H550.921V147.628H540.769V149.788H551.209C552.169 149.788 553.045 150.028 553.837 150.508C554.629 150.988 555.265 151.624 555.745 152.416C556.225 153.208 556.465 154.072 556.465 155.008V157.78C556.465 158.716 556.225 159.58 555.745 160.372C555.265 161.164 554.629 161.8 553.837 162.28C553.045 162.76 552.169 163 551.209 163H540.481ZM589.542 163V142.552H573.522V137.044H589.83C590.79 137.044 591.666 137.284 592.458 137.764C593.25 138.22 593.874 138.844 594.33 139.636C594.81 140.428 595.05 141.304 595.05 142.264V163H589.542ZM619.438 163C618.502 163 617.638 162.76 616.846 162.28C616.054 161.8 615.418 161.164 614.938 160.372C614.458 159.58 614.218 158.716 614.218 157.78V147.34C614.218 146.404 614.458 145.54 614.938 144.748C615.418 143.956 616.054 143.32 616.846 142.84C617.638 142.36 618.502 142.12 619.438 142.12H630.166C631.126 142.12 632.002 142.36 632.794 142.84C633.586 143.32 634.21 143.956 634.666 144.748C635.146 145.54 635.386 146.404 635.386 147.34V155.332H619.726V157.492H635.386V163H619.438ZM619.726 150.508H629.878V147.628H619.726V150.508ZM646.199 163C645.239 163 644.363 162.76 643.571 162.28C642.779 161.8 642.143 161.164 641.663 160.372C641.207 159.58 640.979 158.716 640.979 157.78V149.788H656.639V147.628H640.979V142.12H656.927C657.887 142.12 658.763 142.36 659.555 142.84C660.347 143.32 660.971 143.956 661.427 144.748C661.907 145.54 662.147 146.404 662.147 147.34V163H646.199ZM646.487 157.492H656.639V154.612H646.487V157.492ZM672.043 163C671.107 163 670.243 162.76 669.451 162.28C668.659 161.8 668.023 161.164 667.543 160.372C667.063 159.58 666.823 158.716 666.823 157.78V156.736H672.331V157.492H682.483V155.332H672.043C671.107 155.332 670.243 155.092 669.451 154.612C668.659 154.132 668.023 153.496 667.543 152.704C667.063 151.912 666.823 151.048 666.823 150.112V147.34C666.823 146.404 667.063 145.54 667.543 144.748C668.023 143.956 668.659 143.32 669.451 142.84C670.243 142.36 671.107 142.12 672.043 142.12H682.771C683.731 142.12 684.607 142.36 685.399 142.84C686.191 143.32 686.827 143.956 687.307 144.748C687.787 145.54 688.027 146.404 688.027 147.34V148.384H682.483V147.628H672.331V149.788H682.771C683.731 149.788 684.607 150.028 685.399 150.508C686.191 150.988 686.827 151.624 687.307 152.416C687.787 153.208 688.027 154.072 688.027 155.008V157.78C688.027 158.716 687.787 159.58 687.307 160.372C686.827 161.164 686.191 161.8 685.399 162.28C684.607 162.76 683.731 163 682.771 163H672.043ZM698.739 163C697.779 163 696.903 162.76 696.111 162.28C695.319 161.8 694.683 161.164 694.203 160.372C693.723 159.58 693.483 158.716 693.483 157.78V135.928H698.991V142.12H706.731V147.628H698.991V157.492H706.731V163H698.739ZM716.673 163C715.737 163 714.873 162.76 714.081 162.28C713.289 161.8 712.653 161.164 712.173 160.372C711.693 159.58 711.453 158.716 711.453 157.78V147.34C711.453 146.404 711.693 145.54 712.173 144.748C712.653 143.956 713.289 143.32 714.081 142.84C714.873 142.36 715.737 142.12 716.673 142.12H727.401C728.361 142.12 729.237 142.36 730.029 142.84C730.821 143.32 731.445 143.956 731.901 144.748C732.381 145.54 732.621 146.404 732.621 147.34V155.332H716.961V157.492H732.621V163H716.673ZM716.961 150.508H727.113V147.628H716.961V150.508ZM737.968 163V147.34C737.968 146.404 738.208 145.54 738.688 144.748C739.168 143.956 739.804 143.32 740.596 142.84C741.388 142.36 742.264 142.12 743.224 142.12H754.744V147.628H743.476V163H737.968ZM82.3345 208C81.3985 208 80.5345 207.76 79.7425 207.28C78.9505 206.8 78.3145 206.164 77.8345 205.372C77.3545 204.58 77.1145 203.716 77.1145 202.78V192.34C77.1145 191.404 77.3545 190.54 77.8345 189.748C78.3145 188.956 78.9505 188.32 79.7425 187.84C80.5345 187.36 81.3985 187.12 82.3345 187.12H93.0625C94.0225 187.12 94.8985 187.36 95.6905 187.84C96.4825 188.32 97.1065 188.956 97.5625 189.748C98.0425 190.54 98.2825 191.404 98.2825 192.34V200.332H82.6225V202.492H98.2825V208H82.3345ZM82.6225 195.508H92.7745V192.628H82.6225V195.508ZM106.441 216.244V210.7H118.825V208H108.385C107.425 208 106.549 207.76 105.757 207.28C104.965 206.8 104.329 206.164 103.849 205.372C103.369 204.58 103.129 203.716 103.129 202.78V192.34C103.129 191.404 103.369 190.54 103.849 189.748C104.329 188.956 104.965 188.32 105.757 187.84C106.549 187.36 107.425 187.12 108.385 187.12H119.113C120.073 187.12 120.949 187.36 121.741 187.84C122.533 188.32 123.157 188.956 123.613 189.748C124.093 190.54 124.333 191.404 124.333 192.34V211.024C124.333 211.984 124.093 212.86 123.613 213.652C123.157 214.444 122.533 215.068 121.741 215.524C120.949 216.004 120.073 216.244 119.113 216.244H106.441ZM108.637 202.492H118.825V192.628H108.637V202.492ZM132.112 216.244V210.7H144.496V208H134.056C133.096 208 132.22 207.76 131.428 207.28C130.636 206.8 130 206.164 129.52 205.372C129.04 204.58 128.8 203.716 128.8 202.78V192.34C128.8 191.404 129.04 190.54 129.52 189.748C130 188.956 130.636 188.32 131.428 187.84C132.22 187.36 133.096 187.12 134.056 187.12H144.784C145.744 187.12 146.62 187.36 147.412 187.84C148.204 188.32 148.828 188.956 149.284 189.748C149.764 190.54 150.004 191.404 150.004 192.34V211.024C150.004 211.984 149.764 212.86 149.284 213.652C148.828 214.444 148.204 215.068 147.412 215.524C146.62 216.004 145.744 216.244 144.784 216.244H132.112ZM134.308 202.492H144.496V192.628H134.308V202.492ZM159.873 208C158.937 208 158.073 207.76 157.281 207.28C156.489 206.8 155.853 206.164 155.373 205.372C154.893 204.58 154.653 203.716 154.653 202.78V201.736H160.161V202.492H170.313V200.332H159.873C158.937 200.332 158.073 200.092 157.281 199.612C156.489 199.132 155.853 198.496 155.373 197.704C154.893 196.912 154.653 196.048 154.653 195.112V192.34C154.653 191.404 154.893 190.54 155.373 189.748C155.853 188.956 156.489 188.32 157.281 187.84C158.073 187.36 158.937 187.12 159.873 187.12H170.601C171.561 187.12 172.437 187.36 173.229 187.84C174.021 188.32 174.657 188.956 175.137 189.748C175.617 190.54 175.857 191.404 175.857 192.34V193.384H170.313V192.628H160.161V194.788H170.601C171.561 194.788 172.437 195.028 173.229 195.508C174.021 195.988 174.657 196.624 175.137 197.416C175.617 198.208 175.857 199.072 175.857 200.008V202.78C175.857 203.716 175.617 204.58 175.137 205.372C174.657 206.164 174.021 206.8 173.229 207.28C172.437 207.76 171.561 208 170.601 208H159.873ZM181.348 208V202.492H186.856V208H181.348ZM204.124 208V182.08H209.632V208H204.124ZM214.415 208V185.5C214.415 184.564 214.655 183.7 215.135 182.908C215.615 182.116 216.251 181.48 217.043 181C217.835 180.52 218.711 180.28 219.671 180.28H227.663V185.824H219.923V187.12H227.663V192.628H219.923V208H214.415ZM248.388 215.488V209.944H260.772V208H250.332C249.372 208 248.496 207.76 247.704 207.28C246.912 206.8 246.276 206.164 245.796 205.372C245.316 204.58 245.076 203.716 245.076 202.78V187.192H250.584V202.492H260.772V187.192H266.28V210.268C266.28 211.228 266.04 212.104 265.56 212.896C265.104 213.688 264.48 214.312 263.688 214.768C262.896 215.248 262.02 215.488 261.06 215.488H248.388ZM276.151 208C275.215 208 274.351 207.76 273.559 207.28C272.767 206.8 272.131 206.164 271.651 205.372C271.171 204.58 270.931 203.716 270.931 202.78V192.34C270.931 191.404 271.171 190.54 271.651 189.748C272.131 188.956 272.767 188.32 273.559 187.84C274.351 187.36 275.215 187.12 276.151 187.12H286.879C287.839 187.12 288.715 187.36 289.507 187.84C290.299 188.32 290.923 188.956 291.379 189.748C291.859 190.54 292.099 191.404 292.099 192.34V202.78C292.099 203.716 291.859 204.58 291.379 205.372C290.923 206.164 290.299 206.8 289.507 207.28C288.715 207.76 287.839 208 286.879 208H276.151ZM276.439 202.492H286.591V192.628H276.439V202.492ZM301.964 208C301.004 208 300.128 207.76 299.336 207.28C298.544 206.8 297.908 206.164 297.428 205.372C296.972 204.58 296.744 203.716 296.744 202.78V187.12H302.252V202.492H312.404V187.12H317.912V202.78C317.912 203.716 317.672 204.58 317.192 205.372C316.736 206.164 316.112 206.8 315.32 207.28C314.528 207.76 313.652 208 312.692 208H301.964ZM336.977 208V185.5C336.977 184.564 337.217 183.7 337.697 182.908C338.177 182.116 338.813 181.48 339.605 181C340.397 180.52 341.273 180.28 342.233 180.28H350.225V185.824H342.485V187.12H350.225V192.628H342.485V208H336.977ZM354.597 208V187.12H360.105V208H354.597ZM354.597 185.824V180.28H360.105V185.824H354.597ZM366.137 208V187.12H382.085C383.045 187.12 383.921 187.36 384.713 187.84C385.505 188.32 386.129 188.956 386.585 189.748C387.065 190.54 387.305 191.404 387.305 192.34V208H381.797V192.628H371.645V208H366.137ZM397.107 208C396.147 208 395.271 207.76 394.479 207.28C393.687 206.8 393.051 206.164 392.571 205.372C392.115 204.58 391.887 203.716 391.887 202.78V192.34C391.887 191.404 392.115 190.54 392.571 189.748C393.051 188.956 393.687 188.32 394.479 187.84C395.271 187.36 396.147 187.12 397.107 187.12H407.583V180.28H413.091V208H397.107ZM397.431 202.492H407.583V192.628H397.431V202.492ZM437.364 208C436.404 208 435.528 207.76 434.736 207.28C433.944 206.8 433.308 206.164 432.828 205.372C432.372 204.58 432.144 203.716 432.144 202.78V194.788H447.804V192.628H432.144V187.12H448.092C449.052 187.12 449.928 187.36 450.72 187.84C451.512 188.32 452.136 188.956 452.592 189.748C453.072 190.54 453.312 191.404 453.312 192.34V208H437.364ZM437.652 202.492H447.804V199.612H437.652V202.492ZM463.211 208C462.275 208 461.411 207.76 460.619 207.28C459.827 206.8 459.191 206.164 458.711 205.372C458.231 204.58 457.991 203.716 457.991 202.78V180.244H463.535V202.492H467.747V208H463.211ZM477.492 208C476.556 208 475.692 207.76 474.9 207.28C474.108 206.8 473.472 206.164 472.992 205.372C472.512 204.58 472.272 203.716 472.272 202.78V180.244H477.816V202.492H482.028V208H477.492ZM504.786 208C503.85 208 502.986 207.76 502.194 207.28C501.402 206.8 500.766 206.164 500.286 205.372C499.806 204.58 499.566 203.716 499.566 202.78V192.34C499.566 191.404 499.806 190.54 500.286 189.748C500.766 188.956 501.402 188.32 502.194 187.84C502.986 187.36 503.85 187.12 504.786 187.12H515.514C516.474 187.12 517.35 187.36 518.142 187.84C518.934 188.32 519.558 188.956 520.014 189.748C520.494 190.54 520.734 191.404 520.734 192.34V200.332H505.074V202.492H520.734V208H504.786ZM505.074 195.508H515.226V192.628H505.074V195.508ZM531.548 208C530.588 208 529.712 207.76 528.92 207.28C528.128 206.8 527.492 206.164 527.012 205.372C526.556 204.58 526.328 203.716 526.328 202.78V194.788H541.988V192.628H526.328V187.12H542.276C543.236 187.12 544.112 187.36 544.904 187.84C545.696 188.32 546.32 188.956 546.776 189.748C547.256 190.54 547.496 191.404 547.496 192.34V208H531.548ZM531.836 202.492H541.988V199.612H531.836V202.492ZM557.391 208C556.455 208 555.591 207.76 554.799 207.28C554.007 206.8 553.371 206.164 552.891 205.372C552.411 204.58 552.171 203.716 552.171 202.78V201.736H557.679V202.492H567.831V200.332H557.391C556.455 200.332 555.591 200.092 554.799 199.612C554.007 199.132 553.371 198.496 552.891 197.704C552.411 196.912 552.171 196.048 552.171 195.112V192.34C552.171 191.404 552.411 190.54 552.891 189.748C553.371 188.956 554.007 188.32 554.799 187.84C555.591 187.36 556.455 187.12 557.391 187.12H568.119C569.079 187.12 569.955 187.36 570.747 187.84C571.539 188.32 572.175 188.956 572.655 189.748C573.135 190.54 573.375 191.404 573.375 192.34V193.384H567.831V192.628H557.679V194.788H568.119C569.079 194.788 569.955 195.028 570.747 195.508C571.539 195.988 572.175 196.624 572.655 197.416C573.135 198.208 573.375 199.072 573.375 200.008V202.78C573.375 203.716 573.135 204.58 572.655 205.372C572.175 206.164 571.539 206.8 570.747 207.28C569.955 207.76 569.079 208 568.119 208H557.391ZM584.087 208C583.127 208 582.251 207.76 581.459 207.28C580.667 206.8 580.031 206.164 579.551 205.372C579.071 204.58 578.831 203.716 578.831 202.78V180.928H584.339V187.12H592.079V192.628H584.339V202.492H592.079V208H584.087ZM602.021 208C601.085 208 600.221 207.76 599.429 207.28C598.637 206.8 598.001 206.164 597.521 205.372C597.041 204.58 596.801 203.716 596.801 202.78V192.34C596.801 191.404 597.041 190.54 597.521 189.748C598.001 188.956 598.637 188.32 599.429 187.84C600.221 187.36 601.085 187.12 602.021 187.12H612.749C613.709 187.12 614.585 187.36 615.377 187.84C616.169 188.32 616.793 188.956 617.249 189.748C617.729 190.54 617.969 191.404 617.969 192.34V200.332H602.309V202.492H617.969V208H602.021ZM602.309 195.508H612.461V192.628H602.309V195.508ZM623.317 208V192.34C623.317 191.404 623.557 190.54 624.037 189.748C624.517 188.956 625.153 188.32 625.945 187.84C626.737 187.36 627.613 187.12 628.573 187.12H640.093V192.628H628.825V208H623.317ZM662.652 208C661.716 208 660.852 207.76 660.06 207.28C659.268 206.8 658.632 206.164 658.152 205.372C657.672 204.58 657.432 203.716 657.432 202.78V192.34C657.432 191.404 657.672 190.54 658.152 189.748C658.632 188.956 659.268 188.32 660.06 187.84C660.852 187.36 661.716 187.12 662.652 187.12H673.38C674.34 187.12 675.216 187.36 676.008 187.84C676.8 188.32 677.424 188.956 677.88 189.748C678.36 190.54 678.6 191.404 678.6 192.34V200.332H662.94V202.492H678.6V208H662.652ZM662.94 195.508H673.092V192.628H662.94V195.508ZM686.758 216.244V210.7H699.142V208H688.702C687.742 208 686.866 207.76 686.074 207.28C685.282 206.8 684.646 206.164 684.166 205.372C683.686 204.58 683.446 203.716 683.446 202.78V192.34C683.446 191.404 683.686 190.54 684.166 189.748C684.646 188.956 685.282 188.32 686.074 187.84C686.866 187.36 687.742 187.12 688.702 187.12H699.43C700.39 187.12 701.266 187.36 702.058 187.84C702.85 188.32 703.474 188.956 703.93 189.748C704.41 190.54 704.65 191.404 704.65 192.34V211.024C704.65 211.984 704.41 212.86 703.93 213.652C703.474 214.444 702.85 215.068 702.058 215.524C701.266 216.004 700.39 216.244 699.43 216.244H686.758ZM688.954 202.492H699.142V192.628H688.954V202.492ZM712.429 216.244V210.7H724.813V208H714.373C713.413 208 712.537 207.76 711.745 207.28C710.953 206.8 710.317 206.164 709.837 205.372C709.357 204.58 709.117 203.716 709.117 202.78V192.34C709.117 191.404 709.357 190.54 709.837 189.748C710.317 188.956 710.953 188.32 711.745 187.84C712.537 187.36 713.413 187.12 714.373 187.12H725.101C726.061 187.12 726.937 187.36 727.729 187.84C728.521 188.32 729.145 188.956 729.601 189.748C730.081 190.54 730.321 191.404 730.321 192.34V211.024C730.321 211.984 730.081 212.86 729.601 213.652C729.145 214.444 728.521 215.068 727.729 215.524C726.937 216.004 726.061 216.244 725.101 216.244H712.429ZM714.625 202.492H724.813V192.628H714.625V202.492ZM740.19 208C739.254 208 738.39 207.76 737.598 207.28C736.806 206.8 736.17 206.164 735.69 205.372C735.21 204.58 734.97 203.716 734.97 202.78V201.736H740.478V202.492H750.63V200.332H740.19C739.254 200.332 738.39 200.092 737.598 199.612C736.806 199.132 736.17 198.496 735.69 197.704C735.21 196.912 734.97 196.048 734.97 195.112V192.34C734.97 191.404 735.21 190.54 735.69 189.748C736.17 188.956 736.806 188.32 737.598 187.84C738.39 187.36 739.254 187.12 740.19 187.12H750.918C751.878 187.12 752.754 187.36 753.546 187.84C754.338 188.32 754.974 188.956 755.454 189.748C755.934 190.54 756.174 191.404 756.174 192.34V193.384H750.63V192.628H740.478V194.788H750.918C751.878 194.788 752.754 195.028 753.546 195.508C754.338 195.988 754.974 196.624 755.454 197.416C755.934 198.208 756.174 199.072 756.174 200.008V202.78C756.174 203.716 755.934 204.58 755.454 205.372C754.974 206.164 754.338 206.8 753.546 207.28C752.754 207.76 751.878 208 750.918 208H740.19ZM78.9324 253C77.9964 253 77.1324 252.76 76.3404 252.28C75.5484 251.8 74.9124 251.164 74.4324 250.372C73.9524 249.58 73.7124 248.716 73.7124 247.78V246.736H79.2204V247.492H89.3724V245.332H78.9324C77.9964 245.332 77.1324 245.092 76.3404 244.612C75.5484 244.132 74.9124 243.496 74.4324 242.704C73.9524 241.912 73.7124 241.048 73.7124 240.112V237.34C73.7124 236.404 73.9524 235.54 74.4324 234.748C74.9124 233.956 75.5484 233.32 76.3404 232.84C77.1324 232.36 77.9964 232.12 78.9324 232.12H89.6604C90.6204 232.12 91.4964 232.36 92.2884 232.84C93.0804 233.32 93.7164 233.956 94.1964 234.748C94.6764 235.54 94.9164 236.404 94.9164 237.34V238.384H89.3724V237.628H79.2204V239.788H89.6604C90.6204 239.788 91.4964 240.028 92.2884 240.508C93.0804 240.988 93.7164 241.624 94.1964 242.416C94.6764 243.208 94.9164 244.072 94.9164 245.008V247.78C94.9164 248.716 94.6764 249.58 94.1964 250.372C93.7164 251.164 93.0804 251.8 92.2884 252.28C91.4964 252.76 90.6204 253 89.6604 253H78.9324ZM100.408 261.28V232.12H116.356C117.316 232.12 118.192 232.36 118.984 232.84C119.776 233.32 120.4 233.956 120.856 234.748C121.336 235.54 121.576 236.404 121.576 237.34V247.78C121.576 248.716 121.336 249.58 120.856 250.372C120.4 251.164 119.776 251.8 118.984 252.28C118.192 252.76 117.316 253 116.356 253H105.916V261.28H100.408ZM105.916 247.492H116.068V237.628H105.916V247.492ZM126.042 253V237.34C126.042 236.404 126.282 235.54 126.762 234.748C127.242 233.956 127.878 233.32 128.67 232.84C129.462 232.36 130.338 232.12 131.298 232.12H142.818V237.628H131.55V253H126.042ZM152.327 253C151.391 253 150.527 252.76 149.735 252.28C148.943 251.8 148.307 251.164 147.827 250.372C147.347 249.58 147.107 248.716 147.107 247.78V237.34C147.107 236.404 147.347 235.54 147.827 234.748C148.307 233.956 148.943 233.32 149.735 232.84C150.527 232.36 151.391 232.12 152.327 232.12H163.055C164.015 232.12 164.891 232.36 165.683 232.84C166.475 233.32 167.099 233.956 167.555 234.748C168.035 235.54 168.275 236.404 168.275 237.34V245.332H152.615V247.492H168.275V253H152.327ZM152.615 240.508H162.767V237.628H152.615V240.508ZM179.089 253C178.129 253 177.253 252.76 176.461 252.28C175.669 251.8 175.033 251.164 174.553 250.372C174.097 249.58 173.869 248.716 173.869 247.78V239.788H189.529V237.628H173.869V232.12H189.817C190.777 232.12 191.653 232.36 192.445 232.84C193.237 233.32 193.861 233.956 194.317 234.748C194.797 235.54 195.037 236.404 195.037 237.34V253H179.089ZM179.377 247.492H189.529V244.612H179.377V247.492ZM204.841 253C203.881 253 203.005 252.76 202.213 252.28C201.421 251.8 200.785 251.164 200.305 250.372C199.849 249.58 199.621 248.716 199.621 247.78V237.34C199.621 236.404 199.849 235.54 200.305 234.748C200.785 233.956 201.421 233.32 202.213 232.84C203.005 232.36 203.881 232.12 204.841 232.12H215.317V225.28H220.825V253H204.841ZM205.165 247.492H215.317V237.628H205.165V247.492ZM245.098 253C244.138 253 243.262 252.76 242.47 252.28C241.678 251.8 241.042 251.164 240.562 250.372C240.106 249.58 239.878 248.716 239.878 247.78V239.788H255.538V237.628H239.878V232.12H255.826C256.786 232.12 257.662 232.36 258.454 232.84C259.246 233.32 259.87 233.956 260.326 234.748C260.806 235.54 261.046 236.404 261.046 237.34V253H245.098ZM245.386 247.492H255.538V244.612H245.386V247.492ZM270.593 253C269.657 253 268.793 252.76 268.001 252.28C267.209 251.8 266.573 251.164 266.093 250.372C265.613 249.58 265.373 248.716 265.373 247.78V237.34C265.373 236.404 265.613 235.54 266.093 234.748C266.573 233.956 267.209 233.32 268.001 232.84C268.793 232.36 269.657 232.12 270.593 232.12H286.505V237.628H270.881V247.492H286.541V253H270.593ZM291.888 253V237.34C291.888 236.404 292.128 235.54 292.608 234.748C293.088 233.956 293.724 233.32 294.516 232.84C295.308 232.36 296.184 232.12 297.144 232.12H308.664V237.628H297.396V253H291.888ZM317.997 253C317.061 253 316.197 252.76 315.405 252.28C314.613 251.8 313.977 251.164 313.497 250.372C313.017 249.58 312.777 248.716 312.777 247.78V237.34C312.777 236.404 313.017 235.54 313.497 234.748C313.977 233.956 314.613 233.32 315.405 232.84C316.197 232.36 317.061 232.12 317.997 232.12H328.725C329.685 232.12 330.561 232.36 331.353 232.84C332.145 233.32 332.769 233.956 333.225 234.748C333.705 235.54 333.945 236.404 333.945 237.34V247.78C333.945 248.716 333.705 249.58 333.225 250.372C332.769 251.164 332.145 251.8 331.353 252.28C330.561 252.76 329.685 253 328.725 253H317.997ZM318.285 247.492H328.437V237.628H318.285V247.492ZM343.807 253C342.871 253 342.007 252.76 341.215 252.28C340.423 251.8 339.787 251.164 339.307 250.372C338.827 249.58 338.587 248.716 338.587 247.78V246.736H344.095V247.492H354.247V245.332H343.807C342.871 245.332 342.007 245.092 341.215 244.612C340.423 244.132 339.787 243.496 339.307 242.704C338.827 241.912 338.587 241.048 338.587 240.112V237.34C338.587 236.404 338.827 235.54 339.307 234.748C339.787 233.956 340.423 233.32 341.215 232.84C342.007 232.36 342.871 232.12 343.807 232.12H354.535C355.495 232.12 356.371 232.36 357.163 232.84C357.955 233.32 358.591 233.956 359.071 234.748C359.551 235.54 359.791 236.404 359.791 237.34V238.384H354.247V237.628H344.095V239.788H354.535C355.495 239.788 356.371 240.028 357.163 240.508C357.955 240.988 358.591 241.624 359.071 242.416C359.551 243.208 359.791 244.072 359.791 245.008V247.78C359.791 248.716 359.551 249.58 359.071 250.372C358.591 251.164 357.955 251.8 357.163 252.28C356.371 252.76 355.495 253 354.535 253H343.807ZM370.286 253C369.35 253 368.486 252.76 367.694 252.28C366.902 251.8 366.266 251.164 365.786 250.372C365.306 249.58 365.066 248.716 365.066 247.78V246.736H370.574V247.492H380.726V245.332H370.286C369.35 245.332 368.486 245.092 367.694 244.612C366.902 244.132 366.266 243.496 365.786 242.704C365.306 241.912 365.066 241.048 365.066 240.112V237.34C365.066 236.404 365.306 235.54 365.786 234.748C366.266 233.956 366.902 233.32 367.694 232.84C368.486 232.36 369.35 232.12 370.286 232.12H381.014C381.974 232.12 382.85 232.36 383.642 232.84C384.434 233.32 385.07 233.956 385.55 234.748C386.03 235.54 386.27 236.404 386.27 237.34V238.384H380.726V237.628H370.574V239.788H381.014C381.974 239.788 382.85 240.028 383.642 240.508C384.434 240.988 385.07 241.624 385.55 242.416C386.03 243.208 386.27 244.072 386.27 245.008V247.78C386.27 248.716 386.03 249.58 385.55 250.372C385.07 251.164 384.434 251.8 383.642 252.28C382.85 252.76 381.974 253 381.014 253H370.286ZM410.384 253C409.424 253 408.548 252.76 407.756 252.28C406.964 251.8 406.328 251.164 405.848 250.372C405.368 249.58 405.128 248.716 405.128 247.78V225.928H410.636V232.12H418.376V237.628H410.636V247.492H418.376V253H410.384ZM423.909 253V225.28H429.417V232.12H439.857C440.793 232.12 441.657 232.36 442.449 232.84C443.241 233.32 443.877 233.956 444.357 234.748C444.837 235.54 445.077 236.404 445.077 237.34V253H439.569V237.628H429.417V253H423.909ZM454.833 253C453.897 253 453.033 252.76 452.241 252.28C451.449 251.8 450.813 251.164 450.333 250.372C449.853 249.58 449.613 248.716 449.613 247.78V237.34C449.613 236.404 449.853 235.54 450.333 234.748C450.813 233.956 451.449 233.32 452.241 232.84C453.033 232.36 453.897 232.12 454.833 232.12H465.561C466.521 232.12 467.397 232.36 468.189 232.84C468.981 233.32 469.605 233.956 470.061 234.748C470.541 235.54 470.781 236.404 470.781 237.34V245.332H455.121V247.492H470.781V253H454.833ZM455.121 240.508H465.273V237.628H455.121V240.508ZM497.372 253L489.164 232.12H494.996L499.496 242.956L504.212 232.12H509.54L514.58 243.1L518.756 232.12H524.588L516.74 253H512.564L506.912 240.544L501.512 253H497.372ZM533.498 253C532.562 253 531.698 252.76 530.906 252.28C530.114 251.8 529.478 251.164 528.998 250.372C528.518 249.58 528.278 248.716 528.278 247.78V237.34C528.278 236.404 528.518 235.54 528.998 234.748C529.478 233.956 530.114 233.32 530.906 232.84C531.698 232.36 532.562 232.12 533.498 232.12H544.226C545.186 232.12 546.062 232.36 546.854 232.84C547.646 233.32 548.27 233.956 548.726 234.748C549.206 235.54 549.446 236.404 549.446 237.34V245.332H533.786V247.492H549.446V253H533.498ZM533.786 240.508H543.938V237.628H533.786V240.508ZM555.112 253V225.28H560.62V232.12H571.06C572.02 232.12 572.896 232.36 573.688 232.84C574.48 233.32 575.104 233.956 575.56 234.748C576.04 235.54 576.28 236.404 576.28 237.34V247.78C576.28 248.716 576.04 249.58 575.56 250.372C575.104 251.164 574.48 251.8 573.688 252.28C572.896 252.76 572.02 253 571.06 253H555.112ZM560.62 247.492H570.772V237.628H560.62V247.492ZM585.928 253C584.992 253 584.128 252.76 583.336 252.28C582.544 251.8 581.908 251.164 581.428 250.372C580.948 249.58 580.708 248.716 580.708 247.78V246.736H586.216V247.492H596.368V245.332H585.928C584.992 245.332 584.128 245.092 583.336 244.612C582.544 244.132 581.908 243.496 581.428 242.704C580.948 241.912 580.708 241.048 580.708 240.112V237.34C580.708 236.404 580.948 235.54 581.428 234.748C581.908 233.956 582.544 233.32 583.336 232.84C584.128 232.36 584.992 232.12 585.928 232.12H596.656C597.616 232.12 598.492 232.36 599.284 232.84C600.076 233.32 600.712 233.956 601.192 234.748C601.672 235.54 601.912 236.404 601.912 237.34V238.384H596.368V237.628H586.216V239.788H596.656C597.616 239.788 598.492 240.028 599.284 240.508C600.076 240.988 600.712 241.624 601.192 242.416C601.672 243.208 601.912 244.072 601.912 245.008V247.78C601.912 248.716 601.672 249.58 601.192 250.372C600.712 251.164 600.076 251.8 599.284 252.28C598.492 252.76 597.616 253 596.656 253H585.928ZM607.331 253V232.12H612.839V253H607.331ZM607.331 230.824V225.28H612.839V230.824H607.331ZM623.353 253C622.393 253 621.517 252.76 620.725 252.28C619.933 251.8 619.297 251.164 618.817 250.372C618.337 249.58 618.097 248.716 618.097 247.78V225.928H623.605V232.12H631.345V237.628H623.605V247.492H631.345V253H623.353ZM641.287 253C640.351 253 639.487 252.76 638.695 252.28C637.903 251.8 637.267 251.164 636.787 250.372C636.307 249.58 636.067 248.716 636.067 247.78V237.34C636.067 236.404 636.307 235.54 636.787 234.748C637.267 233.956 637.903 233.32 638.695 232.84C639.487 232.36 640.351 232.12 641.287 232.12H652.015C652.975 232.12 653.851 232.36 654.643 232.84C655.435 233.32 656.059 233.956 656.515 234.748C656.995 235.54 657.235 236.404 657.235 237.34V245.332H641.575V247.492H657.235V253H641.287ZM641.575 240.508H651.727V237.628H641.575V240.508ZM662.901 257.788V247.888H668.409V252.424C668.409 253.288 668.169 254.092 667.689 254.836C667.209 255.58 666.549 256.216 665.709 256.744C664.869 257.272 663.933 257.62 662.901 257.788ZM689.736 260.488V254.944H702.12V253H691.68C690.72 253 689.844 252.76 689.052 252.28C688.26 251.8 687.624 251.164 687.144 250.372C686.664 249.58 686.424 248.716 686.424 247.78V232.192H691.932V247.492H702.12V232.192H707.628V255.268C707.628 256.228 707.388 257.104 706.908 257.896C706.452 258.688 705.828 259.312 705.036 259.768C704.244 260.248 703.368 260.488 702.408 260.488H689.736ZM717.499 253C716.563 253 715.699 252.76 714.907 252.28C714.115 251.8 713.479 251.164 712.999 250.372C712.519 249.58 712.279 248.716 712.279 247.78V237.34C712.279 236.404 712.519 235.54 712.999 234.748C713.479 233.956 714.115 233.32 714.907 232.84C715.699 232.36 716.563 232.12 717.499 232.12H728.227C729.187 232.12 730.063 232.36 730.855 232.84C731.647 233.32 732.271 233.956 732.727 234.748C733.207 235.54 733.447 236.404 733.447 237.34V247.78C733.447 248.716 733.207 249.58 732.727 250.372C732.271 251.164 731.647 251.8 730.855 252.28C730.063 252.76 729.187 253 728.227 253H717.499ZM717.787 247.492H727.939V237.628H717.787V247.492ZM743.312 253C742.352 253 741.476 252.76 740.684 252.28C739.892 251.8 739.256 251.164 738.776 250.372C738.32 249.58 738.092 248.716 738.092 247.78V232.12H743.6V247.492H753.752V232.12H759.26V247.78C759.26 248.716 759.02 249.58 758.54 250.372C758.084 251.164 757.46 251.8 756.668 252.28C755.876 252.76 755 253 754.04 253H743.312ZM68.877 298L60.669 277.12H66.501L71.001 287.956L75.717 277.12H81.045L86.085 288.1L90.261 277.12H96.093L88.245 298H84.069L78.417 285.544L73.017 298H68.877ZM100.276 298V277.12H105.784V298H100.276ZM100.276 275.824V270.28H105.784V275.824H100.276ZM116.613 298C115.677 298 114.813 297.76 114.021 297.28C113.229 296.8 112.593 296.164 112.113 295.372C111.633 294.58 111.393 293.716 111.393 292.78V270.244H116.937V292.492H121.149V298H116.613ZM130.893 298C129.957 298 129.093 297.76 128.301 297.28C127.509 296.8 126.873 296.164 126.393 295.372C125.913 294.58 125.673 293.716 125.673 292.78V270.244H131.217V292.492H135.429V298H130.893ZM153.076 298V270.28H158.584V277.12H169.024C169.984 277.12 170.86 277.36 171.652 277.84C172.444 278.32 173.068 278.956 173.524 279.748C174.004 280.54 174.244 281.404 174.244 282.34V292.78C174.244 293.716 174.004 294.58 173.524 295.372C173.068 296.164 172.444 296.8 171.652 297.28C170.86 297.76 169.984 298 169.024 298H153.076ZM158.584 292.492H168.736V282.628H158.584V292.492ZM183.999 298C183.063 298 182.199 297.76 181.407 297.28C180.615 296.8 179.979 296.164 179.499 295.372C179.019 294.58 178.779 293.716 178.779 292.78V282.34C178.779 281.404 179.019 280.54 179.499 279.748C179.979 278.956 180.615 278.32 181.407 277.84C182.199 277.36 183.063 277.12 183.999 277.12H194.727C195.687 277.12 196.563 277.36 197.355 277.84C198.147 278.32 198.771 278.956 199.227 279.748C199.707 280.54 199.947 281.404 199.947 282.34V290.332H184.287V292.492H199.947V298H183.999ZM184.287 285.508H194.439V282.628H184.287V285.508ZM218.943 298V282.34C218.943 281.404 219.183 280.54 219.663 279.748C220.143 278.956 220.779 278.32 221.571 277.84C222.363 277.36 223.239 277.12 224.199 277.12H235.719V282.628H224.451V298H218.943ZM245.227 298C244.291 298 243.427 297.76 242.635 297.28C241.843 296.8 241.207 296.164 240.727 295.372C240.247 294.58 240.007 293.716 240.007 292.78V282.34C240.007 281.404 240.247 280.54 240.727 279.748C241.207 278.956 241.843 278.32 242.635 277.84C243.427 277.36 244.291 277.12 245.227 277.12H255.955C256.915 277.12 257.791 277.36 258.583 277.84C259.375 278.32 259.999 278.956 260.455 279.748C260.935 280.54 261.175 281.404 261.175 282.34V290.332H245.515V292.492H261.175V298H245.227ZM245.515 285.508H255.667V282.628H245.515V285.508ZM272.889 298L264.681 277.12H270.513L275.013 287.956L279.729 277.12H285.057L290.097 288.1L294.273 277.12H300.105L292.257 298H288.081L282.429 285.544L277.029 298H272.889ZM309.121 298C308.161 298 307.285 297.76 306.493 297.28C305.701 296.8 305.065 296.164 304.585 295.372C304.129 294.58 303.901 293.716 303.901 292.78V284.788H319.561V282.628H303.901V277.12H319.849C320.809 277.12 321.685 277.36 322.477 277.84C323.269 278.32 323.893 278.956 324.349 279.748C324.829 280.54 325.069 281.404 325.069 282.34V298H309.121ZM309.409 292.492H319.561V289.612H309.409V292.492ZM329.713 298V282.34C329.713 281.404 329.953 280.54 330.433 279.748C330.913 278.956 331.549 278.32 332.341 277.84C333.133 277.36 334.009 277.12 334.969 277.12H346.489V282.628H335.221V298H329.713ZM355.763 298C354.803 298 353.927 297.76 353.135 297.28C352.343 296.8 351.707 296.164 351.227 295.372C350.771 294.58 350.543 293.716 350.543 292.78V282.34C350.543 281.404 350.771 280.54 351.227 279.748C351.707 278.956 352.343 278.32 353.135 277.84C353.927 277.36 354.803 277.12 355.763 277.12H366.239V270.28H371.747V298H355.763ZM356.087 292.492H366.239V282.628H356.087V292.492ZM381.774 298C380.838 298 379.974 297.76 379.182 297.28C378.39 296.8 377.754 296.164 377.274 295.372C376.794 294.58 376.554 293.716 376.554 292.78V282.34C376.554 281.404 376.794 280.54 377.274 279.748C377.754 278.956 378.39 278.32 379.182 277.84C379.974 277.36 380.838 277.12 381.774 277.12H392.502C393.462 277.12 394.338 277.36 395.13 277.84C395.922 278.32 396.546 278.956 397.002 279.748C397.482 280.54 397.722 281.404 397.722 282.34V290.332H382.062V292.492H397.722V298H381.774ZM382.062 285.508H392.214V282.628H382.062V285.508ZM407.492 298C406.532 298 405.656 297.76 404.864 297.28C404.072 296.8 403.436 296.164 402.956 295.372C402.5 294.58 402.272 293.716 402.272 292.78V282.34C402.272 281.404 402.5 280.54 402.956 279.748C403.436 278.956 404.072 278.32 404.864 277.84C405.656 277.36 406.532 277.12 407.492 277.12H417.968V270.28H423.476V298H407.492ZM407.816 292.492H417.968V282.628H407.816V292.492ZM450.125 298L441.917 277.12H447.749L452.249 287.956L456.965 277.12H462.293L467.333 288.1L471.509 277.12H477.341L469.493 298H465.317L459.665 285.544L454.265 298H450.125ZM481.525 298V277.12H487.033V298H481.525ZM481.525 275.824V270.28H487.033V275.824H481.525ZM497.546 298C496.586 298 495.71 297.76 494.918 297.28C494.126 296.8 493.49 296.164 493.01 295.372C492.53 294.58 492.29 293.716 492.29 292.78V270.928H497.798V277.12H505.538V282.628H497.798V292.492H505.538V298H497.546ZM511.072 298V270.28H516.58V277.12H527.02C527.956 277.12 528.82 277.36 529.612 277.84C530.404 278.32 531.04 278.956 531.52 279.748C532 280.54 532.24 281.404 532.24 282.34V298H526.732V282.628H516.58V298H511.072ZM555.504 298C554.544 298 553.668 297.76 552.876 297.28C552.084 296.8 551.448 296.164 550.968 295.372C550.512 294.58 550.284 293.716 550.284 292.78V277.12H555.792V292.492H565.944V277.12H571.452V292.78C571.452 293.716 571.212 294.58 570.732 295.372C570.276 296.164 569.652 296.8 568.86 297.28C568.068 297.76 567.192 298 566.232 298H555.504ZM577.151 298V277.12H593.099C594.059 277.12 594.935 277.36 595.727 277.84C596.519 278.32 597.143 278.956 597.599 279.748C598.079 280.54 598.319 281.404 598.319 282.34V298H592.811V282.628H582.659V298H577.151ZM603.946 298V277.12H609.454V298H603.946ZM603.946 275.824V270.28H609.454V275.824H603.946ZM630.345 306.28V298H619.869C618.909 298 618.033 297.76 617.241 297.28C616.449 296.8 615.813 296.164 615.333 295.372C614.877 294.58 614.649 293.716 614.649 292.78V282.34C614.649 281.404 614.877 280.54 615.333 279.748C615.813 278.956 616.449 278.32 617.241 277.84C618.033 277.36 618.909 277.12 619.869 277.12H635.853V306.28H630.345ZM620.193 292.492H630.345V282.628H620.193V292.492ZM646.13 298C645.17 298 644.294 297.76 643.502 297.28C642.71 296.8 642.074 296.164 641.594 295.372C641.138 294.58 640.91 293.716 640.91 292.78V277.12H646.418V292.492H656.57V277.12H662.078V292.78C662.078 293.716 661.838 294.58 661.358 295.372C660.902 296.164 660.278 296.8 659.486 297.28C658.694 297.76 657.818 298 656.858 298H646.13ZM672.01 298C671.074 298 670.21 297.76 669.418 297.28C668.626 296.8 667.99 296.164 667.51 295.372C667.03 294.58 666.79 293.716 666.79 292.78V282.34C666.79 281.404 667.03 280.54 667.51 279.748C667.99 278.956 668.626 278.32 669.418 277.84C670.21 277.36 671.074 277.12 672.01 277.12H682.738C683.698 277.12 684.574 277.36 685.366 277.84C686.158 278.32 686.782 278.956 687.238 279.748C687.718 280.54 687.958 281.404 687.958 282.34V290.332H672.298V292.492H687.958V298H672.01ZM672.298 285.508H682.45V282.628H672.298V285.508ZM712.03 298C711.094 298 710.23 297.76 709.438 297.28C708.646 296.8 708.01 296.164 707.53 295.372C707.05 294.58 706.81 293.716 706.81 292.78V291.736H712.318V292.492H722.47V290.332H712.03C711.094 290.332 710.23 290.092 709.438 289.612C708.646 289.132 708.01 288.496 707.53 287.704C707.05 286.912 706.81 286.048 706.81 285.112V282.34C706.81 281.404 707.05 280.54 707.53 279.748C708.01 278.956 708.646 278.32 709.438 277.84C710.23 277.36 711.094 277.12 712.03 277.12H722.758C723.718 277.12 724.594 277.36 725.386 277.84C726.178 278.32 726.814 278.956 727.294 279.748C727.774 280.54 728.014 281.404 728.014 282.34V283.384H722.47V282.628H712.318V284.788H722.758C723.718 284.788 724.594 285.028 725.386 285.508C726.178 285.988 726.814 286.624 727.294 287.416C727.774 288.208 728.014 289.072 728.014 290.008V292.78C728.014 293.716 727.774 294.58 727.294 295.372C726.814 296.164 726.178 296.8 725.386 297.28C724.594 297.76 723.718 298 722.758 298H712.03ZM737.879 298C736.943 298 736.079 297.76 735.287 297.28C734.495 296.8 733.859 296.164 733.379 295.372C732.899 294.58 732.659 293.716 732.659 292.78V282.34C732.659 281.404 732.899 280.54 733.379 279.748C733.859 278.956 734.495 278.32 735.287 277.84C736.079 277.36 736.943 277.12 737.879 277.12H748.607C749.567 277.12 750.443 277.36 751.235 277.84C752.027 278.32 752.651 278.956 753.107 279.748C753.587 280.54 753.827 281.404 753.827 282.34V290.332H738.167V292.492H753.827V298H737.879ZM738.167 285.508H748.319V282.628H738.167V285.508ZM764.713 298C763.753 298 762.877 297.76 762.085 297.28C761.293 296.8 760.657 296.164 760.177 295.372C759.697 294.58 759.457 293.716 759.457 292.78V270.928H764.965V277.12H772.705V282.628H764.965V292.492H772.705V298H764.713ZM301.172 343C300.236 343 299.372 342.76 298.58 342.28C297.788 341.8 297.152 341.164 296.672 340.372C296.192 339.58 295.952 338.716 295.952 337.78V327.34C295.952 326.404 296.192 325.54 296.672 324.748C297.152 323.956 297.788 323.32 298.58 322.84C299.372 322.36 300.236 322.12 301.172 322.12H311.9C312.86 322.12 313.736 322.36 314.528 322.84C315.32 323.32 315.944 323.956 316.4 324.748C316.88 325.54 317.12 326.404 317.12 327.34V337.78C317.12 338.716 316.88 339.58 316.4 340.372C315.944 341.164 315.32 341.8 314.528 342.28C313.736 342.76 312.86 343 311.9 343H301.172ZM301.46 337.492H311.612V327.628H301.46V337.492ZM322.749 343V320.5C322.749 319.564 322.989 318.7 323.469 317.908C323.949 317.116 324.585 316.48 325.377 316C326.169 315.52 327.045 315.28 328.005 315.28H335.997V320.824H328.257V322.12H335.997V327.628H328.257V343H322.749ZM356.686 351.244V345.7H369.07V343H358.63C357.67 343 356.794 342.76 356.002 342.28C355.21 341.8 354.574 341.164 354.094 340.372C353.614 339.58 353.374 338.716 353.374 337.78V327.34C353.374 326.404 353.614 325.54 354.094 324.748C354.574 323.956 355.21 323.32 356.002 322.84C356.794 322.36 357.67 322.12 358.63 322.12H369.358C370.318 322.12 371.194 322.36 371.986 322.84C372.778 323.32 373.402 323.956 373.858 324.748C374.338 325.54 374.578 326.404 374.578 327.34V346.024C374.578 346.984 374.338 347.86 373.858 348.652C373.402 349.444 372.778 350.068 371.986 350.524C371.194 351.004 370.318 351.244 369.358 351.244H356.686ZM358.882 337.492H369.07V327.628H358.882V337.492ZM384.52 343C383.584 343 382.72 342.76 381.928 342.28C381.136 341.8 380.5 341.164 380.02 340.372C379.54 339.58 379.3 338.716 379.3 337.78V327.34C379.3 326.404 379.54 325.54 380.02 324.748C380.5 323.956 381.136 323.32 381.928 322.84C382.72 322.36 383.584 322.12 384.52 322.12H395.248C396.208 322.12 397.084 322.36 397.876 322.84C398.668 323.32 399.292 323.956 399.748 324.748C400.228 325.54 400.468 326.404 400.468 327.34V337.78C400.468 338.716 400.228 339.58 399.748 340.372C399.292 341.164 398.668 341.8 397.876 342.28C397.084 342.76 396.208 343 395.248 343H384.52ZM384.808 337.492H394.96V327.628H384.808V337.492ZM410.367 343C409.431 343 408.567 342.76 407.775 342.28C406.983 341.8 406.347 341.164 405.867 340.372C405.387 339.58 405.147 338.716 405.147 337.78V327.34C405.147 326.404 405.387 325.54 405.867 324.748C406.347 323.956 406.983 323.32 407.775 322.84C408.567 322.36 409.431 322.12 410.367 322.12H421.095C422.055 322.12 422.931 322.36 423.723 322.84C424.515 323.32 425.139 323.956 425.595 324.748C426.075 325.54 426.315 326.404 426.315 327.34V337.78C426.315 338.716 426.075 339.58 425.595 340.372C425.139 341.164 424.515 341.8 423.723 342.28C422.931 342.76 422.055 343 421.095 343H410.367ZM410.655 337.492H420.807V327.628H410.655V337.492ZM436.085 343C435.125 343 434.249 342.76 433.457 342.28C432.665 341.8 432.029 341.164 431.549 340.372C431.093 339.58 430.865 338.716 430.865 337.78V327.34C430.865 326.404 431.093 325.54 431.549 324.748C432.029 323.956 432.665 323.32 433.457 322.84C434.249 322.36 435.125 322.12 436.085 322.12H446.561V315.28H452.069V343H436.085ZM436.409 337.492H446.561V327.628H436.409V337.492ZM457.72 343V322.12H463.228V343H457.72ZM457.72 320.824V315.28H463.228V320.824H457.72ZM473.283 343C472.347 343 471.483 342.76 470.691 342.28C469.899 341.8 469.263 341.164 468.783 340.372C468.303 339.58 468.063 338.716 468.063 337.78V327.34C468.063 326.404 468.303 325.54 468.783 324.748C469.263 323.956 469.899 323.32 470.691 322.84C471.483 322.36 472.347 322.12 473.283 322.12H484.011C484.971 322.12 485.847 322.36 486.639 322.84C487.431 323.32 488.055 323.956 488.511 324.748C488.991 325.54 489.231 326.404 489.231 327.34V335.332H473.571V337.492H489.231V343H473.283ZM473.571 330.508H483.723V327.628H473.571V330.508ZM499.549 343C498.613 343 497.749 342.76 496.957 342.28C496.165 341.8 495.529 341.164 495.049 340.372C494.569 339.58 494.329 338.716 494.329 337.78V336.736H499.837V337.492H509.989V335.332H499.549C498.613 335.332 497.749 335.092 496.957 334.612C496.165 334.132 495.529 333.496 495.049 332.704C494.569 331.912 494.329 331.048 494.329 330.112V327.34C494.329 326.404 494.569 325.54 495.049 324.748C495.529 323.956 496.165 323.32 496.957 322.84C497.749 322.36 498.613 322.12 499.549 322.12H510.277C511.237 322.12 512.113 322.36 512.905 322.84C513.697 323.32 514.333 323.956 514.813 324.748C515.293 325.54 515.533 326.404 515.533 327.34V328.384H509.989V327.628H499.837V329.788H510.277C511.237 329.788 512.113 330.028 512.905 330.508C513.697 330.988 514.333 331.624 514.813 332.416C515.293 333.208 515.533 334.072 515.533 335.008V337.78C515.533 338.716 515.293 339.58 514.813 340.372C514.333 341.164 513.697 341.8 512.905 342.28C512.113 342.76 511.237 343 510.277 343H499.549ZM521.024 343V337.492H526.532V343H521.024Z" fill="white"/>
</g>
<defs>
<filter id="filter0_d_806_223" x="0" y="0" width="851" height="513" filterUnits="userSpaceOnUse" color-interpolation-filters="sRGB">
<feFlood flood-opacity="0" result="BackgroundImageFix"/>
<feColorMatrix in="SourceAlpha" type="matrix" values="0 0 0 0 0 0 0 0 0 0 0 0 0 0 0 0 0 0 127 0" result="hardAlpha"/>
<feOffset dx="8" dy="13"/>
<feGaussianBlur stdDeviation="7.5"/>
<feComposite in2="hardAlpha" operator="out"/>
<feColorMatrix type="matrix" values="0 0 0 0 0.972549 0 0 0 0 0.0235294 0 0 0 0 0.8 0 0 0 1 0"/>
<feBlend mode="normal" in2="BackgroundImageFix" result="effect1_dropShadow_806_223"/>
<feBlend mode="normal" in="SourceGraphic" in2="effect1_dropShadow_806_223" result="shape"/>
</filter>
</defs>
</svg>
