<svg width="880" height="743" viewBox="0 0 880 743" fill="none" xmlns="http://www.w3.org/2000/svg">
<path d="M291.026 592.121H350.825V582.818H321.22V573.398H356.948V560.939H282.383V570.901H276V524.504H296.113V507.852H307.889V447.206H314.46V507.499H325.153V526.741H346.892V445.934L358.126 437.761V273.039L371.009 263.618V165.217H426.733V194.563H440.864V149.485H538.134V743.82H291.026V592.121Z" fill="#570A57"/>
<path d="M528.548 587.647H566.82L580.975 634.892H612.676L632.248 743.066H525.204L528.548 587.647Z" fill="#570A57"/>
<path d="M324.7 587.646H286.427L272.273 634.892H240.572L221 743.066H328.044L324.7 587.646Z" fill="#570A57"/>
<path d="M462.579 172.589H519.905L514.935 132.433H467.549L462.579 172.589Z" fill="#570A57"/>
<path d="M509 136.248L505.609 0L504.078 136.248H509Z" fill="#570A57"/>
<path d="M500.827 136.248L498.943 29.11L497.883 136.248H500.827Z" fill="#570A57"/>
<path d="M491.242 136.248L489.358 82.6673L488.275 136.248H491.242Z" fill="#570A57"/>
<path d="M535.473 551.541L560.343 537.787V495.37H618.729L635.521 480.131H665.621L672.828 473.254H535.473V551.541Z" fill="#570A57"/>
<path d="M347.355 551.541L322.484 537.787V495.369H264.099L247.306 480.131H217.207L210 473.254H347.355V551.541Z" fill="#570A57"/>
<path d="M868.004 466.071H522.849V458.911H879.638L868.004 466.071Z" fill="#570A57"/>
<path d="M345.155 466.071H-0.00012207V458.911H356.79L345.155 466.071Z" fill="#570A57"/>
<path d="M532.317 210.649H567.056V385.829L536.627 416.235L532.317 210.649Z" fill="#570A57"/>
<path d="M362.739 210.649H328V385.829L358.429 416.235L362.739 210.649Z" fill="#570A57"/>
<path d="M506.551 166.489V375.82L481.303 401.067V498.95H509V518.404L488.228 539.176H471.011V544.9H490.017V606.488H505.373L522.849 658.444H535.473V665.557H516.302V671.492H537.545L552.501 741.842H307.843V668.477H346.138V658.562H327.885L346.138 609.126H371.174V572.267H322.468V561.574H371.763V544.593H349.812V462.938L361.023 454.766V290.043L373.93 280.646V182.198H429.677V211.568H443.761V166.489H506.551Z" fill="url(#paint0_linear_427_197)"/>
<path d="M416.959 342.47V316.68H408.998V342.47H416.959ZM471.741 166.489V205.515H475.957V228.878H471.741V275.182H425.744V182.222H429.677L429.677 211.568L443.808 211.568V166.489H471.741ZM509 518.404L488.228 539.176L479.419 539.176V517.697H509L509 518.404ZM448.943 741.842V669.372H445.08V709.764H418.207V622.763H418.796V514.235H416.064V532.558H403.369V585.409H371.056V572.267H363.99V561.574H371.527V544.593H363.99V490.424H349.553V462.868L360.787 454.695V338.725H393.525V415.976H406.054V371.816H420.468V363.502H425.179V371.816H450.262V478.93H455.843V316.28H490.959V201.063H506.527V375.82L481.303 401.067L481.303 488.21H469.127V553.967H469.645V626.813H479.419V544.9H489.994V606.488H505.35L522.802 658.444H529.867V665.509H516.137V671.445H530.009V681.572H495.599V741.794L448.943 741.842ZM345.855 668.477H346.162V658.562H345.879V609.856L346.091 609.291H364.933V609.126H371.245V599.258H379.535V609.291H393.03V741.842H345.926L345.855 668.477ZM327.862 658.562L344.018 614.802V658.538L327.862 658.562ZM344.018 668.477V700.602H310.151V668.477H344.018ZM322.468 561.574H331.277V572.267H322.468V561.574Z" fill="url(#paint1_linear_427_197)"/>
<path d="M418.89 444.403H437.732V440.376H439.027V433.31H421.034V436.961H418.867L418.89 444.403ZM417.619 317.882H403.228V312.158H417.619V317.882ZM390.298 435.995H378.287V431.284H390.298V435.995ZM451.298 450.786H457.233V449.231H466.654V453H466.466V456.839H451.274L451.298 450.786ZM446.588 490.824H458.105V495.417H446.588V490.824ZM467.596 540.519H455.161V535.573H467.596V540.519ZM420.751 465.882H433.045V470.781H420.751V465.882ZM398.094 218.586H387.99V214.559H397.976L398.094 218.586ZM374.542 359.31H383.657V355.777H397.976V361.523H390.722V365.786H374.424L374.542 359.31ZM391.617 480.131H381.089V475.939H391.617V480.131ZM376.379 378.34H387.613V382.814H376.379V378.34ZM393.266 195.788H379.747V190.394H393.266V195.788ZM375.508 499.161H391.476V505.521H375.508V499.161ZM367.995 304.363H382.126V310.015H367.995V304.363ZM455.938 552.789H450.874V550.788H455.938V552.789ZM378.993 330.176H376.638V329.257H378.993V330.176ZM403.346 264.889H395.103V261.522H403.346V264.889ZM428.853 292.681H417.077V287.971H428.853V292.681ZM474.285 480.061H481.35V486.938H474.285V480.061ZM477.606 416.965H481.303V420.521H477.606V416.965ZM461.59 471.017H463.945V467.296H479.278V473.396H468.632V473.796H461.567L461.59 471.017ZM431.349 242.327H426.639V240.325H431.349V242.327ZM416.064 255.869H426.003V259.826H416.064V255.869ZM466.536 563.27V559.455H471.788V555.192H483.329V559.784H476.098V563.27H466.536ZM474.497 511.173H466.725V508.111H474.497V511.173ZM441.194 286.911H429.913V282.412H441.194V286.911ZM489.829 511.314H501.817V516.025H489.829V511.314ZM506.033 520.594H499.109V517.838H506.033V520.594ZM458.693 569.488H471.129V574.434H458.693V569.488ZM507.564 500.528H509V502.176H507.564V500.528ZM487.474 523.632V525.516H482.764V523.632H487.474ZM493.174 530.698H496.683L493.809 533.571H493.174V530.698ZM490.559 525.422V522.007H489.829V518.615H498.355V520.594H502.477V524.833L501.958 525.351L490.559 525.422ZM387.048 490.094H401.415V495.817H387.048V490.094ZM371.245 402.928H361.023V398.641H371.245V402.928ZM392.606 196V201.841H385.188V205.939H373.906V200.286H377.933V196.07L392.606 196ZM446.046 219.128H437.049V218.539H431.656V222.307H413.733V218.068H411.943V210.414H429.677L429.677 211.568L439.781 211.568V215.524H446.046V219.128ZM357.938 476.976H351.697V474.479H357.938V476.976ZM365.993 526.67V533.594H349.789V526.67H365.993ZM374.024 467.272H356.124V460.206H374.024V467.272ZM496.494 187.662V188.51H494.351V187.662H496.494ZM453.795 242.091H438.321V235.921H453.795V242.091ZM371.857 559.667H378.499V567.345H359.257V561.574H371.857V559.667ZM364.132 569.087V572.314H346.986V569.087H364.132ZM441.241 515.106H449.697V514.47H451.251V511.173H462.273V515.577H458.317V517.932H456.503V519.911H461.213V522.69H454.148V521.206H441.241V515.106ZM442.796 537.575V535.997H446.729V537.575H442.796ZM352.45 493.721V498.031H349.883V493.721H352.45ZM477.794 562.234H488.416V566.473H477.794V562.234ZM491.925 268.917H506.528V275.653H491.784L491.925 268.917ZM481.774 575.376V573.986H485.119V575.376H481.774ZM388.084 249.487H376.308V244.776H388.084V249.487ZM391.641 281.447H385.965V279.091H391.641V281.447ZM379.135 266.703H387.095V269.859H379.135V266.703ZM370.679 287.9H374.589V289.454H370.679V287.9ZM381.49 239.383H373.788V232.717H381.49V239.383ZM392.3 254.833H379.182V249.604H392.3V254.833ZM397.411 415.505H392.701V413.644H397.411V415.505ZM401.603 326.007H383.845V318.941H401.65L401.603 326.007ZM362.648 336.205H361V333.85H362.648V336.205ZM371.763 389.715H363.896V386.559H371.763V389.715ZM370.35 395.25H362.224V392.023H370.35V395.25ZM402.828 485.054V484.253H404.853V485.054H402.828ZM365.734 439.528V442.448H361.023V439.528H365.734ZM396.563 368.424H407.02V372.593H396.563V368.424ZM388.249 340.986H390.392V345.814H378.287V345.673H370.02V338.395H388.249V340.986ZM371.103 352.621H366.629V350.831H371.103V352.621ZM382.314 224.121H374.212V220.894H382.314V224.121ZM432.197 473.49H438.933V476.175H432.197V473.49ZM425.744 569.087H432.244V571.678H425.744V569.087ZM439.169 472.642H448.59V476.41H439.169V472.642ZM437.685 461.714H440.582V460.607H445.858V461.714H455.702V468.779H437.685V461.714ZM432.268 508.394H425.202V507.122H421.67V500.363H438.651V507.122H432.221L432.268 508.394ZM419.95 512.987H427.746V516.095H419.95V512.987ZM420.869 581.829H435.495V587.646H420.869V581.829ZM424.896 530.815V532.37H421.222V530.91L424.896 530.815ZM485.66 323.558H492.067V326.125H485.66V323.558ZM419.338 483.947H435.824V490.518H433.469V490.942H428.947V490.518H419.409L419.338 483.947ZM476.946 394.261V389.809H488.133V394.214L476.946 394.261ZM489.358 318.894H495.387V321.249H489.358V318.894ZM460.954 574.763H480.408V582.489H460.978L460.954 574.763ZM492.679 275.794H506.528V282.153H492.679V275.794ZM448.707 598.457H446.917V593.958H458.222V595.16H461.708V600.341H448.707V598.457ZM439.522 498.243H445.528V500.598H439.522V498.243ZM471.411 500.598V496.547H481.303V499.02H481.539V500.598H471.411ZM375.06 184.436H373.906V182.316H375.06V184.436ZM429.23 208.765V209.283H418.137V204.761H420.162V204.243H423.554V198.826H429.63V208.671L429.23 208.765ZM422.918 192.962H429.63V196.07H422.918V192.962ZM362.389 313.925H360.976V311.358H362.389V313.925ZM373.529 322.757H361.023V315.691H373.529V322.757ZM494.422 384.958H497.389L494.422 387.925V384.958ZM506.528 250.923H496.895V246.071H506.528V250.923ZM453.7 166.678H443.761L443.761 166.489H453.7V166.678ZM405.042 452.599H405.466V450.856H411.495V452.599H424.26V460.254H405.042V452.599ZM399.013 562.658H416.3V569.535H399.013V562.658ZM412.932 551.211H400.331V546.148H413.026L412.932 551.211ZM400.379 530.839H417.407V537.598H400.331L400.379 530.839ZM383.774 524.668H386.13V520.594H382.196V515.601H394.773V517.815H401.556V526.058H399.201V530.768H383.845L383.774 524.668ZM392.489 555.71H404.265V560.42H392.489V555.71ZM371.763 544.617H370.444V539.435H385.753V545.535H371.763V544.617ZM376.12 553.567H381.843V555.922H376.12V553.567ZM470.54 378.457H483.164V383.497H470.54V378.457ZM467.784 372.899H472.354V374.571H467.784V372.899ZM453.842 412.938H467.973V418.566H453.842V412.938ZM478.972 263.217H475.698V261.875H479.066L478.972 263.217ZM466.984 331.801H474.285V334.533H466.984V331.801ZM473.201 228.549H463.639V224.733H473.201V228.549ZM472.354 313.784H460.978V309.261H472.354V313.784ZM478.618 358.532H463.38V352.456H478.618V358.532ZM470.022 288.3V289.36H467.361V288.3H470.022ZM428.594 375.631H435.424V378.34H428.594V375.631ZM421.905 359.828H444.845V365.622H439.899V367.082H421.905V359.828ZM449.791 402.834H431.302V395.485H449.791V402.834ZM487.615 244.611H472.448V238.558H487.615V244.611ZM449.932 307.754H442.984V304.999H450.026L449.932 307.754ZM458.199 330.27H449.579V326.855H458.199V330.27ZM439.357 324.57V327.161H432.81V324.57H439.357ZM469.716 351.019H461.991V352.55H453.371V351.019H450.427V343.341H469.716V351.019ZM414.816 421.675H419.668V423.63H414.816V421.675ZM412.979 204.997H408.999V203.419H412.979V204.997ZM481.821 266.232V264.183H486.956V266.232H481.821ZM413.874 401.727H426.686V404.223H428.005V405.401H426.686V406.838H413.874V401.727ZM493.739 225.087H474.897V217.597H493.739V225.087ZM419.856 427.21H426.922V430.013H419.856V427.21ZM478.43 175.203H459.965V167.855H478.43V175.203ZM461.944 257.259H443.973V250.193H461.944V257.259ZM459.588 234.696H454.007V232.482H459.588V234.696ZM454.878 181.586H443.738V177.158H454.878V181.586ZM427.44 409.57H443.926V416.164H427.44V409.57ZM469.221 363.643H487.215V370.709H469.221V363.643ZM488.487 302.855H478.383V298.828H488.487V302.855ZM482.975 338.49H490.324V341.598H482.975V338.49ZM443.644 444.945H449.532V444.12H457.045V447.111H451.18V447.959H443.644V444.945ZM429.654 300.053H417.878V295.342H428.994V289.878H443.502V295.672H429.748L429.654 300.053ZM477.064 428.152V430.507H471.482V428.152H477.064Z" fill="url(#paint2_linear_427_197)"/>
<path d="M336.694 624.364H514.676L510.625 610.468H344.701L336.694 624.364Z" fill="#C265AF"/>
<path d="M406.054 607.666H432.762V605.311H408.409V442.849L439.851 411.383V302.149L515.5 226.5L513.852 224.828L437.496 301.183V410.418L406.054 441.859V607.666Z" fill="#570A57"/>
<path d="M409.634 626.413H449.343V628.768H409.634V626.413Z" fill="#570A57"/>
<path d="M318.253 640.827H371.174V643.182H318.253V640.827Z" fill="#570A57"/>
<path d="M510.625 710.588H561.192V712.943H510.625V710.588Z" fill="#570A57"/>
<path d="M364.226 616.05H401.744L398.494 595.89H367.476L364.226 616.05Z" fill="#C265AF"/>
<path d="M394.632 597.821L392.418 529.402L391.405 597.821H394.632Z" fill="#C265AF"/>
<path d="M389.262 597.821L388.037 544.028L387.331 597.821H389.262Z" fill="#C265AF"/>
<path d="M382.997 597.821L381.749 570.924L381.066 597.821H382.997Z" fill="#C265AF"/>
<path d="M387.26 222.896H389.968V234.319H387.26V222.896ZM418.066 222.896H420.774V234.319H418.066V222.896ZM430.76 222.896H433.304V234.319H430.595L430.76 222.896ZM456.055 222.896H458.74V234.319H456.055V222.896ZM480.573 222.896H483.281V234.319H480.408L480.573 222.896ZM397.576 203.654H400.284V215.077H397.576V203.654ZM410.812 203.654H413.52V215.077H410.812V203.654ZM494.209 203.654H496.894V215.077H494.186L494.209 203.654ZM403.275 249.345H405.984V260.768H403.275V249.345ZM421.669 249.345H424.378V260.768H421.528L421.669 249.345ZM439.687 249.345H442.395V260.768H439.687V249.345ZM404.57 280.622H407.161V292.139H404.453L404.57 280.622ZM419.644 280.622H422.234V292.139H419.526L419.644 280.622ZM417.289 302.267H419.997V313.689H417.289V302.267ZM414.933 355.989H417.642V367.506H414.933V355.989ZM375.201 385.664H377.91V397.087H375.201V385.664ZM400.308 385.664H402.686V397.087H400.001L400.308 385.664ZM429.347 385.664H432.056V397.087H429.347V385.664ZM452.899 324.712H455.608V336.134H452.899V324.712ZM467.29 324.712H469.998V336.134H467.29V324.712ZM484.694 324.712H487.403V336.134H484.694V324.712ZM478.053 341.599H480.761V353.021H478.053V341.599ZM443.361 472.289H446.069V483.711H443.361V472.289ZM466.018 472.289H468.632V483.711H465.923L466.018 472.289ZM438.156 491.531H440.864V502.953H438.156V491.531ZM456.408 491.531H459.211V502.953H456.503L456.408 491.531ZM455.608 532.417H458.316V543.84H455.608V532.417ZM462.014 576.53H464.722V587.953H462.014V576.53Z" fill="url(#paint3_linear_427_197)"/>
<defs>
<linearGradient id="paint0_linear_427_197" x1="439.819" y1="1251.11" x2="439.819" y2="-701.422" gradientUnits="userSpaceOnUse">
<stop stop-color="#C165B4"/>
<stop offset="0.55" stop-color="#774584"/>
<stop offset="1" stop-color="#3F2D60"/>
</linearGradient>
<linearGradient id="paint1_linear_427_197" x1="439.819" y1="1125.4" x2="439.819" y2="-827.128" gradientUnits="userSpaceOnUse">
<stop stop-color="#C165B4"/>
<stop offset="0.55" stop-color="#774584"/>
<stop offset="1" stop-color="#3F2D60"/>
</linearGradient>
<linearGradient id="paint2_linear_427_197" x1="439.819" y1="1133.58" x2="439.819" y2="-819.69" gradientUnits="userSpaceOnUse">
<stop stop-color="#C165B4"/>
<stop offset="0.55" stop-color="#774584"/>
<stop offset="1" stop-color="#3F2D60"/>
</linearGradient>
<linearGradient id="paint3_linear_427_197" x1="-328.993" y1="631.107" x2="-328.993" y2="-436.786" gradientUnits="userSpaceOnUse">
<stop stop-color="#F4FFDB"/>
<stop offset="0.05" stop-color="#E2FCD6"/>
<stop offset="0.21" stop-color="#B2F6C9"/>
<stop offset="0.33" stop-color="#94F2C1"/>
<stop offset="0.39" stop-color="#89F0BE"/>
<stop offset="0.48" stop-color="#7FEABB"/>
<stop offset="0.62" stop-color="#64D9B3"/>
<stop offset="0.8" stop-color="#38BEA6"/>
<stop offset="1" stop-color="#009C96"/>
</linearGradient>
</defs>
</svg>
