<svg width="98" height="98" viewBox="0 0 98 98" fill="none" xmlns="http://www.w3.org/2000/svg">
<path d="M36.6522 53.2305C33.9682 54.5725 31.7316 56.5651 30.0643 59.0457C29.129 60.469 29.129 62.2583 30.0643 63.6817C31.7316 66.1623 33.9682 68.1549 36.6522 69.4969M61.9058 53.2305C64.5898 54.5725 66.8264 56.5651 68.4937 59.0457C69.4291 60.469 69.4291 62.2583 68.4937 63.6817C66.8264 66.1623 64.5898 68.1549 61.9058 69.4969" stroke="#2E0249" stroke-width="6.09992" stroke-linecap="round" stroke-linejoin="round"/>
<path d="M9.12123 32.9384L87.2815 32.8977M36.6522 89.8303H61.0519C81.3849 89.8303 89.5181 81.6971 89.5181 61.364V36.9643C89.5181 16.6313 81.3849 8.49805 61.0519 8.49805H36.6522C16.3191 8.49805 8.18591 16.6313 8.18591 36.9643V61.364C8.18591 81.6971 16.3191 89.8303 36.6522 89.8303Z" stroke="#2E0249" stroke-width="6.09992" stroke-linecap="round" stroke-linejoin="round"/>
</svg>
