<svg width="33" height="33" viewBox="0 0 33 33" fill="none" xmlns="http://www.w3.org/2000/svg">
<path d="M16.338 3.03185C20.7003 3.03185 21.2177 3.04819 22.9413 3.12715C27.3689 3.32866 29.437 5.42946 29.6385 9.82439C29.7175 11.5467 29.7325 12.0641 29.7325 16.4263C29.7325 20.7899 29.7161 21.306 29.6385 23.0283C29.4357 27.4191 27.373 29.524 22.9413 29.7255C21.2177 29.8045 20.703 29.8208 16.338 29.8208C11.9758 29.8208 11.4584 29.8045 9.7361 29.7255C5.29761 29.5226 3.24038 27.4123 3.03887 23.0269C2.95991 21.3046 2.94357 20.7886 2.94357 16.425C2.94357 12.0627 2.96127 11.5467 3.03887 9.82303C3.24174 5.42946 5.30441 3.32729 9.7361 3.12579C11.4598 3.04819 11.9758 3.03185 16.338 3.03185ZM16.338 0.0869141C11.9009 0.0869141 11.3454 0.105975 9.60268 0.184942C3.66925 0.457243 0.37169 3.74936 0.0993897 9.68824C0.019061 11.4323 0 11.9878 0 16.425C0 20.8621 0.019061 21.419 0.0980282 23.1617C0.370329 29.0951 3.66244 32.3927 9.60131 32.665C11.3454 32.7439 11.9009 32.763 16.338 32.763C20.7752 32.763 21.332 32.7439 23.0747 32.665C29.0027 32.3927 32.3084 29.1006 32.5767 23.1617C32.657 21.419 32.6761 20.8621 32.6761 16.425C32.6761 11.9878 32.657 11.4323 32.578 9.6896C32.3112 3.76161 29.015 0.458605 23.0761 0.186304C21.332 0.105975 20.7752 0.0869141 16.338 0.0869141V0.0869141ZM16.338 8.03537C11.7048 8.03537 7.94845 11.7918 7.94845 16.425C7.94845 21.0582 11.7048 24.8159 16.338 24.8159C20.9712 24.8159 24.7276 21.0595 24.7276 16.425C24.7276 11.7918 20.9712 8.03537 16.338 8.03537ZM16.338 21.871C13.3305 21.871 10.892 19.4339 10.892 16.425C10.892 13.4174 13.3305 10.9789 16.338 10.9789C19.3456 10.9789 21.784 13.4174 21.784 16.425C21.784 19.4339 19.3456 21.871 16.338 21.871ZM25.0598 5.74396C23.9761 5.74396 23.0979 6.62213 23.0979 7.70453C23.0979 8.78693 23.9761 9.6651 25.0598 9.6651C26.1422 9.6651 27.019 8.78693 27.019 7.70453C27.019 6.62213 26.1422 5.74396 25.0598 5.74396Z" fill="#F806CC"/>
</svg>
