<svg width="30" height="28" viewBox="0 0 30 28" fill="none" xmlns="http://www.w3.org/2000/svg">
<path fill-rule="evenodd" clip-rule="evenodd" d="M18.4316 8.23762L8.00002 8.23762C7.977 8.23762 7.95412 8.23699 7.93141 8.23575C7.33639 9.44561 6.09153 10.2782 4.65219 10.2782C2.63515 10.2782 1.00002 8.6431 1.00002 6.62606C1.00002 4.60902 2.63515 2.97389 4.65219 2.97389C6.37135 2.97389 7.81307 4.16171 8.20141 5.76143L18.0326 5.76143C18.2207 2.83331 20.6552 0.516602 23.6309 0.516602C26.7292 0.516602 29.2409 3.02828 29.2409 6.1266C29.2409 9.22492 26.7292 11.7366 23.6309 11.7366C21.2793 11.7366 19.2656 10.2897 18.4316 8.23762ZM20.5009 6.1266C20.5009 4.39795 21.9022 2.9966 23.6309 2.9966C25.3595 2.9966 26.7609 4.39795 26.7609 6.1266C26.7609 7.85525 25.3595 9.2566 23.6309 9.2566C21.9022 9.2566 20.5009 7.85525 20.5009 6.1266Z" fill="white"/>
<path fill-rule="evenodd" clip-rule="evenodd" d="M6.36915 16.3428C9.21713 16.3428 11.5694 18.465 11.931 21.2143H21.9108C22.418 19.8065 23.7654 18.8001 25.3478 18.8001C27.3649 18.8001 29 20.4352 29 22.4522C29 24.4693 27.3649 26.1044 25.3478 26.1044C23.7655 26.1044 22.4181 25.0981 21.9109 23.6904H11.7048C10.9733 25.9382 8.86095 27.5628 6.36915 27.5628C3.27084 27.5628 0.759155 25.0511 0.759155 21.9528C0.759155 18.8545 3.27084 16.3428 6.36915 16.3428ZM9.49916 21.9528C9.49916 20.2241 8.09781 18.8228 6.36915 18.8228C4.6405 18.8228 3.23915 20.2241 3.23915 21.9528C3.23915 23.6814 4.6405 25.0828 6.36915 25.0828C8.09781 25.0828 9.49916 23.6814 9.49916 21.9528Z" fill="white"/>
</svg>
