<svg width="1440" height="27" viewBox="0 0 1440 27" fill="none" xmlns="http://www.w3.org/2000/svg">
<path fill-rule="evenodd" clip-rule="evenodd" d="M1440 0H0V10.7378H79.7715L86.649 1.12172L86.6633 1.14655L86.6805 1.12172L98.6565 19.1178H108.347L114.087 10.862H322.498V10.8587L390.7 10.8177L392.246 8.60342L389.755 5.02559H394.747L392.246 8.60342L393.82 10.862H396.702L403.491 1.12172L403.5 1.13359L403.505 1.12172L421.543 27L431.114 13.2846L554.985 13.2436L557.153 16.3507L563.64 7.04015L567.967 13.2436L623.664 13.2846L629.092 5.49738H654.317L663.811 19.1178H667.568L691.003 18.9699L695.627 25.6041L702.562 15.6511L706.082 10.5834H767.367L769.846 7.03583L765.724 1.12172H773.977L769.846 7.03583L772.319 10.5834H881.522L888.399 1.12172L888.413 1.14655L888.43 1.12172L900.406 19.1178H910.097L915.836 10.862H1124.25V10.8361L1154.95 10.8177L1156.5 8.60342L1154.01 5.02559H1159L1156.5 8.60342L1158.07 10.862H1160.95L1167.74 1.12172L1167.75 1.13359L1167.76 1.12172L1185.79 27L1195.36 13.2846L1281.73 13.2436L1283.9 16.3507L1290.39 7.04015L1294.72 13.2436L1350.41 13.2846L1355.84 5.49738H1381.07L1390.56 19.1178H1394.32L1417.75 18.9699L1422.38 25.6041L1429.31 15.6511L1432.83 10.7184H1440V0ZM39.0202 6.71194H35.1233V1.12172H39.0202V6.71194ZM52.02 6.71194H50.7217V1.12172H52.02V6.71194ZM61.1115 6.71194H59.8132V1.12172H61.1115V6.71194ZM63.0825 6.71194H61.782V1.12172H63.0825V6.71194ZM667.487 13.7391H666.187V11.8768H667.487V13.7391ZM667.487 10.0112H666.187V8.14891H667.487V10.0112ZM677.564 13.7391H676.262V8.14891H677.564V13.7391ZM682.544 13.7391H681.243V11.8768H682.544V13.7391ZM840.77 6.71194H836.873V1.12172H840.77V6.71194ZM853.77 6.71194H852.472V1.12172H853.77V6.71194ZM862.862 6.71194H861.564V1.12172H862.862V6.71194ZM864.833 6.71194H863.532V1.12172H864.833V6.71194ZM1394.24 13.7391H1392.94V11.8768H1394.24V13.7391ZM1394.24 10.0112H1392.94V8.14891H1394.24V10.0112ZM1404.31 13.7391H1403.01V8.14891H1404.31V13.7391ZM1409.29 13.7391H1407.99V11.8768H1409.29V13.7391ZM560.231 20.7544L557.153 16.3507L554.083 20.7544H560.231ZM767.347 10.6126H772.339L772.319 10.5834H767.367L767.347 10.6126ZM1286.98 20.7544L1283.9 16.3507L1280.83 20.7544H1286.98Z" fill="#121211"/>
</svg>
