<svg width="1440" height="584" viewBox="0 0 1440 584" fill="none" xmlns="http://www.w3.org/2000/svg">
<path d="M100 343H108V351H100V343Z" fill="#A91079"/>
<path d="M912 416H920V424H912V416Z" fill="#A91079"/>
<path d="M734 635H742V643H734V635Z" fill="#A91079"/>
<path d="M240 723H248V731H240V723Z" fill="#A91079"/>
<path d="M726 532H734V540H726V532Z" fill="#A91079"/>
<path d="M1316 383H1324V391H1316V383Z" fill="#A91079"/>
<path d="M60 597H68V605H60V597Z" fill="#A91079"/>
<path d="M1084 112H1092V120H1084V112Z" fill="#A91079"/>
<path d="M742 30H750V38H742V30Z" fill="#A91079"/>
<path d="M300 -26H308V-18H300V-26Z" fill="#A91079"/>
<path d="M23 101H31V109H23V101Z" fill="#A91079"/>
<path d="M308 784H326V804.25H308V784Z" fill="#A91079"/>
<path d="M1423 139H1441V159.25H1423V139Z" fill="#A91079"/>
<path d="M68 530H86V550.25H68V530Z" fill="#A91079"/>
<path d="M1038 731H1046V739H1038V731Z" fill="#A91079"/>
<g style="mix-blend-mode:multiply" opacity="0.3">
<path d="M919 584.5C919 585.052 919.448 585.5 920 585.5C920.552 585.5 921 585.052 921 584.5H919ZM920 409L919.293 408.293L919 408.586V409H920ZM1016 313L1016.71 313.707L1017 313.414V313H1016ZM1017 0C1017 -0.552284 1016.55 -1 1016 -1C1015.45 -1 1015 -0.552284 1015 0H1017ZM-5.34458e-08 109C-0.552285 109 -1 109.448 -1 110C-1 110.552 -0.552285 111 5.34458e-08 111L-5.34458e-08 109ZM285.5 110L286.152 109.242L285.871 109H285.5V110ZM571.5 356L570.848 356.758L571.129 357H571.5V356ZM1084 357H1085V355H1084V357ZM2.99999 -26C2.99999 -26.5523 2.55227 -27 1.99999 -27C1.4477 -27 0.999987 -26.5523 0.999987 -26L2.99999 -26ZM2 265H1V266H2V265ZM604.5 265V266H604.914L605.207 265.707L604.5 265ZM744 125.5V124.5H743.586L743.293 124.793L744 125.5ZM1017 126.5H1018V124.5H1017V126.5ZM921 584.5V409H919V584.5H921ZM920.707 409.707L1016.71 313.707L1015.29 312.293L919.293 408.293L920.707 409.707ZM1017 313V0H1015V313H1017ZM5.34458e-08 111L285.5 111V109L-5.34458e-08 109L5.34458e-08 111ZM284.848 110.758L570.848 356.758L572.152 355.242L286.152 109.242L284.848 110.758ZM571.5 357H1084V355H571.5V357ZM0.999987 -26L1 265H3L2.99999 -26L0.999987 -26ZM2 266H604.5V264H2V266ZM605.207 265.707L744.707 126.207L743.293 124.793L603.793 264.293L605.207 265.707ZM744 126.5L1017 126.5V124.5L744 124.5V126.5Z" fill="#570A57"/>
</g>
</svg>
