<svg width="99" height="99" viewBox="0 0 99 99" fill="none" xmlns="http://www.w3.org/2000/svg">
<path opacity="0.4" d="M69.8635 59.3543C75.4348 60.2896 81.5753 59.3136 85.8859 56.4263C91.6199 52.6037 91.6199 46.3411 85.8859 42.5185C81.5347 39.6312 75.3128 38.6552 69.7415 39.6312M29.3153 59.3543C23.7441 60.2896 17.6035 59.3136 13.2929 56.4263C7.55895 52.6037 7.55895 46.3411 13.2929 42.5185C17.6441 39.6312 23.8661 38.6552 29.4373 39.6312M74.0521 29.7493C73.7962 29.7086 73.5354 29.7086 73.2794 29.7493C70.5655 29.6512 67.9961 28.5017 66.1141 26.5439C64.2321 24.586 63.1851 21.9732 63.1943 19.2575C63.1943 13.4422 67.8709 8.76562 73.6861 8.76562C76.4687 8.76563 79.1374 9.87101 81.105 11.8386C83.0726 13.8062 84.178 16.4749 84.178 19.2575C84.1705 21.9751 83.1125 24.5846 81.2253 26.54C79.338 28.4955 76.7677 29.6454 74.0521 29.7493V29.7493ZM25.1267 29.7493C25.3707 29.7087 25.6554 29.7087 25.8994 29.7493C28.6133 29.6512 31.1827 28.5017 33.0647 26.5439C34.9467 24.586 35.9937 21.9732 35.9846 19.2575C35.9846 13.4422 31.308 8.76562 25.4927 8.76562C22.7101 8.76563 20.0414 9.87101 18.0738 11.8386C16.1062 13.8062 15.0008 16.4749 15.0008 19.2575C15.0415 24.9507 19.5148 29.546 25.1267 29.7493V29.7493Z" stroke="#2E0249" stroke-width="6.09992" stroke-linecap="round" stroke-linejoin="round"/>
<path d="M49.6524 60.1238C49.3965 60.0832 49.1357 60.0832 48.8798 60.1238C46.1658 60.0257 43.5964 58.8762 41.7144 56.9184C39.8325 54.9605 38.7854 52.3477 38.7946 49.632C38.7946 43.8167 43.4712 39.1401 49.2864 39.1401C52.069 39.1401 54.7377 40.2455 56.7053 42.2131C58.6729 44.1807 59.7783 46.8494 59.7783 49.632C59.7376 55.3252 55.2644 59.9612 49.6524 60.1238ZM37.8227 72.9377C32.0887 76.7604 32.0887 83.0229 37.8227 86.8456C44.3292 91.1968 54.9838 91.1968 61.4903 86.8456C67.2243 83.0229 67.2243 76.7604 61.4903 72.9377C55.0244 68.6271 44.3292 68.6271 37.8227 72.9377Z" stroke="#2E0249" stroke-width="6.09992" stroke-linecap="round" stroke-linejoin="round"/>
</svg>
