<svg width="33" height="27" viewBox="0 0 33 27" fill="none" xmlns="http://www.w3.org/2000/svg">
<path d="M32.6761 3.25944C31.4739 3.79315 30.1818 4.15259 28.8257 4.3146C30.2104 3.48545 31.2737 2.1716 31.7734 0.605865C30.4786 1.37375 29.0436 1.93197 27.516 2.23286C26.2947 0.929903 24.5506 0.115723 22.6227 0.115723C18.2945 0.115723 15.114 4.15395 16.0916 8.34602C10.5217 8.06691 5.58216 5.39836 2.27507 1.34244C0.518732 4.35545 1.36423 8.29701 4.34864 10.293C3.25127 10.2576 2.21653 9.95668 1.31385 9.45429C1.24033 12.5599 3.46638 15.4653 6.69042 16.112C5.7469 16.368 4.71352 16.4279 3.66244 16.2264C4.51474 18.8895 6.98995 20.8269 9.92535 20.8814C7.10704 23.0911 3.55624 24.0782 0 23.6589C2.96671 25.5609 6.49164 26.6705 10.2766 26.6705C22.7235 26.6705 29.7556 16.1583 29.3308 6.72992C30.6406 5.78367 31.7775 4.60324 32.6761 3.25944Z" fill="#F806CC"/>
</svg>
