<svg width="1440" height="648" viewBox="0 0 1440 648" fill="none" xmlns="http://www.w3.org/2000/svg">
<g style="mix-blend-mode:multiply" opacity="0.8">
<path d="M921 1C921 0.447715 920.552 0 920 0C919.448 0 919 0.447715 919 1H921ZM920 346.5H919V346.914L919.293 347.207L920 346.5ZM1016 442.5H1017V442.086L1016.71 441.793L1016 442.5ZM1016 755.5H1015V756.5H1016V755.5ZM1288.5 755.5V756.5H1289.5V755.5H1288.5ZM1288.5 714V713H1287.5V714H1288.5ZM1440 715C1440.55 715 1441 714.552 1441 714C1441 713.448 1440.55 713 1440 713V715ZM1.06996e-05 100C-0.552274 100 -0.999989 100.448 -0.999989 101C-0.999989 101.552 -0.552274 102 1.08064e-05 102L1.06996e-05 100ZM285.5 101L286.152 100.242L285.871 100H285.5V101ZM571.5 347L570.848 347.758L571.129 348H571.5V347ZM1084 348H1085V346H1084V348ZM1084 502C1084.55 502 1085 501.552 1085 501C1085 500.448 1084.55 500 1084 500V502ZM798.5 501V500H798.129L797.848 500.242L798.5 501ZM512.5 747V748H512.871L513.152 747.758L512.5 747ZM1.19093e-07 746H-1L-1 748H-1.19093e-07L1.19093e-07 746ZM1441.5 150.5C1442.05 150.5 1442.5 150.052 1442.5 149.5C1442.5 148.948 1442.05 148.5 1441.5 148.5V150.5ZM1150.5 149.5V148.5H1149.5V149.5H1150.5ZM1150.5 401H1149.5V401.449L1149.84 401.748L1150.5 401ZM1240 480.5H1241V480.051L1240.66 479.752L1240 480.5ZM1239 753.5V754.5H1241V753.5H1239ZM919 1V346.5H921V1H919ZM919.293 347.207L1015.29 443.207L1016.71 441.793L920.707 345.793L919.293 347.207ZM1015 442.5V755.5H1017V442.5H1015ZM1289.5 755.5V714H1287.5V755.5H1289.5ZM1288.5 715H1440V713H1288.5V715ZM1.08064e-05 102L285.5 102V100L1.06996e-05 100L1.08064e-05 102ZM284.848 101.758L570.848 347.758L572.152 346.242L286.152 100.242L284.848 101.758ZM571.5 348H1084V346H571.5V348ZM1084 500H798.5V502H1084V500ZM797.848 500.242L511.848 746.242L513.152 747.758L799.152 501.758L797.848 500.242ZM512.5 746L1.19093e-07 746L-1.19093e-07 748L512.5 748V746ZM1441.5 148.5H1150.5V150.5H1441.5V148.5ZM1149.5 149.5V401H1151.5V149.5H1149.5ZM1149.84 401.748L1239.34 481.248L1240.66 479.752L1151.16 400.252L1149.84 401.748ZM1239 480.5V753.5H1241V480.5H1239ZM1016 756.5H1288.5V754.5H1016V756.5Z" fill="#2E0249"/>
</g>
</svg>
