<svg width="1435" height="17" viewBox="0 0 1435 17" fill="none" xmlns="http://www.w3.org/2000/svg">
<mask id="mask0_158_711" style="mask-type:luminance" maskUnits="userSpaceOnUse" x="0" y="0" width="1435" height="17">
<path d="M0.0820312 0.19043L1434.04 8.5567L1433.99 16.5566L0.0353568 8.19029L0.0820312 0.19043Z" fill="white"/>
</mask>
<g mask="url(#mask0_158_711)">
<path d="M136.287 7.43262C135.596 7.40213 134.889 7.36984 134.182 7.34181C133.359 7.34554 132.536 7.36721 131.746 7.40271C132.108 7.43129 132.289 7.446 132.634 7.47362C133.902 7.36322 135.069 7.46307 136.287 7.43262ZM164.416 8.14729C163.017 8.23729 161.652 8.14312 160.22 8.23292C161.898 8.37075 163.675 8.25991 165.419 8.29142C165.123 8.2658 164.893 8.2397 165.419 8.22399C165.041 8.19362 164.827 8.17786 164.416 8.14729ZM139.054 6.93662C138.347 6.90518 137.656 6.87298 136.965 6.84505C136.109 6.84859 135.32 6.86874 134.53 6.9051C134.891 6.93367 135.072 6.94839 135.418 6.97772C136.669 6.86466 137.82 6.96612 139.054 6.93662ZM190.361 8.22611C193.207 8.19748 196.053 8.29773 198.899 8.26825C196.366 8.15104 191.217 8.10478 190.361 8.22611ZM160.013 7.13999C160.243 7.12256 160.852 7.12952 161.477 7.13659C161.658 7.12398 161.839 7.11394 162.037 7.104C161.082 7.09673 160.079 7.12416 159.108 7.16288C159.47 7.19828 159.831 7.21234 160.226 7.22062C160.44 7.20309 160.704 7.1867 160.967 7.16946C160.654 7.1591 160.309 7.15111 160.013 7.13999ZM135.118 7.63066C141.089 7.74488 147.094 7.77991 153.05 7.82149C147.16 7.6736 141.156 7.63772 135.118 7.63066ZM157.558 7.71208C157.805 7.69474 158.035 7.67816 158.332 7.66025C157.986 7.65141 157.674 7.64361 157.378 7.63249C157.608 7.61591 158.217 7.62203 158.809 7.6289C159.006 7.61554 159.187 7.60635 159.401 7.59565C158.414 7.58818 157.427 7.61571 156.44 7.65519C156.801 7.68888 157.196 7.70314 157.558 7.71208ZM122.356 6.64715C121.419 6.60583 120.547 6.57684 119.659 6.56739C119.56 6.5762 119.395 6.58463 119.181 6.59277C119.181 6.61667 119.132 6.63858 119.132 6.66247C119.987 6.67429 121.106 6.6646 122.093 6.6661C122.159 6.65965 122.225 6.65065 122.356 6.64715ZM262.799 8.39694C263.276 8.45265 262.486 8.45316 261.68 8.45102C263.325 8.56645 265.019 8.62499 266.829 8.59287C265.53 8.48969 264.214 8.41032 262.799 8.39694ZM269.28 8.57133C270.827 8.62559 275.778 8.78422 275.664 8.57016C274.151 8.50585 266.484 8.55928 269.28 8.57133ZM276.716 8.75299C279.628 8.64109 281.831 8.9305 284.925 8.75479C282.787 8.64245 276.914 8.57148 276.716 8.75299ZM222.722 8.35517C224.893 8.37381 227.065 8.37624 229.203 8.43737C227.411 8.31083 222.986 8.25599 222.722 8.35517ZM221.806 7.43309C220.506 7.4127 219.256 7.39943 218.252 7.3987C218.318 7.43578 218.318 7.47078 218.301 7.50653C218.679 7.52837 219.041 7.55523 219.502 7.58011C220.21 7.48779 218.976 7.42084 221.806 7.43309ZM204.974 7.63363C206.57 7.64636 207.935 7.63896 208.446 7.58475C205.106 7.63355 202.556 7.51454 200.402 7.36369C199.497 7.41901 198.953 7.47559 198.871 7.53827C199.726 7.55351 200.812 7.57521 201.947 7.59463C202.111 7.63742 202.127 7.67848 202.374 7.72345C199.199 7.64945 196.222 7.60647 194.149 7.58328C194.692 7.54889 195.186 7.51251 194.051 7.44016C191.715 7.42994 189.412 7.3909 187.24 7.3603C187.141 7.3529 187.059 7.34645 186.993 7.33753C186.878 7.34368 186.763 7.34813 186.615 7.35239C184.147 7.32007 181.828 7.30483 179.804 7.36728C180.067 7.33979 180.807 7.32021 180.298 7.27371C175.478 7.11328 176.562 7.43884 172.959 7.39307C183.323 7.54829 201.368 8.18619 212.276 8.0612C209.513 7.92216 206.388 7.82369 203.361 7.7497C204.069 7.69237 205.714 7.7327 204.974 7.63363ZM206.423 7.491C208.496 7.48517 213.53 7.49491 212.492 7.69628C214.023 7.54644 216.293 7.68345 219.024 7.64817C215.751 7.45836 208.381 7.38207 206.423 7.491ZM199.049 8.03439C199.789 8.12235 199.196 8.18718 200.495 8.28609C200.693 8.14812 203.835 8.26461 202.043 8.0877C200.989 8.23435 200.086 7.96191 199.049 8.03439ZM178.779 8.15427C181.114 8.30276 183.484 8.23379 185.837 8.21935C183.501 8.13573 181.132 8.11508 178.779 8.15427ZM269.728 2.40686C269.398 2.59016 269.003 2.54092 266.288 2.57714C267.637 2.68147 269.397 2.68235 271.684 2.58046C271.504 2.53673 270.731 2.49295 271.57 2.4509C273.528 2.46915 275.222 2.53623 277.312 2.44172C276.704 2.38184 275.866 2.14563 275.816 2.31435C275.913 2.4771 272.164 2.22646 269.728 2.40686ZM317.454 2.74677C315.546 2.64858 310.364 2.5842 310.248 2.74143C312.798 2.6445 314.837 2.89454 317.454 2.74677ZM348.699 2.26243C348.798 2.25533 348.732 2.24641 348.732 2.23958C347.712 2.22253 346.643 2.21202 345.59 2.21186C345.59 2.22125 345.639 2.22751 345.672 2.23538C346.824 2.24125 348.041 2.25859 348.699 2.26243ZM309.261 2.58118C307.913 2.52637 301.085 2.57445 303.602 2.58487C305 2.63058 309.458 2.76756 309.261 2.58118ZM350.426 2.35616C346.477 2.41336 342.579 2.2566 338.696 2.30906C342.693 2.46639 346.937 2.52615 351.165 2.55679C350.113 2.48578 352.367 2.43662 350.426 2.35616ZM368.668 3.00888C366.777 2.89883 361.348 2.83557 362.17 2.99145C364.325 3.00829 366.66 3.14227 368.668 3.00888ZM546.201 3.62301C544.456 3.71611 538.831 3.53221 539.537 3.76167C541.249 3.63423 546.891 3.83787 546.201 3.62301ZM364.145 2.81689C366.037 2.79464 368.011 2.84116 369.87 2.78713C366.251 2.71651 367.059 2.51722 363.965 2.58196C366.005 2.67751 360.361 2.7069 364.145 2.81689ZM127.949 6.77452C127.999 6.76969 128.048 6.7623 128.081 6.75651C124.955 6.73145 121.682 6.56127 118.818 6.81173C118.851 6.81363 118.917 6.81401 118.966 6.81771C118.489 6.83029 118.176 6.85152 118.176 6.87798C118.374 6.87742 118.588 6.87611 118.769 6.8746C118.406 6.95272 117.649 7.01574 116.201 7.04399C116.349 7.05681 116.464 7.06772 116.629 7.08063C116.53 7.08603 116.464 7.09162 116.299 7.09664C116.299 7.11968 116.266 7.14254 116.283 7.16568C116.694 7.17149 117.22 7.17115 117.714 7.17061C118.256 7.22073 118.618 7.26808 118.601 7.31066C120.362 7.21936 119.294 7.06801 121.827 7.16132C121.745 7.04049 121.153 7.113 119.854 7.00043C120.364 6.97951 120.841 6.9951 121.334 6.99029C121.269 6.95577 121.104 6.92835 120.94 6.90434C120.677 6.89257 120.512 6.88478 120.43 6.87406C121.499 6.90931 122.519 6.93319 123.474 6.9362C123.292 6.95392 123.111 6.96993 122.947 6.99117C127.519 7.23977 131.469 7.05113 135.566 7.00675C133 6.86545 130.302 6.78057 127.949 6.77452ZM117.371 6.74268C115.759 6.67779 114.278 6.73146 112.633 6.64078C112.6 6.63717 112.6 6.63461 112.6 6.63205C112.551 6.63347 112.535 6.63167 112.518 6.63328C112.288 6.62084 112.074 6.60679 111.86 6.58761C111.515 6.60352 111.218 6.61716 110.922 6.62994C109.425 6.58536 107.847 6.45921 106.448 6.54323C106.595 6.63457 104.275 6.6731 106.693 6.81268C106.742 6.81383 106.808 6.81421 106.841 6.81696C106.825 6.81943 106.808 6.82189 106.759 6.82331C106.874 6.82654 106.989 6.82978 107.104 6.83301C107.071 6.82855 107.071 6.82513 107.055 6.82162C107.137 6.82552 107.252 6.8279 107.367 6.83198C107.318 6.83255 107.252 6.83473 107.186 6.8352C107.466 6.84195 107.729 6.8469 108.009 6.84938C108.009 6.84853 108.009 6.84853 108.009 6.84853C108.141 6.85186 108.256 6.8568 108.387 6.85927C108.913 6.91185 109.143 6.95929 109.341 7.00653C113.799 7.0462 119.261 7.1216 117.371 6.74268ZM119.127 7.46566C119.078 7.46196 119.061 7.46016 119.028 7.45826C118.963 7.46385 118.88 7.46764 118.814 7.47067C118.782 7.43975 118.7 7.40768 118.552 7.37524C118.354 7.38348 118.19 7.39191 117.992 7.39844C117.713 7.38912 117.482 7.3801 117.482 7.36644C117.598 7.36455 117.713 7.36522 117.828 7.36504C117.631 7.3434 117.417 7.32253 117.17 7.30828C117.038 7.3152 116.693 7.31916 116.117 7.31921C115.623 7.33169 115.311 7.35206 115.311 7.37938C115.508 7.37797 115.689 7.37732 115.903 7.376C115.524 7.45318 114.783 7.51543 113.302 7.5435C114.569 7.6388 115.786 7.73126 115.736 7.80523C117.513 7.71573 116.412 7.56676 118.994 7.65865C118.945 7.59349 118.715 7.58361 118.32 7.57192C118.715 7.54349 118.831 7.51088 118.831 7.47759C118.913 7.4738 119.012 7.47182 119.127 7.46566ZM114.467 8.10938C116.409 8.05157 116.08 7.96259 115.686 7.87067C114.024 7.93267 112.642 7.99886 114.467 8.10938ZM122.089 7.33698C121.53 7.34481 120.987 7.3536 120.51 7.3713C121.924 7.47003 126.448 7.4896 124.425 7.34805C123.602 7.41239 122.862 7.3671 122.089 7.33698ZM273.381 2.29673C263.198 2.03502 250.579 2.15857 238.848 2.14647C249.739 2.34572 262.72 2.21063 273.381 2.29673ZM266.784 2.14898C269.285 2.1465 271.506 2.16031 273.793 2.14549C272.115 2.06827 267.361 1.98078 266.784 2.14898ZM104.85 6.91033C104.685 6.91023 104.554 6.90946 104.389 6.91021C104.685 6.89316 105.146 6.8839 105.804 6.88432C104.685 6.8684 104.077 6.86571 103.6 6.86036C103.205 6.87342 102.793 6.88383 102.349 6.89233C102.596 6.89718 102.793 6.90772 103.007 6.91751C102.119 6.92854 101.625 6.96151 101.986 7.05666C96.8366 7.06161 88.8744 6.94346 85.4022 7.06233C92.6412 7.06445 102.495 7.26107 107.908 7.14072C106.296 7.11936 104.668 7.10133 103.072 7.06641C103.846 7.01544 105.376 6.9723 104.85 6.91033ZM246.892 2.43837C253.094 2.39944 261.714 2.59314 266.536 2.36264C260.597 2.41846 249.262 2.18503 246.892 2.43837ZM337.047 8.6321C339.613 8.71195 342.097 8.81009 345.026 8.67012C342.592 8.52788 339.663 8.66614 337.047 8.6321ZM345.538 8.31973C348.334 8.42567 340.371 8.51066 345.503 8.61999C348.185 8.57674 350.867 8.6197 353.582 8.53225C348.63 8.47434 349.981 8.21079 345.538 8.31973ZM342.574 8.85896C345.568 8.86619 348.627 9.0189 351.573 8.82867C349.122 8.70512 341.588 8.66713 342.574 8.85896ZM444.134 8.81986C443.013 9.09671 439.116 8.80851 435.627 8.9179C439.246 9.03205 447.29 9.17629 447.768 9.01605C444.675 9.08421 446.634 8.87969 444.134 8.81986ZM490.18 9.38897C490.837 9.55755 495.659 9.27071 494.062 9.46796C492.565 9.54885 491.48 9.41021 489.867 9.55274C491.297 9.64986 492.005 9.69922 493.402 9.797C495.822 9.64211 496.185 9.49229 494.984 9.34445C493.389 9.35989 491.892 9.31702 490.18 9.38897ZM343.663 8.15942C340.077 8.19227 336.591 7.8305 333.053 7.99423C335.995 8.37417 343.481 8.39223 343.663 8.15942ZM302.137 8.37038C302.12 8.38309 302.071 8.39646 302.054 8.41002C284.993 8.41803 268.771 8.42325 251.811 8.10407C251.4 8.06156 250.89 8.02188 250.183 8.00239C250.018 8.01338 249.821 8.02503 249.656 8.03858C250.2 7.92481 245.182 7.87164 246.316 8.02251C245.56 7.97115 244.918 7.91619 244.919 7.84449C245.314 7.84765 245.676 7.83952 246.071 7.82646C245.906 7.8144 245.775 7.80425 245.594 7.79124C244.886 7.80504 244.129 7.81343 243.356 7.82001C243.274 7.82039 243.191 7.82161 243.126 7.82208C242.879 7.8232 242.649 7.82527 242.418 7.82649C243.635 7.89249 244.293 7.97144 244.819 8.05133C240.69 8.02297 236.643 7.96522 232.645 7.90007C232.645 7.86934 232.711 7.83643 233.057 7.80431C232.169 7.79913 231.264 7.79299 230.375 7.78696C230.441 7.81295 230.622 7.84132 230.803 7.87054C230.737 7.87015 230.671 7.86977 230.605 7.86853C229.306 7.82083 227.694 7.79692 226.591 7.80585C225.983 7.79632 225.341 7.79258 224.716 7.78552C224.716 7.77869 224.683 7.77252 224.683 7.76655C224.272 7.76671 223.877 7.76867 223.466 7.77139C222.363 7.75899 221.261 7.74146 220.142 7.73408C219.912 7.70713 219.55 7.68368 219.189 7.66023C219.484 7.70976 218.793 7.75011 218.086 7.78951C219.977 7.82957 221.951 7.86755 223.909 7.90458C225.258 7.99012 227.626 8.08332 228.909 8.07545C228.482 8.05076 228.219 8.02788 228.005 8.0053C229.091 8.05516 230.209 8.07706 231.344 8.08112C231.213 8.11022 230.9 8.13657 230.324 8.15796C231.442 8.22509 232.001 8.25737 233.103 8.32441C234.765 8.2863 234.009 8.25713 233.104 8.22369C233.762 8.21899 234.486 8.22236 235.193 8.22564C235.259 8.23626 235.259 8.24736 235.44 8.25951C235.489 8.24614 235.654 8.23515 235.802 8.22663C236.559 8.22848 237.151 8.22511 237.414 8.20445C238.04 8.20554 238.764 8.21062 239.553 8.22205C239.701 8.21523 239.849 8.20756 239.965 8.19628C239.126 8.1931 238.237 8.18194 237.382 8.16585C237.053 8.1443 236.609 8.12464 236.165 8.10583C239.373 8.15186 242.63 8.19306 245.953 8.23122C246.282 8.28862 246.66 8.34204 247.219 8.37945C247.268 8.37974 247.351 8.38107 247.4 8.38306C247.384 8.38382 247.351 8.38363 247.334 8.38439C247.449 8.39103 247.581 8.39692 247.729 8.40206C247.762 8.34591 247.17 8.28356 246.989 8.24239C248.519 8.25985 250.033 8.27637 251.563 8.29127C251.662 8.30038 251.777 8.30873 251.859 8.31689C251.958 8.3115 251.925 8.30277 251.991 8.29462C263.079 8.4037 274.562 8.47069 285.898 8.5061C291.36 8.52346 296.871 8.57012 302.201 8.56281C302.432 8.5872 302.777 8.61226 303.32 8.63848C303.846 8.62448 304.11 8.59443 304.225 8.55925C307.96 8.54349 311.777 8.49747 315.512 8.38696C311.284 8.38619 307.467 8.39892 303.617 8.40719C303.239 8.37596 302.713 8.35752 302.137 8.37038ZM232.035 8.17477C231.64 8.14942 231.558 8.12163 232.331 8.08602C232.397 8.08641 232.48 8.08689 232.578 8.08746C233.22 8.11681 233.828 8.11098 234.47 8.13776C234.536 8.14156 234.503 8.14308 234.552 8.14763C233.647 8.14748 232.479 8.13981 232.035 8.17477ZM282.859 7.5631C285.459 7.58851 287.974 7.86182 290.64 7.80396C288.519 7.56283 282.729 7.32078 282.859 7.5631ZM242.403 7.67873C244.245 7.77228 246.153 7.78512 247.979 7.77273C250.595 7.89639 253.129 7.68925 254.295 8.05284C259.019 7.8064 267.605 8.07075 270.321 7.92868C263.872 7.77583 257.522 7.75755 251.27 7.72449C252.504 7.70011 253.623 7.67676 254.528 7.67607C250.415 7.62305 246.286 7.52043 242.403 7.67873ZM271.309 7.6468C270.126 7.51015 268.645 7.45456 266.654 7.57354C266.077 7.72809 269.005 7.75285 271.309 7.6468ZM326.652 8.13272C321.173 8.23135 316.008 8.0672 311.121 8.1488C309.048 8.21609 307.19 8.02514 305.182 8.02709C306.826 8.3047 298.964 7.9652 300.624 8.2412C303.619 8.10503 310.198 8.43278 311.072 8.15619C315.76 8.31158 321.814 8.37166 327.638 8.38345C326.174 8.29808 329.366 8.22111 326.652 8.13272ZM237.054 7.89677C236.643 7.86364 236.265 7.84095 235.87 7.82072C235.196 7.81849 234.505 7.81276 233.814 7.80872C234.406 7.88558 235.754 7.99759 237.054 7.89677ZM269.644 8.31738C267.867 8.23702 266.025 8.13152 264.166 8.17701C265.794 8.24797 267.522 8.30414 269.644 8.31738ZM1129.08 7.65541C1125.22 7.40581 1120.99 7.61843 1117.02 7.52787C1120.99 7.66794 1125.05 7.60202 1129.08 7.65541ZM1101.89 7.43615C1100.39 7.30194 1094.98 7.32328 1095.78 7.43895C1097.89 7.37271 1099.73 7.5977 1101.89 7.43615ZM980.671 12.2541C980.26 12.3038 980.49 12.3461 980.917 12.3861C981.74 12.3875 982.53 12.387 983.352 12.3884C982.119 12.324 981.806 12.2513 980.671 12.2541ZM1013.21 12.642C1004.13 12.729 994.669 12.7378 984.996 12.7019C984.354 12.7459 983.926 12.81 983.284 12.8558C983.119 12.8411 983.152 12.8302 983.103 12.8163C983.004 12.8507 982.28 12.8755 981.26 12.8952C981.901 12.9109 982.559 12.9326 983.151 12.9967C987.988 12.9925 993.599 12.9006 998.222 12.9182C1000.41 12.8609 998.239 12.7808 1001.6 12.7313C1008.26 12.6771 1012.85 12.8464 1020.37 12.6931C1020.07 12.6786 1019.74 12.6656 1019.41 12.6543C1017.34 12.6482 1015.25 12.6428 1013.21 12.642ZM1052.68 7.11491C1040.85 7.00066 1029.12 6.75895 1017.11 6.85703C1025.58 6.92012 1036.34 7.08788 1045.03 7.16417C1047.38 7.18472 1051.69 7.25425 1052.68 7.11491ZM665.291 4.95374C664.715 4.97599 664.156 4.98894 663.613 5.00029C664.698 5.02113 665.537 5.0431 665.718 5.07232C666.722 5.03806 667.084 5.00176 665.291 4.95374ZM598.777 4.49141C597.296 4.61081 605.423 4.60018 607.643 4.76678C611.215 4.59044 602.1 4.53385 598.777 4.49141ZM633.869 4.65177C635.596 4.80183 644.463 4.87063 652.36 4.92012C645.911 4.83128 639.413 4.74471 633.869 4.65177ZM660.931 10.5721C668.153 10.7491 679.488 10.7794 684.392 10.6919C676.56 10.665 668.812 10.5311 660.931 10.5721ZM868.305 11.8222C868.173 11.8607 868.173 11.8999 868.518 11.9369C870.574 11.9438 873.174 11.9334 875.79 11.929C875.774 11.9246 875.691 11.9241 875.675 11.9206C876.136 11.9045 876.991 11.913 877.896 11.9268C878.965 11.927 880.002 11.9305 880.972 11.9387C881.137 11.9269 881.203 11.9085 881.022 11.875C877.123 11.8267 872.763 11.814 868.305 11.8222ZM850.227 11.3514C846.64 11.4115 843.301 11.1232 839.632 11.3083C842.559 11.4705 849.601 11.4937 850.227 11.3514ZM679.95 10.5064C674.176 10.5043 668.418 10.3751 662.594 10.3744C667.825 10.5133 677.054 10.6525 679.95 10.5064ZM982.939 12.7872C982.922 12.7563 982.939 12.7274 982.807 12.6942C982.215 12.6933 981.623 12.6916 981.031 12.6881C981.688 12.7543 982.576 12.8192 978.727 12.7993C979.056 12.8251 979.368 12.8389 979.714 12.8511C980.684 12.8286 981.705 12.803 982.774 12.7691C982.889 12.7749 982.889 12.7809 982.939 12.7872ZM877.994 12.0289C877.978 12.0194 877.813 12.0099 877.451 12.0036C877.468 11.9994 877.172 11.9942 876.069 11.9835C874.243 11.9763 873.305 12.0058 873.223 12.0694C870.031 12.1002 866.757 12.1144 863.006 12.0302C863.319 11.9655 863.698 11.902 864.027 11.839C856.952 11.8754 850.075 11.9676 845.139 12.0788C853.908 12.077 865.193 12.1762 873.699 12.1302C875.476 12.2063 876.841 12.1827 878.865 12.1433C878.421 12.121 878.24 12.1038 878.158 12.0879C878.537 12.0807 878.964 12.0773 879.359 12.071C878.899 12.0521 878.455 12.041 877.994 12.0289ZM956.022 12.8785C955.397 12.8441 954.838 12.823 954.311 12.8054C954.13 12.8197 954.015 12.8395 954.081 12.8706C954.311 12.8702 954.558 12.8734 954.805 12.8748C954.739 12.8608 954.542 12.8468 954.558 12.8333C955.035 12.8557 955.397 12.8706 955.742 12.8837C956.351 12.8898 957.009 12.8971 957.717 12.9046C958.49 12.8793 959.148 12.8208 962.192 12.8906C962.159 12.8913 962.159 12.893 962.109 12.8944C962.833 12.8969 963.557 12.8994 964.265 12.9036C964.495 12.893 964.66 12.8785 964.742 12.8603C962.949 12.8242 961.09 12.8227 959.313 12.7407C958.079 12.7591 956.944 12.7985 956.022 12.8785ZM1253 8.07281C1250.69 7.9339 1247.83 7.86172 1244.59 7.81806C1245.69 7.8629 1246.5 7.91881 1246.99 7.98144C1246.5 8.00246 1245.43 7.99708 1244.36 7.99681C1243.95 7.98417 1243.31 7.98384 1242.37 8.01507C1242.81 8.04242 1243.18 8.05989 1243.49 8.0694C1246.38 8.17847 1249.84 8.04926 1253 8.07281ZM1242.19 8.08827C1235.97 7.79251 1223.79 8.03644 1219.85 8.07315C1227.05 8.19116 1234.57 8.15479 1242.19 8.08827ZM1258.87 7.96197C1262.7 8.05177 1270.49 8.09461 1269.58 7.90582C1265.42 7.94299 1261.11 7.83761 1257 7.89811C1257.72 7.94843 1258.39 7.96346 1258.87 7.96197ZM1214.84 7.96118C1215.22 7.90108 1219.4 7.92802 1220.16 7.92646C1216.2 7.73774 1212.74 7.84647 1210.98 8.03934C1211.52 7.88546 1201.12 8.04074 1200.89 8.16572C1200.84 8.16885 1200.84 8.17397 1200.88 8.17757C1206.35 8.09175 1212.36 8.18995 1217.94 8.12433C1216.39 8.09226 1215.34 8.03661 1214.84 7.96118ZM1366.83 11.4086C1367.68 11.4478 1375.71 11.5441 1376.44 11.3392C1366.63 11.1557 1358.52 11.2031 1348.75 11.2101C1354.37 11.3326 1360.25 11.4641 1366.14 11.4131C1364.69 11.4277 1361.79 11.4638 1366.83 11.4086ZM1290.12 10.0563C1289.33 10.0303 1290.12 10.0853 1290.12 10.0563V10.0563ZM1152.08 12.8044C1163.24 12.9463 1166.92 12.7057 1175.04 12.561C1167.17 12.6705 1153.86 12.4819 1152.08 12.8044ZM1085.14 12.8833C1089.84 13.1053 1102.53 13.0248 1110.7 13.1186C1109.08 12.8863 1092.48 12.9747 1085.14 12.8833ZM1239.45 14.1651C1240.72 14.2971 1236.41 14.2831 1237.3 14.3549C1239.58 14.3093 1244.62 14.4001 1247.3 14.3441C1246.97 14.401 1248.42 14.3941 1249 14.2362C1245.59 14.3768 1242.98 14.1276 1239.45 14.1651ZM1117.76 12.8995C1117.14 12.8873 1116.22 12.8845 1115.56 12.8943C1115.49 12.8931 1115.41 12.8926 1115.35 12.8922C1115.86 12.8644 1116.45 12.8431 1117.09 12.8264C1115.68 12.8164 1114.24 12.8055 1112.85 12.7982C1112.88 12.8232 1112.94 12.8483 1112.99 12.8733C1109.85 12.849 1106.73 12.8274 1103.58 12.8082C1103.71 12.7962 1103.78 12.7837 1103.95 12.7702C1093.78 12.7501 1083.77 12.7609 1073.3 12.669C1071.4 12.6939 1069.45 12.7106 1067.49 12.7248C1068.89 12.7321 1070.25 12.7375 1071.62 12.7446C1071.04 12.7822 1070.46 12.8249 1070.2 12.8354C1072.59 12.9491 1075.37 12.9159 1078.05 12.9161C1078.28 12.9653 1077.9 12.9989 1077.01 13.0176C1077.75 13.0518 1078.01 13.0576 1078.08 13.0546C1080.07 13.1166 1082.03 13.1212 1084.02 13.0577C1079.25 12.9838 1082.51 12.8918 1079.09 12.83C1077.6 12.8137 1076.17 12.8079 1074.73 12.8123C1073.05 12.8101 1072.93 12.7813 1073.06 12.7513C1075.09 12.7614 1077.09 12.7706 1079.09 12.7796C1090.57 12.8569 1102.09 12.9386 1113.45 12.9588C1114.54 12.9652 1115.64 12.9716 1116.73 12.9796C1116.81 12.9741 1116.86 12.9684 1116.92 12.9629C1119.1 12.9644 1121.27 12.9643 1123.44 12.9608C1121.5 12.9435 1119.57 12.9262 1117.63 12.9098C1117.68 12.9067 1117.73 12.9027 1117.76 12.8995ZM1041.75 13.0501C1041.49 13.2355 1046.84 13.113 1049.44 13.2076C1050.29 13.1682 1044.04 12.9678 1041.75 13.0501ZM947.487 12.2978C941.335 12.0349 941.152 12.4 937.532 12.4318C938.272 12.5035 939.572 12.4881 939.934 12.4637C942.731 12.4664 946.927 12.4277 947.124 12.399C947.289 12.3777 945.397 12.3616 945.2 12.351C945.628 12.31 946.368 12.293 947.487 12.2978ZM1024.99 12.4709C1023.69 12.6383 1030.59 12.5829 1032.77 12.5641C1036.29 12.594 1027.18 12.4418 1024.99 12.4709ZM1323.54 11.1015C1321.95 11.1434 1320.73 11.0629 1319.33 11.076C1319.08 11.0737 1318.72 11.081 1318.18 11.1086C1319.89 11.1962 1321.81 11.257 1324.02 11.2912C1322.24 11.21 1323.79 11.1857 1323.54 11.1015ZM1399.38 13.024C1392.62 12.6653 1379.27 12.7556 1375.36 12.2369C1376.76 12.2715 1378.16 12.3018 1379.59 12.329C1375.57 12.3329 1379.57 12.4176 1381.37 12.3829C1383.72 12.3377 1387.55 12.4616 1389.38 12.3485C1385.3 12.3196 1381.46 12.2281 1377.43 12.1841C1373.57 12.1419 1370.89 12.2381 1367.96 12.1169C1362.69 11.9026 1357.22 12.0499 1352.17 11.918C1337.29 11.5257 1320.92 11.8578 1305.82 11.5059C1308.03 11.4582 1308.18 11.3857 1306.27 11.2909C1304.21 11.325 1305.61 11.3861 1305.03 11.4587C1302.8 11.3688 1300.77 11.4338 1299.16 11.2767C1302.76 11.3848 1306.58 11.1126 1309.74 11.3342C1310.51 11.1023 1315.43 11.2906 1318.05 11.1795C1309.56 10.8953 1300.46 10.6604 1290.66 10.6211C1298.67 10.4869 1308.31 10.614 1316.69 10.5382C1314.09 10.3105 1309.79 10.6098 1307.18 10.382C1315.63 10.2436 1329.12 10.6509 1337.15 10.8437C1334.83 10.7414 1326.82 10.5948 1326.03 10.486C1331.99 10.4021 1329.17 10.5872 1332.96 10.5623C1339.36 10.7925 1346.97 10.8916 1353.93 11.0466C1350.67 10.9371 1347.22 10.8401 1344.19 10.7098C1346.13 10.7536 1348.09 10.788 1350.12 10.8152C1348.01 10.7474 1345.92 10.6789 1343.83 10.6087C1352.62 10.6284 1360.36 11.0039 1369.18 10.9879C1366.27 10.7985 1361.9 10.7567 1358.16 10.6359C1356.73 10.5909 1355.56 10.5303 1354.76 10.453C1352.41 10.2294 1349.97 10.2527 1345.2 10.183C1331.04 9.97493 1316.82 9.77677 1302.53 9.6208C1303.32 9.59639 1318.78 9.69088 1311.07 9.39492C1306.67 9.6723 1300.68 9.38642 1294.93 9.41514C1301.67 9.79506 1272.68 9.34084 1270.82 9.37609C1273.29 9.3572 1268.34 9.58352 1267.7 9.59855C1266.89 9.52898 1266.13 9.45713 1265.44 9.38482C1262.09 9.60252 1260.42 9.80451 1253.96 9.76593C1259.93 9.70688 1249.7 9.39197 1248.63 9.29014C1253.3 9.2935 1255.03 9.62365 1259.77 9.53778C1259.49 9.34324 1253.99 9.28985 1252.04 9.14612C1248.12 8.86039 1248.71 9.22916 1244.62 9.05418C1247.2 9.00182 1242.26 8.98754 1242.36 8.92922C1242.56 8.84843 1246.28 9.02376 1248.42 8.95174C1246.69 8.9024 1245.26 8.83771 1244.13 8.75427C1241.2 8.52124 1240.46 8.7303 1235.74 8.60033C1229.19 8.42044 1219.33 8.57548 1211.75 8.54062C1203.21 8.50019 1194.69 8.41974 1186.18 8.40426C1181.95 8.39751 1177.74 8.40708 1173.68 8.44568C1171.77 8.53868 1174.09 8.63245 1170.53 8.67317C1167.85 8.54827 1173.41 8.53974 1171.95 8.42536C1166.19 8.24325 1159.91 8.14513 1153.58 8.08171C1148.51 8.03252 1143.39 8.00096 1138.31 7.94996C1132.35 7.89046 1130.92 7.78139 1128.96 8.02689C1128.19 7.95409 1127.52 7.88017 1126.88 7.80558C1121.86 7.95469 1131.15 8.15659 1130.31 8.19864C1129.47 8.20655 1128.58 8.20904 1127.7 8.20215C1129.98 8.3717 1129.03 8.46002 1133.04 8.54233C1126.89 8.57643 1127.52 8.1294 1122.07 8.01142C1123.37 8.06766 1121.95 8.25486 1120.05 8.1396C1118.57 8.01658 1121.28 7.9556 1120.76 7.83986C1117.22 7.86532 1115.1 7.85976 1112.64 8.00081C1112.48 7.99046 1112.28 7.98162 1112.07 7.97184C1112.76 7.95453 1113.35 7.93665 1113.71 7.91998C1112.43 7.88774 1110.88 7.87445 1109.3 7.86609C1107.38 7.8156 1105.22 7.7962 1103.55 7.83933C1103.22 7.83655 1102.95 7.83246 1102.66 7.82987C1101.94 7.61397 1089.81 7.50653 1076.94 7.45195C1077.85 7.22336 1078.17 6.98619 1072.55 6.99358C1075.6 7.10522 1076.06 7.28289 1075.07 7.44442C1074.1 7.43961 1073.11 7.43812 1072.16 7.43426C1067.75 7.25234 1063.18 7.29138 1058.65 7.25815C1060.67 7.3408 1062.73 7.38524 1064.79 7.41431C1056.48 7.39656 1049.4 7.3954 1046.9 7.39362C1039.76 7.38866 1032.57 7.38513 1025.38 7.37988C1025.78 7.3728 1026.21 7.36846 1026.63 7.36584C1023.95 7.29727 1021.17 7.34165 1018.41 7.37589C1016.1 7.37269 1013.8 7.36864 1011.51 7.3664C1011.24 7.35964 1010.94 7.35621 1010.68 7.34614C1012.58 7.24716 1018.13 7.43998 1017.59 7.25415C1009.54 7.2277 999.439 7.28058 995.773 6.87593C996.826 6.84537 997.796 6.89713 998.866 6.84276C997.682 6.77098 997.123 6.73529 995.955 6.66446C993.093 6.62898 994.968 6.73808 992.055 6.79364C992.91 6.8874 994.686 6.9908 994.11 7.06767C991.298 6.91469 992.055 6.80473 989.868 6.65796C986.182 6.76705 993.617 7.01444 991.79 7.14547C990.326 7.06438 988.729 7.20017 987.266 7.0892C990.837 6.97688 984.733 6.96431 983.681 6.79429C982.381 6.84218 981.114 6.86467 979.831 6.85377C983.564 7.03944 978.743 7.11715 976.653 7.23129C976.423 7.22653 976.193 7.21921 975.995 7.21294C973.923 7.10781 974.22 6.99857 972.69 6.98794C972.065 6.91771 971.407 6.84218 970.421 6.76899C970.666 6.91809 969.218 6.99671 967.03 7.03857C964.447 6.93473 962.309 6.79763 962.458 6.67046C959.036 6.69915 964.234 6.83532 960.795 6.86391C958.74 6.6906 955.004 6.86085 953.294 6.69894C953.886 6.84152 948.226 6.78119 946.433 6.72037C946.072 6.63802 945.908 6.55769 945.3 6.47305C946.336 6.47739 947.373 6.48514 948.393 6.48341C947.472 6.43194 946.024 6.40387 944.543 6.39011C944.494 6.38384 944.478 6.37777 944.412 6.37397C944.198 6.37614 944.132 6.38173 943.984 6.38599C941.615 6.37131 939.361 6.39401 939.295 6.44143C940.364 6.4451 941.434 6.4522 942.503 6.46014C941.992 6.54764 943.522 6.6607 940.363 6.71482C938.405 6.70511 935.855 6.71157 933.058 6.71062C932.515 6.66563 932.088 6.63752 931.808 6.61114C932.812 6.60163 933.717 6.58899 934.375 6.57063C933.404 6.5735 932.417 6.56945 931.446 6.56294C931.315 6.52803 931.381 6.48829 931.694 6.41842C930.427 6.4392 929.177 6.40459 927.86 6.478C928.732 6.49247 929.308 6.51888 929.719 6.5503C924.734 6.49817 919.783 6.37453 914.732 6.39969C919.14 6.57479 925.869 6.64136 930.541 6.61997C930.558 6.62518 930.623 6.62983 930.673 6.63354C930.459 6.634 930.261 6.63114 930.015 6.63567C930.014 6.65872 930.097 6.68395 930.179 6.70748C926.51 6.70144 922.627 6.67793 919.14 6.59612C917.577 6.64846 916.803 6.67468 915.256 6.72711C912.756 6.73386 910.271 6.73558 907.787 6.73987C902.358 6.70563 897.883 6.67611 896.534 6.66397C889.641 6.60241 882.764 6.51022 876.201 6.35414C875.937 6.49514 870.984 6.54136 870.886 6.53737C867.184 6.52773 854.714 6.35852 854.172 6.31523C852.558 6.49275 847.557 6.37907 844.432 6.30535C842.573 6.26463 840.945 6.20477 839.497 6.12634C835.664 6.15604 831.732 6.15956 827.767 6.15179C821.285 6.13958 814.737 6.10052 808.304 6.11676C801.575 6.13469 798.498 6.22258 791.95 6.10671C787.936 6.03463 760.842 5.55903 759.641 5.65274C756.645 5.88536 750.346 5.57119 745.081 5.52426C742.136 5.49598 739.29 5.50413 736.559 5.54965C734.946 5.59316 738.516 5.69337 737.282 5.74251C736.739 5.73849 735.85 5.73757 734.781 5.74243C732.889 5.69469 731.902 5.66418 731.738 5.64871C725.914 5.61899 719.942 5.6072 713.887 5.60858C717.046 5.64152 720.237 5.67294 723.347 5.70303C726.917 5.69911 730.306 5.71973 733.662 5.74785C731.671 5.75587 729.121 5.77428 726.258 5.79428C724.432 5.76485 722.409 5.73597 720.056 5.71285C718.592 5.69748 717.161 5.67718 715.68 5.66428C714.446 5.63745 713.18 5.61384 711.913 5.58767C712.407 5.59311 712.9 5.59684 713.41 5.60323C714.562 5.52289 716.208 5.44713 713.527 5.34955C709.841 5.38438 706.65 5.33247 703.36 5.29194C703.31 5.31811 703.047 5.33279 702.635 5.33978C704.429 5.35365 705.63 5.3692 704.543 5.41493C701.401 5.40598 698.358 5.37884 695.347 5.34335C695.051 5.34503 694.788 5.3435 694.508 5.34528C698.555 5.42011 702.947 5.48073 707.455 5.53605C708.837 5.56887 710.037 5.59807 711.14 5.62754C710.004 5.61409 708.886 5.59988 707.701 5.58273C701.894 5.48312 696.054 5.38332 690.116 5.2838C690.017 5.27896 689.869 5.27468 689.737 5.27221C682.959 5.17803 675.82 5.07236 668.548 5.08371C671.904 5.18352 675.935 5.12083 679.142 5.24795C673.383 5.32531 668.679 5.15447 663.447 5.1376C663.76 5.12577 664.204 5.11726 664.517 5.10714C663.086 5.08086 661.556 5.05657 659.944 5.0318C658.792 5.03788 657.558 5.05117 656.225 5.10485C661.357 5.27393 667.363 5.18605 672.594 5.33095C652.079 5.11822 631.548 4.87893 611.016 4.81804C616.609 4.91383 628.636 4.86109 630.346 5.00337C622.318 4.99067 597.656 4.90312 604.271 4.71381C594.68 4.59725 582.341 4.48685 571.533 4.38197C571.516 4.39297 571.483 4.40131 571.467 4.41316C566.581 4.40429 561.101 4.64375 558.323 4.2349C554.703 4.2795 551.413 4.24409 549.339 4.33015C547.299 4.34556 545.226 4.33347 543.055 4.26532C544.881 4.29134 546.658 4.3128 548.451 4.30961C545.128 4.16475 537.693 4.04283 536.836 4.19063C538.531 4.19881 540.225 4.22406 541.903 4.24921C542.331 4.3106 541.294 4.3276 540.29 4.33113C535.799 4.23323 531.424 4.15393 531.274 4.3434C532.459 4.27606 537.427 4.37589 535.996 4.43838C534.893 4.46012 533.758 4.468 532.623 4.46992C532.574 4.44317 532.492 4.41794 532.228 4.38823C531.751 4.40081 531.455 4.41701 531.241 4.43198C529.711 4.38806 528.165 4.33892 526.619 4.29746C527.854 4.11176 526.276 3.8755 529.222 3.71258C532.791 3.81621 536.377 3.93956 539.783 3.93553C534.421 3.54831 532.61 3.80491 530.259 3.47196C526.721 3.65617 522.032 3.71758 517.59 3.72922C517.573 3.72827 517.573 3.72827 517.557 3.72562C517.557 3.72818 517.557 3.72903 517.524 3.73055C516.734 3.73191 515.961 3.73252 515.204 3.73238C514.201 3.71799 513.362 3.71053 512.687 3.71342C512.539 3.71085 512.572 3.71104 512.654 3.71323C512.391 3.71596 512.161 3.71803 511.963 3.72286C510.746 3.71746 509.594 3.70989 508.574 3.70138C509.643 3.73493 514.052 3.77687 512.933 3.86167C509.857 3.83263 506.04 3.79926 507.025 4.06108C504.608 3.9454 502.124 3.91725 499.656 3.93188C499.475 3.91631 499.327 3.90606 499.146 3.88622C498.537 3.9134 497.895 3.93441 497.237 3.95447C496.168 3.97042 495.098 3.98893 494.028 4.01086C493.305 3.96908 492.302 3.91372 490.673 3.83423C485.935 3.88853 480.966 3.87063 475.883 3.8239C475.439 3.78119 474.962 3.73829 474.485 3.6843C471.129 3.70057 467.641 3.69131 464.054 3.67466C463.281 3.66246 462.508 3.65368 461.768 3.64168C461.768 3.64083 461.768 3.64083 461.768 3.64083C461.718 3.64054 461.718 3.64054 461.702 3.64044C458.313 3.5925 454.99 3.54751 451.782 3.5177C451.848 3.51125 451.963 3.5068 451.996 3.50017C449.166 3.55194 450.96 3.36865 448.674 3.30409C447.652 3.55933 444.067 3.27295 440.875 3.36187C441.977 3.40245 443.573 3.44846 445.185 3.48518C444.033 3.48529 442.849 3.48435 441.746 3.49329C439.147 3.46959 436.597 3.45044 434.063 3.43651C431.02 3.33425 427.845 3.35243 424.472 3.39165C422.761 3.38167 421.033 3.375 419.339 3.36938C416.214 3.26323 413.45 3.2454 410.735 3.25858C407.379 3.13828 403.908 3.16924 404.96 3.30598C404.417 3.31134 403.874 3.31415 403.298 3.31591C399.86 3.28902 396.586 3.25968 393.247 3.1924C390.762 3.26752 388.047 3.31826 385.135 3.35419C384.296 3.35613 383.424 3.35872 382.585 3.36065C378.605 3.11124 379.756 3.21355 374.361 2.90296C375.052 2.87029 375.809 2.90202 376.517 2.8831C370.529 2.64331 375.808 3.13247 375.808 3.13247C375.808 3.13247 372.962 3.0382 371.711 3.10943C373.981 3.25412 376.399 3.29298 378.06 3.34365C377.764 3.35387 377.468 3.3658 377.172 3.37517C376.744 3.37608 376.333 3.37881 375.888 3.37963C374.013 3.29443 372.616 3.13263 369.638 3.20573C370.492 3.32083 374.359 3.26059 372.845 3.38406C370.92 3.27809 365.376 3.21331 366.248 3.36435C367.909 3.35783 369.62 3.37122 371.348 3.39325C368.896 3.40114 366.428 3.40638 364.01 3.41531C351.375 3.33904 338.608 3.32003 325.956 3.30597C325.874 3.30207 325.792 3.29988 325.726 3.29523C324.212 3.29238 322.699 3.29123 321.202 3.28932C321.86 3.26499 322.074 3.22698 321.186 3.15693C316.431 3.12321 311.611 3.08911 306.791 3.05672C307.975 3.03888 309.111 3.01648 310.131 2.98829C289.057 2.83034 267.998 2.8466 247.136 2.88792C239.979 2.83422 232.905 2.86464 225.962 2.90351C219.299 2.9039 212.784 2.89577 206.367 2.88223C205.051 2.80968 203.686 2.7266 202.387 2.70537C202.995 2.77549 202.732 2.82346 202.452 2.8739C202.386 2.87351 202.32 2.87398 202.221 2.87341C200.971 2.82685 199.754 2.82401 198.536 2.863C197.5 2.85866 196.48 2.85613 195.443 2.85264C194.851 2.84236 194.259 2.83378 193.683 2.82274C193.584 2.82387 193.485 2.82756 193.403 2.82879C187.102 2.75191 178.778 2.72041 172.921 2.65039C171.473 2.63426 168.134 2.51918 166.275 2.49382C166.324 2.54276 165.995 2.57755 165.452 2.59742C165.699 2.62703 165.995 2.65863 166.521 2.70438C166.455 2.70229 166.389 2.70191 166.291 2.70133C166.175 2.70066 166.093 2.70018 165.978 2.69951C164.662 2.69012 163.362 2.67827 162.046 2.66888C161.108 2.65573 160.171 2.64599 159.249 2.63208C159.381 2.63968 159.513 2.64301 159.677 2.64909C158.887 2.64192 157.275 2.62995 157.275 2.62995C157.275 2.62995 163 2.76237 165.862 2.79614C164.71 2.81844 163.493 2.8395 162.275 2.85971C159.725 2.84142 157.34 2.82665 155.201 2.87392C155.267 2.72835 151.533 2.6434 153.541 2.47501C154.545 2.46038 159.068 2.68736 157.704 2.4771C155.878 2.43231 154.726 2.40766 153.838 2.39138C153.887 2.39679 153.97 2.39983 154.035 2.40448C153.131 2.40177 152.193 2.38776 151.288 2.38163C150.63 2.38803 149.857 2.40144 148.655 2.41577C152.965 2.61761 152.404 2.76798 153.851 2.93604C150.347 2.85414 148.949 2.84001 146.827 2.87798C147.584 2.8346 148.242 2.78467 146.745 2.69399C142.913 2.55298 145.625 2.97852 143.273 2.84957C144.524 2.7809 142.369 2.68553 141.07 2.63442C140.115 2.64165 138.832 2.62136 137.5 2.60591C137.713 2.65154 138.075 2.68182 138.865 2.66509C140.23 2.79255 138.239 2.70753 136.94 2.72982C136.907 2.72963 136.907 2.72878 136.907 2.72878C136.907 2.72878 136.907 2.72963 136.907 2.73048C136.528 2.73681 136.183 2.75357 136.051 2.78951C135.097 2.71224 134.982 2.65182 135.163 2.5991C134.67 2.60305 134.209 2.60975 133.896 2.63183C132.746 2.49879 134.16 2.51302 135.542 2.52364C135.921 2.46439 136.316 2.40609 135.873 2.32924C136.695 2.30673 136.958 2.35094 137.089 2.41317C138.751 2.40835 140.873 2.58291 142.354 2.51558C142.403 2.55513 142.255 2.57987 142.073 2.60016C142.435 2.60141 142.781 2.59745 143.127 2.57216C143.061 2.47788 142.848 2.37933 142.766 2.28496C125.839 1.97622 109.422 1.5501 92.4742 1.85923C95.9447 2.0152 98.7583 1.96333 101.654 1.92645C96.9307 2.21215 80.9089 1.73969 76.7435 2.24972C74.2931 2.08434 68.9449 2.28617 65.4231 2.46109C69.5516 2.64906 72.235 2.35828 76.511 2.61796C69.174 2.50346 63.0189 2.84397 54.7947 2.51516C52.606 2.59629 50.2036 2.66507 47.6038 2.7216C48.2616 2.78262 47.1921 2.78748 46.09 2.75544C45.4977 2.76821 44.856 2.77556 44.2472 2.78737C44.1312 2.92241 44.2456 3.06307 43.7348 3.19154C45.0988 3.44788 50.1339 3.33813 48.7839 3.4839C47.6649 3.52517 47.4672 3.58547 47.2858 3.64502C44.7851 3.64067 34.6691 3.28375 37.7106 3.64207C39.2741 3.55303 44.8511 3.61886 49.029 3.77554C47.12 3.86427 47.8924 4.00791 47.7766 4.13356C56.9031 4.89613 54.1169 5.89136 60.7916 6.72327C71.715 6.87749 83.0829 6.99417 93.2511 6.87339C93.6129 6.89001 93.8925 6.91128 93.81 6.95604C94.6162 6.94537 94.6823 6.90308 94.4357 6.85811C95.5217 6.8414 96.6076 6.82554 97.6607 6.80437C98.7462 6.86533 99.9143 6.85679 101.099 6.84492C100.622 6.81141 100.145 6.78131 99.6352 6.75444C102.252 6.68946 104.786 6.61036 107.123 6.4951C120.037 6.51838 134.12 6.58177 146.557 6.76444C147.33 6.80566 148.054 6.80647 148.778 6.79874C149.732 6.8137 150.67 6.82941 151.607 6.84598C151.92 6.86914 152.232 6.89742 152.561 6.9386C153.302 6.91903 154.058 6.91064 154.832 6.90832C157.612 6.96551 160.26 7.02962 162.744 7.10215C163.748 7.09862 164.768 7.09689 165.821 7.09706C167.4 7.12334 168.946 7.13322 170.477 7.108C173.751 7.12113 177.189 7.1446 180.693 7.17273C185.365 7.23499 189.856 7.27143 194.216 7.28151C199.283 7.31619 204.252 7.3392 208.842 7.32672C209.845 7.3744 210.865 7.38462 210.389 7.32038C212.972 7.30984 215.473 7.28688 217.76 7.24474C218.385 7.28167 219.026 7.30846 219.668 7.33696C219.667 7.35232 219.618 7.36313 219.684 7.38485C219.98 7.38061 220.276 7.38234 220.572 7.37979C226.823 7.62112 232.763 7.47653 238.948 7.65857C238.652 7.63295 238.356 7.61756 238.043 7.59867C240.577 7.63223 242.946 7.64093 244.953 7.57923C241.812 7.45847 235.017 7.51272 231.382 7.27727C232.188 7.25893 233.011 7.24495 233.85 7.23448C235.281 7.30429 236.795 7.24142 238.292 7.23564C238.999 7.25172 239.625 7.27585 240.069 7.316C241.04 7.23972 242.34 7.1978 243.837 7.18008C246.88 7.24563 252.292 7.3822 251.865 7.21582C257.574 7.29437 263.595 7.42595 266.853 7.29729C263.645 7.30332 260.486 7.32501 257.295 7.13397C280.494 6.92192 303.571 7.9144 326.883 8.0581C324.399 7.88911 318.411 7.83625 321.16 7.56975C322.707 7.59243 324.204 7.60117 325.98 7.62348C327.296 7.66531 328.596 7.67289 329.896 7.67194C340.786 7.78584 352.451 7.77707 361.976 7.92825C355.362 8.0083 364.608 7.99994 363.933 8.16159C358.783 8.11106 352.384 8.02848 346.345 8.14092C353.583 8.28046 361.382 8.26706 367.584 8.28959C368.324 8.34854 369.048 8.39544 369.723 8.36609C369.772 8.34418 369.641 8.31866 369.608 8.29542C379.413 8.3219 389.12 8.27952 399.155 8.45757C395.848 8.44084 392.656 8.48367 389.35 8.46182C390.238 8.48322 391.11 8.4994 391.998 8.51568C390.731 8.53219 389.629 8.55905 390.04 8.63912C390.961 8.62486 394.761 8.65813 394.976 8.56805C405.208 8.7114 414.817 8.56687 425.018 8.57176C427.584 8.57308 430.627 8.69326 433.539 8.69915C443.41 8.71833 452.986 8.62653 461.443 8.62551C462.512 8.69406 463.399 8.77606 464.057 8.87721C468.812 8.7496 474.537 8.89396 480.015 9.03177C479.719 9.03175 479.422 9.03087 479.159 9.03958C479.653 9.0416 480.113 9.04429 480.591 9.04622C485.937 9.17984 491.003 9.29562 494.755 9.14594C503.277 9.23748 510.779 9.36917 519.876 9.48626C519.515 9.38514 520.7 9.2956 521.638 9.20547C527.313 9.29834 532.956 9.39613 538.582 9.48956C539.207 9.55978 539.782 9.62972 540.045 9.69698C534.271 9.65646 528.662 9.40693 522.739 9.49443C531.276 9.64496 543.613 10.0413 549.866 9.82683C547.695 9.78429 544.8 9.68033 543.369 9.567C549.538 9.6653 555.675 9.75402 561.761 9.8177C563.177 9.67488 564.888 9.80009 566.287 9.65888C575.368 9.79039 584.35 9.88462 593.283 9.94187C592.56 9.8907 591.836 9.85148 591.079 9.81548C591.688 9.81647 592.165 9.80987 592.379 9.78807C594.831 9.78359 597.2 9.76839 599.388 9.73678C606.117 9.83237 616.135 10.0812 619.87 9.94249C619.262 9.92357 618.686 9.90485 618.127 9.88537C618.159 9.88556 618.242 9.88604 618.307 9.88642C617.913 9.81157 616.893 9.80476 615.84 9.80118C615.297 9.77838 614.738 9.75634 614.195 9.7361C616.301 9.70656 622.948 9.72656 622.734 9.72532C627.258 9.75171 631.536 9.82191 635.994 9.87438C643.594 9.98872 661.033 10.041 666.148 10.3422C679.36 10.1761 694.643 10.4692 707.951 10.6689C706.981 10.5847 699.94 10.5215 700.993 10.426C751.5 10.6763 802.074 10.863 852.597 11.1979C852.597 11.1987 852.597 11.1987 852.613 11.1988C852.613 11.1988 852.646 11.199 852.646 11.1982C855.097 11.2142 857.548 11.2302 860.016 11.2463C860.97 11.2911 861.447 11.346 860.854 11.3963C867.535 11.2364 873.884 11.5773 880.431 11.6198C889.432 11.4572 898.183 11.626 906.984 11.7559C906.261 11.7039 905.718 11.6546 906.738 11.6256C908.203 11.6384 909.634 11.6493 911.065 11.6636C911.789 11.6704 912.513 11.6781 913.22 11.6856C914.421 11.6986 915.606 11.7115 916.774 11.7217C922.598 11.7804 928.405 11.8382 934.229 11.9029C939.789 11.9644 943.804 11.9306 948.361 11.9307C955.287 11.9746 961.983 12.029 968.316 12.1231C968.415 12.0998 968.596 12.0829 968.843 12.0682C972.594 12.0909 976.378 12.113 980.129 12.1314C981.083 12.1618 982.037 12.1836 983.008 12.1756C982.695 12.1618 982.482 12.1503 982.284 12.1406C983.518 12.1452 984.736 12.1498 985.969 12.1561C985.969 12.1587 985.986 12.1614 985.986 12.1631C984.653 12.1706 983.074 12.1307 984.258 12.2161C984.768 12.2055 985.278 12.217 985.805 12.2328C985.673 12.2585 985.541 12.2825 985.393 12.3064C984.735 12.306 984.077 12.3047 983.418 12.3111C984.076 12.3295 984.652 12.3499 985.096 12.373C985.08 12.3788 985.096 12.3849 985.096 12.3909C994.638 12.4047 1004.23 12.4359 1013.87 12.476C1013.53 12.4808 1013.16 12.4847 1012.87 12.4898C1015.58 12.6678 1019.81 12.4714 1022.74 12.6011C1023.26 12.4966 1019.65 12.455 1016.39 12.4608C1020.44 12.4289 1023.91 12.4628 1027.61 12.4725C1028.4 12.472 1029.2 12.4724 1029.99 12.4719C1031.77 12.4695 1033.61 12.4563 1035.65 12.4238C1034.88 12.4167 1034.17 12.4024 1033.63 12.3745C1035.09 12.3745 1036.56 12.3745 1038.02 12.3787C1038.15 12.3752 1038.3 12.3718 1038.43 12.3692C1041.12 12.3883 1043.8 12.4082 1046.46 12.4348C1046.51 12.4351 1046.53 12.4352 1046.55 12.4353C1046.13 12.4414 1045.76 12.4495 1045.34 12.465C1046.05 12.4819 1046.71 12.4977 1047.35 12.5143C1049.8 12.52 1052.3 12.5269 1054.8 12.5321C1056.12 12.5492 1057.44 12.5663 1058.77 12.5843C1063.62 12.6561 1064.99 12.5711 1069.69 12.5746C1075.43 12.5817 1080.4 12.6695 1086.26 12.708C1086.19 12.6572 1085.63 12.6258 1084.61 12.6147C1086.03 12.5982 1087.21 12.5625 1088.19 12.5109C1088.1 12.5088 1088.02 12.5074 1087.95 12.5062C1098.48 12.5198 1109.52 12.5842 1120.61 12.6489C1120.68 12.6425 1120.79 12.6338 1120.86 12.6256C1118.29 12.6806 1115.94 12.4672 1113.42 12.4055C1112.07 12.5428 1110.23 12.5781 1107.29 12.4807C1110.36 12.514 1108.78 12.4339 1107.63 12.347C1114.9 12.3954 1122.16 12.4685 1129.3 12.5468C1130.24 12.3765 1121.83 12.3368 1122.26 12.1643C1122.41 12.0943 1149.21 12.1833 1152.86 12.1849C1159.08 12.1871 1166.63 12.2841 1171.63 12.2697C1174.28 12.2613 1176.72 12.3625 1179.25 12.3363C1184.6 12.4111 1176.19 12.4568 1176.52 12.4527C1183.26 12.6184 1190.93 12.448 1197.44 12.6158C1193.87 12.5736 1193.84 12.6963 1193.59 12.8332C1190.88 12.86 1185.32 12.8634 1183.9 13.0122C1188.23 12.9657 1192.75 13.0442 1196.29 13.0768C1195.09 13.0613 1189.15 13.1111 1190.66 13.2326C1194.96 13.2363 1198.76 13.1825 1203.17 13.2253C1199.6 12.7658 1203.22 13.1744 1202.76 13.0531C1205.3 13.318 1212.99 13.2152 1216.94 13.1973C1219.9 13.1838 1231.13 13.3236 1230.82 13.1989C1234.11 13.3188 1232.14 13.4217 1236.55 13.4303C1240.07 13.4381 1243.67 13.4497 1247.42 13.4571C1258.87 13.482 1270.32 13.5028 1280.92 13.3128C1279.74 13.1514 1277.47 13.0366 1274.6 12.9516C1277.35 12.8968 1291.5 12.7651 1292.75 12.8091C1296.32 12.9349 1306.57 12.9896 1309.32 12.8212C1305.96 12.8682 1303.59 12.8399 1300.73 12.7182C1330.51 12.5761 1360.04 13.194 1389.16 13.1897C1388.2 13.1688 1387.96 13.1375 1388.49 13.097C1392.22 13.1658 1395.92 13.0448 1399.38 13.024ZM92.1066 2.81992C90.0851 2.45987 88.2246 2.70423 85.4282 2.61195C83.7499 2.6491 81.8742 2.6595 79.9004 2.58909C83.2414 2.37385 87.3542 2.42516 91.3356 2.43302C90.5294 2.44368 89.5256 2.48136 88.4231 2.52016C94.4119 2.47658 100.302 2.42729 106.553 2.52181C104.512 2.68915 95.9089 2.50836 92.1066 2.81992ZM116.625 2.06416C115.82 1.82985 121.544 2.0314 124.093 2.25369C121.97 2.3241 118.978 2.07361 116.625 2.06416ZM166.833 2.7062C167.113 2.6626 169.071 2.69195 170.93 2.73181C169.564 2.72385 168.199 2.71502 166.833 2.7062ZM246.338 7.16735C248.016 7.16946 249.825 7.1877 251.668 7.21211C249.529 7.28157 247.769 7.23887 246.338 7.16735ZM486.328 4.14775C486.147 4.14413 485.983 4.14232 485.802 4.1387C483.91 4.08242 482.298 4.05424 481.623 4.11859C481.573 4.1183 481.524 4.11801 481.475 4.11943C481.442 4.11753 481.393 4.11639 481.343 4.11525C480.998 4.03385 481.64 3.97017 482.841 3.91999C487.463 4.174 487.036 4.01616 491.527 4.05773C491.56 4.06048 491.56 4.06048 491.577 4.06143C489.8 4.09972 488.056 4.13307 486.328 4.14775ZM553.516 4.68827C553.631 4.68979 553.746 4.69303 553.861 4.69541C553.73 4.69805 553.582 4.69804 553.483 4.70003C553.483 4.69661 553.499 4.69159 553.516 4.68827ZM559.652 4.87942C557.743 4.85719 555.818 4.83401 553.877 4.80988C553.844 4.80456 553.795 4.7983 553.746 4.79375C554.322 4.76296 555.391 4.73847 556.296 4.71303C558.024 4.71201 559.751 4.70587 561.413 4.76166C560.228 4.84778 557.069 4.73717 559.652 4.87942ZM557.53 4.66304C557.843 4.64267 557.926 4.62096 557.498 4.59371C556.889 4.61832 556.247 4.63421 555.688 4.65229C555.013 4.6475 554.405 4.6448 553.763 4.64276C554.158 4.58447 554.915 4.5334 556.758 4.50147C558.979 4.55113 561.232 4.63854 564.029 4.68815C561.841 4.68648 559.702 4.67571 557.53 4.66304ZM570.526 4.91299C570.214 4.88215 569.967 4.84571 569.935 4.79601C569.687 4.8842 568.848 4.92027 567.943 4.94913C566.66 4.87678 564.933 4.83 562.943 4.77485C563.864 4.71706 565.624 4.75635 565.394 4.70892C566.168 4.71855 566.941 4.72562 567.78 4.72625C566.546 4.6354 565.872 4.55294 566.399 4.48858C568.011 4.53299 569.624 4.55008 571.236 4.54412C570.988 4.66986 570.807 4.77635 570.526 4.91299ZM619.668 5.17068C615.538 5.11586 605.453 5.09543 605.208 4.92243C609.32 4.98313 619.521 4.96838 619.668 5.17068ZM610.593 9.60071C609.063 9.54739 607.385 9.49919 605.346 9.45998C606.119 9.45937 606.859 9.46369 607.632 9.46991C609.162 9.49847 610.659 9.52769 612.189 9.54856C611.547 9.56701 611.054 9.58376 610.593 9.60071ZM617.852 9.01739C617.852 9.00458 617.868 8.99017 617.803 8.97613C620.057 8.99355 622.015 8.9529 623.512 8.8686C623.858 8.87915 624.203 8.888 624.516 8.8958C624.401 8.90963 624.318 8.92366 624.154 8.93721C624.631 8.93061 625.124 8.92751 625.601 8.92347C625.717 8.9267 625.865 8.92927 625.947 8.92975C625.898 8.92776 625.865 8.925 625.815 8.9213C626.177 8.91829 626.589 8.91984 626.951 8.91683C626.654 9.04313 622.425 9.04151 617.852 9.01739ZM630.113 5.53891C627.497 5.53901 624.881 5.53996 622.265 5.54007C622.15 5.52488 621.985 5.50685 621.64 5.48179C621.377 5.50672 621.097 5.51789 620.85 5.52498C620.488 5.52031 620.126 5.51564 619.781 5.51277C618.646 5.46859 617.594 5.35575 616.326 5.46615C616.425 5.46929 616.458 5.47204 616.524 5.47584C614.434 5.4517 612.328 5.43002 610.239 5.40845C610.387 5.40846 610.552 5.40771 610.733 5.40706C612.707 5.42882 615.076 5.40594 615.389 5.35143C616.426 5.33101 617.396 5.30851 618.4 5.28876C617.626 5.47203 623.943 5.49352 630.541 5.5047C630.36 5.51389 630.244 5.52773 630.113 5.53891ZM638.932 5.35222C645.58 5.18273 657.737 5.38852 659.793 5.50807C652.752 5.44992 645.759 5.42705 638.932 5.35222ZM698.948 5.72115C698.767 5.7329 698.487 5.73127 697.829 5.70353C698.191 5.70905 698.553 5.71458 698.948 5.72115ZM695.427 5.68012C694.901 5.69839 694.654 5.7089 694.127 5.72717C695.378 5.76263 696.628 5.79809 697.878 5.81648C697.812 5.82378 697.697 5.83164 697.598 5.8379C699.293 5.83754 700.872 5.82883 702.304 5.80389C700.872 5.82627 700.494 5.85394 700.395 5.88409C696.051 5.86216 692.696 5.80247 691.347 5.68278C692.729 5.67377 694.128 5.67169 695.427 5.68012ZM701.692 6.26809C700.903 6.26092 700.08 6.25356 699.29 6.24554C700.097 6.23573 700.969 6.23313 701.857 6.26307C701.791 6.26439 701.758 6.26676 701.692 6.26809ZM736.669 6.40301C739.268 6.43184 741.851 6.46056 744.45 6.49024C732.013 6.44669 719.559 6.41244 707.171 6.31627C706.99 6.29985 706.825 6.28267 706.875 6.26503C706.628 6.27981 706.513 6.2945 706.348 6.31147C705.279 6.30267 704.242 6.29235 703.173 6.2827C703.107 6.21574 701.167 6.11394 699.9 6.11423C699.735 6.11241 699.538 6.11382 699.308 6.12272C699.784 6.16904 699.324 6.17403 698.55 6.16696C698.583 6.16118 698.551 6.15501 698.6 6.14932C698.468 6.15709 698.32 6.16049 698.189 6.16399C697.711 6.1595 697.185 6.15387 696.675 6.15004C695.82 6.12286 694.981 6.0787 694.076 6.10671C694.536 6.12561 694.898 6.13882 695.26 6.15203C695.013 6.15827 694.832 6.1649 694.684 6.17769C694.799 6.18604 694.898 6.19174 695.013 6.19924C693.598 6.18245 692.167 6.16727 690.752 6.14963C690.407 6.1203 690.209 6.10976 690.209 6.14219C687.791 6.11016 685.406 6.0749 683.02 6.03623C688.911 5.96305 695.459 5.92614 701.974 5.92403C705.034 5.93932 708.193 5.96117 711.434 5.98691C710.973 6.03628 708.949 6.06972 708.455 6.08647C721.008 6.16141 733.527 6.24129 746.08 6.30001C746.474 6.47559 738.495 6.35307 736.669 6.40301ZM1219.13 9.88964C1219.09 9.88859 1219.06 9.88925 1218.88 9.89759C1219.36 9.91659 1199.15 9.8542 1195.75 9.8514C1200.88 9.5331 1213.73 9.66781 1220.56 9.84763C1220.08 9.86106 1219.6 9.8762 1219.13 9.88964ZM1286.43 10.2081C1275.38 10.304 1263.88 9.98342 1252.71 9.93703C1256.94 9.76709 1266.43 9.78492 1271.54 9.90524C1271.79 9.89815 1271.96 9.89143 1272.09 9.88451C1273.39 9.82296 1269.21 9.81565 1269.31 9.76843C1269.47 9.70793 1271.5 9.75473 1270.25 9.66635C1273.85 9.61653 1273.22 9.78529 1274.24 9.9005C1274.33 9.82672 1274.98 9.80922 1276.18 9.8461C1275.36 9.95653 1276.56 9.99683 1279.82 9.96803C1282.39 9.96594 1284.99 9.97769 1287.57 10.0013C1286.14 10.0271 1284.71 10.0196 1283.26 9.98212C1284.87 10.0385 1285.94 10.1138 1286.43 10.2081ZM1287.72 10.003C1288.51 10.0204 1289.3 10.0378 1290.12 10.0563C1290.23 10.4598 1287.21 9.9804 1287.72 10.003ZM1333.89 10.8281C1331.89 11.0016 1328.46 10.7401 1326.82 10.8176C1325.21 10.8952 1331.75 11.0384 1335.62 11.0661C1335.8 11.0859 1336.44 11.0965 1337.87 11.0613C1337.71 11.0484 1337.48 11.0368 1337.23 11.0243C1337.18 11.0231 1337.12 11.0193 1337.08 11.0183C1335.75 10.961 1333.73 10.9168 1333.89 10.8281ZM1321.29 10.8903C1318.07 10.8775 1315.17 10.6881 1311.83 10.7352C1314.33 10.836 1321.29 11.0098 1321.29 10.8903ZM1304.53 12.9691C1312.59 13.0179 1328.65 13.3505 1334.16 13.0609C1323.71 13.1877 1317.59 12.9403 1304.53 12.9691ZM700.993 10.426C699.627 10.5504 781.607 10.8255 700.993 10.426V10.426Z" fill="white"/>
</g>
</svg>
