<?xml version="1.0" encoding="UTF-8"?>
<!DOCTYPE svg PUBLIC "-//W3C//DTD SVG 1.1//EN" "http://www.w3.org/Graphics/SVG/1.1/DTD/svg11.dtd">
<!-- Creator: CorelDRAW X7 -->
<svg xmlns="http://www.w3.org/2000/svg" xml:space="preserve" width="274.377mm" height="68.118mm" version="1.1" style="shape-rendering:geometricPrecision; text-rendering:geometricPrecision; image-rendering:optimizeQuality; fill-rule:evenodd; clip-rule:evenodd"
viewBox="0 0 27438 6812"
 xmlns:xlink="http://www.w3.org/1999/xlink">
 <defs>
  <style type="text/css">
   <![CDATA[
    .fil2 {fill:#EBECEC}
    .fil0 {fill:#EBECEC;fill-rule:nonzero}
    .fil1 {fill:url(#id0)}
   ]]>
  </style>
  <linearGradient id="id0" gradientUnits="userSpaceOnUse" x1="2143.02" y1="5689.48" x2="3974.14" y2="1277.7">
   <stop offset="0" style="stop-opacity:1; stop-color:#A8518A"/>
   <stop offset="1" style="stop-opacity:1; stop-color:#DC6038"/>
  </linearGradient>
 </defs>
 <g id="Layer_x0020_1">
  <metadata id="CorelCorpID_0Corel-Layer"/>
  <path class="fil0" d="M104 6807c37,0 73,-18 91,-55l777 -1585 5546 1631c37,9 83,-9 110,-36 27,-28 27,-74 9,-110l-320 -669c-9,-27 -36,-45 -64,-54l-4952 -1455 155 -301 4414 1299c36,9 82,0 109,-37 28,-27 28,-73 18,-111l-328 -667c-10,-27 -37,-46 -64,-55l-3820 -1116 156 -311 3280 970c36,9 82,0 109,-36 28,-28 37,-75 19,-111l-1928 -3943c-18,-28 -55,-55 -92,-55 -45,0 -82,27 -100,55l-1197 2452c-27,54 0,118 46,146 54,18 118,0 146,-55l1105 -2258 1727 3539 -3143 -923c-46,-18 -100,9 -119,55l-246 493c-9,28 -9,64 0,91 9,28 36,46 64,55l3892 1144 201 411 -4276 -1262c-46,-9 -101,9 -119,55l-247 494c-9,28 -18,64 0,92 10,27 37,46 64,55l5026 1481 201 402 -5409 -1582c-46,-18 -101,9 -128,55l-804 1665c-28,45 -10,111 45,138 19,9 28,9 46,9z"/>
  <polygon class="fil1" points="3754,155 4967,2552 5089,6812 1028,6799 "/>
  <polygon class="fil2" points="1861,4639 5110,5593 5060,5798 1830,4846 "/>
  <polygon class="fil2" points="2281,3631 5043,4438 5046,4659 2227,3831 "/>
  <polygon class="fil2" points="3617,456 5004,3293 5015,3794 3504,698 "/>
  <path class="fil0" d="M8104 3749c-45,81 -99,146 -164,196 -74,57 -160,96 -256,119 -95,20 -197,21 -307,2 -111,-21 -191,-65 -239,-133 -50,-67 -74,-160 -70,-275 5,-97 43,-175 116,-234 61,-51 146,-89 256,-117 80,-19 172,-32 275,-38 79,-5 161,-7 244,-5 58,1 121,5 189,12 16,2 33,3 50,5l0 70 -2 70 2 73 -12 45c-21,79 -48,149 -82,210zm7955 1304l7174 0 0 155 -7174 0 0 -155zm-9216 0l8079 0 0 155 -8079 0 0 -155zm1612 -748c25,0 37,-13 34,-39 -19,-138 -32,-270 -42,-395 -14,-173 -22,-323 -22,-450 0,-42 1,-91 3,-145l0 -116 0 -121c-2,-89 -8,-166 -19,-234 -28,-174 -89,-310 -184,-409 -126,-129 -310,-193 -554,-193 -170,0 -328,33 -473,99 -51,25 -100,52 -145,82 -17,13 -35,26 -50,39 -14,9 -25,19 -37,29 -18,16 -18,33 0,50l121 109c15,13 29,13 43,0 9,-6 18,-13 27,-21 13,-10 26,-19 39,-27 35,-23 73,-42 113,-61 110,-46 230,-70 362,-70 179,0 309,42 390,124 89,92 137,261 140,507l0 0 -36 -2c-38,-4 -68,-5 -92,-5 -37,-4 -73,-5 -109,-5 -89,-3 -176,-2 -261,2 -117,9 -222,24 -314,46 -140,36 -254,90 -340,160 -62,48 -108,104 -140,169 -34,65 -55,137 -61,215 -10,171 25,312 103,423 47,63 106,114 177,153 60,32 129,55 208,69 140,23 273,20 399,-9 130,-32 243,-88 338,-167 56,-45 107,-100 152,-162 8,101 20,210 34,326 3,19 14,29 33,29l163 0zm1570 -227c-225,0 -418,-80 -580,-241 -161,-162 -241,-355 -241,-581 0,-227 80,-420 241,-582 162,-161 355,-242 580,-242 228,0 421,81 582,242 162,162 242,355 242,582 0,226 -80,419 -242,581 -161,161 -354,241 -582,241zm114 -1865c-186,-20 -361,7 -530,80 -160,69 -296,172 -405,311l0 -1727c0,-23 -11,-34 -34,-34l-159 0c-23,0 -34,11 -34,34l0 3394c0,23 11,34 34,34l159 0c23,0 34,-11 34,-34l0 -364c98,124 218,220 360,289 144,73 298,109 461,109 153,0 298,-31 435,-94 132,-60 247,-144 346,-254 100,-110 172,-233 217,-372 48,-147 63,-297 46,-452 -27,-241 -129,-449 -304,-623 -176,-174 -385,-273 -626,-297zm3373 1978c-2,-143 -3,-322 -3,-538 0,-100 0,-187 0,-261 0,-103 -1,-201 -2,-293l0 -38 0 -44c-2,-31 -5,-60 -10,-89 -10,-59 -26,-118 -49,-174 -44,-117 -113,-219 -205,-304 -90,-88 -194,-150 -312,-189 -58,-19 -116,-32 -176,-38l-24 -3 -22 -2c-6,0 -14,0 -21,0l-20 0c-29,-2 -59,-1 -89,2 -111,11 -217,43 -317,97 -87,46 -164,108 -231,183l-18 22 0 -1650c0,-22 -11,-34 -34,-34l-159 0c-23,0 -34,12 -34,34l0 3389c0,24 11,34 34,34l159 0c23,0 34,-10 34,-34l0 -1099 0 0 5 -99c0,-8 0,-20 0,-39l3 -16c0,-7 0,-13 2,-20 2,-19 4,-37 8,-53 9,-48 25,-94 47,-140 28,-58 62,-110 104,-157 52,-56 112,-103 179,-138 74,-38 154,-62 237,-69 21,-2 43,-3 65,-3l20 3c7,0 13,0 16,0l15 0 17 1c45,7 89,18 130,32 89,29 167,76 233,142 67,65 117,141 151,228 17,42 27,84 34,128 3,20 6,43 7,67l0 32 0 38c0,225 0,409 -2,554 0,216 0,395 0,538l0 80c-2,23 9,34 31,34l163 0c22,0 34,-11 34,-34l0 -80zm719 114c-21,0 -32,-11 -32,-34l0 -2027c0,-22 11,-34 32,-34l161 0c23,0 34,12 34,34l0 2027c0,23 -11,34 -34,34l-161 0zm246 -2766c0,45 -15,84 -48,116 -33,32 -70,48 -116,48 -47,0 -86,-16 -116,-48 -32,-32 -48,-71 -48,-116 0,-45 16,-84 48,-116 30,-32 69,-49 116,-49 46,0 83,17 116,49 33,32 48,71 48,116zm1095 3660c-5,15 -15,22 -29,22l-174 0c-13,0 -23,-5 -30,-15 -6,-9 -7,-20 -2,-31l348 -865 -858 -2068c-4,-12 -3,-22 2,-32 7,-9 16,-14 27,-14l176 0c15,0 25,6 30,19l744 1793 720 -1793c6,-13 16,-19 31,-19l174 0c12,0 20,5 26,14 7,10 9,19 5,29l-1190 2960zm2705 -1450c-45,81 -99,146 -164,196 -74,57 -160,96 -256,119 -95,20 -197,21 -307,2 -111,-21 -191,-65 -239,-133 -50,-67 -74,-160 -70,-275 5,-97 43,-175 116,-234 61,-51 146,-89 256,-117 80,-19 172,-32 275,-38 79,-5 161,-7 244,-5 58,1 121,5 189,12 16,2 33,3 50,5l0 70 -2 70 2 73 -12 45c-21,79 -48,149 -82,210zm351 556c25,0 37,-13 34,-39 -19,-138 -32,-270 -42,-395 -14,-173 -22,-323 -22,-450 0,-42 1,-91 3,-145l0 -116 0 -121c-2,-89 -8,-166 -19,-234 -28,-174 -89,-310 -184,-409 -126,-129 -310,-193 -554,-193 -170,0 -328,33 -473,99 -51,25 -100,52 -145,82 -17,13 -35,26 -50,39 -14,9 -25,19 -37,29 -18,16 -18,33 0,50l121 109c15,13 29,13 43,0 9,-6 18,-13 27,-21 13,-10 26,-19 39,-27 35,-23 73,-42 113,-61 110,-46 230,-70 362,-70 179,0 309,42 390,124 90,92 137,261 140,507l0 0 -36 -2c-38,-4 -68,-5 -92,-5 -37,-4 -73,-5 -109,-5 -89,-3 -176,-2 -261,2 -117,9 -222,24 -314,46 -140,36 -254,90 -340,160 -62,48 -108,104 -140,169 -34,65 -55,137 -61,215 -10,171 25,312 103,423 47,63 106,114 177,153 60,32 129,55 208,69 140,23 273,20 399,-9 130,-32 243,-88 338,-167 56,-45 107,-100 152,-162 8,101 20,210 34,326 3,19 14,29 33,29l163 0zm2256 -114c0,-142 -1,-318 -2,-531 0,-35 0,-77 0,-126l0 -65 0 -68c0,-57 0,-104 0,-140 0,-53 0,-101 0,-144l0 -78c-2,-30 -5,-59 -8,-87 -6,-60 -20,-117 -39,-174 -38,-117 -101,-220 -188,-309 -85,-89 -187,-155 -305,-198 -54,-21 -111,-36 -171,-44l-22 -2 -24 -2 -22 -3c-9,0 -16,0 -21,0l-19 0 -23 0 -21 0 -22 3c-111,7 -216,37 -316,86 -87,47 -165,107 -233,179l-14 19 0 -275c0,-22 -11,-34 -33,-34l-162 0c-22,0 -32,12 -32,34l0 2039c0,23 10,34 32,34l162 0c22,0 33,-11 33,-34l0 -1174 3 -53c0,-8 0,-20 0,-36l2 -17 3 -22c1,-18 3,-35 6,-53 12,-45 28,-90 49,-136 27,-56 62,-107 104,-151 49,-56 109,-99 176,-133 73,-37 150,-59 235,-64l14 0 17 0 7 0 8 0 19 0c5,0 10,0 17,0l14 3 15 2 16 3c46,6 89,17 129,31 87,34 161,83 222,148 63,66 109,142 138,229 14,42 24,85 28,129 2,19 3,40 3,65l0 75c0,86 -1,181 -3,284 0,42 0,87 0,133l0 66 0 60c0,213 0,389 -2,531l0 80c0,23 12,34 34,34l162 0c23,0 34,-11 34,-34l0 -80zm1558 -169c-11,-15 -27,-18 -45,-7 -109,71 -208,83 -300,36 -101,-51 -152,-152 -152,-302l0 -1314 330 0c23,0 34,-11 34,-34l0 -162c0,-22 -11,-33 -34,-33l-330 0 0 -598c0,-22 -12,-33 -34,-33l-162 0c-23,0 -34,11 -34,33l3 598 -293 0c-22,0 -34,11 -34,33l0 162c0,23 12,34 34,34l293 0 0 1314c0,115 24,217 72,307 50,89 118,155 205,198 67,34 137,51 213,51 111,0 219,-35 324,-106 19,-12 21,-27 7,-46l-97 -131zm1512 -1797c-43,-6 -87,-10 -132,-10 -237,0 -438,87 -602,261l0 -242c0,-22 -10,-33 -31,-33l-162 0c-23,0 -34,11 -34,33l0 2037c0,23 11,34 34,34l162 0c21,0 31,-11 31,-34l0 -1227c0,-166 59,-307 177,-425 117,-118 259,-177 425,-177 30,0 61,3 89,8 21,3 34,-6 39,-27l32 -157c4,-23 -5,-37 -28,-41zm341 2080c-21,0 -31,-11 -31,-34l0 -2027c0,-22 10,-34 31,-34l162 0c23,0 33,12 33,34l0 2027c0,23 -10,34 -33,34l-162 0zm246 -2766c0,45 -15,84 -48,116 -32,32 -70,48 -116,48 -47,0 -85,-16 -116,-48 -32,-32 -48,-71 -48,-116 0,-45 16,-84 48,-116 31,-32 69,-49 116,-49 46,0 84,17 116,49 33,32 48,71 48,116zm1363 1480l775 -746c12,-10 14,-21 7,-36 -5,-14 -14,-22 -28,-22l-227 0c-8,0 -16,4 -22,10l-892 851 0 -2192c0,-23 -11,-34 -34,-34l-159 0c-23,0 -34,11 -34,34l0 3387c0,23 11,34 34,34l159 0c23,0 34,-11 34,-34l0 -879 223 -215 925 1116c7,8 15,12 26,12l208 0c14,0 25,-6 32,-19 4,-13 3,-25 -5,-36l-1022 -1231zm1287 1286c-21,0 -31,-11 -31,-34l0 -2027c0,-22 10,-34 31,-34l162 0c23,0 34,12 34,34l0 2027c0,23 -11,34 -34,34l-162 0zm247 -2766c0,45 -16,84 -49,116 -32,32 -70,48 -115,48 -47,0 -86,-16 -117,-48 -32,-32 -48,-71 -48,-116 0,-45 16,-84 48,-116 31,-32 70,-49 117,-49 45,0 83,17 115,49 33,32 49,71 49,116z"/>
  <path class="fil0" d="M23995 5591l387 -577 1 -1c30,-51 45,-106 45,-166 0,-88 -31,-164 -93,-227 -63,-63 -139,-94 -229,-94 -68,0 -131,20 -187,60 -56,41 -95,93 -117,158 -3,8 0,12 7,14l119 36c7,2 12,0 14,-7 12,-34 34,-62 64,-83 30,-22 64,-32 100,-32 49,0 90,17 125,51 34,35 51,76 51,124 0,32 -8,62 -23,89l-526 785c-3,3 -3,7 0,10 1,4 4,7 9,7l716 0c7,0 10,-4 10,-11l0 -125c0,-7 -3,-11 -10,-11l-463 0z"/>
  <path id="1" class="fil0" d="M25296 4669c-127,0 -236,45 -327,136 -43,42 -76,91 -99,147 -24,57 -36,117 -36,180 0,127 45,236 135,327 43,43 92,76 147,99 57,24 117,36 180,36 128,0 237,-45 327,-135 43,-43 76,-92 99,-147 25,-58 37,-118 37,-180 0,-128 -46,-237 -136,-327 -42,-43 -92,-76 -147,-100 -57,-24 -117,-36 -180,-36zm0 1069c-82,0 -160,-16 -236,-48 -72,-31 -136,-74 -192,-130 -56,-56 -100,-120 -130,-192 -32,-76 -48,-154 -48,-236 0,-82 16,-161 48,-236 30,-72 74,-137 130,-192 56,-57 120,-100 192,-130 76,-32 154,-48 236,-48 82,0 161,16 235,48 73,30 137,73 193,130 56,55 100,120 130,192 32,75 48,154 48,236 0,82 -16,160 -48,236 -30,72 -74,136 -130,192 -56,56 -120,99 -193,130 -74,32 -153,48 -235,48z"/>
  <path id="2" class="fil0" d="M26096 4700c-6,6 -6,11 0,16l87 88c6,5 10,5 16,0l48 -48 0 971c0,7 4,11 11,11l124 0c7,0 11,-4 11,-11l0 -1188c0,-7 -4,-11 -11,-11l-110 0c-3,0 -5,1 -7,3l-169 169z"/>
  <path id="3" class="fil0" d="M27080 5596c-59,0 -109,-21 -151,-64 -42,-41 -63,-92 -63,-151 0,-59 21,-110 63,-152 42,-42 92,-62 151,-62 59,0 110,20 152,62 42,42 63,93 63,152 0,59 -21,110 -63,151 -42,43 -93,64 -152,64zm0 -929c49,0 91,18 125,52 35,35 52,76 52,125 0,49 -17,91 -52,125 -34,35 -76,52 -125,52 -49,0 -90,-17 -125,-52 -34,-34 -51,-76 -51,-125 0,-49 17,-90 51,-125 35,-34 76,-52 125,-52zm205 422c35,-30 63,-66 83,-107 21,-44 32,-90 32,-138 0,-88 -32,-163 -94,-225 -63,-62 -138,-93 -226,-93 -87,0 -163,31 -225,93 -63,62 -94,137 -94,225 0,48 10,94 31,138 21,41 48,77 84,107 -47,33 -84,75 -111,125 -27,52 -41,108 -41,167 0,98 35,182 105,252 70,70 153,105 251,105 99,0 183,-35 253,-105 70,-70 105,-154 105,-252 0,-59 -14,-115 -43,-167 -27,-51 -64,-93 -110,-125z"/>
 </g>
</svg>
