<?xml version="1.0" encoding="UTF-8"?>
<svg xmlns="http://www.w3.org/2000/svg" xmlns:xlink="http://www.w3.org/1999/xlink" width="1920px" height="1080px" viewBox="0 0 1920 1080" version="1.1">
<g id="surface1">
<path style="fill:none;stroke-width:13;stroke-linecap:butt;stroke-linejoin:miter;stroke:rgb(100%,100%,100%);stroke-opacity:1;stroke-miterlimit:4;" d="M 1179.001119 484.000362 L 1181.000916 234.999783 " transform="matrix(1.613445,0,0,1.459459,0,0)"/>
<path style="fill:none;stroke-width:13;stroke-linecap:butt;stroke-linejoin:miter;stroke:rgb(100%,100%,100%);stroke-opacity:1;stroke-miterlimit:4;" d="M 1181.000916 255.001302 L 1183.000712 6.000723 " transform="matrix(1.613445,0,0,1.459459,0,0)"/>
<path style="fill:none;stroke-width:13;stroke-linecap:butt;stroke-linejoin:miter;stroke:rgb(100%,100%,100%);stroke-opacity:1;stroke-miterlimit:4;" d="M 933.99941 6.99906 L 1189.769999 6.99906 " transform="matrix(1.613445,0,0,1.459459,0,0)"/>
<path style="fill:none;stroke-width:13;stroke-linecap:butt;stroke-linejoin:miter;stroke:rgb(100%,100%,100%);stroke-opacity:1;stroke-miterlimit:4;" d="M 1.999797 11.99877 L 251.008362 11.99877 " transform="matrix(1.613445,0,0,1.459459,0,0)"/>
<path style="fill:none;stroke-width:13;stroke-linecap:butt;stroke-linejoin:miter;stroke:rgb(100%,100%,100%);stroke-opacity:1;stroke-miterlimit:4;" d="M 6.999288 255.999638 L 8.999084 6.99906 " transform="matrix(1.613445,0,0,1.459459,0,0)"/>
<path style="fill:none;stroke-width:13;stroke-linecap:butt;stroke-linejoin:miter;stroke:rgb(100%,100%,100%);stroke-opacity:1;stroke-miterlimit:4;" d="M 1176.998901 733.00094 L 1179.001119 484.000362 " transform="matrix(1.613445,0,0,1.459459,0,0)"/>
<path style="fill:none;stroke-width:13;stroke-linecap:butt;stroke-linejoin:miter;stroke:rgb(100%,100%,100%);stroke-opacity:1;stroke-miterlimit:4;" d="M 507.999166 733.00094 L 763.764913 733.00094 " transform="matrix(1.613445,0,0,1.459459,0,0)"/>
<path style="fill:none;stroke-width:13;stroke-linecap:butt;stroke-linejoin:miter;stroke:rgb(100%,100%,100%);stroke-opacity:1;stroke-miterlimit:4;" d="M 6.999288 739.499494 L 8.999084 490.498915 " transform="matrix(1.613445,0,0,1.459459,0,0)"/>
<path style="fill:none;stroke-width:13;stroke-linecap:butt;stroke-linejoin:miter;stroke:rgb(100%,100%,100%);stroke-opacity:1;stroke-miterlimit:4;" d="M 264.999674 733.00094 L 520.765422 733.00094 " transform="matrix(1.613445,0,0,1.459459,0,0)"/>
<path style="fill:none;stroke-width:13;stroke-linecap:butt;stroke-linejoin:miter;stroke:rgb(100%,100%,100%);stroke-opacity:1;stroke-miterlimit:4;" d="M 6.999288 733.00094 L 262.765035 733.00094 " transform="matrix(1.613445,0,0,1.459459,0,0)"/>
</g>
</svg>
