<svg xmlns="http://www.w3.org/2000/svg" viewBox="0 0 669 459" id="el_cOq7s0VJl"><style>@-webkit-keyframes kf_el_LJ_5cMaXq-_an_kbyriOWOO{0%{-webkit-transform: translate(75.03593613579869px, 80.20050811767578px) rotate(0deg) translate(-75.03593613579869px, -80.20050811767578px);transform: translate(75.03593613579869px, 80.20050811767578px) rotate(0deg) translate(-75.03593613579869px, -80.20050811767578px);}50%{-webkit-transform: translate(75.03593613579869px, 80.20050811767578px) rotate(-120deg) translate(-75.03593613579869px, -80.20050811767578px);transform: translate(75.03593613579869px, 80.20050811767578px) rotate(-120deg) translate(-75.03593613579869px, -80.20050811767578px);}100%{-webkit-transform: translate(75.03593613579869px, 80.20050811767578px) rotate(-360deg) translate(-75.03593613579869px, -80.20050811767578px);transform: translate(75.03593613579869px, 80.20050811767578px) rotate(-360deg) translate(-75.03593613579869px, -80.20050811767578px);}}@keyframes kf_el_LJ_5cMaXq-_an_kbyriOWOO{0%{-webkit-transform: translate(75.03593613579869px, 80.20050811767578px) rotate(0deg) translate(-75.03593613579869px, -80.20050811767578px);transform: translate(75.03593613579869px, 80.20050811767578px) rotate(0deg) translate(-75.03593613579869px, -80.20050811767578px);}50%{-webkit-transform: translate(75.03593613579869px, 80.20050811767578px) rotate(-120deg) translate(-75.03593613579869px, -80.20050811767578px);transform: translate(75.03593613579869px, 80.20050811767578px) rotate(-120deg) translate(-75.03593613579869px, -80.20050811767578px);}100%{-webkit-transform: translate(75.03593613579869px, 80.20050811767578px) rotate(-360deg) translate(-75.03593613579869px, -80.20050811767578px);transform: translate(75.03593613579869px, 80.20050811767578px) rotate(-360deg) translate(-75.03593613579869px, -80.20050811767578px);}}@-webkit-keyframes kf_el_pmnSW0-ytj_an_1i8XXeOpE{0%{-webkit-transform: translate(52.83749771118164px, 52.83749747276306px) rotate(0deg) translate(-52.83749771118164px, -52.83749747276306px);transform: translate(52.83749771118164px, 52.83749747276306px) rotate(0deg) translate(-52.83749771118164px, -52.83749747276306px);}50%{-webkit-transform: translate(52.83749771118164px, 52.83749747276306px) rotate(120deg) translate(-52.83749771118164px, -52.83749747276306px);transform: translate(52.83749771118164px, 52.83749747276306px) rotate(120deg) translate(-52.83749771118164px, -52.83749747276306px);}100%{-webkit-transform: translate(52.83749771118164px, 52.83749747276306px) rotate(360deg) translate(-52.83749771118164px, -52.83749747276306px);transform: translate(52.83749771118164px, 52.83749747276306px) rotate(360deg) translate(-52.83749771118164px, -52.83749747276306px);}}@keyframes kf_el_pmnSW0-ytj_an_1i8XXeOpE{0%{-webkit-transform: translate(52.83749771118164px, 52.83749747276306px) rotate(0deg) translate(-52.83749771118164px, -52.83749747276306px);transform: translate(52.83749771118164px, 52.83749747276306px) rotate(0deg) translate(-52.83749771118164px, -52.83749747276306px);}50%{-webkit-transform: translate(52.83749771118164px, 52.83749747276306px) rotate(120deg) translate(-52.83749771118164px, -52.83749747276306px);transform: translate(52.83749771118164px, 52.83749747276306px) rotate(120deg) translate(-52.83749771118164px, -52.83749747276306px);}100%{-webkit-transform: translate(52.83749771118164px, 52.83749747276306px) rotate(360deg) translate(-52.83749771118164px, -52.83749747276306px);transform: translate(52.83749771118164px, 52.83749747276306px) rotate(360deg) translate(-52.83749771118164px, -52.83749747276306px);}}@-webkit-keyframes kf_el_LJ_5cMaXq-_an_tmeecgd1w{0%{-webkit-transform: translate(75.03593613579869px, 80.20050811767578px) translate(-75.03593613579869px, -80.20050811767578px) translate(840px, 375px);transform: translate(75.03593613579869px, 80.20050811767578px) translate(-75.03593613579869px, -80.20050811767578px) translate(840px, 375px);}100%{-webkit-transform: translate(75.03593613579869px, 80.20050811767578px) translate(-75.03593613579869px, -80.20050811767578px) translate(840px, 375px);transform: translate(75.03593613579869px, 80.20050811767578px) translate(-75.03593613579869px, -80.20050811767578px) translate(840px, 375px);}}@keyframes kf_el_LJ_5cMaXq-_an_tmeecgd1w{0%{-webkit-transform: translate(75.03593613579869px, 80.20050811767578px) translate(-75.03593613579869px, -80.20050811767578px) translate(840px, 375px);transform: translate(75.03593613579869px, 80.20050811767578px) translate(-75.03593613579869px, -80.20050811767578px) translate(840px, 375px);}100%{-webkit-transform: translate(75.03593613579869px, 80.20050811767578px) translate(-75.03593613579869px, -80.20050811767578px) translate(840px, 375px);transform: translate(75.03593613579869px, 80.20050811767578px) translate(-75.03593613579869px, -80.20050811767578px) translate(840px, 375px);}}@-webkit-keyframes kf_el_LJ_5cMaXq-_an_bm-xnQ3Uv{0%{-webkit-transform: translate(75.03593613579869px, 80.20050811767578px) scale(1, 1) translate(-75.03593613579869px, -80.20050811767578px);transform: translate(75.03593613579869px, 80.20050811767578px) scale(1, 1) translate(-75.03593613579869px, -80.20050811767578px);}100%{-webkit-transform: translate(75.03593613579869px, 80.20050811767578px) scale(1, 1) translate(-75.03593613579869px, -80.20050811767578px);transform: translate(75.03593613579869px, 80.20050811767578px) scale(1, 1) translate(-75.03593613579869px, -80.20050811767578px);}}@keyframes kf_el_LJ_5cMaXq-_an_bm-xnQ3Uv{0%{-webkit-transform: translate(75.03593613579869px, 80.20050811767578px) scale(1, 1) translate(-75.03593613579869px, -80.20050811767578px);transform: translate(75.03593613579869px, 80.20050811767578px) scale(1, 1) translate(-75.03593613579869px, -80.20050811767578px);}100%{-webkit-transform: translate(75.03593613579869px, 80.20050811767578px) scale(1, 1) translate(-75.03593613579869px, -80.20050811767578px);transform: translate(75.03593613579869px, 80.20050811767578px) scale(1, 1) translate(-75.03593613579869px, -80.20050811767578px);}}@-webkit-keyframes kf_el_pmnSW0-ytj_an_t-G640xuz{0%{-webkit-transform: translate(52.83749771118164px, 52.83749747276306px) scale(1, 1) translate(-52.83749771118164px, -52.83749747276306px);transform: translate(52.83749771118164px, 52.83749747276306px) scale(1, 1) translate(-52.83749771118164px, -52.83749747276306px);}100%{-webkit-transform: translate(52.83749771118164px, 52.83749747276306px) scale(1, 1) translate(-52.83749771118164px, -52.83749747276306px);transform: translate(52.83749771118164px, 52.83749747276306px) scale(1, 1) translate(-52.83749771118164px, -52.83749747276306px);}}@keyframes kf_el_pmnSW0-ytj_an_t-G640xuz{0%{-webkit-transform: translate(52.83749771118164px, 52.83749747276306px) scale(1, 1) translate(-52.83749771118164px, -52.83749747276306px);transform: translate(52.83749771118164px, 52.83749747276306px) scale(1, 1) translate(-52.83749771118164px, -52.83749747276306px);}100%{-webkit-transform: translate(52.83749771118164px, 52.83749747276306px) scale(1, 1) translate(-52.83749771118164px, -52.83749747276306px);transform: translate(52.83749771118164px, 52.83749747276306px) scale(1, 1) translate(-52.83749771118164px, -52.83749747276306px);}}@-webkit-keyframes kf_el_pmnSW0-ytj_an_yGx04UbCM{0%{-webkit-transform: translate(52.83749771118164px, 52.83749747276306px) translate(-52.83749771118164px, -52.83749747276306px) translate(958px, 490px);transform: translate(52.83749771118164px, 52.83749747276306px) translate(-52.83749771118164px, -52.83749747276306px) translate(958px, 490px);}100%{-webkit-transform: translate(52.83749771118164px, 52.83749747276306px) translate(-52.83749771118164px, -52.83749747276306px) translate(958px, 490px);transform: translate(52.83749771118164px, 52.83749747276306px) translate(-52.83749771118164px, -52.83749747276306px) translate(958px, 490px);}}@keyframes kf_el_pmnSW0-ytj_an_yGx04UbCM{0%{-webkit-transform: translate(52.83749771118164px, 52.83749747276306px) translate(-52.83749771118164px, -52.83749747276306px) translate(958px, 490px);transform: translate(52.83749771118164px, 52.83749747276306px) translate(-52.83749771118164px, -52.83749747276306px) translate(958px, 490px);}100%{-webkit-transform: translate(52.83749771118164px, 52.83749747276306px) translate(-52.83749771118164px, -52.83749747276306px) translate(958px, 490px);transform: translate(52.83749771118164px, 52.83749747276306px) translate(-52.83749771118164px, -52.83749747276306px) translate(958px, 490px);}}#el_cOq7s0VJl *{-webkit-animation-duration: 2s;animation-duration: 2s;-webkit-animation-iteration-count: infinite;animation-iteration-count: infinite;-webkit-animation-timing-function: cubic-bezier(0, 0, 1, 1);animation-timing-function: cubic-bezier(0, 0, 1, 1);}#el_LssKHMTKSv{-webkit-transform: translate(-625px, -311px);transform: translate(-625px, -311px);}#el_LJ_5cMaXq-{-webkit-transform: matrix(0.891,, -0.454,, 0.454,, 0.891,, 808.701,, 427.261);transform: matrix(0.891,, -0.454,, 0.454,, 0.891,, 808.701,, 427.261);}#el_qbDjBmuY9F{-webkit-transform: translate(0px, 0px);transform: translate(0px, 0px);fill: #02838c;}#el_pmnSW0-ytj{-webkit-transform: matrix(0.891,, -0.454,, 0.454,, 0.891,, 808.701,, 427.261);transform: matrix(0.891,, -0.454,, 0.454,, 0.891,, 808.701,, 427.261);}#el_TODtzqWI02{-webkit-transform: translate(0px, 0px);transform: translate(0px, 0px);fill: #01f4f5;}#el_ySJBPse49z{-webkit-transform: translate(625px, 251.449px);transform: translate(625px, 251.449px);}#el_49zX9hI8Lt{-webkit-transform: translate(0px, 59.551px);transform: translate(0px, 59.551px);}#el_HgYdfm73m4{-webkit-transform: translate(0px, -59.551px);transform: translate(0px, -59.551px);fill: #bdfdff;}#el_pmnSW0-ytj_an_yGx04UbCM{-webkit-animation-fill-mode: backwards;animation-fill-mode: backwards;-webkit-transform: translate(52.83749771118164px, 52.83749747276306px) translate(-52.83749771118164px, -52.83749747276306px) translate(958px, 490px);transform: translate(52.83749771118164px, 52.83749747276306px) translate(-52.83749771118164px, -52.83749747276306px) translate(958px, 490px);-webkit-animation-name: kf_el_pmnSW0-ytj_an_yGx04UbCM;animation-name: kf_el_pmnSW0-ytj_an_yGx04UbCM;-webkit-animation-timing-function: cubic-bezier(0, 0, 1, 1);animation-timing-function: cubic-bezier(0, 0, 1, 1);}#el_pmnSW0-ytj_an_Yx7bxs_2r{-webkit-transform: translate(2px, 1.999999761581421px) scale(603, 603) translate(-2px, -1.999999761581421px);transform: translate(2px, 1.999999761581421px) scale(603, 603) translate(-2px, -1.999999761581421px);}#el_pmnSW0-ytj_an_t-G640xuz{-webkit-animation-fill-mode: backwards;animation-fill-mode: backwards;-webkit-transform: translate(52.83749771118164px, 52.83749747276306px) scale(1, 1) translate(-52.83749771118164px, -52.83749747276306px);transform: translate(52.83749771118164px, 52.83749747276306px) scale(1, 1) translate(-52.83749771118164px, -52.83749747276306px);-webkit-animation-name: kf_el_pmnSW0-ytj_an_t-G640xuz;animation-name: kf_el_pmnSW0-ytj_an_t-G640xuz;-webkit-animation-timing-function: cubic-bezier(0, 0, 1, 1);animation-timing-function: cubic-bezier(0, 0, 1, 1);}#el_LJ_5cMaXq-_an_bm-xnQ3Uv{-webkit-animation-fill-mode: backwards;animation-fill-mode: backwards;-webkit-transform: translate(75.03593613579869px, 80.20050811767578px) scale(1, 1) translate(-75.03593613579869px, -80.20050811767578px);transform: translate(75.03593613579869px, 80.20050811767578px) scale(1, 1) translate(-75.03593613579869px, -80.20050811767578px);-webkit-animation-name: kf_el_LJ_5cMaXq-_an_bm-xnQ3Uv;animation-name: kf_el_LJ_5cMaXq-_an_bm-xnQ3Uv;-webkit-animation-timing-function: cubic-bezier(0, 0, 1, 1);animation-timing-function: cubic-bezier(0, 0, 1, 1);}#el_LJ_5cMaXq-_an_tmeecgd1w{-webkit-animation-fill-mode: backwards;animation-fill-mode: backwards;-webkit-transform: translate(75.03593613579869px, 80.20050811767578px) translate(-75.03593613579869px, -80.20050811767578px) translate(840px, 375px);transform: translate(75.03593613579869px, 80.20050811767578px) translate(-75.03593613579869px, -80.20050811767578px) translate(840px, 375px);-webkit-animation-name: kf_el_LJ_5cMaXq-_an_tmeecgd1w;animation-name: kf_el_LJ_5cMaXq-_an_tmeecgd1w;-webkit-animation-timing-function: cubic-bezier(0, 0, 1, 1);animation-timing-function: cubic-bezier(0, 0, 1, 1);}#el_pmnSW0-ytj_an_1i8XXeOpE{-webkit-animation-fill-mode: backwards;animation-fill-mode: backwards;-webkit-transform: translate(52.83749771118164px, 52.83749747276306px) rotate(0deg) translate(-52.83749771118164px, -52.83749747276306px);transform: translate(52.83749771118164px, 52.83749747276306px) rotate(0deg) translate(-52.83749771118164px, -52.83749747276306px);-webkit-animation-name: kf_el_pmnSW0-ytj_an_1i8XXeOpE;animation-name: kf_el_pmnSW0-ytj_an_1i8XXeOpE;-webkit-animation-timing-function: cubic-bezier(0, 0, 1, 1);animation-timing-function: cubic-bezier(0, 0, 1, 1);}#el_LJ_5cMaXq-_an_kbyriOWOO{-webkit-animation-fill-mode: backwards;animation-fill-mode: backwards;-webkit-transform: translate(75.03593613579869px, 80.20050811767578px) rotate(0deg) translate(-75.03593613579869px, -80.20050811767578px);transform: translate(75.03593613579869px, 80.20050811767578px) rotate(0deg) translate(-75.03593613579869px, -80.20050811767578px);-webkit-animation-name: kf_el_LJ_5cMaXq-_an_kbyriOWOO;animation-name: kf_el_LJ_5cMaXq-_an_kbyriOWOO;-webkit-animation-timing-function: cubic-bezier(0, 0, 1, 1);animation-timing-function: cubic-bezier(0, 0, 1, 1);}</style>
    <g id="el_LssKHMTKSv" data-name="Group 3">
        <g id="el_LJ_5cMaXq-_an_tmeecgd1w" data-animator-group="true" data-animator-type="0"><g id="el_LJ_5cMaXq-_an_kbyriOWOO" data-animator-group="true" data-animator-type="1"><g id="el_LJ_5cMaXq-_an_bm-xnQ3Uv" data-animator-group="true" data-animator-type="2"><g id="el_LJ_5cMaXq-">
            <path id="el_qbDjBmuY9F" data-name="Path 1" d="M75.453,0c-15.3,0-15.037,1.462-15.037,1.462A136.23,136.23,0,0,1,55.4,19.841a63.986,63.986,0,0,0-21.094,11.7,125.987,125.987,0,0,1-17.961-5.012s-1.123-.966-8.981,12.322C-.516,52.134.685,52.839.685,52.839A137.2,137.2,0,0,1,13.216,66,64.053,64.053,0,0,0,12.8,93.147,131.067,131.067,0,0,1,.058,106.1s-1.123.548,6.474,13.993S15.1,132.62,15.1,132.62a122.649,122.649,0,0,1,18.17-4.595A62.627,62.627,0,0,0,54.36,140.139a127.766,127.766,0,0,1,5.221,18.8s-.235,1.462,15.037,1.462,15.246-1.462,15.246-1.462a141.489,141.489,0,0,1,4.8-18.379,64,64,0,0,0,21.094-11.7,125.945,125.945,0,0,1,17.961,5.012s1.1.966,8.98-12.323c7.858-13.288,6.683-13.993,6.683-13.993A137.2,137.2,0,0,1,136.856,94.4a64.053,64.053,0,0,0,.418-27.151A131.084,131.084,0,0,1,150.014,54.3s1.122-.548-6.475-13.993-8.563-12.531-8.563-12.531a122.734,122.734,0,0,1-18.17,4.595A63.058,63.058,0,0,0,95.712,20.259a131.182,131.182,0,0,1-5.222-18.8S90.726,0,75.453,0Zm-.418,26.733A53.466,53.466,0,1,1,21.57,80.2,53.468,53.468,0,0,1,75.036,26.733Zm0,6.683A46.783,46.783,0,1,0,121.818,80.2,46.772,46.772,0,0,0,75.036,33.416Zm0,20.05A26.733,26.733,0,1,1,48.3,80.2,26.718,26.718,0,0,1,75.036,53.466Z"/>
        </g></g></g></g>
        <g id="el_pmnSW0-ytj_an_yGx04UbCM" data-animator-group="true" data-animator-type="0"><g id="el_pmnSW0-ytj_an_1i8XXeOpE" data-animator-group="true" data-animator-type="1"><g id="el_pmnSW0-ytj_an_t-G640xuz" data-animator-group="true" data-animator-type="2"><g id="el_pmnSW0-ytj">
            <path id="el_TODtzqWI02" data-name="icons8-settings (1)" d="M49.908,2A2.549,2.549,0,0,0,47.4,4.125l-1.44,8.668a40.213,40.213,0,0,0-7.169,1.936l-5.6-6.792a2.539,2.539,0,0,0-3.237-.586l-5.064,2.929a2.535,2.535,0,0,0-1.112,3.088l3.078,8.221a41.138,41.138,0,0,0-5.262,5.262l-8.221-3.078a2.535,2.535,0,0,0-3.088,1.112L7.352,29.951a2.539,2.539,0,0,0,.586,3.237l6.792,5.6a40.213,40.213,0,0,0-1.936,7.169L4.125,47.4A2.549,2.549,0,0,0,2,49.908v5.858a2.549,2.549,0,0,0,2.125,2.512l8.668,1.44a40.22,40.22,0,0,0,1.936,7.169l-6.792,5.6a2.546,2.546,0,0,0-.586,3.237l2.929,5.063A2.535,2.535,0,0,0,13.369,81.9l8.221-3.078a41.124,41.124,0,0,0,5.262,5.263l-3.078,8.221a2.538,2.538,0,0,0,1.112,3.088l5.064,2.929a2.552,2.552,0,0,0,3.237-.586l5.59-6.791a40.249,40.249,0,0,0,7.179,1.936l1.44,8.668a2.549,2.549,0,0,0,2.512,2.125h5.858a2.549,2.549,0,0,0,2.512-2.125l1.44-8.668a40.246,40.246,0,0,0,7.169-1.936l5.6,6.791a2.546,2.546,0,0,0,3.237.586l5.063-2.929A2.535,2.535,0,0,0,81.9,92.306l-3.078-8.221a41.109,41.109,0,0,0,5.263-5.263L92.306,81.9a2.538,2.538,0,0,0,3.088-1.112l2.929-5.063a2.552,2.552,0,0,0-.586-3.237L90.946,66.9a40.241,40.241,0,0,0,1.936-7.179l8.668-1.44a2.549,2.549,0,0,0,2.125-2.512V49.908A2.549,2.549,0,0,0,101.55,47.4l-8.668-1.44a40.239,40.239,0,0,0-1.936-7.169l6.791-5.6a2.545,2.545,0,0,0,.586-3.237l-2.929-5.064a2.534,2.534,0,0,0-3.088-1.112l-8.221,3.078a41.124,41.124,0,0,0-5.263-5.262L81.9,13.369a2.538,2.538,0,0,0-1.112-3.088L75.724,7.352a2.552,2.552,0,0,0-3.237.586L66.9,14.729a40.205,40.205,0,0,0-7.179-1.936l-1.44-8.668A2.549,2.549,0,0,0,55.767,2ZM47.754,22.792V38.47a15.232,15.232,0,0,0-9.909,17.157L24.261,63.461a30.43,30.43,0,0,1,23.492-40.67Zm10.167,0A30.414,30.414,0,0,1,81.4,63.471L67.821,55.618a15.142,15.142,0,0,0-9.9-17.138Zm4.816,41.623,13.633,7.874a30.58,30.58,0,0,1-47.064,0l13.623-7.864a15.2,15.2,0,0,0,19.809-.01Z"/>
        </g></g></g></g>
        <g id="el_ySJBPse49z">
            <g id="el_49zX9hI8Lt" data-name="Group 2">
                <g id="el_mGDuhBQ9Pr" data-name="Group 1">
                    <path id="el_HgYdfm73m4" data-name="Path 10" d="M607.906,406.919V84.353a24.886,24.886,0,0,0-24.832-24.8H86.854a24.893,24.893,0,0,0-24.86,24.8V406.917L0,481.359a37.218,37.218,0,0,0,37.192,37.192H632.713A37.218,37.218,0,0,0,669.9,481.359ZM384.588,506.191H285.374a6.207,6.207,0,1,1,0-12.413h99.214a6.207,6.207,0,1,1,0,12.413Zm-151.915-24.8,18.933-22.726H418.3l18.933,22.726H232.673ZM572.963,363.04a21.682,21.682,0,0,1-21.63,21.659H118.569a21.735,21.735,0,0,1-21.63-21.659V103.483a21.682,21.682,0,0,1,21.63-21.659H551.333a21.716,21.716,0,0,1,21.63,21.659Z"/>
                </g>
            </g>
        </g>
    </g>
</svg>