<svg xmlns="http://www.w3.org/2000/svg" xmlns:xlink="http://www.w3.org/1999/xlink" viewBox="0 0 1920 1080" id="el_hYyz7Ir8d"><style>@-webkit-keyframes kf_el_kuM9xODJD9J_an_IwJ38AJzF{0%{-webkit-transform: translate(52.837501525878906px, 52.83750140666962px) rotate(0deg) translate(-52.837501525878906px, -52.83750140666962px);transform: translate(52.837501525878906px, 52.83750140666962px) rotate(0deg) translate(-52.837501525878906px, -52.83750140666962px);}50%{-webkit-transform: translate(52.837501525878906px, 52.83750140666962px) rotate(-100deg) translate(-52.837501525878906px, -52.83750140666962px);transform: translate(52.837501525878906px, 52.83750140666962px) rotate(-100deg) translate(-52.837501525878906px, -52.83750140666962px);}100%{-webkit-transform: translate(52.837501525878906px, 52.83750140666962px) rotate(-360deg) translate(-52.837501525878906px, -52.83750140666962px);transform: translate(52.837501525878906px, 52.83750140666962px) rotate(-360deg) translate(-52.837501525878906px, -52.83750140666962px);}}@keyframes kf_el_kuM9xODJD9J_an_IwJ38AJzF{0%{-webkit-transform: translate(52.837501525878906px, 52.83750140666962px) rotate(0deg) translate(-52.837501525878906px, -52.83750140666962px);transform: translate(52.837501525878906px, 52.83750140666962px) rotate(0deg) translate(-52.837501525878906px, -52.83750140666962px);}50%{-webkit-transform: translate(52.837501525878906px, 52.83750140666962px) rotate(-100deg) translate(-52.837501525878906px, -52.83750140666962px);transform: translate(52.837501525878906px, 52.83750140666962px) rotate(-100deg) translate(-52.837501525878906px, -52.83750140666962px);}100%{-webkit-transform: translate(52.837501525878906px, 52.83750140666962px) rotate(-360deg) translate(-52.837501525878906px, -52.83750140666962px);transform: translate(52.837501525878906px, 52.83750140666962px) rotate(-360deg) translate(-52.837501525878906px, -52.83750140666962px);}}@-webkit-keyframes kf_el_Zf43MhDk67-_an_HmWjJD1CX{0%{-webkit-transform: translate(75.03593493625522px, 80.20050811767578px) translate(-75.03593493625522px, -80.20050811767578px) translate(820px, 200px);transform: translate(75.03593493625522px, 80.20050811767578px) translate(-75.03593493625522px, -80.20050811767578px) translate(820px, 200px);}100%{-webkit-transform: translate(75.03593493625522px, 80.20050811767578px) translate(-75.03593493625522px, -80.20050811767578px) translate(820px, 200px);transform: translate(75.03593493625522px, 80.20050811767578px) translate(-75.03593493625522px, -80.20050811767578px) translate(820px, 200px);}}@keyframes kf_el_Zf43MhDk67-_an_HmWjJD1CX{0%{-webkit-transform: translate(75.03593493625522px, 80.20050811767578px) translate(-75.03593493625522px, -80.20050811767578px) translate(820px, 200px);transform: translate(75.03593493625522px, 80.20050811767578px) translate(-75.03593493625522px, -80.20050811767578px) translate(820px, 200px);}100%{-webkit-transform: translate(75.03593493625522px, 80.20050811767578px) translate(-75.03593493625522px, -80.20050811767578px) translate(820px, 200px);transform: translate(75.03593493625522px, 80.20050811767578px) translate(-75.03593493625522px, -80.20050811767578px) translate(820px, 200px);}}@-webkit-keyframes kf_el_Zf43MhDk67-_an_f0uO28L4z{0%{-webkit-transform: translate(75.03593493625522px, 80.20050811767578px) rotate(0deg) translate(-75.03593493625522px, -80.20050811767578px);transform: translate(75.03593493625522px, 80.20050811767578px) rotate(0deg) translate(-75.03593493625522px, -80.20050811767578px);}50%{-webkit-transform: translate(75.03593493625522px, 80.20050811767578px) rotate(-100deg) translate(-75.03593493625522px, -80.20050811767578px);transform: translate(75.03593493625522px, 80.20050811767578px) rotate(-100deg) translate(-75.03593493625522px, -80.20050811767578px);}100%{-webkit-transform: translate(75.03593493625522px, 80.20050811767578px) rotate(-360deg) translate(-75.03593493625522px, -80.20050811767578px);transform: translate(75.03593493625522px, 80.20050811767578px) rotate(-360deg) translate(-75.03593493625522px, -80.20050811767578px);}}@keyframes kf_el_Zf43MhDk67-_an_f0uO28L4z{0%{-webkit-transform: translate(75.03593493625522px, 80.20050811767578px) rotate(0deg) translate(-75.03593493625522px, -80.20050811767578px);transform: translate(75.03593493625522px, 80.20050811767578px) rotate(0deg) translate(-75.03593493625522px, -80.20050811767578px);}50%{-webkit-transform: translate(75.03593493625522px, 80.20050811767578px) rotate(-100deg) translate(-75.03593493625522px, -80.20050811767578px);transform: translate(75.03593493625522px, 80.20050811767578px) rotate(-100deg) translate(-75.03593493625522px, -80.20050811767578px);}100%{-webkit-transform: translate(75.03593493625522px, 80.20050811767578px) rotate(-360deg) translate(-75.03593493625522px, -80.20050811767578px);transform: translate(75.03593493625522px, 80.20050811767578px) rotate(-360deg) translate(-75.03593493625522px, -80.20050811767578px);}}#el_hYyz7Ir8d *{-webkit-animation-duration: 2s;animation-duration: 2s;-webkit-animation-iteration-count: infinite;animation-iteration-count: infinite;-webkit-animation-timing-function: cubic-bezier(0, 0, 1, 1);animation-timing-function: cubic-bezier(0, 0, 1, 1);}#el_NimLSitoEN{-webkit-clip-path: url(#clip-Web_1920_2);clip-path: url(#clip-Web_1920_2);}#el_0n5u0Cto1s{fill: url(#radial-gradient);visibility: hidden;}#el_NC1EhmfT0N{fill: none;stroke-dasharray: 10;opacity: 0.35;-webkit-transform: matrix(1,0,0,1,738,-56);transform: matrix(1,0,0,1,738,-56);visibility: hidden;}#el_KM7_izTmaW{stroke: none;}#el_55kSecV0jU{fill: #01f4f5;stroke: none;}#el_Nz-lVBNY90{fill: none;stroke-dasharray: 10;opacity: 0.35;-webkit-transform: matrix(1,0,0,1,1906,349.5) rotate(90deg);transform: matrix(1,0,0,1,1906,349.5) rotate(90deg);visibility: hidden;}#el_VdMdclcETJ{stroke: none;}#el_eJOb-P4Sch{fill: #01f4f5;stroke: none;}#el_DSh81CSyhJ{fill: #004040;stroke: #004040;-webkit-transform: matrix(1,0,0,1,49,175);transform: matrix(1,0,0,1,49,175);visibility: hidden;}#el_BzIS4Kobgi{stroke: none;}#el_RSWUdQ_Y07{fill: none;}#el_KiyEM_O96V{fill: #004040;stroke: #004040;-webkit-transform: matrix(1,0,0,1,50,571);transform: matrix(1,0,0,1,50,571);visibility: hidden;}#el_BOljiqMxzS{stroke: none;}#el_UGCCMkNbJk{fill: none;}#el_YD4jP1HWZ1{fill: #004040;stroke: #004040;-webkit-transform: matrix(1,0,0,1,1789,742);transform: matrix(1,0,0,1,1789,742);visibility: hidden;}#el_k93O4sllx9e{stroke: none;}#el_Qk4IV48_sIQ{fill: none;}#el_sgr0HOvQ6Ds{fill: #004040;stroke: #004040;-webkit-transform: matrix(1,0,0,1,1835,351);transform: matrix(1,0,0,1,1835,351);visibility: hidden;}#el_bY_eSZWdwLS{stroke: none;}#el_kiHE8eOTrpo{fill: none;}#el_8CRWano3zJb{-webkit-transform: matrix(0.891,, -0.454,, 0.454,, 0.891,, 808.701,, 232.261);transform: matrix(0.891,, -0.454,, 0.454,, 0.891,, 808.701,, 232.261);}#el_Zf43MhDk67-{fill: #02838c;-webkit-transform: matrix(1,0,0,1,0,0);transform: matrix(1,0,0,1,0,0);}#el_isSt6g8xriN{-webkit-transform: matrix(1,0,0,1,961.739,294.965);transform: matrix(1,0,0,1,961.739,294.965);}#el_kuM9xODJD9J{fill: #01f4f5;-webkit-transform: matrix(1,0,0,1,0,0);transform: matrix(1,0,0,1,0,0);}#el_AaPi2kaDbws{fill: #01f4f5;-webkit-transform: matrix(1,0,0,1,586,849);transform: matrix(1,0,0,1,586,849);visibility: hidden;}#el_tOh2eHzR1Ev{fill: #01f4f5;font-size: 68px;font-family: SegoeUI-Italic, Segoe UI;font-style: italic;-webkit-transform: matrix(1,0,0,1,492,725);transform: matrix(1,0,0,1,492,725);visibility: hidden;}#el_spOjEMN6ROs{-webkit-transform: matrix(1,0,0,1,625,56.449);transform: matrix(1,0,0,1,625,56.449);}#el_iK_7zC6Sn_Q{-webkit-transform: matrix(1,0,0,1,0,59.551);transform: matrix(1,0,0,1,0,59.551);}#el_RoDkP-VZ02g{fill: #bdfdff;-webkit-transform: matrix(1,0,0,1,0,-59.551);transform: matrix(1,0,0,1,0,-59.551);}#el__IqzptXDbgD{fill: #01f4f5;-webkit-transform: matrix(1,0,0,1,680,849);transform: matrix(1,0,0,1,680,849);visibility: hidden;}#el_Acg5bw2d0Po{fill: #01f4f5;-webkit-transform: matrix(1,0,0,1,962,849);transform: matrix(1,0,0,1,962,849);visibility: hidden;}#el_tM6PIVJv_w-{fill: #01f4f5;-webkit-transform: matrix(1,0,0,1,868,849);transform: matrix(1,0,0,1,868,849);visibility: hidden;}#el_uXqDi7dYjIR{fill: #01f4f5;-webkit-transform: matrix(1,0,0,1,774,849);transform: matrix(1,0,0,1,774,849);visibility: hidden;}#el_GXmhJC8fdRo{fill: #01f4f5;-webkit-transform: matrix(1,0,0,1,1056,849);transform: matrix(1,0,0,1,1056,849);visibility: hidden;}#el_PCkI1aryYgr{fill: #01f4f5;-webkit-transform: matrix(1,0,0,1,1150,849);transform: matrix(1,0,0,1,1150,849);visibility: hidden;}#el_WIOFEA8MTMD{fill: url(#linear-gradient);-webkit-transform: matrix(1,0,0,1,1432,849);transform: matrix(1,0,0,1,1432,849);visibility: hidden;}#el_bPZKOl33oxw{fill: #01f4f5;-webkit-transform: matrix(1,0,0,1,1338,849);transform: matrix(1,0,0,1,1338,849);visibility: hidden;}#el_WA-_wLG9-kK{fill: #01f4f5;-webkit-transform: matrix(1,0,0,1,1244,849);transform: matrix(1,0,0,1,1244,849);visibility: hidden;}#el_HVuLgChjQTG{fill: #01f4f5;-webkit-transform: matrix(1,0,0,1,492,849);transform: matrix(1,0,0,1,492,849);visibility: hidden;}#el_Zf43MhDk67-_an_f0uO28L4z{-webkit-animation-fill-mode: backwards;animation-fill-mode: backwards;-webkit-transform: translate(75.03593493625522px, 80.20050811767578px) rotate(0deg) translate(-75.03593493625522px, -80.20050811767578px);transform: translate(75.03593493625522px, 80.20050811767578px) rotate(0deg) translate(-75.03593493625522px, -80.20050811767578px);-webkit-animation-name: kf_el_Zf43MhDk67-_an_f0uO28L4z;animation-name: kf_el_Zf43MhDk67-_an_f0uO28L4z;-webkit-animation-timing-function: cubic-bezier(0, 0, 1, 1);animation-timing-function: cubic-bezier(0, 0, 1, 1);}#el_Zf43MhDk67-_an_HmWjJD1CX{-webkit-animation-fill-mode: backwards;animation-fill-mode: backwards;-webkit-transform: translate(75.03593493625522px, 80.20050811767578px) translate(-75.03593493625522px, -80.20050811767578px) translate(820px, 200px);transform: translate(75.03593493625522px, 80.20050811767578px) translate(-75.03593493625522px, -80.20050811767578px) translate(820px, 200px);-webkit-animation-name: kf_el_Zf43MhDk67-_an_HmWjJD1CX;animation-name: kf_el_Zf43MhDk67-_an_HmWjJD1CX;-webkit-animation-timing-function: cubic-bezier(0, 0, 1, 1);animation-timing-function: cubic-bezier(0, 0, 1, 1);}#el_kuM9xODJD9J_an_1ya66xo4T{-webkit-transform: translate(52.837501525878906px, 52.83750140666962px) rotate(0deg) translate(-52.837501525878906px, -52.83750140666962px);transform: translate(52.837501525878906px, 52.83750140666962px) rotate(0deg) translate(-52.837501525878906px, -52.83750140666962px);}#el_AaPi2kaDbws_an_UmqKahL-5{-webkit-transform: translate(30px, 30px) translate(-30px, -30px) translate(0px, 0px);transform: translate(30px, 30px) translate(-30px, -30px) translate(0px, 0px);}#el__IqzptXDbgD_an_FH7fkL44G{-webkit-transform: translate(0px, 0px) translate(0px, 0px) translate(0px, 0px);transform: translate(0px, 0px) translate(0px, 0px) translate(0px, 0px);}#el_Acg5bw2d0Po_an_gs395OMih{-webkit-transform: translate(0px, 0px) translate(0px, 0px) translate(0px, 0px);transform: translate(0px, 0px) translate(0px, 0px) translate(0px, 0px);}#el_tM6PIVJv_w-_an_YiTuqc_IX{-webkit-transform: translate(0px, 0px) translate(0px, 0px) translate(0px, 0px);transform: translate(0px, 0px) translate(0px, 0px) translate(0px, 0px);}#el_uXqDi7dYjIR_an_OPhELEgSD{-webkit-transform: translate(0px, 0px) translate(0px, 0px) translate(0px, 0px);transform: translate(0px, 0px) translate(0px, 0px) translate(0px, 0px);}#el_GXmhJC8fdRo_an_3IjbYy0gW{-webkit-transform: translate(0px, 0px) translate(0px, 0px) translate(0px, 0px);transform: translate(0px, 0px) translate(0px, 0px) translate(0px, 0px);}#el_PCkI1aryYgr_an_ORb-eXMBQ{-webkit-transform: translate(0px, 0px) translate(0px, 0px) translate(0px, 0px);transform: translate(0px, 0px) translate(0px, 0px) translate(0px, 0px);}#el_bPZKOl33oxw_an_JTwTDg4-h{-webkit-transform: translate(0px, 0px) translate(0px, 0px) translate(0px, 0px);transform: translate(0px, 0px) translate(0px, 0px) translate(0px, 0px);}#el_WA-_wLG9-kK_an_iRlR8SWNF{-webkit-transform: translate(0px, 0px) translate(0px, 0px) translate(0px, 0px);transform: translate(0px, 0px) translate(0px, 0px) translate(0px, 0px);}#el_HVuLgChjQTG_an_mkgT_2kcJ{-webkit-transform: translate(30px, 30px) translate(-30px, -30px) translate(0px, 0px);transform: translate(30px, 30px) translate(-30px, -30px) translate(0px, 0px);}#el_kuM9xODJD9J_an_IwJ38AJzF{-webkit-animation-fill-mode: backwards;animation-fill-mode: backwards;-webkit-transform: translate(52.837501525878906px, 52.83750140666962px) rotate(0deg) translate(-52.837501525878906px, -52.83750140666962px);transform: translate(52.837501525878906px, 52.83750140666962px) rotate(0deg) translate(-52.837501525878906px, -52.83750140666962px);-webkit-animation-name: kf_el_kuM9xODJD9J_an_IwJ38AJzF;animation-name: kf_el_kuM9xODJD9J_an_IwJ38AJzF;-webkit-animation-timing-function: cubic-bezier(0, 0, 1, 1);animation-timing-function: cubic-bezier(0, 0, 1, 1);}</style>
    <defs>
        
        <radialGradient id="radial-gradient" cx="0.5" cy="0.5" r="0.5" gradientUnits="objectBoundingBox">
            <stop offset="0"/>
            <stop offset="1"/>
        </radialGradient>
        <linearGradient id="linear-gradient" y1="0.5" x2="1" y2="0.5" gradientUnits="objectBoundingBox">
            <stop offset="0" stop-color="#004242"/>
            <stop offset="1" stop-color="#000d0d"/>
        </linearGradient>
        <clipPath id="clip-Web_1920_2">
            <rect width="1920" height="1080"/>
        </clipPath>
    </defs>
    <g id="el_NimLSitoEN" data-name="Web 1920 – 2">
        
        
        
        
        
        
        
        <g id="el_8CRWano3zJb">
            <g id="el_Zf43MhDk67-_an_HmWjJD1CX" data-animator-group="true" data-animator-type="0"><g id="el_Zf43MhDk67-_an_f0uO28L4z" data-animator-group="true" data-animator-type="1"><path id="el_Zf43MhDk67-" data-name="Path 1" d="M75.453,0c-15.3,0-15.037,1.462-15.037,1.462A136.23,136.23,0,0,1,55.4,19.841a63.986,63.986,0,0,0-21.094,11.7,125.987,125.987,0,0,1-17.961-5.012s-1.123-.966-8.981,12.322C-.516,52.134.685,52.839.685,52.839A137.2,137.2,0,0,1,13.216,66,64.053,64.053,0,0,0,12.8,93.147,131.067,131.067,0,0,1,.058,106.1s-1.123.548,6.474,13.993S15.1,132.62,15.1,132.62a122.649,122.649,0,0,1,18.17-4.595A62.627,62.627,0,0,0,54.36,140.139a127.766,127.766,0,0,1,5.221,18.8s-.235,1.462,15.037,1.462,15.246-1.462,15.246-1.462a141.489,141.489,0,0,1,4.8-18.379,64,64,0,0,0,21.094-11.7,125.945,125.945,0,0,1,17.961,5.012s1.1.966,8.98-12.323c7.858-13.288,6.683-13.993,6.683-13.993A137.2,137.2,0,0,1,136.856,94.4a64.053,64.053,0,0,0,.418-27.151A131.084,131.084,0,0,1,150.014,54.3s1.122-.548-6.475-13.993-8.563-12.531-8.563-12.531a122.734,122.734,0,0,1-18.17,4.595A63.058,63.058,0,0,0,95.712,20.259a131.182,131.182,0,0,1-5.222-18.8S90.726,0,75.453,0Zm-.418,26.733A53.466,53.466,0,1,1,21.57,80.2,53.468,53.468,0,0,1,75.036,26.733Zm0,6.683A46.783,46.783,0,1,0,121.818,80.2,46.772,46.772,0,0,0,75.036,33.416Zm0,20.05A26.733,26.733,0,1,1,48.3,80.2,26.718,26.718,0,0,1,75.036,53.466Z"/></g></g>
        </g>
        <g id="el_isSt6g8xriN">
        <g id="el_kuM9xODJD9J_an_IwJ38AJzF" data-animator-group="true" data-animator-type="1"><path id="el_kuM9xODJD9J" data-name="icons8-settings (1)" d="M49.908,2A2.549,2.549,0,0,0,47.4,4.125l-1.44,8.668a40.213,40.213,0,0,0-7.169,1.936l-5.6-6.792a2.539,2.539,0,0,0-3.237-.586l-5.064,2.929a2.535,2.535,0,0,0-1.112,3.088l3.078,8.221a41.138,41.138,0,0,0-5.262,5.262l-8.221-3.078a2.535,2.535,0,0,0-3.088,1.112L7.352,29.951a2.539,2.539,0,0,0,.586,3.237l6.792,5.6a40.213,40.213,0,0,0-1.936,7.169L4.125,47.4A2.549,2.549,0,0,0,2,49.908v5.858a2.549,2.549,0,0,0,2.125,2.512l8.668,1.44a40.22,40.22,0,0,0,1.936,7.169l-6.792,5.6a2.546,2.546,0,0,0-.586,3.237l2.929,5.063A2.535,2.535,0,0,0,13.369,81.9l8.221-3.078a41.124,41.124,0,0,0,5.262,5.263l-3.078,8.221a2.538,2.538,0,0,0,1.112,3.088l5.064,2.929a2.552,2.552,0,0,0,3.237-.586l5.59-6.791a40.249,40.249,0,0,0,7.179,1.936l1.44,8.668a2.549,2.549,0,0,0,2.512,2.125h5.858a2.549,2.549,0,0,0,2.512-2.125l1.44-8.668a40.246,40.246,0,0,0,7.169-1.936l5.6,6.791a2.546,2.546,0,0,0,3.237.586l5.063-2.929A2.535,2.535,0,0,0,81.9,92.306l-3.078-8.221a41.109,41.109,0,0,0,5.263-5.263L92.306,81.9a2.538,2.538,0,0,0,3.088-1.112l2.929-5.063a2.552,2.552,0,0,0-.586-3.237L90.946,66.9a40.241,40.241,0,0,0,1.936-7.179l8.668-1.44a2.549,2.549,0,0,0,2.125-2.512V49.908A2.549,2.549,0,0,0,101.55,47.4l-8.668-1.44a40.239,40.239,0,0,0-1.936-7.169l6.791-5.6a2.545,2.545,0,0,0,.586-3.237l-2.929-5.064a2.534,2.534,0,0,0-3.088-1.112l-8.221,3.078a41.124,41.124,0,0,0-5.263-5.262L81.9,13.369a2.538,2.538,0,0,0-1.112-3.088L75.724,7.352a2.552,2.552,0,0,0-3.237.586L66.9,14.729a40.205,40.205,0,0,0-7.179-1.936l-1.44-8.668A2.549,2.549,0,0,0,55.767,2ZM47.754,22.792V38.47a15.232,15.232,0,0,0-9.909,17.157L24.261,63.461a30.43,30.43,0,0,1,23.492-40.67Zm10.167,0A30.414,30.414,0,0,1,81.4,63.471L67.821,55.618a15.142,15.142,0,0,0-9.9-17.138Zm4.816,41.623,13.633,7.874a30.58,30.58,0,0,1-47.064,0l13.623-7.864a15.2,15.2,0,0,0,19.809-.01Z"/></g>
        </g>
        
        
        <g id="el_spOjEMN6ROs">
            <g id="el_iK_7zC6Sn_Q" data-name="Group 2">
                <g id="el_kM0Kw9wA0gS" data-name="Group 1">
                    <path id="el_RoDkP-VZ02g" data-name="Path 10" d="M607.906,406.919V84.353a24.886,24.886,0,0,0-24.832-24.8H86.854a24.893,24.893,0,0,0-24.86,24.8V406.917L0,481.359a37.218,37.218,0,0,0,37.192,37.192H632.713A37.218,37.218,0,0,0,669.9,481.359ZM384.588,506.191H285.374a6.207,6.207,0,1,1,0-12.413h99.214a6.207,6.207,0,1,1,0,12.413Zm-151.915-24.8,18.933-22.726H418.3l18.933,22.726H232.673ZM572.963,363.04a21.682,21.682,0,0,1-21.63,21.659H118.569a21.735,21.735,0,0,1-21.63-21.659V103.483a21.682,21.682,0,0,1,21.63-21.659H551.333a21.716,21.716,0,0,1,21.63,21.659Z"/>
                </g>
            </g>
        </g>
        
        
        
        
        
        
        
        
        
        
    </g>
</svg>