<svg version="1.0" preserveAspectRatio="xMidYMid meet" viewBox="228.70381395348835 0 840.5581395348837 837.749997" zoomAndPan="magnify" xmlns:xlink="http://www.w3.org/1999/xlink" xmlns="http://www.w3.org/2000/svg" style="max-height: 500px" width="840.5581395348837" height="837.749997"><defs><clipPath id="4c9c2e4da5"><path clip-rule="nonzero" d="M 229.25 0 L 1066.75 0 L 1066.75 837.5 L 229.25 837.5 Z M 229.25 0"/></clipPath></defs><g clip-path="url(#4c9c2e4da5)"><path fill-rule="nonzero" fill-opacity="1" d="M 648 837.5 C 417.171875 837.5 229.25 649.578125 229.25 418.75 C 229.25 187.921875 417.171875 0 648 0 C 878.828125 0 1066.75 187.921875 1066.75 418.75 C 1066.75 649.578125 878.828125 837.5 648 837.5 Z M 648 6.1875 C 420.472656 6.1875 235.4375 191.222656 235.4375 418.75 C 235.4375 646.277344 420.472656 831.3125 648 831.3125 C 875.527344 831.3125 1060.5625 646.277344 1060.5625 418.75 C 1060.5625 191.222656 875.527344 6.1875 648 6.1875 Z M 648 6.1875" fill="#c40a15"/></g></svg>