<svg xmlns="http://www.w3.org/2000/svg" viewBox="0 0 559 724" id="el_roIm_6pkp"><style>@-webkit-keyframes kf_el_HUAghXeLzq_an_2UnwRXuuG{0%{-webkit-transform: translate(47.99987268447876px, 210.3634033203125px) scale(1, 1) translate(-47.99987268447876px, -210.3634033203125px);transform: translate(47.99987268447876px, 210.3634033203125px) scale(1, 1) translate(-47.99987268447876px, -210.3634033203125px);}46.67%{-webkit-transform: translate(47.99987268447876px, 210.3634033203125px) scale(0.8, 0.8) translate(-47.99987268447876px, -210.3634033203125px);transform: translate(47.99987268447876px, 210.3634033203125px) scale(0.8, 0.8) translate(-47.99987268447876px, -210.3634033203125px);}100%{-webkit-transform: translate(47.99987268447876px, 210.3634033203125px) scale(1, 1) translate(-47.99987268447876px, -210.3634033203125px);transform: translate(47.99987268447876px, 210.3634033203125px) scale(1, 1) translate(-47.99987268447876px, -210.3634033203125px);}}@keyframes kf_el_HUAghXeLzq_an_2UnwRXuuG{0%{-webkit-transform: translate(47.99987268447876px, 210.3634033203125px) scale(1, 1) translate(-47.99987268447876px, -210.3634033203125px);transform: translate(47.99987268447876px, 210.3634033203125px) scale(1, 1) translate(-47.99987268447876px, -210.3634033203125px);}46.67%{-webkit-transform: translate(47.99987268447876px, 210.3634033203125px) scale(0.8, 0.8) translate(-47.99987268447876px, -210.3634033203125px);transform: translate(47.99987268447876px, 210.3634033203125px) scale(0.8, 0.8) translate(-47.99987268447876px, -210.3634033203125px);}100%{-webkit-transform: translate(47.99987268447876px, 210.3634033203125px) scale(1, 1) translate(-47.99987268447876px, -210.3634033203125px);transform: translate(47.99987268447876px, 210.3634033203125px) scale(1, 1) translate(-47.99987268447876px, -210.3634033203125px);}}@-webkit-keyframes kf_el_5_zKoHvGhk_an_HM2r3I5BK{0%{-webkit-transform: translate(303.8616638183594px, 466.3634033203125px) scale(1, 1) translate(-303.8616638183594px, -466.3634033203125px);transform: translate(303.8616638183594px, 466.3634033203125px) scale(1, 1) translate(-303.8616638183594px, -466.3634033203125px);}46.67%{-webkit-transform: translate(303.8616638183594px, 466.3634033203125px) scale(0.8, 0.8) translate(-303.8616638183594px, -466.3634033203125px);transform: translate(303.8616638183594px, 466.3634033203125px) scale(0.8, 0.8) translate(-303.8616638183594px, -466.3634033203125px);}100%{-webkit-transform: translate(303.8616638183594px, 466.3634033203125px) scale(1, 1) translate(-303.8616638183594px, -466.3634033203125px);transform: translate(303.8616638183594px, 466.3634033203125px) scale(1, 1) translate(-303.8616638183594px, -466.3634033203125px);}}@keyframes kf_el_5_zKoHvGhk_an_HM2r3I5BK{0%{-webkit-transform: translate(303.8616638183594px, 466.3634033203125px) scale(1, 1) translate(-303.8616638183594px, -466.3634033203125px);transform: translate(303.8616638183594px, 466.3634033203125px) scale(1, 1) translate(-303.8616638183594px, -466.3634033203125px);}46.67%{-webkit-transform: translate(303.8616638183594px, 466.3634033203125px) scale(0.8, 0.8) translate(-303.8616638183594px, -466.3634033203125px);transform: translate(303.8616638183594px, 466.3634033203125px) scale(0.8, 0.8) translate(-303.8616638183594px, -466.3634033203125px);}100%{-webkit-transform: translate(303.8616638183594px, 466.3634033203125px) scale(1, 1) translate(-303.8616638183594px, -466.3634033203125px);transform: translate(303.8616638183594px, 466.3634033203125px) scale(1, 1) translate(-303.8616638183594px, -466.3634033203125px);}}@-webkit-keyframes kf_el_V2_Dt02317_an_a-FQrcnkb{0%{-webkit-transform: translate(141.2391815185547px, 373.26922607421875px) scale(1, 1) translate(-141.2391815185547px, -373.26922607421875px);transform: translate(141.2391815185547px, 373.26922607421875px) scale(1, 1) translate(-141.2391815185547px, -373.26922607421875px);}46.67%{-webkit-transform: translate(141.2391815185547px, 373.26922607421875px) scale(0.8, 0.8) translate(-141.2391815185547px, -373.26922607421875px);transform: translate(141.2391815185547px, 373.26922607421875px) scale(0.8, 0.8) translate(-141.2391815185547px, -373.26922607421875px);}100%{-webkit-transform: translate(141.2391815185547px, 373.26922607421875px) scale(1, 1) translate(-141.2391815185547px, -373.26922607421875px);transform: translate(141.2391815185547px, 373.26922607421875px) scale(1, 1) translate(-141.2391815185547px, -373.26922607421875px);}}@keyframes kf_el_V2_Dt02317_an_a-FQrcnkb{0%{-webkit-transform: translate(141.2391815185547px, 373.26922607421875px) scale(1, 1) translate(-141.2391815185547px, -373.26922607421875px);transform: translate(141.2391815185547px, 373.26922607421875px) scale(1, 1) translate(-141.2391815185547px, -373.26922607421875px);}46.67%{-webkit-transform: translate(141.2391815185547px, 373.26922607421875px) scale(0.8, 0.8) translate(-141.2391815185547px, -373.26922607421875px);transform: translate(141.2391815185547px, 373.26922607421875px) scale(0.8, 0.8) translate(-141.2391815185547px, -373.26922607421875px);}100%{-webkit-transform: translate(141.2391815185547px, 373.26922607421875px) scale(1, 1) translate(-141.2391815185547px, -373.26922607421875px);transform: translate(141.2391815185547px, 373.26922607421875px) scale(1, 1) translate(-141.2391815185547px, -373.26922607421875px);}}@-webkit-keyframes kf_el_G8mUoqLQ7C_an_Y9gGYw9x9{0%{-webkit-transform: translate(128.87290954589844px, 382.28607177734375px) scale(1, 1) translate(-128.87290954589844px, -382.28607177734375px);transform: translate(128.87290954589844px, 382.28607177734375px) scale(1, 1) translate(-128.87290954589844px, -382.28607177734375px);}46.67%{-webkit-transform: translate(128.87290954589844px, 382.28607177734375px) scale(0.8, 0.8) translate(-128.87290954589844px, -382.28607177734375px);transform: translate(128.87290954589844px, 382.28607177734375px) scale(0.8, 0.8) translate(-128.87290954589844px, -382.28607177734375px);}100%{-webkit-transform: translate(128.87290954589844px, 382.28607177734375px) scale(1, 1) translate(-128.87290954589844px, -382.28607177734375px);transform: translate(128.87290954589844px, 382.28607177734375px) scale(1, 1) translate(-128.87290954589844px, -382.28607177734375px);}}@keyframes kf_el_G8mUoqLQ7C_an_Y9gGYw9x9{0%{-webkit-transform: translate(128.87290954589844px, 382.28607177734375px) scale(1, 1) translate(-128.87290954589844px, -382.28607177734375px);transform: translate(128.87290954589844px, 382.28607177734375px) scale(1, 1) translate(-128.87290954589844px, -382.28607177734375px);}46.67%{-webkit-transform: translate(128.87290954589844px, 382.28607177734375px) scale(0.8, 0.8) translate(-128.87290954589844px, -382.28607177734375px);transform: translate(128.87290954589844px, 382.28607177734375px) scale(0.8, 0.8) translate(-128.87290954589844px, -382.28607177734375px);}100%{-webkit-transform: translate(128.87290954589844px, 382.28607177734375px) scale(1, 1) translate(-128.87290954589844px, -382.28607177734375px);transform: translate(128.87290954589844px, 382.28607177734375px) scale(1, 1) translate(-128.87290954589844px, -382.28607177734375px);}}#el_roIm_6pkp *{-webkit-animation-duration: 0.5s;animation-duration: 0.5s;-webkit-animation-iteration-count: infinite;animation-iteration-count: infinite;-webkit-animation-timing-function: cubic-bezier(0, 0, 1, 1);animation-timing-function: cubic-bezier(0, 0, 1, 1);}#el_cFZ7eae423{-webkit-transform: translate(642.848px, 362.268px) rotate(135deg);transform: translate(642.848px, 362.268px) rotate(135deg);}#el_ztH3asE8t3{fill: #5efaff;}#el_IlNkvasHcP{fill: #00e9f0;}#el_5_zKoHvGhk{fill: #01f4f5;}#el_HUAghXeLzq{fill: #01f4f5;}#el_V2_Dt02317{fill: #2a65d1;}#el_G8mUoqLQ7C{fill: #01f4f5;}#el_vEE_3hTHka{fill: #99b4cd;}#el_YFk_eSg0He{fill: #6c9abb;}#el_nJpwDVrosd{fill: #d5e3ef;}#el_2QynNdpEfm_{fill: #b0c4d9;}#el_9Oan4zCI6KW{fill: #99b4cd;}#el_Q8EffcUPaha{fill: #6c9abb;}#el_qGpKHMXy4VF{fill: #99b4cd;}#el_cCnZBcRP65A{fill: #6c9abb;}#el_x0OnJVm7r3f{fill: #d5e3ef;}#el_8cSDJeUBU19{-webkit-transform: translate(289.437px, 145.96px);transform: translate(289.437px, 145.96px);fill: #70b7e5;}#el_uiLYZb7_5u5{fill: #1d8999;}#el_ov95Y5lzwx0{-webkit-transform: translate(-1px, -1px);transform: translate(-1px, -1px);fill: #4c9cd6;}#el_94Oe4uc0A5b{fill: #1d8999;}#el_c2_CASlX7-P{fill: #03535f;}#el_tvrTjA5M73D{fill: #03535f;}#el_YpYu7RyH_Uv{fill: #ecf0f9;}#el_VelXfBqX_KR{fill: #ecf0f9;}#el_albyPIaEXCH{fill: #1d8999;}#el_c_iVzwJwJxE{fill: #20afc4;}#el_0fZPBCLvgED{fill: #20afc4;}#el_ioB7ZWeJ5z4{fill: #03535f;}#el_jfGBpp66Pq9{fill: #ecf0f9;}#el_1gZRYQb2dLX{fill: #b0c4d9;}#el_lG7vGkic1Bb{fill: #ecf0f9;}#el_iEYKuZD6aJO{fill: #03535f;}#el_QndyWsZ9r-Q{fill: #03535f;}#el_G8mUoqLQ7C_an_Y9gGYw9x9{-webkit-animation-fill-mode: backwards;animation-fill-mode: backwards;-webkit-transform: translate(128.87290954589844px, 382.28607177734375px) scale(1, 1) translate(-128.87290954589844px, -382.28607177734375px);transform: translate(128.87290954589844px, 382.28607177734375px) scale(1, 1) translate(-128.87290954589844px, -382.28607177734375px);-webkit-animation-name: kf_el_G8mUoqLQ7C_an_Y9gGYw9x9;animation-name: kf_el_G8mUoqLQ7C_an_Y9gGYw9x9;-webkit-animation-timing-function: cubic-bezier(0, 0, 1, 1);animation-timing-function: cubic-bezier(0, 0, 1, 1);}#el_G8mUoqLQ7C_an_VIyr8nCRZ{-webkit-transform: translate(94.10895156860352px, 417.05003356933594px) translate(-94.10895156860352px, -417.05003356933594px) translate(0px, 0px);transform: translate(94.10895156860352px, 417.05003356933594px) translate(-94.10895156860352px, -417.05003356933594px) translate(0px, 0px);}#el_V2_Dt02317_an_a-FQrcnkb{-webkit-animation-fill-mode: backwards;animation-fill-mode: backwards;-webkit-transform: translate(141.2391815185547px, 373.26922607421875px) scale(1, 1) translate(-141.2391815185547px, -373.26922607421875px);transform: translate(141.2391815185547px, 373.26922607421875px) scale(1, 1) translate(-141.2391815185547px, -373.26922607421875px);-webkit-animation-name: kf_el_V2_Dt02317_an_a-FQrcnkb;animation-name: kf_el_V2_Dt02317_an_a-FQrcnkb;-webkit-animation-timing-function: cubic-bezier(0, 0, 1, 1);animation-timing-function: cubic-bezier(0, 0, 1, 1);}#el_5_zKoHvGhk_an_K1bmnPvpo{-webkit-transform: translate(256px, 466.3634033203125px) translate(-256px, -466.3634033203125px) translate(0px, 0px);transform: translate(256px, 466.3634033203125px) translate(-256px, -466.3634033203125px) translate(0px, 0px);}#el_5_zKoHvGhk_an_HM2r3I5BK{-webkit-animation-fill-mode: backwards;animation-fill-mode: backwards;-webkit-transform: translate(303.8616638183594px, 466.3634033203125px) scale(1, 1) translate(-303.8616638183594px, -466.3634033203125px);transform: translate(303.8616638183594px, 466.3634033203125px) scale(1, 1) translate(-303.8616638183594px, -466.3634033203125px);-webkit-animation-name: kf_el_5_zKoHvGhk_an_HM2r3I5BK;animation-name: kf_el_5_zKoHvGhk_an_HM2r3I5BK;-webkit-animation-timing-function: cubic-bezier(0, 0, 1, 1);animation-timing-function: cubic-bezier(0, 0, 1, 1);}#el_HUAghXeLzq_an_2UnwRXuuG{-webkit-animation-fill-mode: backwards;animation-fill-mode: backwards;-webkit-transform: translate(47.99987268447876px, 210.3634033203125px) scale(1, 1) translate(-47.99987268447876px, -210.3634033203125px);transform: translate(47.99987268447876px, 210.3634033203125px) scale(1, 1) translate(-47.99987268447876px, -210.3634033203125px);-webkit-animation-name: kf_el_HUAghXeLzq_an_2UnwRXuuG;animation-name: kf_el_HUAghXeLzq_an_2UnwRXuuG;-webkit-animation-timing-function: cubic-bezier(0, 0, 1, 1);animation-timing-function: cubic-bezier(0, 0, 1, 1);}</style>
  <g id="el_cFZ7eae423">
    <path id="el_ztH3asE8t3" d="M292.073,361.051,152.436,221.414,266.472,107.378A370.253,370.253,0,0,1,466.618,3.814L487.563.323h3.491A20.858,20.858,0,0,1,512,21.269h0V24.76l-2.327,22.109a369,369,0,0,1-102.4,198.982Z"/>
    <path id="el_IlNkvasHcP" d="M417.745,153.923l-166.4,166.4,40.727,40.727L406.108,247.014c54.691-54.691,89.6-123.345,102.4-198.982l4.655-22.109V22.432a19.271,19.271,0,0,0-5.818-13.964A366.512,366.512,0,0,1,417.745,153.923Z"/>
    <g id="el_1Fx8mzj7fl">
      <g id="el_KjgIGgX--g">
        <g id="el_5_zKoHvGhk_an_HM2r3I5BK" class="fire"  data-animator-group="true" data-animator-type="2"><path id="el_5_zKoHvGhk" d="M297.891,471.6a18.262,18.262,0,0,0-25.6,0C262.982,480.9,257.164,510,256,511.16v1.164s1.164,1.164,1.164,0c1.164,0,29.091-5.818,39.564-16.291C306.036,489.051,306.036,478.578,297.891,471.6Z"/></g>
      </g>
      <g id="el_mhX1vNGsUZ" class="fire" >
        <g id="el_HUAghXeLzq_an_2UnwRXuuG" data-animator-group="true"  data-animator-type="2"><path id="el_HUAghXeLzq" d="M41.891,215.6a18.262,18.262,0,0,0-25.6,0C6.982,224.9,1.164,252.832,1.164,254v1.164s1.164,1.164,1.164,0c1.164,0,29.091-5.818,39.564-16.291C50.036,233.051,50.036,222.578,41.891,215.6Z"/></g>
      </g>
      <g id="el_jQ3EkNlDeT" class="fire">
        <g id="el_V2_Dt02317_an_a-FQrcnkb" data-animator-group="true" data-animator-type="2"><path id="el_V2_Dt02317" d="M124.509,388.978c-20.945-20.945-55.855-20.945-76.8,0C18.618,418.069,1.164,503.014,0,506.505c0,2.327,0,3.491,1.164,4.655,2.327,1.164,4.655,1.164,6.982,1.164,3.491-1.164,88.436-17.455,117.527-47.709A52.379,52.379,0,0,0,124.509,388.978Z"/></g>
      </g>
    </g>
    <g id="el_sFvn5q4PMP" class="fire">
      <g id="el_G8mUoqLQ7C_an_Y9gGYw9x9" data-animator-group="true" data-animator-type="2"><path id="el_G8mUoqLQ7C" d="M121.018,390.141a27.393,27.393,0,0,0-38.4,0c-15.127,15.127-23.273,57.018-23.273,58.182s0,2.327,1.164,2.327c1.164,1.164,1.164,1.164,2.327,1.164,2.327,0,44.218-9.309,58.182-23.273A27.393,27.393,0,0,0,121.018,390.141Z"/></g>
    </g>
    <path id="el_vEE_3hTHka" d="M303.709,419.232,268.8,384.323l69.818-69.818v69.818Z"/>
    <path id="el_YFk_eSg0He" d="M300.218,376.178l22.109-22.109a55.412,55.412,0,0,0,16.291-39.564h0L268.8,384.323l34.909,34.909L315.345,407.6l-15.127-15.127A11.25,11.25,0,0,1,300.218,376.178Z"/>
    <path id="el_nJpwDVrosd" d="M326.982,489.051l-46.545-46.545,83.782-83.782a32.491,32.491,0,0,1,23.273-9.309h0A32.525,32.525,0,0,1,420.074,382h0a32.492,32.492,0,0,1-9.309,23.273Z"/>
    <path id="el_2QynNdpEfm_" d="M410.764,382l-83.782,83.782-34.909-34.909-11.636,11.636,46.545,46.545,83.782-83.782a32.491,32.491,0,0,0,9.309-23.273,34.438,34.438,0,0,0-2.327-11.636A24.147,24.147,0,0,1,410.764,382Z"/>
    <path id="el_9Oan4zCI6KW" d="M94.255,326.141h0C102.4,318,111.71,312.177,121.019,309.85l19.782-6.982,69.818,69.818-6.982,19.782a69.063,69.063,0,0,1-16.291,26.764h0Z"/>
    <path id="el_Q8EffcUPaha" d="M140.8,302.869l-17.455,5.818,38.4,38.4c9.309,9.309,11.636,22.109,8.145,33.745h0a39.331,39.331,0,0,1-6.982,13.964l24.436,24.436c8.145-8.145,13.964-17.455,16.291-26.764l6.982-19.782Z"/>
    <path id="el_qGpKHMXy4VF" d="M94.255,209.778l34.909,34.909,69.818-69.818H129.164Z"/>
    <path id="el_cCnZBcRP65A" d="M125.673,217.923a11.248,11.248,0,0,1,0-16.291l26.764-26.764H129.164L94.255,209.777l34.909,34.909h0c6.982-6.982,6.982-16.291,0-23.273Z"/>
    <path id="el_x0OnJVm7r3f" d="M24.436,186.505,70.981,233.05l83.782-83.782A32.492,32.492,0,0,0,164.072,126h0A33.3,33.3,0,0,0,131.49,93.413h0a32.491,32.491,0,0,0-23.273,9.309Z"/>
    <path id="el_8cSDJeUBU19" d="M46.545,0A46.545,46.545,0,1,1,0,46.545,46.545,46.545,0,0,1,46.545,0Z"/>
    <path id="el_uiLYZb7_5u5" d="M326.982,244.687a58.182,58.182,0,1,1,58.182-58.182A57.617,57.617,0,0,1,326.982,244.687Zm0-93.091c-19.782,0-34.909,15.127-34.909,34.909s15.127,34.909,34.909,34.909,34.909-15.127,34.909-34.909S346.764,151.6,326.982,151.6Z"/>
    <path id="el_ov95Y5lzwx0" d="M308.364,216.76c-3.491-5.818-4.655-11.636-4.655-18.618,0-19.782,15.127-34.909,34.909-34.909,6.982,0,12.8,2.327,18.618,4.655-6.982-9.309-17.455-16.291-30.255-16.291-19.782,0-34.909,15.127-34.909,34.909C292.073,199.3,299.055,209.778,308.364,216.76Z"/>
    <path id="el_94Oe4uc0A5b" d="M292.073,361.051l-38.4,38.4a11.248,11.248,0,0,1-16.291,0L114.036,276.105a11.248,11.248,0,0,1,0-16.291l38.4-38.4Z"/>
    <path id="el_c2_CASlX7-P" d="M205.964,333.123l-73.309-73.309c-4.655-4.655-12.8-4.655-18.618,0h0a11.248,11.248,0,0,0,0,16.291L237.382,399.45a11.248,11.248,0,0,0,16.291,0l38.4-38.4-40.727-40.727-12.8,12.8C229.236,342.432,215.273,342.432,205.964,333.123Z"/>
    
    <path id="el_tvrTjA5M73D" d="M350.255,442.505,333.964,458.8c-6.982,6.982-16.291,6.982-23.273,0l-23.273-23.273-6.982,6.982,46.545,46.545,34.909-34.909Z"/>
    <g id="el_-S8QXLhhesN">
      <path id="el_YpYu7RyH_Uv" d="M198.982,215.6c-1.164,0-3.491,0-4.655-1.164a5.624,5.624,0,0,1,0-8.145L252.509,148.1a5.759,5.759,0,0,1,8.145,8.145l-58.182,58.182C202.473,215.6,200.145,215.6,198.982,215.6Z"/>
      <path id="el_VelXfBqX_KR" d="M280.436,134.141c-1.164,0-3.491,0-4.655-1.164a5.624,5.624,0,0,1,0-8.145l23.273-23.273A5.759,5.759,0,0,1,307.2,109.7l-23.273,23.273C283.927,134.141,281.6,134.141,280.436,134.141Z"/>
    </g>
    <path id="el_albyPIaEXCH" d="M492.218.323h-3.491L466.618,3.814c-36.073,5.818-69.818,17.455-102.4,33.745l55.855,55.855,55.855,55.855c16.291-32.582,26.764-66.327,33.745-102.4l3.491-20.945V22.433C513.164,9.632,503.855.323,492.218.323Z"/>
    <g id="el_O3P8yVP4832">
      <path id="el_c_iVzwJwJxE" d="M408.436,48.032a6.4,6.4,0,0,1-5.818-3.491q-1.746-5.237,3.491-6.982c23.273-9.309,46.545-15.127,70.982-19.782,3.491,0,5.818,1.164,6.982,4.655,0,3.491-1.164,5.818-4.655,6.982-23.273,3.491-46.545,10.473-68.655,18.618Z"/>
      <path id="el_0fZPBCLvgED" d="M326.982,129.487v-1.164A57.617,57.617,0,0,0,268.8,186.505h1.164c5.818,0,10.473-3.491,11.636-9.309,1.164-8.145,5.818-15.127,10.473-20.945,6.982-6.982,15.127-12.8,25.6-15.127C323.491,139.96,326.982,135.3,326.982,129.487Z"/>
    </g>
    <path id="el_ioB7ZWeJ5z4" d="M326.982,243.523v1.164a57.617,57.617,0,0,0,58.182-58.182H384c-5.818,0-10.473,3.491-11.636,9.309-1.164,8.145-5.818,15.127-10.473,20.945-6.982,6.982-15.127,12.8-25.6,15.127C330.473,233.051,326.982,237.705,326.982,243.523Z"/>
    <path id="el_jfGBpp66Pq9" d="M350.255,401.778c-1.164,0-3.491,0-4.655-1.164a5.624,5.624,0,0,1,0-8.145L368.873,369.2a5.759,5.759,0,0,1,8.145,8.145l-23.273,23.273C353.745,401.778,351.418,401.778,350.255,401.778Z"/>
    <path id="el_1gZRYQb2dLX" d="M154.764,126,70.982,209.778,36.073,174.869,24.437,186.505,70.982,233.05l83.782-83.782A32.492,32.492,0,0,0,164.073,126a34.438,34.438,0,0,0-2.327-11.636A24.147,24.147,0,0,1,154.764,126Z"/>
    <path id="el_lG7vGkic1Bb" d="M94.255,145.778c-1.164,0-3.491,0-4.655-1.164a5.624,5.624,0,0,1,0-8.145L112.873,113.2a5.759,5.759,0,1,1,8.145,8.145L97.745,144.614C97.745,145.778,95.418,145.778,94.255,145.778Z"/>
    <g id="el_bs7muF9N1xm">
      <path id="el_iEYKuZD6aJO" d="M94.255,186.505,77.964,202.8c-6.982,6.982-16.291,6.982-23.273,0L31.418,179.523l-6.982,6.982L70.981,233.05l34.909-34.909Z"/>
      <path id="el_QndyWsZ9r-Q" d="M446.836,120.178l29.091,29.091c16.291-32.582,26.764-66.327,33.745-102.4l3.491-20.945V22.433a19.271,19.271,0,0,0-5.818-13.964C494.545,48.032,473.6,86.432,446.836,120.178Z"/>
    </g>
  </g>
</svg>