<svg xmlns="http://www.w3.org/2000/svg" xmlns:xlink="http://www.w3.org/1999/xlink" width="550" height="375" style=""><rect id="backgroundrect" width="100%" height="100%" x="0" y="0" fill="none" stroke="none" style="" class=""/><style>@-webkit-keyframes kf_el_kuM9xODJD9J_an_IwJ38AJzF{0%{-webkit-transform: translate(52.837501525878906px, 52.83750140666962px) rotate(0deg) translate(-52.837501525878906px, -52.83750140666962px);transform: translate(52.837501525878906px, 52.83750140666962px) rotate(0deg) translate(-52.837501525878906px, -52.83750140666962px);}50%{-webkit-transform: translate(52.837501525878906px, 52.83750140666962px) rotate(-100deg) translate(-52.837501525878906px, -52.83750140666962px);transform: translate(52.837501525878906px, 52.83750140666962px) rotate(-100deg) translate(-52.837501525878906px, -52.83750140666962px);}100%{-webkit-transform: translate(52.837501525878906px, 52.83750140666962px) rotate(-360deg) translate(-52.837501525878906px, -52.83750140666962px);transform: translate(52.837501525878906px, 52.83750140666962px) rotate(-360deg) translate(-52.837501525878906px, -52.83750140666962px);}}@keyframes kf_el_kuM9xODJD9J_an_IwJ38AJzF{0%{-webkit-transform: translate(52.837501525878906px, 52.83750140666962px) rotate(0deg) translate(-52.837501525878906px, -52.83750140666962px);transform: translate(52.837501525878906px, 52.83750140666962px) rotate(0deg) translate(-52.837501525878906px, -52.83750140666962px);}50%{-webkit-transform: translate(52.837501525878906px, 52.83750140666962px) rotate(-100deg) translate(-52.837501525878906px, -52.83750140666962px);transform: translate(52.837501525878906px, 52.83750140666962px) rotate(-100deg) translate(-52.837501525878906px, -52.83750140666962px);}100%{-webkit-transform: translate(52.837501525878906px, 52.83750140666962px) rotate(-360deg) translate(-52.837501525878906px, -52.83750140666962px);transform: translate(52.837501525878906px, 52.83750140666962px) rotate(-360deg) translate(-52.837501525878906px, -52.83750140666962px);}}@-webkit-keyframes kf_el_Zf43MhDk67-_an_HmWjJD1CX{0%{-webkit-transform: translate(75.03593493625522px, 80.20050811767578px) translate(-75.03593493625522px, -80.20050811767578px) translate(820px, 200px);transform: translate(75.03593493625522px, 80.20050811767578px) translate(-75.03593493625522px, -80.20050811767578px) translate(820px, 200px);}100%{-webkit-transform: translate(75.03593493625522px, 80.20050811767578px) translate(-75.03593493625522px, -80.20050811767578px) translate(820px, 200px);transform: translate(75.03593493625522px, 80.20050811767578px) translate(-75.03593493625522px, -80.20050811767578px) translate(820px, 200px);}}@keyframes kf_el_Zf43MhDk67-_an_HmWjJD1CX{0%{-webkit-transform: translate(75.03593493625522px, 80.20050811767578px) translate(-75.03593493625522px, -80.20050811767578px) translate(820px, 200px);transform: translate(75.03593493625522px, 80.20050811767578px) translate(-75.03593493625522px, -80.20050811767578px) translate(820px, 200px);}100%{-webkit-transform: translate(75.03593493625522px, 80.20050811767578px) translate(-75.03593493625522px, -80.20050811767578px) translate(820px, 200px);transform: translate(75.03593493625522px, 80.20050811767578px) translate(-75.03593493625522px, -80.20050811767578px) translate(820px, 200px);}}@-webkit-keyframes kf_el_Zf43MhDk67-_an_f0uO28L4z{0%{-webkit-transform: translate(75.03593493625522px, 80.20050811767578px) rotate(0deg) translate(-75.03593493625522px, -80.20050811767578px);transform: translate(75.03593493625522px, 80.20050811767578px) rotate(0deg) translate(-75.03593493625522px, -80.20050811767578px);}50%{-webkit-transform: translate(75.03593493625522px, 80.20050811767578px) rotate(-100deg) translate(-75.03593493625522px, -80.20050811767578px);transform: translate(75.03593493625522px, 80.20050811767578px) rotate(-100deg) translate(-75.03593493625522px, -80.20050811767578px);}100%{-webkit-transform: translate(75.03593493625522px, 80.20050811767578px) rotate(-360deg) translate(-75.03593493625522px, -80.20050811767578px);transform: translate(75.03593493625522px, 80.20050811767578px) rotate(-360deg) translate(-75.03593493625522px, -80.20050811767578px);}}@keyframes kf_el_Zf43MhDk67-_an_f0uO28L4z{0%{-webkit-transform: translate(75.03593493625522px, 80.20050811767578px) rotate(0deg) translate(-75.03593493625522px, -80.20050811767578px);transform: translate(75.03593493625522px, 80.20050811767578px) rotate(0deg) translate(-75.03593493625522px, -80.20050811767578px);}50%{-webkit-transform: translate(75.03593493625522px, 80.20050811767578px) rotate(-100deg) translate(-75.03593493625522px, -80.20050811767578px);transform: translate(75.03593493625522px, 80.20050811767578px) rotate(-100deg) translate(-75.03593493625522px, -80.20050811767578px);}100%{-webkit-transform: translate(75.03593493625522px, 80.20050811767578px) rotate(-360deg) translate(-75.03593493625522px, -80.20050811767578px);transform: translate(75.03593493625522px, 80.20050811767578px) rotate(-360deg) translate(-75.03593493625522px, -80.20050811767578px);}}#el_hYyz7Ir8d *{-webkit-animation-duration: 2s;animation-duration: 2s;-webkit-animation-iteration-count: infinite;animation-iteration-count: infinite;-webkit-animation-timing-function: cubic-bezier(0, 0, 1, 1);animation-timing-function: cubic-bezier(0, 0, 1, 1);}#el_NimLSitoEN{-webkit-clip-path: url(#clip-Web_1920_2);clip-path: url(#clip-Web_1920_2);}#el_0n5u0Cto1s{fill: url(#radial-gradient);visibility: hidden;}#el_NC1EhmfT0N{fill: none;stroke-dasharray: 10;opacity: 0.35;-webkit-transform: matrix(1,0,0,1,738,-56);transform: matrix(1,0,0,1,738,-56);visibility: hidden;}#el_KM7_izTmaW{stroke: none;}#el_55kSecV0jU{fill: #01f4f5;stroke: none;}#el_Nz-lVBNY90{fill: none;stroke-dasharray: 10;opacity: 0.35;-webkit-transform: matrix(1,0,0,1,1906,349.5) rotate(90deg);transform: matrix(1,0,0,1,1906,349.5) rotate(90deg);visibility: hidden;}#el_VdMdclcETJ{stroke: none;}#el_eJOb-P4Sch{fill: #01f4f5;stroke: none;}#el_DSh81CSyhJ{fill: #004040;stroke: #004040;-webkit-transform: matrix(1,0,0,1,49,175);transform: matrix(1,0,0,1,49,175);}#el_BzIS4Kobgi{stroke: none;}#el_RSWUdQ_Y07{fill: none;}#el_KiyEM_O96V{fill: #004040;stroke: #004040;-webkit-transform: matrix(1,0,0,1,50,571);transform: matrix(1,0,0,1,50,571);}#el_BOljiqMxzS{stroke: none;}#el_UGCCMkNbJk{fill: none;}#el_YD4jP1HWZ1{fill: #004040;stroke: #004040;-webkit-transform: matrix(1,0,0,1,1789,742);transform: matrix(1,0,0,1,1789,742);}#el_k93O4sllx9e{stroke: none;}#el_Qk4IV48_sIQ{fill: none;}#el_sgr0HOvQ6Ds{fill: #004040;stroke: #004040;-webkit-transform: matrix(1,0,0,1,1835,351);transform: matrix(1,0,0,1,1835,351);}#el_bY_eSZWdwLS{stroke: none;}#el_kiHE8eOTrpo{fill: none;}#el_8CRWano3zJb{-webkit-transform: matrix(0.891,, -0.454,, 0.454,, 0.891,, 808.701,, 232.261);transform: matrix(0.891,, -0.454,, 0.454,, 0.891,, 808.701,, 232.261);}#el_Zf43MhDk67-{fill: #02838c;-webkit-transform: matrix(1,0,0,1,0,0);transform: matrix(1,0,0,1,0,0);}#el_isSt6g8xriN{-webkit-transform: matrix(1,0,0,1,961.739,294.965);transform: matrix(1,0,0,1,961.739,294.965);}#el_kuM9xODJD9J{fill: #01f4f5;-webkit-transform: matrix(1,0,0,1,0,0);transform: matrix(1,0,0,1,0,0);}#el_AaPi2kaDbws{fill: #01f4f5;-webkit-transform: matrix(1,0,0,1,586,849);transform: matrix(1,0,0,1,586,849);visibility: hidden;}#el_tOh2eHzR1Ev{fill: #01f4f5;font-size: 68px;font-family: SegoeUI-Italic, Segoe UI;font-style: italic;-webkit-transform: matrix(1,0,0,1,492,725);transform: matrix(1,0,0,1,492,725);visibility: hidden;}#el_spOjEMN6ROs{-webkit-transform: matrix(1,0,0,1,625,56.449);transform: matrix(1,0,0,1,625,56.449);}#el_iK_7zC6Sn_Q{-webkit-transform: matrix(1,0,0,1,0,59.551);transform: matrix(1,0,0,1,0,59.551);}#el_RoDkP-VZ02g{fill: #bdfdff;-webkit-transform: matrix(1,0,0,1,0,-59.551);transform: matrix(1,0,0,1,0,-59.551);}#el__IqzptXDbgD{fill: #01f4f5;-webkit-transform: matrix(1,0,0,1,680,849);transform: matrix(1,0,0,1,680,849);visibility: hidden;}#el_Acg5bw2d0Po{fill: #01f4f5;-webkit-transform: matrix(1,0,0,1,962,849);transform: matrix(1,0,0,1,962,849);visibility: hidden;}#el_tM6PIVJv_w-{fill: #01f4f5;-webkit-transform: matrix(1,0,0,1,868,849);transform: matrix(1,0,0,1,868,849);visibility: hidden;}#el_uXqDi7dYjIR{fill: #01f4f5;-webkit-transform: matrix(1,0,0,1,774,849);transform: matrix(1,0,0,1,774,849);visibility: hidden;}#el_GXmhJC8fdRo{fill: #01f4f5;-webkit-transform: matrix(1,0,0,1,1056,849);transform: matrix(1,0,0,1,1056,849);visibility: hidden;}#el_PCkI1aryYgr{fill: #01f4f5;-webkit-transform: matrix(1,0,0,1,1150,849);transform: matrix(1,0,0,1,1150,849);visibility: hidden;}#el_WIOFEA8MTMD{fill: url(#linear-gradient);-webkit-transform: matrix(1,0,0,1,1432,849);transform: matrix(1,0,0,1,1432,849);visibility: hidden;}#el_bPZKOl33oxw{fill: #01f4f5;-webkit-transform: matrix(1,0,0,1,1338,849);transform: matrix(1,0,0,1,1338,849);visibility: hidden;}#el_WA-_wLG9-kK{fill: #01f4f5;-webkit-transform: matrix(1,0,0,1,1244,849);transform: matrix(1,0,0,1,1244,849);visibility: hidden;}#el_HVuLgChjQTG{fill: #01f4f5;-webkit-transform: matrix(1,0,0,1,492,849);transform: matrix(1,0,0,1,492,849);visibility: hidden;}#el_Zf43MhDk67-_an_f0uO28L4z{-webkit-animation-fill-mode: backwards;animation-fill-mode: backwards;-webkit-transform: translate(75.03593493625522px, 80.20050811767578px) rotate(0deg) translate(-75.03593493625522px, -80.20050811767578px);transform: translate(75.03593493625522px, 80.20050811767578px) rotate(0deg) translate(-75.03593493625522px, -80.20050811767578px);-webkit-animation-name: kf_el_Zf43MhDk67-_an_f0uO28L4z;animation-name: kf_el_Zf43MhDk67-_an_f0uO28L4z;-webkit-animation-timing-function: cubic-bezier(0, 0, 1, 1);animation-timing-function: cubic-bezier(0, 0, 1, 1);}#el_Zf43MhDk67-_an_HmWjJD1CX{-webkit-animation-fill-mode: backwards;animation-fill-mode: backwards;-webkit-transform: translate(75.03593493625522px, 80.20050811767578px) translate(-75.03593493625522px, -80.20050811767578px) translate(820px, 200px);transform: translate(75.03593493625522px, 80.20050811767578px) translate(-75.03593493625522px, -80.20050811767578px) translate(820px, 200px);-webkit-animation-name: kf_el_Zf43MhDk67-_an_HmWjJD1CX;animation-name: kf_el_Zf43MhDk67-_an_HmWjJD1CX;-webkit-animation-timing-function: cubic-bezier(0, 0, 1, 1);animation-timing-function: cubic-bezier(0, 0, 1, 1);}#el_kuM9xODJD9J_an_1ya66xo4T{-webkit-transform: translate(52.837501525878906px, 52.83750140666962px) rotate(0deg) translate(-52.837501525878906px, -52.83750140666962px);transform: translate(52.837501525878906px, 52.83750140666962px) rotate(0deg) translate(-52.837501525878906px, -52.83750140666962px);}#el_AaPi2kaDbws_an_UmqKahL-5{-webkit-transform: translate(30px, 30px) translate(-30px, -30px) translate(0px, 0px);transform: translate(30px, 30px) translate(-30px, -30px) translate(0px, 0px);}#el__IqzptXDbgD_an_FH7fkL44G{-webkit-transform: translate(0px, 0px) translate(0px, 0px) translate(0px, 0px);transform: translate(0px, 0px) translate(0px, 0px) translate(0px, 0px);}#el_Acg5bw2d0Po_an_gs395OMih{-webkit-transform: translate(0px, 0px) translate(0px, 0px) translate(0px, 0px);transform: translate(0px, 0px) translate(0px, 0px) translate(0px, 0px);}#el_tM6PIVJv_w-_an_YiTuqc_IX{-webkit-transform: translate(0px, 0px) translate(0px, 0px) translate(0px, 0px);transform: translate(0px, 0px) translate(0px, 0px) translate(0px, 0px);}#el_uXqDi7dYjIR_an_OPhELEgSD{-webkit-transform: translate(0px, 0px) translate(0px, 0px) translate(0px, 0px);transform: translate(0px, 0px) translate(0px, 0px) translate(0px, 0px);}#el_GXmhJC8fdRo_an_3IjbYy0gW{-webkit-transform: translate(0px, 0px) translate(0px, 0px) translate(0px, 0px);transform: translate(0px, 0px) translate(0px, 0px) translate(0px, 0px);}#el_PCkI1aryYgr_an_ORb-eXMBQ{-webkit-transform: translate(0px, 0px) translate(0px, 0px) translate(0px, 0px);transform: translate(0px, 0px) translate(0px, 0px) translate(0px, 0px);}#el_bPZKOl33oxw_an_JTwTDg4-h{-webkit-transform: translate(0px, 0px) translate(0px, 0px) translate(0px, 0px);transform: translate(0px, 0px) translate(0px, 0px) translate(0px, 0px);}#el_WA-_wLG9-kK_an_iRlR8SWNF{-webkit-transform: translate(0px, 0px) translate(0px, 0px) translate(0px, 0px);transform: translate(0px, 0px) translate(0px, 0px) translate(0px, 0px);}#el_HVuLgChjQTG_an_mkgT_2kcJ{-webkit-transform: translate(30px, 30px) translate(-30px, -30px) translate(0px, 0px);transform: translate(30px, 30px) translate(-30px, -30px) translate(0px, 0px);}#el_kuM9xODJD9J_an_IwJ38AJzF{-webkit-animation-fill-mode: backwards;animation-fill-mode: backwards;-webkit-transform: translate(52.837501525878906px, 52.83750140666962px) rotate(0deg) translate(-52.837501525878906px, -52.83750140666962px);transform: translate(52.837501525878906px, 52.83750140666962px) rotate(0deg) translate(-52.837501525878906px, -52.83750140666962px);-webkit-animation-name: kf_el_kuM9xODJD9J_an_IwJ38AJzF;animation-name: kf_el_kuM9xODJD9J_an_IwJ38AJzF;-webkit-animation-timing-function: cubic-bezier(0, 0, 1, 1);animation-timing-function: cubic-bezier(0, 0, 1, 1);}</style>
    <defs>
        
        <radialGradient id="radial-gradient" cx="0.5" cy="0.5" r="0.5" gradientUnits="objectBoundingBox">
            <stop offset="0"/>
            <stop offset="1"/>
        </radialGradient>
        <linearGradient id="linear-gradient" y1="0.5" x2="1" y2="0.5" gradientUnits="objectBoundingBox">
            <stop offset="0" stop-color="#004242"/>
            <stop offset="1" stop-color="#000d0d"/>
        </linearGradient>
        <clipPath id="clip-Web_1920_2">
            <rect width="1920" height="1080" id="svg_1"/>
        </clipPath>
    </defs>
    
<g class="currentLayer" style=""><title>Layer 1</title>
        
        
        
        <g id="el_DSh81CSyhJ" data-name="Ellipse 30" class="">
            <circle cx="-622.1270024784026" cy="-99.68620163202286" r="2.81378173828125" id="el_BzIS4Kobgi"/>
            <circle cx="-622.1270024784026" cy="-99.68620163202286" r="2.411823272705078" id="el_RSWUdQ_Y07"/>
        </g>
        <g id="el_KiyEM_O96V" data-name="Ellipse 33" class="">
            <circle cx="-622.1270024784026" cy="-99.68620163202286" r="2.81378173828125" id="el_BOljiqMxzS"/>
            <circle cx="-622.1270024784026" cy="-99.68620163202286" r="2.411823272705078" id="el_UGCCMkNbJk"/>
        </g>
        <g id="el_YD4jP1HWZ1" data-name="Ellipse 39" class="">
            <circle cx="-622.1270024784026" cy="-99.68620163202286" r="2.81378173828125" id="el_k93O4sllx9e"/>
            <circle cx="-622.1270024784026" cy="-99.68620163202286" r="2.411823272705078" id="el_Qk4IV48_sIQ"/>
        </g>
        <g id="el_sgr0HOvQ6Ds" data-name="Ellipse 43" class="">
            <circle cx="-622.1270024784026" cy="-99.68620163202286" r="2.81378173828125" id="el_bY_eSZWdwLS"/>
            <circle cx="-622.1270024784026" cy="-99.68620163202286" r="2.411823272705078" id="el_kiHE8eOTrpo"/>
        </g>
        <g id="el_8CRWano3zJb" class="">
            <g id="el_Zf43MhDk67-_an_HmWjJD1CX" data-animator-group="true" data-animator-type="0"><g id="el_Zf43MhDk67-_an_f0uO28L4z" data-animator-group="true" data-animator-type="1"><path id="el_Zf43MhDk67-" data-name="Path 1" d="M-588.8963413238525,-148.33331823349 c-12.559294700622559,0 -12.343405723571777,1.1753616333007812 -12.343405723571777,1.1753616333007812 A111.82696533203125,109.52086639404297 0 0 1 -605.3572177886963,-132.38232946395874 a52.52411651611328,51.44096374511719 0 0 0 -17.31540870666504,9.406107902526855 a103.41880798339844,101.28610229492188 0 0 1 -14.743626594543457,-4.029351711273193 s-0.9218357801437378,-0.7766069173812866 -7.372223854064941,9.906159400939941 C-651.2569370269775,-106.4206748008728 -650.2710971832275,-105.85389471054077 -650.2710971832275,-105.85389471054077 A112.62321472167969,110.30068969726562 0 0 1 -639.9847812652588,-95.27322912216187 A52.57911682128906,51.49482727050781 0 0 0 -640.3262729644775,-73.44864416122437 A107.58882904052734,105.37012481689453 0 0 1 -650.7857456207275,-63.0351996421814 s-0.9218357801437378,0.44055959582328796 5.314305305480957,11.249545097351074 S-638.4382724761963,-41.714688777923584 -638.4382724761963,-41.714688777923584 a100.67874908447266,98.60254669189453 0 0 1 14.91518783569336,-3.694108247756958 A51.4085578918457,50.34840393066406 0 0 0 -606.210916519165,-35.66985082626343 a104.87913513183594,102.71630859375 0 0 1 4.285756587982178,15.11408805847168 s-0.19290418922901154,1.1753616333007812 12.343405723571777,1.1753616333007812 s12.514967918395996,-1.1753616333007812 12.514967918395996,-1.1753616333007812 a116.1439208984375,113.74879455566406 0 0 1 3.940171003341675,-14.775629043579102 a52.53561019897461,51.45221710205078 0 0 0 17.31540870666504,-9.406107902526855 a103.38433074951172,101.25233459472656 0 0 1 14.743626594543457,4.029351711273193 s0.9029558300971985,0.7766069173812866 7.371402263641357,-9.906963348388672 c6.450387954711914,-10.682766914367676 5.485867023468018,-11.249545097351074 5.485867023468018,-11.249545097351074 A112.62321472167969,110.30068969726562 0 0 1 -538.4925327301025,-72.4413046836853 a52.57911682128906,51.49482727050781 0 0 0 0.3431232273578644,-21.82779884338379 A107.602783203125,105.3837890625 0 0 1 -527.6915683746338,-104.67933416366577 s0.9210149049758911,-0.44055959582328796 -5.315125942230225,-11.249545097351074 s-7.02910041809082,-10.074183464050293 -7.02910041809082,-10.074183464050293 a100.74852752685547,98.67088317871094 0 0 1 -14.91518783569336,3.694108247756958 A51.762351989746094,50.69490432739258 0 0 0 -572.2663974761963,-132.0462851524353 a107.6832275390625,105.46257781982422 0 0 1 -4.2865777015686035,-15.11408805847168 S-576.3592319488525,-148.33331823349 -588.8963413238525,-148.33331823349 zm-0.3431232273578644,21.49175262451172 A43.88857650756836,42.98350524902344 0 1 1 -633.1272373199463,-83.85726690292358 A43.89021682739258,42.985111236572266 0 0 1 -589.2386264801025,-126.8415732383728 zm0,5.372736930847168 A38.4027099609375,37.61076736450195 0 1 0 -550.8367710113525,-83.85726690292358 A38.393680572509766,37.60192108154297 0 0 0 -589.2386264801025,-121.46883916854858 zm0,16.119014739990234 A21.94428825378418,21.49175262451172 0 1 1 -611.1854038238525,-83.85726690292358 A21.931976318359375,21.479692459106445 0 0 1 -589.2386264801025,-105.34982061386108 z"/></g></g>
        </g>
        <g id="el_isSt6g8xriN" class="">
        <g id="el_kuM9xODJD9J_an_IwJ38AJzF" data-animator-group="true" data-animator-type="1"><path id="el_kuM9xODJD9J" data-name="icons8-settings (1)" d="M-635.6987915039062,-148.39211082458496 A2.0923948287963867,2.0492453575134277 0 0 0 -637.7575073242188,-146.68373680114746 l-1.1820513010025024,6.968559741973877 a33.00960159301758,32.32887649536133 0 0 0 -5.884809494018555,1.5564295053482056 l-4.596865653991699,-5.460366249084473 a2.08418607711792,2.041205883026123 0 0 0 -2.6571526527404785,-0.47110939025878906 l-4.1568803787231445,2.3547427654266357 a2.0809028148651123,2.0379903316497803 0 0 0 -0.9128062129020691,2.482569456100464 l2.526634454727173,6.609197616577148 a33.76890563964844,33.0725212097168 0 0 0 -4.3194122314453125,4.230337142944336 l-6.748363018035889,-2.4745302200317383 a2.0809028148651123,2.0379903316497803 0 0 0 -2.5348432064056396,0.8939822912216187 L-670.6316528320312,-125.92116355895996 a2.08418607711792,2.041205883026123 0 0 0 0.481029212474823,2.6023566722869873 l5.575341701507568,4.502068996429443 a33.00960159301758,32.32887649536133 0 0 0 -1.5892021656036377,5.763452529907227 L-673.2806396484375,-111.8931941986084 A2.0923948287963867,2.0492453575134277 0 0 0 -675.0249633789062,-109.87692070007324 v4.7094855308532715 a2.0923948287963867,2.0492453575134277 0 0 0 1.7443463802337646,2.0194995403289795 l7.115292072296143,1.1576749086380005 a33.015350341796875,32.334503173828125 0 0 0 1.5892021656036377,5.763452529907227 l-5.575341701507568,4.502068996429443 a2.0899322032928467,2.0468335151672363 0 0 0 -0.481029212474823,2.6023566722869873 l2.404325008392334,4.070353031158447 A2.0809028148651123,2.0379903316497803 0 0 0 -665.6925048828125,-84.15724754333496 l6.748363018035889,-2.4745302200317383 a33.75741195678711,33.06126403808594 0 0 0 4.3194122314453125,4.231141090393066 l-2.526634454727173,6.609197616577148 a2.0833654403686523,2.0404021739959717 0 0 0 0.9128062129020691,2.482569456100464 l4.1568803787231445,2.3547427654266357 a2.0948574542999268,2.051657199859619 0 0 0 2.6571526527404785,-0.47110939025878906 l4.588657379150391,-5.459562301635742 a33.039154052734375,32.357818603515625 0 0 0 5.893017768859863,1.5564295053482056 l1.1820513010025024,6.968559741973877 a2.0923948287963867,2.0492453575134277 0 0 0 2.0620226860046387,1.7083743810653687 h4.808650016784668 a2.0923948287963867,2.0492453575134277 0 0 0 2.0620226860046387,-1.7083743810653687 l1.1820513010025024,-6.968559741973877 a33.03668975830078,32.355403900146484 0 0 0 5.884809494018555,-1.5564295053482056 l4.596865653991699,5.459562301635742 a2.0899322032928467,2.0468335151672363 0 0 0 2.6571526527404785,0.47110939025878906 l4.156059265136719,-2.3547427654266357 A2.0809028148651123,2.0379903316497803 0 0 0 -609.4375610351562,-75.79143333435059 l-2.526634454727173,-6.609197616577148 a33.74510192871094,33.0492057800293 0 0 0 4.32023286819458,-4.231141090393066 L-600.8955688476562,-84.15724754333496 a2.0833654403686523,2.0404021739959717 0 0 0 2.5348432064056396,-0.8939822912216187 l2.404325008392334,-4.070353031158447 a2.0948574542999268,2.051657199859619 0 0 0 -0.481029212474823,-2.6023566722869873 L-602.011962890625,-96.21636009216309 a33.03258514404297,32.35138702392578 0 0 0 1.5892021656036377,-5.771491527557373 l7.115292072296143,-1.1576749086380005 a2.0923948287963867,2.0492453575134277 0 0 0 1.7443463802337646,-2.0194995403289795 V-109.87692070007324 A2.0923948287963867,2.0492453575134277 0 0 0 -593.3074951171875,-111.8931941986084 l-7.115292072296143,-1.1576749086380005 a33.030941009521484,32.34977722167969 0 0 0 -1.5892021656036377,-5.763452529907227 l5.574520587921143,-4.502068996429443 a2.089111328125,2.046029567718506 0 0 0 0.481029212474823,-2.6023566722869873 l-2.404325008392334,-4.071156978607178 a2.0800817012786865,2.0371861457824707 0 0 0 -2.5348432064056396,-0.8939822912216187 l-6.748363018035889,2.4745302200317383 a33.75741195678711,33.06126403808594 0 0 0 -4.32023286819458,-4.230337142944336 L-609.4375610351562,-139.25209617614746 a2.0833654403686523,2.0404021739959717 0 0 0 -0.9128062129020691,-2.482569456100464 L-614.5072021484375,-144.0894069671631 a2.0948574542999268,2.051657199859619 0 0 0 -2.6571526527404785,0.47110939025878906 L-621.7506103515625,-138.1587429046631 a33.00303649902344,32.322444915771484 0 0 0 -5.893017768859863,-1.5564295053482056 l-1.1820513010025024,-6.968559741973877 A2.0923948287963867,2.0492453575134277 0 0 0 -630.8893432617188,-148.39211082458496 zM-637.4669189453125,-131.6765651702881 V-119.07237815856934 a12.503475189208984,12.245628356933594 0 0 0 -8.133990287780762,13.793213844299316 L-656.7515869140625,-98.98111534118652 a24.979042053222656,24.46392250061035 0 0 1 19.28385353088379,-32.69627380371094 zm8.345773696899414,0 A24.965906143188477,24.45105743408203 0 0 1 -609.8479614257812,-98.97307395935059 L-620.9945678710938,-105.28641319274902 a12.429596900939941,12.173273086547852 0 0 0 -8.126602172851562,-13.777939796447754 zm3.9533047676086426,33.462432861328125 l11.190906524658203,6.330230712890625 a25.102170944213867,24.58451271057129 0 0 1 -38.63337326049805,0 l11.182697296142578,-6.32219123840332 a12.47720718383789,12.219901084899902 0 0 0 16.260591506958008,-0.00803940836340189 z"/></g>
        </g>
        
        
        <g id="el_spOjEMN6ROs" class="">
            <g id="el_iK_7zC6Sn_Q" data-name="Group 2">
                <g id="el_kM0Kw9wA0gS" data-name="Group 1">
                    <path id="el_RoDkP-VZ02g" data-name="Path 10" d="M-125.98891186714172,224.63882970809937 V-34.68516778945923 a20.428142547607422,20.006872177124023 0 0 0 -20.383817672729492,-19.937732696533203 H-553.704304933548 a20.433889389038086,20.012500762939453 0 0 0 -20.406801223754883,19.937732696533203 V224.63721227645874 L-625.0000202655792,284.48421239852905 a30.551097869873047,29.921070098876953 0 0 0 30.52975845336914,29.900171279907227 H-105.62563061714172 A30.551097869873047,29.921070098876953 0 0 0 -75.09993481636047,284.48421239852905 zM-309.3037006855011,304.4476523399353 H-390.74541211128235 a5.095133304595947,4.990060806274414 0 1 1 0,-9.979318618774414 h81.44168853759766 a5.095133304595947,4.990060806274414 0 1 1 0,9.979318618774414 zm-124.7022933959961,-19.937732696533203 l15.541511535644531,-18.270360946655273 H-281.630574464798 l15.541511535644531,18.270360946655273 H-434.0060017108917 zM-154.67250561714172,189.36270666122437 a17.798078536987305,17.431045532226562 0 0 1 -17.755393981933594,17.412555694580078 H-527.6704304218292 a17.84158706665039,17.473655700683594 0 0 1 -17.755393981933594,-17.412555694580078 V-19.30578088760376 a17.798078536987305,17.431045532226562 0 0 1 17.755393981933594,-17.412555694580078 H-172.42790722846985 a17.82598876953125,17.4583797454834 0 0 1 17.755393981933594,17.412555694580078 z"/>
                </g>
            </g>
        </g>
        
        
        
        
        
        
        
        
        
        
    </g></svg>