<?xml version="1.0" encoding="utf-8"?>
<!-- Generator: Adobe Illustrator 25.4.1, SVG Export Plug-In . SVG Version: 6.00 Build 0)  -->
<svg version="1.1" id="Layer_1" xmlns="http://www.w3.org/2000/svg" xmlns:xlink="http://www.w3.org/1999/xlink" x="0px" y="0px"
	 viewBox="0 0 595.3 841.9" style="enable-background:new 0 0 595.3 841.9;" xml:space="preserve">
<style type="text/css">
	.st0{fill:#1A2654;}
	.st1{fill:#FFFFFF;}
	.st2{fill:none;}
	.st3{fill:url(#SVGID_1_);}
	.st4{fill:url(#SVGID_00000060025305691969121220000005479670591433772673_);}
</style>
<g>
	<path class="st0" d="M399.4,444.5c0.9-7.7,1.2-15.4,1.2-23c0-10-0.4-19.7-0.4-28.4c0-2.2,0-4.3,0.1-6.4c0-14-0.2-26.3-0.1-38.1
		c0-7.1,0.1-13.9,0.3-20.7c0.2-7.5-2.3-10-9.4-11c-19.5-2.6-38.9-6.1-58.4-9c-12.4-1.8-25.2-5.9-37.4-4.6
		c-31.2,3.4-62.1,9.4-93.2,14c-6.4,0.9-7.4,3.9-7.4,9.7c0.2,17,0.3,34,0.3,50.9c0,17,0,34-0.3,51c0,1.1,0,2.3,0,3.4
		c0.3,17.4,6.4,34.3,17.5,47.9c21.8,27.3,50.8,44.5,82.3,57.9c2.6,1.1,4.7,0.5,7.1-0.5c29.1-12,55.6-28,76.8-51.7
		C389,474,397.4,460.7,399.4,444.5z M301.3,529.9c-2.2,0.9-4.1,1.5-6.5,0.4c-29.5-12.5-56.4-28.5-76.8-53.9
		c-10.8-13.3-16.5-30-16.2-47.1c0-0.3,0-0.6,0-0.9c0.2-15.8,0.3-31.7,0.3-47.5c0-15.8-0.1-31.6-0.3-47.5c0,0,0,0,0,0
		c0-5.4,0.9-8.1,6.9-9c29-4.3,57.8-9.9,86.9-13.1c11.3-1.2,23.3,2.5,34.9,4.3c18.1,2.7,36.3,5.9,54.5,8.4c6.6,0.9,8.9,3.2,8.7,10.2
		c0,0,0,0.1,0,0.1c-0.2,6.4-0.3,12.7-0.3,19.3c0,10.9,0.1,22.4,0.1,35.4c0,0,0,0.1,0,0.1c-0.1,1.9-0.1,3.9-0.1,5.9
		c0,8.1,0.4,17.1,0.3,26.5c0,7-0.3,14.3-1.1,21.5c-1.8,15.1-9.7,27.5-19.6,38.6C353.1,503.7,328.4,518.6,301.3,529.9z"/>
	<path class="st1" d="M393.3,353.5c0-6.6,0.1-12.9,0.3-19.3c0,0,0-0.1,0-0.1C393.4,340.6,393.3,346.9,393.3,353.5z"/>
	<path class="st1" d="M201.7,333.5C201.7,333.5,201.7,333.5,201.7,333.5c0.1,15.8,0.3,31.7,0.3,47.5
		C202,365.1,201.9,349.3,201.7,333.5z"/>
	<path class="st1" d="M393.3,395c0-2,0.1-4,0.1-5.9c0,0,0-0.1,0-0.1C393.3,390.9,393.3,392.9,393.3,395z"/>
	<path class="st2" d="M304.4,508.1L304.4,508.1"/>
	<path class="st0" d="M354.1,440.2c-1.2,15.1-8.3,42.2-43.1,55.7c-1.3,0.1-2.5,0.8-3.2,1.9c-1.3,2-0.8,4.6,1.2,5.9
		c-1.2,1-1.9,2.5-1.9,4.1c0,3,2.4,5.5,5.4,5.5c0.7,0,1.4-0.1,2-0.4c0.5,0,56.4-23.4,70.4-73.9C373.9,444.9,363.2,444.2,354.1,440.2z
		"/>
	<path class="st0" d="M255.4,451.8h18.1v32.2c5.5,3.5,21.6,8.1,21.6,8.1v-61.9H277C265.1,430.2,255.5,439.9,255.4,451.8z"/>
	<path class="st0" d="M209.6,332.9v85.9c-0.8,56.6,38.4,81.8,64,92.2c7,2.9,14.2,5.1,21.6,6.6v-21.3c-7.3-2.3-14.5-4.9-21.6-7.9
		c-23.1-9.5-33.7-29.5-38.5-47.2c-2.6-9.9-3.9-20-3.9-30.2v-59.3l42.4-6v39.7c0,5.7,2.3,11.2,6.3,15.3c4,4.1,9.5,6.3,15.3,6.3v-87.7
		c0,0-16.1,1.6-47,6.8C217.2,331.1,209.6,332.9,209.6,332.9z"/>
	<linearGradient id="SVGID_1_" gradientUnits="userSpaceOnUse" x1="303.9229" y1="415.6825" x2="372.6891" y2="346.9163">
		<stop  offset="0" style="stop-color:#29AAE1"/>
		<stop  offset="0.22" style="stop-color:#256FA1"/>
		<stop  offset="0.47" style="stop-color:#20325E"/>
		<stop  offset="1" style="stop-color:#31406A"/>
	</linearGradient>
	<path class="st3" d="M353.2,370.7L353.2,370.7c-1.1,1-2.8,1.1-4,0.1c-1.3-0.8-1.8-2.3-1.3-3.7c0.3-0.6,0.1-1.2-0.3-1.6
		c-0.6,1.7-0.8,3.5-0.4,5.3c0.2,1,1.1,1.8,2.2,1.7c2.1,0,4.1-0.5,5.9-1.5C354.5,370.1,353.9,370.1,353.2,370.7z"/>
	
		<linearGradient id="SVGID_00000101095556411571141010000011380089515248146329_" gradientUnits="userSpaceOnUse" x1="303.9353" y1="415.6949" x2="372.7015" y2="346.9287">
		<stop  offset="0" style="stop-color:#29AAE1"/>
		<stop  offset="0.22" style="stop-color:#256FA1"/>
		<stop  offset="0.47" style="stop-color:#20325E"/>
		<stop  offset="1" style="stop-color:#31406A"/>
	</linearGradient>
	<path style="fill:url(#SVGID_00000101095556411571141010000011380089515248146329_);" d="M350.7,369.8c0.3-0.1,0.8-0.1,0.7-0.5
		c-0.1-0.5-0.7-0.7-1.2-0.8c-0.5-0.1-0.4,0.3-0.4,0.5C349.8,369.6,350.1,369.8,350.7,369.8z"/>
	<path class="st0" d="M385.8,386.1c0-16.7-4.9-31-11.8-36.8c-1.9-1.7-4.3-2.7-6.8-2.8c0-2-0.6-4-1.6-5.7
		c-6.9-12.3-35.1-21.5-68.9-21.5v89c0,0,3.7,7.4,25.7,1.9c1.2-0.3,2.3-0.5,3.4-0.7c-5.2-15.7,13.5-3,13.5-3
		c10.6,30.8,40.7,32,45.8,32c0.1-0.2,0.1-0.5,0.2-0.7c0-0.1,1.3-14.5,1.3-31.7C386.6,399.7,386.4,392.8,385.8,386.1z M354.9,378.9
		c-2.7,3.4-6.2,2.4-8.8-1.1l0,0c1.1,0.1,2.2,0.3,3.3,0.6c1.7,0.3,3.4,0.1,5-0.5c0.4-0.1,0.8-0.3,1.1,0.1
		C355.7,378.4,355.2,378.6,354.9,378.9z M357.5,373.1c-1.6,0.5-3.2,1.3-4.9,1.7c-1.9,0.6-4,0.5-5.9-0.4c-1.6-0.8-2.6-2.4-2.6-4.2
		L344,368c0.8-3,2.2-5.7,4.1-8.1c0.5,3.4,2.9,6.3,6.2,7.3c1.2,0.4,2.2,1,3.2,1.8C359.1,370.5,359.1,371.9,357.5,373.1z"/>
	<path class="st2" d="M305.8,527.4L305.8,527.4"/>
</g>
</svg>
