<svg width="88" height="14" viewBox="0 0 88 14" fill="none" xmlns="http://www.w3.org/2000/svg">
<path d="M2.44176 3.27273V12H0.860795V3.27273H2.44176ZM5.6282 8.16477V12H4.08558V5.45455H5.56001V6.56676H5.63672C5.78729 6.20028 6.02734 5.90909 6.35689 5.69318C6.68928 5.47727 7.09979 5.36932 7.58842 5.36932C8.04013 5.36932 8.43359 5.46591 8.76882 5.65909C9.10689 5.85227 9.36825 6.1321 9.55291 6.49858C9.74041 6.86506 9.83274 7.30966 9.8299 7.83239V12H8.28729V8.07102C8.28729 7.63352 8.17365 7.29119 7.94638 7.04403C7.72195 6.79687 7.41087 6.6733 7.01314 6.6733C6.74325 6.6733 6.5032 6.73295 6.29297 6.85227C6.08558 6.96875 5.92223 7.13778 5.80291 7.35938C5.68643 7.58097 5.6282 7.84943 5.6282 8.16477ZM14.2532 12.1278C13.5998 12.1278 13.0387 11.9844 12.57 11.6974C12.104 11.4105 11.7447 11.0142 11.4918 10.5085C11.2418 10 11.1168 9.41477 11.1168 8.75284C11.1168 8.08807 11.2447 7.50142 11.5004 6.9929C11.756 6.48153 12.1168 6.08381 12.5827 5.79972C13.0515 5.51278 13.6055 5.36932 14.2447 5.36932C14.7759 5.36932 15.2461 5.46733 15.6552 5.66335C16.0671 5.85653 16.3952 6.13068 16.6396 6.4858C16.8839 6.83807 17.0231 7.25 17.0572 7.72159H15.5827C15.5231 7.40625 15.381 7.14347 15.1566 6.93324C14.935 6.72017 14.6381 6.61364 14.266 6.61364C13.9506 6.61364 13.6737 6.69886 13.435 6.86932C13.1964 7.03693 13.0103 7.27841 12.8768 7.59375C12.7461 7.90909 12.6808 8.28693 12.6808 8.72727C12.6808 9.1733 12.7461 9.55682 12.8768 9.87784C13.0075 10.196 13.1907 10.4418 13.4265 10.6151C13.6651 10.7855 13.945 10.8707 14.266 10.8707C14.4933 10.8707 14.6964 10.8281 14.8754 10.7429C15.0572 10.6548 15.2092 10.5284 15.3313 10.3636C15.4535 10.1989 15.5373 9.99858 15.5827 9.76278H17.0572C17.0202 10.2259 16.8839 10.6364 16.6481 10.9943C16.4123 11.3494 16.0913 11.6278 15.685 11.8295C15.2788 12.0284 14.8015 12.1278 14.2532 12.1278ZM18.3239 12V5.45455H19.8196V6.54545H19.8878C20.0071 6.16761 20.2116 5.87642 20.5014 5.67188C20.794 5.46449 21.1278 5.3608 21.5028 5.3608C21.5881 5.3608 21.6832 5.36506 21.7884 5.37358C21.8963 5.37926 21.9858 5.3892 22.0568 5.40341V6.82244C21.9915 6.79972 21.8878 6.77983 21.7457 6.76278C21.6065 6.7429 21.4716 6.73295 21.3409 6.73295C21.0597 6.73295 20.8068 6.79403 20.5824 6.91619C20.3608 7.03551 20.1861 7.2017 20.0582 7.41477C19.9304 7.62784 19.8665 7.87358 19.8665 8.15199V12H18.3239ZM25.7099 12.1278C25.0536 12.1278 24.4869 11.9915 24.0096 11.7188C23.5352 11.4432 23.1701 11.054 22.9144 10.5511C22.6587 10.0455 22.5309 9.45028 22.5309 8.76562C22.5309 8.09233 22.6587 7.50142 22.9144 6.9929C23.1729 6.48153 23.5337 6.08381 23.9968 5.79972C24.4599 5.51278 25.0039 5.36932 25.6289 5.36932C26.0323 5.36932 26.413 5.43466 26.771 5.56534C27.1317 5.69318 27.4499 5.89205 27.7255 6.16193C28.0039 6.43182 28.2227 6.77557 28.3817 7.19318C28.5408 7.60795 28.6204 8.10227 28.6204 8.67614V9.14915H23.2553V8.10938H27.1417C27.1388 7.81392 27.0749 7.55114 26.9499 7.32102C26.8249 7.08807 26.6502 6.90483 26.4258 6.77131C26.2042 6.63778 25.9457 6.57102 25.6502 6.57102C25.3349 6.57102 25.0579 6.64773 24.8192 6.80114C24.5806 6.9517 24.3945 7.15057 24.261 7.39773C24.1303 7.64205 24.0636 7.91051 24.0607 8.20312V9.1108C24.0607 9.49148 24.1303 9.81818 24.2695 10.0909C24.4087 10.3608 24.6033 10.5682 24.8533 10.7131C25.1033 10.8551 25.396 10.9261 25.7312 10.9261C25.9556 10.9261 26.1587 10.8949 26.3406 10.8324C26.5224 10.767 26.68 10.6719 26.8136 10.5469C26.9471 10.4219 27.0479 10.267 27.1161 10.0824L28.5565 10.2443C28.4656 10.625 28.2923 10.9574 28.0366 11.2415C27.7837 11.5227 27.4599 11.7415 27.065 11.8977C26.6701 12.0511 26.2184 12.1278 25.7099 12.1278ZM32.3544 12.1151C31.8402 12.1151 31.38 11.983 30.9737 11.7188C30.5675 11.4545 30.2464 11.071 30.0107 10.5682C29.7749 10.0653 29.657 9.45455 29.657 8.7358C29.657 8.00852 29.7763 7.39489 30.0149 6.89489C30.2564 6.39205 30.5817 6.01278 30.9908 5.7571C31.3999 5.49858 31.8558 5.36932 32.3587 5.36932C32.7422 5.36932 33.0575 5.43466 33.3047 5.56534C33.5518 5.69318 33.7479 5.84801 33.8928 6.02983C34.0376 6.20881 34.1499 6.37784 34.2294 6.53693H34.2933V3.27273H35.8402V12H34.3232V10.9688H34.2294C34.1499 11.1278 34.0348 11.2969 33.8842 11.4759C33.7337 11.652 33.5348 11.8026 33.2876 11.9276C33.0405 12.0526 32.7294 12.1151 32.3544 12.1151ZM32.7848 10.8494C33.1115 10.8494 33.3899 10.7614 33.62 10.5852C33.8501 10.4062 34.0249 10.1577 34.1442 9.83949C34.2635 9.52131 34.3232 9.15057 34.3232 8.72727C34.3232 8.30398 34.2635 7.93608 34.1442 7.62358C34.0277 7.31108 33.8544 7.06818 33.6243 6.89489C33.397 6.72159 33.1172 6.63494 32.7848 6.63494C32.4411 6.63494 32.1541 6.72443 31.924 6.90341C31.6939 7.08239 31.5206 7.32955 31.4041 7.64489C31.2876 7.96023 31.2294 8.32102 31.2294 8.72727C31.2294 9.13636 31.2876 9.50142 31.4041 9.82244C31.5234 10.1406 31.6982 10.392 31.9283 10.5767C32.1612 10.7585 32.4467 10.8494 32.7848 10.8494Z" fill="#0070F3"/>
<path d="M37.5522 12V3.27273H43.2283V4.59801H39.1332V6.96733H42.9343V8.29261H39.1332V10.6747H43.2624V12H37.5522ZM44.7731 12V5.45455H46.2475V6.56676H46.3242C46.4606 6.19176 46.6864 5.89915 47.0018 5.68892C47.3171 5.47585 47.6935 5.36932 48.131 5.36932C48.5742 5.36932 48.9478 5.47727 49.2518 5.69318C49.5586 5.90625 49.7745 6.19744 49.8995 6.56676H49.9677C50.1126 6.20312 50.3569 5.91335 50.7006 5.69744C51.0472 5.47869 51.4577 5.36932 51.9322 5.36932C52.5344 5.36932 53.0259 5.55966 53.4066 5.94034C53.7873 6.32102 53.9776 6.87642 53.9776 7.60653V12H52.4308V7.84517C52.4308 7.43892 52.3228 7.14205 52.1069 6.95455C51.891 6.7642 51.6268 6.66903 51.3143 6.66903C50.9421 6.66903 50.6509 6.78551 50.4407 7.01847C50.2333 7.24858 50.1296 7.5483 50.1296 7.91761V12H48.6168V7.78125C48.6168 7.44318 48.5146 7.1733 48.31 6.97159C48.1083 6.76989 47.8441 6.66903 47.5174 6.66903C47.2958 6.66903 47.0941 6.72585 46.9123 6.83949C46.7305 6.95028 46.5856 7.10795 46.4776 7.3125C46.3697 7.5142 46.3157 7.75 46.3157 8.01989V12H44.7731ZM57.4261 12.1321C57.0114 12.1321 56.6378 12.0582 56.3054 11.9105C55.9759 11.7599 55.7145 11.5384 55.5213 11.2457C55.331 10.9531 55.2358 10.5923 55.2358 10.1634C55.2358 9.79403 55.304 9.48864 55.4403 9.24716C55.5767 9.00568 55.7628 8.8125 55.9986 8.66761C56.2344 8.52273 56.5 8.41335 56.7955 8.33949C57.0938 8.26278 57.402 8.20739 57.7202 8.1733C58.1037 8.13352 58.4148 8.09801 58.6534 8.06676C58.892 8.03267 59.0653 7.98153 59.1733 7.91335C59.2841 7.84233 59.3395 7.73295 59.3395 7.58523V7.55966C59.3395 7.23864 59.2443 6.99006 59.054 6.81392C58.8636 6.63778 58.5895 6.54972 58.2315 6.54972C57.8537 6.54972 57.554 6.6321 57.3324 6.79688C57.1136 6.96165 56.9659 7.15625 56.8892 7.38068L55.4489 7.17614C55.5625 6.77841 55.75 6.44602 56.0114 6.17898C56.2727 5.90909 56.5923 5.70739 56.9702 5.57386C57.348 5.4375 57.7656 5.36932 58.223 5.36932C58.5384 5.36932 58.8523 5.40625 59.1648 5.48011C59.4773 5.55398 59.7628 5.67614 60.0213 5.84659C60.2798 6.0142 60.4872 6.2429 60.6435 6.53267C60.8026 6.82244 60.8821 7.18466 60.8821 7.61932V12H59.3991V11.1009H59.348C59.2543 11.2827 59.1222 11.4531 58.9517 11.6122C58.7841 11.7685 58.5724 11.8949 58.3168 11.9915C58.0639 12.0852 57.767 12.1321 57.4261 12.1321ZM57.8267 10.9986C58.1364 10.9986 58.4048 10.9375 58.6321 10.8153C58.8594 10.6903 59.0341 10.5256 59.1562 10.321C59.2812 10.1165 59.3438 9.89347 59.3438 9.65199V8.88068C59.2955 8.92045 59.2131 8.95739 59.0966 8.99148C58.983 9.02557 58.8551 9.0554 58.7131 9.08097C58.571 9.10653 58.4304 9.12926 58.2912 9.14915C58.152 9.16903 58.0313 9.18608 57.929 9.20028C57.6989 9.23153 57.4929 9.28267 57.3111 9.35369C57.1293 9.42472 56.9858 9.52415 56.8807 9.65199C56.7756 9.77699 56.723 9.93892 56.723 10.1378C56.723 10.4219 56.8267 10.6364 57.0341 10.7812C57.2415 10.9261 57.5057 10.9986 57.8267 10.9986ZM62.4332 12V5.45455H63.9759V12H62.4332ZM63.2088 4.52557C62.9645 4.52557 62.7543 4.4446 62.5781 4.28267C62.402 4.1179 62.3139 3.92045 62.3139 3.69034C62.3139 3.45739 62.402 3.25994 62.5781 3.09801C62.7543 2.93324 62.9645 2.85085 63.2088 2.85085C63.456 2.85085 63.6662 2.93324 63.8395 3.09801C64.0156 3.25994 64.1037 3.45739 64.1037 3.69034C64.1037 3.92045 64.0156 4.1179 63.8395 4.28267C63.6662 4.4446 63.456 4.52557 63.2088 4.52557ZM67.1048 3.27273V12H65.5621V3.27273H67.1048Z" fill="black"/>
<rect x="70" y="1" width="16" height="13" rx="2" fill="#0070F3"/>
<path d="M73.9815 12H72.294L75.3665 3.27273H77.3182L80.3949 12H78.7074L76.3764 5.0625H76.3082L73.9815 12ZM74.0369 8.57812H78.6392V9.84801H74.0369V8.57812ZM83.1254 3.27273V12H81.5444V3.27273H83.1254Z" fill="white"/>
</svg>
