<svg width="1028" height="300" viewBox="0 0 1028 300" fill="none" xmlns="http://www.w3.org/2000/svg">
<path d="M398.7 172.8C406.7 172.8 413.8 170.2 420 165L432 183.3C427.5 186.8 422.2 189.55 416.1 191.55C410.1 193.45 404.25 194.4 398.55 194.4C382.65 194.4 369.05 189 357.75 178.2C346.45 167.4 340.8 154.4 340.8 139.2C340.8 124 346.45 111 357.75 100.2C369.05 89.4 382.65 84 398.55 84C404.25 84 410.1 85 416.1 87C422.2 88.9 427.5 91.6 432 95.1L420 113.4C413.8 108.2 406.7 105.6 398.7 105.6C389.4 105.6 381.4 108.9 374.7 115.5C368.1 122 364.8 129.9 364.8 139.2C364.8 148.5 368.1 156.45 374.7 163.05C381.4 169.55 389.4 172.8 398.7 172.8ZM477.366 173.4C484.466 173.4 490.466 171.1 495.366 166.5L507.666 182.55C499.466 190.45 489.666 194.4 478.266 194.4C466.066 194.4 456.316 190.75 449.016 183.45C441.716 176.15 438.066 167 438.066 156C438.066 145 441.716 135.85 449.016 128.55C456.316 121.25 466.066 117.6 478.266 117.6C481.266 117.6 484.266 118 487.266 118.8C490.366 119.6 493.616 121 497.016 123C500.516 124.9 503.616 127.85 506.316 131.85C509.116 135.85 511.166 140.7 512.466 146.4L469.866 171.9C471.566 172.9 474.066 173.4 477.366 173.4ZM478.266 138.6C473.066 138.6 468.716 140.4 465.216 144C461.716 147.5 460.366 151.95 461.166 157.35L486.066 142.5C484.466 139.9 481.866 138.6 478.266 138.6ZM546.114 120V133.35C548.514 128.25 551.764 124.5 555.864 122.1C560.064 119.6 565.614 118.1 572.514 117.6V144C568.214 142.8 563.814 142.8 559.314 144C555.614 145 552.464 147.4 549.864 151.2C547.364 155 546.114 159.75 546.114 165.45V192H522.114V120H546.114ZM595.232 192V141.6H583.232V120H595.232V98.4L619.232 91.2V120H638.432V141.6H619.232V192H595.232ZM686.434 117.6C697.834 117.6 707.484 121.35 715.384 128.85C723.284 136.25 727.234 145.3 727.234 156C727.234 166.7 723.284 175.8 715.384 183.3C707.584 190.7 697.934 194.4 686.434 194.4C674.634 194.4 664.884 190.7 657.184 183.3C649.484 175.9 645.634 166.8 645.634 156C645.634 145.1 649.434 136 657.034 128.7C664.634 121.3 674.434 117.6 686.434 117.6ZM674.584 167.85C677.884 171.15 681.834 172.8 686.434 172.8C691.034 172.8 694.984 171.15 698.284 167.85C701.584 164.55 703.234 160.6 703.234 156C703.234 151.4 701.584 147.45 698.284 144.15C694.984 140.85 691.034 139.2 686.434 139.2C681.834 139.2 677.884 140.85 674.584 144.15C671.284 147.45 669.634 151.4 669.634 156C669.634 160.6 671.284 164.55 674.584 167.85ZM763.35 120V127.2C768.75 120.8 775.9 117.6 784.8 117.6C795 117.6 803.55 121.35 810.45 128.85C817.45 136.25 820.95 145.3 820.95 156C820.95 166.7 817.45 175.8 810.45 183.3C803.55 190.7 795 194.4 784.8 194.4C775.9 194.4 768.75 191.2 763.35 184.8V230.4H739.35V120H763.35ZM768.3 167.85C771.6 171.15 775.55 172.8 780.15 172.8C784.75 172.8 788.7 171.15 792 167.85C795.3 164.55 796.95 160.6 796.95 156C796.95 151.4 795.3 147.45 792 144.15C788.7 140.85 784.75 139.2 780.15 139.2C775.55 139.2 771.6 140.85 768.3 144.15C765 147.45 763.35 151.4 763.35 156C763.35 160.6 765 164.55 768.3 167.85ZM860.525 194.4C852.525 194.4 845.725 191.45 840.125 185.55C834.525 179.65 831.725 171.4 831.725 160.8V120H855.725V158.4C855.725 168 859.725 172.8 867.725 172.8C870.625 172.8 873.325 171.4 875.825 168.6C878.425 165.8 879.725 161.6 879.725 156V120H903.725V192H879.725V184.8C875.525 191.2 869.125 194.4 860.525 194.4ZM952.023 144.45C971.823 147.75 981.723 156 981.723 169.2C981.723 176.5 978.823 182.55 973.023 187.35C967.323 192.05 959.123 194.4 948.423 194.4C941.223 194.4 934.773 193.2 929.073 190.8C923.473 188.3 919.423 185.8 916.923 183.3L926.523 165.3C932.723 170.3 938.873 173.1 944.973 173.7C953.473 174.7 957.723 173.55 957.723 170.25C957.723 168.75 957.073 167.75 955.773 167.25C954.473 166.65 951.973 166 948.273 165.3C948.073 165.3 947.923 165.3 947.823 165.3C947.723 165.2 947.573 165.15 947.373 165.15C947.173 165.05 946.973 165 946.773 165C941.073 163.9 936.373 162.45 932.673 160.65C928.973 158.75 926.273 156.65 924.573 154.35C922.973 151.95 921.873 149.75 921.273 147.75C920.773 145.75 920.523 143.5 920.523 141C920.523 134.5 923.223 129 928.623 124.5C934.023 119.9 941.473 117.6 950.973 117.6C953.573 117.7 956.323 118 959.223 118.5C965.623 119.9 971.173 122.1 975.873 125.1L966.723 142.95C962.323 139.75 957.623 137.95 952.623 137.55C947.223 137.05 944.523 137.95 944.523 140.25C944.523 141.45 945.023 142.35 946.023 142.95C947.023 143.45 949.023 143.95 952.023 144.45Z" fill="#F5F5F5"/>
<path d="M1016.24 190.65C1013.74 193.15 1010.64 194.4 1006.94 194.4C1003.24 194.4 1000.09 193.15 997.487 190.65C994.987 188.05 993.737 184.9 993.737 181.2C993.737 177.5 994.987 174.4 997.487 171.9C1000.09 169.3 1003.24 168 1006.94 168C1010.64 168 1013.74 169.3 1016.24 171.9C1018.84 174.4 1020.14 177.5 1020.14 181.2C1020.14 184.9 1018.84 188.05 1016.24 190.65Z" fill="#FF6E30"/>
<path d="M150 300C232.843 300 300 232.843 300 150C300 67.1573 232.843 0 150 0C67.1573 0 0 67.1573 0 150C0 232.843 67.1573 300 150 300Z" fill="#FF6E30"/>
<path d="M150 255C207.99 255 255 207.99 255 150C255 92.0101 207.99 45 150 45C92.0101 45 45 92.0101 45 150C45 207.99 92.0101 255 150 255Z" fill="#2C353D"/>
<path d="M81.3161 191.046C79.1273 191.037 77.6015 188.738 76.7201 187.37C73.3127 182.079 73.7567 175.982 73.9601 173.583C74.3421 169.012 75.8129 164.6 78.2496 160.715C81.2064 156.158 84.873 153.93 90.198 150.604C93.4345 148.619 96.8143 146.878 100.309 145.395C109.12 141.822 197.097 143.559 200.496 147.54C206.335 154.377 207.945 166.586 206.011 176.646C204.485 184.585 200.221 191.943 198.964 194.111C198.227 195.381 198.357 195.057 189.773 207.591C183.983 216.044 183.053 217.467 182.113 218.927C178.7 224.244 178.546 224.881 175.373 229.651C171.989 234.737 171.563 234.915 169.858 237.923C167.554 241.988 166.258 244.277 165.262 247.727C163.939 252.326 164.339 254.875 162.198 256.307C160.628 257.357 158.752 257.096 157.603 256.92C152.422 256.128 149.114 251.52 144.734 245.28C142.115 241.546 140.58 239.358 139.22 235.782C137.536 231.39 136.805 226.691 137.075 221.995C137.435 217.737 138.577 213.582 140.445 209.739C142.743 204.91 145.979 201.339 152.394 194.42C155.896 190.64 155.285 191.573 162.82 183.716C163.687 182.811 168.233 178.048 173.534 171.441C177.811 166.112 178.041 165.238 177.824 165.008C177.544 164.708 176.357 165.282 170.471 169.297C164.338 173.478 160.054 176.65 160.054 176.65C156.061 179.606 152.984 181.883 148.717 185.23C141.811 190.646 138.357 193.355 137.077 194.728C135.157 196.786 128.789 203.999 126.354 214.03C125.631 217.055 125.12 220.126 124.822 223.221C124.399 228.347 124.187 230.909 124.209 231.188C124.318 232.593 124.515 233.571 123.903 234.251C122.654 235.639 119.23 234.461 117.775 233.945C110.492 231.36 105.769 225.818 103.988 223.528C100.971 219.575 98.6878 215.113 97.2473 210.353C96.3095 207.299 94.6488 201.893 95.409 195.341C96.843 182.985 105.898 175.089 107.971 173.281C111.02 170.622 116.131 167.73 126.354 161.945C131.23 159.185 135.119 157.152 134.934 156.737C134.729 156.279 129.908 158.491 121.453 160.719C114.997 162.421 114.498 162.003 110.117 163.479C106.75 164.612 102.862 165.951 98.4767 168.994C93.5627 172.402 90.7967 176.024 88.6721 178.799C86.9087 181.106 86.0183 182.294 85.6085 184.007C85.0349 186.407 85.6595 187.985 84.3827 189.522C83.9991 189.968 83.5302 190.332 83.0035 190.594C82.4769 190.856 81.9031 191.01 81.3161 191.046Z" fill="#F5F5F5"/>
<path d="M150.278 56.8508C144.579 56.9383 138.915 57.7621 133.427 59.3018C128.386 60.723 123.547 62.782 119.027 65.429C113.541 68.711 110.106 72.029 106.465 75.5402C101.322 80.504 97.9885 84.8078 94.5163 89.327C89.6047 95.72 85.6465 101.811 84.4057 103.727C79.4821 111.333 79.5037 112.297 76.7461 115.063C75.4201 116.394 73.6063 117.984 72.1507 120.883C71.059 122.641 70.5062 124.681 70.5605 126.749C70.6149 128.818 71.2741 130.825 72.4567 132.523C73.4731 134.229 75.4831 137.016 79.8103 139.877C84.1375 142.738 88.0075 143.843 93.5971 145.392C96.7182 146.292 99.8897 147.009 103.095 147.537C127.681 151.596 180.015 150.242 203.282 146.311C208.134 145.514 212.804 143.854 217.07 141.409C219.767 139.802 222.239 137.845 224.423 135.589C226.328 133.629 227.817 132.065 228.712 129.461C229.094 128.349 229.941 125.776 229.019 123.027C228.543 121.768 227.813 120.621 226.874 119.656C225.903 118.493 233.074 127 221.359 111.997C212.73 100.945 210.178 98.0432 205.734 92.0822C201.933 86.9822 200.446 84.6074 195.316 77.9888C191.815 73.469 190.15 71.5346 187.657 69.4088C184.395 66.6998 180.789 64.4334 176.934 62.6684C168.714 58.4203 159.52 56.4129 150.278 56.8484V56.8508Z" fill="#F5F5F5"/>
<path d="M138.355 94.9255C130.102 90.1255 128.395 88.8325 125.692 87.7765C122.341 86.3672 118.676 85.8738 115.072 86.3467C109.487 87.1867 105.855 90.4801 103.432 92.6785C98.9706 96.7207 96.9144 101.059 95.4654 104.117C93.9415 107.295 92.8427 110.66 92.1972 114.126C91.6644 117.228 91.5271 120.385 91.7886 123.522C91.9812 127.352 92.5137 131.158 93.3798 134.895C94.7076 140.103 96.1398 145.103 97.815 146.492C103.72 151.389 190.594 151.319 199.275 146.928C201.389 145.858 204.484 136.408 204.484 136.408C205.009 134.12 205.384 131.8 205.607 129.463C205.768 128.039 205.836 126.607 205.811 125.174C205.756 123.604 205.591 122.04 205.317 120.494C205.028 118.553 204.632 116.63 204.13 114.734C203.394 112.092 202.468 109.507 201.358 107C199.886 103.45 199.043 101.416 197.387 98.8039C196.246 96.9916 194.947 95.2828 193.507 93.6973C191.615 91.6327 189.385 89.1973 185.745 87.5701C183.26 86.3663 180.512 85.8043 177.754 85.9357C175.157 86.1019 173.374 86.9317 169.813 88.5913C166.585 90.0949 166.886 90.3469 161.233 93.2893C161.233 93.2893 158.39 94.7689 154.493 96.3529C153.248 96.9022 151.947 97.3131 150.612 97.5781C149.132 97.8613 147.618 97.9302 146.119 97.7827C144.421 97.5615 142.767 97.0792 141.216 96.3529C140.232 95.9399 139.277 95.4631 138.355 94.9255Z" fill="#2C353D"/>
<path d="M124.337 114.961C124.827 112.888 126.788 111.08 126.789 111.08C126.292 110.603 125.75 110.176 125.169 109.807C124.333 109.426 123.404 109.301 122.497 109.447C121.09 109.528 119.74 110.026 118.616 110.877C116.888 112.2 115.663 114.073 115.144 116.187C114.512 118.39 114.512 120.725 115.144 122.928C115.698 124.885 116.674 126.698 118.003 128.238C119.304 129.967 121.072 131.289 123.098 132.049C125.124 132.808 127.324 132.974 129.442 132.528C131.083 132.231 132.668 131.68 134.14 130.894C136.474 129.787 136.86 129.129 136.999 128.854C137.479 127.899 137.287 126.934 136.999 125.586C136.704 123.977 136.078 122.446 135.161 121.092C134.423 120.036 134.096 119.463 134.096 119.463C133.379 120.123 132.568 120.672 131.689 121.092C130.559 121.573 129.299 121.658 128.114 121.332L128.012 121.299C126.928 120.925 125.996 120.209 125.357 119.259C125.153 118.961 123.842 117.063 124.337 114.961Z" fill="#F5F5F5"/>
<path d="M175.258 114.961C174.769 112.888 172.807 111.08 172.807 111.08C173.303 110.603 173.844 110.177 174.424 109.807C175.26 109.426 176.19 109.301 177.096 109.447C178.503 109.528 179.854 110.026 180.977 110.877C182.705 112.2 183.93 114.073 184.449 116.187C185.082 118.389 185.082 120.725 184.449 122.928C183.895 124.885 182.919 126.698 181.59 128.238C180.289 129.967 178.521 131.289 176.495 132.049C174.469 132.808 172.269 132.975 170.151 132.528C168.51 132.232 166.925 131.68 165.454 130.894C163.119 129.787 162.733 129.129 162.594 128.854C162.114 127.899 162.307 126.934 162.594 125.586C162.89 123.976 163.516 122.446 164.433 121.092C165.17 120.036 165.497 119.463 165.497 119.463C166.214 120.123 167.026 120.672 167.905 121.092C169.035 121.573 170.295 121.658 171.479 121.332C171.524 121.318 171.558 121.306 171.581 121.299C172.665 120.925 173.597 120.209 174.237 119.259C174.441 118.961 175.753 117.063 175.258 114.961Z" fill="#F5F5F5"/>
</svg>
