<svg xml:space="preserve" style="max-height: 500px" viewBox="135.652221779661 217.7709054 304.3765536723164 372.1198" y="0px" x="0px" xmlns:xlink="http://www.w3.org/1999/xlink" xmlns="http://www.w3.org/2000/svg" id="Layer_1" version="1.1" width="304.3765536723164" height="372.1198">
<style type="text/css">
	.st0{fill:#1A2654;}
	.st1{fill:#FFFFFF;}
	.st2{fill:none;}
	.st3{fill:url(#SVGID_1_);}
	.st4{fill:url(#SVGID_00000173141743445206926340000003854265374394788272_);}
	.st5{font-family:'EurostileExtended-Roman';}
	.st6{font-size:39.0484px;}
	.st7{font-family:'EurostileExtended-Black';}
	.st8{font-size:19.327px;}
</style>
<g>
	<path d="M394,365.7c0.9-7.7,1.2-15.4,1.2-23c0-10-0.4-19.7-0.4-28.4c0-2.2,0-4.3,0.1-6.4c0-14-0.2-26.3-0.1-38.1&#10;&#9;&#9;c0-7.1,0.1-13.9,0.3-20.7c0.2-7.5-2.3-10-9.4-11c-19.5-2.6-38.9-6.1-58.4-9c-12.4-1.8-25.2-5.9-37.4-4.6&#10;&#9;&#9;c-31.2,3.4-62.1,9.4-93.2,14c-6.4,0.9-7.4,3.9-7.4,9.7c0.2,17,0.3,34,0.3,50.9c0,17,0,34-0.3,51c0,1.1,0,2.3,0,3.4&#10;&#9;&#9;c0.3,17.4,6.4,34.3,17.5,47.9c21.8,27.3,50.8,44.5,82.3,57.9c2.6,1.1,4.7,0.5,7.1-0.5c29.1-12,55.6-28,76.8-51.7&#10;&#9;&#9;C383.7,395.2,392.1,381.9,394,365.7z M295.9,451c-2.2,0.9-4.1,1.5-6.5,0.4C259.9,439,233,423,212.6,397.6&#10;&#9;&#9;c-10.8-13.3-16.5-30-16.2-47.1c0-0.3,0-0.6,0-0.9c0.2-15.8,0.3-31.7,0.3-47.5c0-15.8-0.1-31.6-0.3-47.5c0,0,0,0,0,0&#10;&#9;&#9;c0-5.4,0.9-8.1,6.9-9c29-4.3,57.8-9.9,86.9-13.1c11.3-1.2,23.3,2.5,34.9,4.3c18.1,2.7,36.3,5.9,54.5,8.4c6.6,0.9,8.9,3.2,8.7,10.2&#10;&#9;&#9;c0,0,0,0.1,0,0.1c-0.2,6.4-0.3,12.7-0.3,19.3c0,10.9,0.1,22.4,0.1,35.4c0,0,0,0.1,0,0.1c-0.1,1.9-0.1,3.9-0.1,5.9&#10;&#9;&#9;c0,8.1,0.4,17.1,0.3,26.5c0,7-0.3,14.3-1.1,21.5c-1.8,15.1-9.7,27.5-19.6,38.6C347.8,424.9,323.1,439.8,295.9,451z" class="st0"/>
	<path d="M387.9,274.7c0-6.6,0.1-12.9,0.3-19.3c0,0,0-0.1,0-0.1C388,261.7,387.9,268.1,387.9,274.7z" class="st1"/>
	<path d="M196.4,254.6C196.4,254.7,196.4,254.7,196.4,254.6c0.1,15.8,0.3,31.7,0.3,47.5&#10;&#9;&#9;C196.6,286.3,196.5,270.5,196.4,254.6z" class="st1"/>
	<path d="M387.9,316.2c0-2,0.1-4,0.1-5.9c0,0,0-0.1,0-0.1C388,312.1,387.9,314.1,387.9,316.2z" class="st1"/>
	<path d="M299,429.3L299,429.3" class="st2"/>
	<path d="M348.7,361.4c-1.2,15.1-8.3,42.2-43.1,55.7c-1.3,0.1-2.5,0.8-3.2,1.9c-1.3,2-0.8,4.6,1.2,5.9&#10;&#9;&#9;c-1.2,1-1.9,2.5-1.9,4.1c0,3,2.4,5.5,5.4,5.5c0.7,0,1.4-0.1,2-0.4c0.5,0,56.4-23.4,70.4-73.9C368.5,366.1,357.9,365.4,348.7,361.4z" class="st0"/>
	<path d="M250.1,373h18.1v32.2c5.5,3.5,21.6,8.1,21.6,8.1v-61.9h-18.1C259.8,351.4,250.1,361.1,250.1,373z" class="st0"/>
	<path d="M204.2,254.1V340c-0.8,56.6,38.4,81.8,64,92.2c7,2.9,14.2,5.1,21.6,6.6v-21.3c-7.3-2.3-14.5-4.9-21.6-7.9&#10;&#9;&#9;c-23.1-9.5-33.7-29.5-38.5-47.2c-2.6-9.9-3.9-20-3.9-30.2v-59.3l42.4-6v39.7c0,5.7,2.3,11.2,6.3,15.3c4,4.1,9.5,6.3,15.3,6.3v-87.7&#10;&#9;&#9;c0,0-16.1,1.6-47,6.8C211.8,252.3,204.2,254.1,204.2,254.1z" class="st0"/>
	<linearGradient y2="268.1044" x2="367.327" y1="336.8706" x1="298.5608" gradientUnits="userSpaceOnUse" id="SVGID_1_">
		<stop style="stop-color:#29AAE1" offset="0"/>
		<stop style="stop-color:#256FA1" offset="0.22"/>
		<stop style="stop-color:#20325E" offset="0.47"/>
		<stop style="stop-color:#31406A" offset="1"/>
	</linearGradient>
	<path d="M347.9,291.8L347.9,291.8c-1.1,1-2.8,1.1-4,0.1c-1.3-0.8-1.8-2.3-1.3-3.7c0.3-0.6,0.1-1.2-0.3-1.6&#10;&#9;&#9;c-0.6,1.7-0.8,3.5-0.4,5.3c0.2,1,1.1,1.8,2.2,1.7c2.1,0,4.1-0.5,5.9-1.5C349.1,291.3,348.6,291.3,347.9,291.8z" class="st3"/>
	
		<linearGradient y2="268.1168" x2="367.3394" y1="336.883" x1="298.5732" gradientUnits="userSpaceOnUse" id="SVGID_00000175294992259113197760000008367254470670467980_">
		<stop style="stop-color:#29AAE1" offset="0"/>
		<stop style="stop-color:#256FA1" offset="0.22"/>
		<stop style="stop-color:#20325E" offset="0.47"/>
		<stop style="stop-color:#31406A" offset="1"/>
	</linearGradient>
	<path d="M345.3,291c0.3-0.1,0.8-0.1,0.7-0.5&#10;&#9;&#9;c-0.1-0.5-0.7-0.7-1.2-0.8c-0.5-0.1-0.4,0.3-0.4,0.5C344.4,290.8,344.8,291,345.3,291z" style="fill:url(#SVGID_00000175294992259113197760000008367254470670467980_);"/>
	<path d="M380.5,307.3c0-16.7-4.9-31-11.8-36.8c-1.9-1.7-4.3-2.7-6.8-2.8c0-2-0.6-4-1.6-5.7&#10;&#9;&#9;c-6.9-12.3-35.1-21.5-68.9-21.5v89c0,0,3.7,7.4,25.7,1.9c1.2-0.3,2.3-0.5,3.4-0.7c-5.2-15.7,13.5-3,13.5-3&#10;&#9;&#9;c10.6,30.8,40.7,32,45.8,32c0.1-0.2,0.1-0.5,0.2-0.7c0-0.1,1.3-14.5,1.3-31.7C381.2,320.9,381,314,380.5,307.3z M349.6,300.1&#10;&#9;&#9;c-2.7,3.4-6.2,2.4-8.8-1.1l0,0c1.1,0.1,2.2,0.3,3.3,0.6c1.7,0.3,3.4,0.1,5-0.5c0.4-0.1,0.8-0.3,1.1,0.1&#10;&#9;&#9;C350.4,299.6,349.8,299.8,349.6,300.1z M352.1,294.3c-1.6,0.5-3.2,1.3-4.9,1.7c-1.9,0.6-4,0.5-5.9-0.4c-1.6-0.8-2.6-2.4-2.6-4.2&#10;&#9;&#9;l-0.1-2.2c0.8-3,2.2-5.7,4.1-8.1c0.5,3.4,2.9,6.3,6.2,7.3c1.2,0.4,2.2,1,3.2,1.8C353.8,291.6,353.7,293.1,352.1,294.3z" class="st0"/>
	<path d="M300.4,448.6L300.4,448.6" class="st2"/>
	<g>
		<text class="st0 st5 st6" transform="matrix(1 0 0 1 254.2544 524.5762)">SHIELD</text>
		<polygon points="433.4,554.6 428.5,554.6 428.5,537.6 149.8,537.6 149.8,532.7 433.4,532.7" class="st0"/>
		<text class="st0 st7 st6" transform="matrix(1 0 0 1 147.5493 524.8389)">G</text>
		<text class="st0 st7 st6" transform="matrix(1 0 0 1 184.5322 524.6797)">A</text>
		<text class="st0 st7 st6" transform="matrix(1 0 0 1 222.8843 524.7217)">J</text>
		<g>
			<text class="st0 st5 st8" transform="matrix(1 0 0 1 179.6187 571.1543)">Data Security Firewall</text>
		</g>
	</g>
</g>
</svg>