<svg width="189" height="50" viewBox="0 0 189 50" fill="none" xmlns="http://www.w3.org/2000/svg">
<path d="M64.5255 38.6386L53.2548 27.4069L51.3828 29.2789V33.3478H46.5859V12.0283H51.3828V22.493L61.8605 12.0283L65.2535 15.4212L56.6347 24.014L67.9184 35.2457L64.5255 38.6386Z" fill="#572148"/>
<path d="M83.102 22.688C83.102 21.0761 82.5257 19.6981 81.373 18.5541C80.2291 17.4015 78.8511 16.8252 77.2391 16.8252C75.6098 16.8252 74.2232 17.3972 73.0792 18.5411C71.9439 19.6765 71.3763 21.0588 71.3763 22.688C71.3763 24.326 71.9439 25.7126 73.0792 26.8479C74.2145 27.9832 75.6012 28.5509 77.2391 28.5509C78.8684 28.5509 80.2507 27.9832 81.386 26.8479C82.53 25.704 83.102 24.3173 83.102 22.688ZM87.8989 22.688C87.8989 25.6433 86.8589 28.1609 84.7789 30.2408C82.6817 32.3121 80.1684 33.3478 77.2391 33.3478C74.2752 33.3478 71.7576 32.3121 69.6863 30.2408C67.6151 28.1696 66.5794 25.652 66.5794 22.688C66.5794 19.7588 67.6151 17.2455 69.6863 15.1482C71.7663 13.0683 74.2839 12.0283 77.2391 12.0283C80.1511 12.0283 82.6557 13.077 84.7529 15.1742C86.8502 17.2715 87.8989 19.7761 87.8989 22.688Z" fill="#572148"/>
<path d="M103.082 33.3478L94.0217 20.7901V33.3478H89.2248V12.0283H94.0217L103.082 24.573V12.0283H107.892V33.3478H103.082Z" fill="#572148"/>
<path d="M115.341 16.8252V20.2831H123.869V25.08H115.341V33.3478H110.544V12.0283H126.534V16.8252H115.341Z" fill="#572148"/>
<path d="M142.003 33.3478V25.08H132.943V33.3478H128.146V12.0283H132.943V20.2831H142.003V12.0283H146.813V33.3478H142.003Z" fill="#572148"/>
<path d="M167.457 24.014C167.457 26.6139 166.551 28.8195 164.74 30.6308C162.929 32.4421 160.727 33.3478 158.136 33.3478C155.536 33.3478 153.33 32.4421 151.519 30.6308C149.708 28.8195 148.802 26.6139 148.802 24.014V12.0283H153.599V24.014C153.599 25.2706 154.041 26.3409 154.925 27.2249C155.809 28.1089 156.879 28.5509 158.136 28.5509C159.393 28.5509 160.459 28.1089 161.334 27.2249C162.218 26.3409 162.66 25.2706 162.66 24.014V12.0283H167.457V24.014Z" fill="#572148"/>
<path d="M183.29 26.8219C183.29 26.3453 183.117 25.938 182.77 25.6C182.432 25.2533 182.029 25.08 181.561 25.08H174.256V28.5509H181.561C182.038 28.5509 182.445 28.3819 182.783 28.0439C183.121 27.7059 183.29 27.2986 183.29 26.8219ZM182.757 18.5541C182.757 18.1035 182.593 17.7005 182.263 17.3452C181.943 16.9985 181.544 16.8252 181.067 16.8252H174.256V20.2831H181.028C181.505 20.2831 181.912 20.1141 182.25 19.7761C182.588 19.4381 182.757 19.0308 182.757 18.5541ZM188.126 27.4069C188.126 29.0795 187.446 30.5008 186.085 31.6708C184.785 32.7888 183.286 33.3478 181.587 33.3478H169.459V12.0283H181.028C182.701 12.0283 184.196 12.5743 185.513 13.6663C186.909 14.8102 187.606 16.2012 187.606 17.8392C187.606 19.7285 186.826 21.2364 185.266 22.363C187.173 23.5157 188.126 25.197 188.126 27.4069Z" fill="#572148"/>
<path fill-rule="evenodd" clip-rule="evenodd" d="M8.21192 33.2105C3.67687 28.6754 3.67687 21.3226 8.21192 16.7876L24.9997 -0.000234344L27.3717 2.37191C26.1624 3.58126 26.1624 5.542 27.3717 6.75134C28.5811 7.96069 30.5419 7.96062 31.7513 6.75127L34.1236 9.12358L19.2022 24.0449L10.739 17.4896L18.2481 24.9987L9.12431 34.1228L8.21192 33.2105Z" fill="#572148"/>
<path fill-rule="evenodd" clip-rule="evenodd" d="M18.2477 43.2472L8.21193 33.2114C3.67688 28.6764 3.67688 21.3236 8.21193 16.7886L9.12431 15.8762L27.3873 34.1392C27.3484 34.1576 27.312 34.1829 27.2799 34.2151L26.8282 34.6667C26.6771 34.8179 26.6771 35.063 26.8282 35.2142C26.9794 35.3653 27.2245 35.3653 27.3757 35.2142L27.8273 34.7625C27.8595 34.7304 27.8848 34.694 27.9032 34.6551L34.1236 40.8754L31.7512 43.2478L31.7509 43.2475C30.5416 42.0381 28.5808 42.0381 27.3715 43.2475C26.1621 44.4568 26.1621 46.4176 27.3715 47.6269L27.3718 47.6272L24.9997 49.9993L18.7952 43.7947L19.2463 43.3435C19.3975 43.1923 19.3975 42.9472 19.2463 42.7961C19.0952 42.6449 18.8501 42.6449 18.6989 42.7961L18.2477 43.2472ZM19.6022 41.8928C19.451 42.044 19.451 42.2891 19.6022 42.4402C19.7533 42.5914 19.9984 42.5914 20.1496 42.4402L21.0529 41.537C21.204 41.3858 21.204 41.1407 21.0529 40.9895C20.9017 40.8384 20.6566 40.8384 20.5054 40.9895L19.6022 41.8928ZM21.4087 40.0863C21.2575 40.2374 21.2575 40.4825 21.4087 40.6337C21.5599 40.7849 21.805 40.7849 21.9561 40.6337L22.8594 39.7305C23.0105 39.5793 23.0105 39.3342 22.8594 39.183C22.7082 39.0319 22.4631 39.0319 22.3119 39.183L21.4087 40.0863ZM23.2152 38.2798C23.064 38.4309 23.064 38.676 23.2152 38.8272C23.3664 38.9784 23.6115 38.9784 23.7626 38.8272L24.6659 37.9239C24.8171 37.7728 24.8171 37.5277 24.6659 37.3765C24.5147 37.2253 24.2696 37.2253 24.1185 37.3765L23.2152 38.2798ZM25.0217 36.4732C24.8706 36.6244 24.8706 36.8695 25.0217 37.0207C25.1729 37.1718 25.418 37.1718 25.5692 37.0207L26.4724 36.1174C26.6236 35.9663 26.6236 35.7212 26.4724 35.57C26.3212 35.4188 26.0761 35.4188 25.925 35.57L25.0217 36.4732Z" fill="#572148"/>
</svg>
