<svg width="573" height="899" viewBox="0 0 573 899" fill="none" xmlns="http://www.w3.org/2000/svg">
<path d="M-38.7712 740.377V727.971H-14.7535V721.884H-39V669.498L-27.1545 660.7V519.822L-16.2566 511.74V398.652L-25.1449 392V308.68L-6.61684 285.497V0H190.786V358.905L177.715 376.051V649.924H188.237V656.942H138.584L130.856 662.663V789.238H143.241L155.184 824.162H165.576V791.882H207.059V785.313H186.522V778.661H211.307V769.863H159.579V776.898H155.152V744.136H169.105V732.378H177.274V689.554H181.832V732.129H189.25V745.716H204.331V688.656L212.124 682.885V566.571L221.061 559.919V490.436H259.719V511.158H269.522V479.327H337V899H12.9895V740.377H-38.7712Z" fill="#570A57"/>
<path d="M131.077 791.344H1.09795L-8.73828 824.12H-30.7146L-44.2926 899.167H29.9531L131.077 791.344Z" fill="#570A57"/>
<path d="M328.537 792.177H355.088L364.908 824.954H386.901L400.479 900H326.217L328.537 792.177Z" fill="#570A57"/>
<path d="M282.771 491.159H322.541L319.093 463.3H286.218L282.771 491.159Z" fill="#570A57"/>
<path d="M314.976 465.947L312.623 371.424L311.561 465.947H314.976Z" fill="#570A57"/>
<path d="M309.306 465.947L307.999 391.62L307.263 465.947H309.306Z" fill="#570A57"/>
<path d="M302.656 465.947L301.349 428.775L300.597 465.947H302.656Z" fill="#570A57"/>
<path d="M-38.3287 817.993H1.44109L-2.00648 801.85H-34.8648L-38.3287 817.993Z" fill="#570A57"/>
<path d="M-28.7702 803.386L-31.1231 766.361L-32.1851 803.386H-28.7702Z" fill="#570A57"/>
<path d="M-21.3848 803.386L-23.5579 780.511L-24.5547 803.386H-21.3848Z" fill="#570A57"/>
<path d="M-4.52278 185.81L-21.9241 173.801V136.711H-62.7723L-74.5039 123.394H-95.5652L-100.614 117.398H-4.52278V185.81Z" fill="#570A57"/>
<path d="M-176.951 111.123H-4.52278V104.865H-182L-176.951 111.123Z" fill="#570A57"/>
<path d="M-140.792 347.52L-125.303 336.818V303.78H-88.9152L-78.458 291.918H-59.6842L-55.1909 286.575H-140.792V347.52Z" fill="#570A57"/>
<path d="M12.7968 280.987H-140.792V275.399H17.3064L12.7968 280.987Z" fill="#570A57"/>
<path d="M333.341 754.058L350.595 744.516V715.088H391.1L402.75 704.517H423.632L428.631 699.746H333.341V754.058Z" fill="#570A57"/>
<path d="M564.035 694.762H324.583V689.795H572.107L564.035 694.762Z" fill="#570A57"/>
<path d="M331.151 517.563H355.252V639.095L334.142 660.189L331.151 517.563Z" fill="#570A57"/>
<path d="M313.276 486.927V632.15L295.76 649.666V717.572H314.975V731.068L300.564 745.479H288.62V749.45H301.806V792.177H312.459L324.583 828.222H333.341V833.156H320.041V837.274H334.779L345.154 886.079H175.422V835.182H201.989V828.303H189.326L201.989 794.007H219.358V768.436H185.568V761.018H219.767V749.238H204.538V692.589L212.316 686.92V572.643L221.27 566.123V497.825H259.945V518.2H269.716V486.927H313.276Z" fill="url(#paint0_linear_427_198)"/>
<path d="M251.122 609.014V591.122H245.599V609.014H251.122ZM289.127 486.927V514.001H292.052V530.21H289.127V562.333H257.216V497.841H259.945L259.945 518.2H269.749V486.927H289.127ZM314.975 731.068L300.564 745.479L294.453 745.48V730.578H314.976L314.975 731.068ZM273.31 886.079V835.803H270.631V863.825H251.988V803.468H252.396V728.176H250.501V740.888H241.694V777.554H219.276V768.436H214.375V761.018H219.603V749.238H214.375V711.657H204.359V692.54L212.153 686.871V606.416H234.864V660.009H243.557V629.373H253.556V623.605H256.824V629.373H274.225V703.684H278.098V590.845H302.46V510.913H313.26V632.15L295.76 649.666L295.761 710.121H287.313V755.741H287.673V806.278H294.453V749.45H301.79V792.177H312.443L324.55 828.222H329.452V833.123H319.926V837.241H329.55V844.267H305.679V886.046L273.31 886.079ZM201.793 835.182H202.006V828.303H201.81V794.514L201.957 794.122H215.028V794.007H219.407V787.161H225.159V794.122H234.521V886.079H201.842L201.793 835.182ZM189.31 828.303L200.519 797.945V828.287L189.31 828.303ZM200.519 835.182V857.469H177.023V835.182H200.519ZM185.568 761.018H191.679V768.436H185.568V761.018Z" fill="url(#paint1_linear_427_198)"/>
<path d="M252.461 679.73H265.533V676.936H266.432V672.034H253.948V674.567H252.445L252.461 679.73ZM251.579 591.956H241.596V587.985H251.579V591.956ZM232.626 673.897H224.293V670.629H232.626V673.897ZM274.944 684.158H279.062V683.08H285.598V685.694H285.467V688.357H274.928L274.944 684.158ZM271.676 711.935H279.666V715.121H271.676V711.935ZM286.251 746.411H277.624V742.98H286.251V746.411ZM253.752 694.632H262.281V698.03H253.752V694.632ZM238.034 523.069H231.024V520.275H237.952L238.034 523.069ZM221.695 620.696H228.018V618.246H237.952V622.232H232.92V625.19H221.613L221.695 620.696ZM233.541 704.517H226.237V701.609H233.541V704.517ZM222.969 633.899H230.763V637.003H222.969V633.899ZM234.684 507.253H225.306V503.511H234.684V507.253ZM222.365 717.719H233.443V722.131H222.365V717.719ZM217.152 582.577H226.956V586.498H217.152V582.577ZM278.163 754.924H274.65V753.535H278.163V754.924ZM224.783 600.485H223.149V599.848H224.783V600.485ZM241.678 555.192H235.959V552.856H241.678V555.192ZM259.373 574.473H251.203V571.205H259.373V574.473ZM290.891 704.468H295.793V709.239H290.891V704.468ZM293.195 660.695H295.761V663.162H293.195V660.695ZM282.085 698.194H283.719V695.612H294.355V699.844H286.97V700.122H282.068L282.085 698.194ZM261.105 539.539H257.837V538.15H261.105V539.539ZM250.501 548.934H257.396V551.679H250.501V548.934ZM285.516 762.195V759.548H289.159V756.59H297.166V759.776H292.15V762.195H285.516ZM291.038 726.052H285.647V723.928H291.038V726.052ZM267.935 570.47H260.108V567.349H267.935V570.47ZM301.675 726.15H309.992V729.418H301.675V726.15ZM312.917 732.588H308.113V730.676H312.917V732.588ZM280.075 766.508H288.702V769.939H280.075V766.508ZM313.979 718.667H314.976V719.811H313.979V718.667ZM300.041 734.696V736.003H296.774V734.696H300.041ZM303.996 739.597H306.43L304.437 741.591H303.996V739.597ZM302.182 735.937V733.568H301.675V731.215H307.59V732.588H310.45V735.529L310.09 735.888L302.182 735.937ZM230.371 711.428H240.338V715.399H230.371V711.428ZM219.407 650.957H212.316V647.983H219.407V650.957ZM234.227 507.4V511.452H229.08V514.295H221.253V510.374H224.047V507.449L234.227 507.4ZM271.301 523.445H265.059V523.037H261.317V525.651H248.883V522.71H247.641V517.4H259.945L259.945 518.2H266.954V520.945H271.301V523.445ZM210.175 702.328H205.846V700.596H210.175V702.328ZM215.763 736.803V741.607H204.522V736.803H215.763ZM221.335 695.596H208.917V690.694H221.335V695.596ZM306.299 501.616V502.204H304.812V501.616H306.299ZM276.676 539.376H265.941V535.095H276.676V539.376ZM219.832 759.695H224.44V765.021H211.09V761.018H219.832V759.695ZM214.473 766.23V768.469H202.578V766.23H214.473ZM267.967 728.781H273.833V728.34H274.912V726.052H282.558V729.108H279.813V730.742H278.555V732.114H281.823V734.042H276.921V733.013H267.967V728.781ZM269.046 744.368V743.274H271.774V744.368H269.046ZM206.368 713.945V716.935H204.587V713.945H206.368ZM293.326 761.476H300.695V764.417H293.326V761.476ZM303.13 557.986H313.26V562.659H303.032L303.13 557.986ZM296.087 770.593V769.629H298.408V770.593H296.087ZM231.09 544.506H222.92V541.239H231.09V544.506ZM233.557 566.679H229.619V565.045H233.557V566.679ZM224.881 556.45H230.403V558.64H224.881V556.45ZM219.015 571.156H221.727V572.234H219.015V571.156ZM226.515 537.497H221.172V532.873H226.515V537.497ZM234.014 548.215H224.913V544.588H234.014V548.215ZM237.56 659.682H234.292V658.391H237.56V659.682ZM240.468 597.593H228.149V592.691H240.501L240.468 597.593ZM213.443 604.668H212.3V603.034H213.443V604.668ZM219.767 641.79H214.309V639.601H219.767V641.79ZM218.786 645.63H213.149V643.392H218.786V645.63ZM241.318 707.932V707.376H242.723V707.932H241.318ZM215.584 676.348V678.374H212.316V676.348H215.584ZM236.972 627.02H244.226V629.912H236.972V627.02ZM231.204 607.984H232.691V611.334H224.293V611.236H218.557V606.187H231.204V607.984ZM219.309 616.056H216.205V614.814H219.309V616.056ZM227.087 526.909H221.466V524.671H227.087V526.909ZM261.693 699.909H266.366V701.772H261.693V699.909ZM257.216 766.23H261.726V768.028H257.216V766.23ZM266.53 699.321H273.065V701.935H266.53V699.321ZM265.5 691.74H267.51V690.972H271.17V691.74H278V696.641H265.5V691.74ZM261.742 724.124H256.84V723.242H254.389V718.552H266.17V723.242H261.71L261.742 724.124ZM253.197 727.31H258.605V729.467H253.197V727.31ZM253.834 775.07H263.981V779.106H253.834V775.07ZM256.628 739.679V740.758H254.079V739.745L256.628 739.679ZM298.783 595.893H303.228V597.674H298.783V595.893ZM252.772 707.164H264.209V711.723H262.575V712.017H259.438V711.723H252.821L252.772 707.164ZM292.738 644.944V641.856H300.499V644.911L292.738 644.944ZM301.349 592.658H305.531V594.292H301.349V592.658ZM281.643 770.168H295.14V775.527H281.66L281.643 770.168ZM303.652 562.757H313.26V567.169H303.652V562.757ZM273.147 786.605H271.905V783.485H279.748V784.318H282.166V787.913H273.147V786.605ZM266.775 717.082H270.941V718.716H266.775V717.082ZM288.898 718.716V715.905H295.761V717.621H295.924V718.716H288.898ZM222.054 499.377H221.253V497.907H222.054V499.377ZM259.634 516.256V516.615H251.939V513.478H253.344V513.119H255.697V509.361H259.912V516.19L259.634 516.256ZM255.255 505.292H259.912V507.449H255.255V505.292ZM213.264 589.211H212.283V587.43H213.264V589.211ZM220.992 595.338H212.316V590.436H220.992V595.338ZM304.862 638.49H306.92L304.862 640.549V638.49ZM313.26 545.503H306.577V542.137H313.26V545.503ZM276.611 487.058H269.716L269.716 486.927H276.611V487.058ZM242.854 685.416H243.148V684.207H247.331V685.416H256.187V690.727H242.854V685.416ZM238.671 761.77H250.664V766.541H238.671V761.77ZM248.328 753.829H239.586V750.316H248.393L248.328 753.829ZM239.619 739.695H251.432V744.385H239.586L239.619 739.695ZM228.1 735.415H229.734V732.588H227.005V729.124H235.73V730.66H240.436V736.379H238.802V739.646H228.149L228.1 735.415ZM234.145 756.95H242.315V760.218H234.145V756.95ZM219.767 749.254H218.852V745.659H229.472V749.891H219.767V749.254ZM222.789 755.463H226.76V757.097H222.789V755.463ZM288.293 633.98H297.051V637.477H288.293V633.98ZM286.382 630.124H289.552V631.284H286.382V630.124ZM276.709 657.901H286.513V661.806H276.709V657.901ZM294.143 554.032H291.872V553.101H294.208L294.143 554.032ZM285.826 601.612H290.891V603.508H285.826V601.612ZM290.14 529.981H283.506V527.334H290.14V529.981ZM289.552 589.113H281.66V585.976H289.552V589.113ZM293.898 620.157H283.326V615.942H293.898V620.157ZM287.934 571.434V572.169H286.088V571.434H287.934ZM259.193 632.02H263.932V633.899H259.193V632.02ZM254.553 621.056H270.467V625.075H267.036V626.089H254.553V621.056ZM273.899 650.891H261.072V645.794H273.899V650.891ZM300.139 541.124H289.617V536.925H300.139V541.124ZM273.997 584.93H269.177V583.018H274.062L273.997 584.93ZM279.732 600.55H273.752V598.181H279.732V600.55ZM266.66 596.596V598.393H262.118V596.596H266.66ZM287.722 614.945H282.362V616.007H276.382V614.945H274.34V609.618H287.722V614.945ZM249.635 663.963H253.001V665.319H249.635V663.963ZM248.36 513.642H245.599V512.547H248.36V513.642ZM296.12 556.124V554.702H299.682V556.124H296.12ZM248.981 650.124H257.87V651.855H258.785V652.672H257.87V653.669H248.981V650.124ZM304.388 527.579H291.316V522.383H304.388V527.579ZM253.131 667.803H258.033V669.747H253.131V667.803ZM293.767 492.972H280.957V487.875H293.767V492.972ZM282.33 549.898H269.863V544.997H282.33V549.898ZM280.696 534.245H276.823V532.709H280.696V534.245ZM277.428 497.4H269.699V494.329H277.428V497.4ZM258.393 655.564H269.83V660.14H258.393V655.564ZM287.379 623.703H299.862V628.605H287.379V623.703ZM300.744 581.531H293.734V578.737H300.744V581.531ZM296.921 606.253H302.018V608.409H296.921V606.253ZM269.634 680.106H273.719V679.534H278.931V681.609H274.863V682.198H269.634V680.106ZM259.928 579.587H251.759V576.319H259.471V572.528H269.536V576.548H259.994L259.928 579.587ZM292.819 668.456V670.09H288.947V668.456H292.819Z" fill="url(#paint2_linear_427_198)"/>
<path d="M142.041 21.9763V248.635L132.433 258.226V328.877L143.707 340.135V415.916L133.838 425.932V463.3L144.475 471.159V656.577H112.565L104.395 664.747V744.989H93.5294V750.561H104.215V791.344H113.953L126.469 826.277H86.6996V829.61H127.776L147.759 883.579H-24.5546L-9.26105 834.3H20.2313V831.016H-8.14999L1.09795 791.344H13.2055V743.404H-38.5574V731.215H-14.5223V725.235H-38.7861V673.701L-26.9402 665.057V526.631L-16.0418 518.69V407.632L-24.9304 401.162V319.302L-6.40167 296.525V21.9763H142.041Z" fill="url(#paint3_linear_427_198)"/>
<path d="M-26.9402 640.222L-26.9402 665.057L-38.7861 673.701L-38.7861 685.808H-24.7834V640.222H-26.9402ZM110.146 268.552V196.267H97.7939V158.54H87.1243V195.189H51.2923V151.874H49.2989V179.373H44.3971V232.475H25.3128V240.253H22.2737V237.704H16.555V216.577H17.9438V152.543H29.3813V118.917H37.3712V52.0569H24.1691V21.9763H45.4102V45.9296H46.2108V21.9763H78.5462V86.2877H82.8434V70.9287H82.9905V56.6155H79.9841V21.9763H98.6599V44.5735H112.042V21.9763H134.345V80.2911H118.006V118.541H123.381V142.054H140.145V167.723H142.041L142.041 248.635L132.433 258.226L132.433 268.552H110.146ZM-38.5411 731.281H-23.1658V743.47H-38.5411V731.281ZM-10.1434 686.593H8.69579V743.47H-20.96V731.281H-14.5387V725.235H-20.96V706.853H-10.1598L-10.1434 686.593ZM114.035 829.676V845.492H93.1862V849.528H99.9833V881.765H89.3792V854.446H88.023V838.793H91.1928V829.676H114.035ZM140.243 645.32H126.665V604.047H140.243V645.32ZM129.721 834.855L147.694 883.53H129.721V834.855ZM69.2655 840.639V862.273H56.9784V836.718H59.3639V830.052H74.7228V795.069H80.2455V779.285H81.0951V818.206H91.2255V826.277H114.1V791.278H104.297V750.561H93.6273V744.989H104.493V664.747L112.663 656.577H121.943V610.043H103.513V575.861H99.0356V575.028H113.087V570.829H134.328V468.055H128.479V435.05H133.757V425.932L143.56 415.916V367.062H136.845V342.7H106.454V404.544H92.1895V512.008H94.1666V536.516H97.6305V556.124H79.4612V474.868H90.8987V391.799H63.5794V450.18H59.56V389.724H75.3764V339.399H89.8857V249.648H69.3799V236.102H46.5049V305.74H60.4096V325.348H54.2497V365.215H40.9659V287.49H24.1691V278.127H31.3257V245.792H20.6888V275.578H18.7281V268.667H-5.12723V325.593H-23.4763V317.57L-24.8651 319.204V401.064L-15.9765 407.6V435.376H-1.63065V382.012H3.72864V349.775H-1.63065V341.18H0.640533V347.455H12.4702V374.398H26.62V430.033H17.3719V531.615H37.5673V549.784H44.103V555.519H30.4434V600.011H45.1487V557.758H77.8273V575.077H54.119V622.804H41.6684V627.232H40.0345V630.418H29.561V655.074H9.2023V723.405H17.6824V766.41H25.0677V784.612H22.6495V883.563H84.7388V862.322H79.9841V840.672L69.2655 840.639ZM50.8348 722.376V711.118H56.0307V693.733H56.1287V686.838H62.6644V660.695H73.7915V665.956H96.6664V667.035H88.4968V707.327H65.5401V722.425L50.8348 722.376ZM7.81345 821.473V830.787H4.75801V821.473H7.81345ZM14.5779 36.2568H0.0196381V42.4494H22.0287V121.695H-4.1142V105.16H-6.46706V21.9926H14.5779V36.2568ZM4.07175 875.148H5.70567V866.374H15.787V883.563H4.02274L4.07175 875.148ZM-0.0457306 513.396H-16.0419V460.947H-0.0457306V513.396ZM-23.1822 690.579V725.235H-38.7861L-38.7861 690.579H-23.1822ZM8.59776 791.409V796.752H-0.143768L1.03267 791.409H8.59776ZM15.5092 790.478H13.2054V779.416H15.5092V790.478ZM-26.4663 555.47H-16.2053V575.486H-13.6727V525.651H10.0193V581.727H12.2905V611.138H7.56837V647.28H-14.8165V630.124H-17.6758V586.58H-26.45L-26.4663 555.47ZM-26.9402 526.68L-16.9405 519.344V551.516H-26.9238L-26.9402 526.68Z" fill="url(#paint4_linear_427_198)"/>
<path d="M122.336 488.691H116.911V490.538H122.336V488.691ZM53.3184 392.731V391.881H55.7693V392.731H53.3184ZM51.3414 376.391H58.7104V378.908H51.3087L51.3414 376.391ZM62.2233 356.523H57.9261V355.052H62.2233V356.523ZM75.5399 348.876H82.2226V352.144H75.0987V354.546H65.867V351.409H60.9652V346.507H75.5072L75.5399 348.876ZM65.1481 438.906H68.1708V439.935H65.1481V438.906ZM62.4848 414.397H72.1249V417.664H62.4848V414.397ZM69.4616 364.317H57.3869V360.216H69.4616V364.317ZM68.2852 301.198V301.754H66.6513V301.231L68.2852 301.198ZM85.0166 404.691H73.4811V400.9H85.0166V404.691ZM73.4321 307.946H64.1514V304.776H73.4321V307.946ZM63.9716 334.792V333.615H56.7987V329.155H69.8701V331.704H71.2916V332.978H69.8211V333.615H68.0238V334.792H63.9716ZM63.8246 305.005H57.534V302.865H63.8246V305.005ZM56.0144 302.832V301.46H60.0666V302.865L56.0144 302.832ZM54.887 295.414H62.9096V298.143H54.887V295.414ZM72.1249 447.99V443.873H77.2391V441.536H91.2255V443.709H95.4084V445.931H98.5455V447.68H93.415V447.092H85.4904V446.307H84.2323V447.941L72.1249 447.99ZM94.8365 324.253H80.3272V319.351H94.8365V324.253ZM112.712 437.729V434.069H115.8V432.027H117.989V431.488H127.172V432.027H129.051V436.536H123.512V437.729H112.712ZM82.0919 342.961H94.4934V347.193H82.0592L82.0919 342.961ZM81.6344 417.893V417.24H77.0757V413.792H87.1407V417.24H85.9153V418.089L81.6344 417.893ZM96.7972 394.724H85.278V390.803H96.7972V394.724ZM87.5329 487.237H93.6437V486.159H98.088V487.237H101.977V492.139H87.5002L87.5329 487.237ZM82.3533 409.135V410.328H78.8567V409.135H82.3533ZM74.9026 405.524H77.6639V406.472H74.9026V405.524ZM86.1277 360.64V359.121H90.5883V360.64H86.1277ZM114.476 408.335V407.665H116.388V408.335H114.476ZM99.2808 428.187H113.202V432.925H99.2808V428.187ZM113.627 396.685H124.002V400.214H113.627V396.685ZM89.2648 290.414V292.293H83.7585V290.414H89.2648ZM105.392 264.664H95.8005V261.396H105.424L105.392 264.664ZM93.2516 317.129H82.7291V313.551H93.2353L93.2516 317.129ZM100.392 242.311V243.733H96.209V242.311H100.392ZM64.9356 312.309H63.0566V311.672H64.9356V312.309ZM121.094 500.309H135.799V504.785H136.649V508.478H125.783V505.308H121.159L121.094 500.309ZM122.809 510.798H131.469V513.739H122.809V510.798ZM123.398 523.87V522.236H128.169V523.87H123.398ZM95.3104 164.88H80.605V159.978H95.3104V164.88ZM102.5 175.843H99.8854V178.245H90.3759V174.977H94.6895V173.18H102.5V175.843ZM93.0719 148.066H96.5031V149.276H93.0719V148.066ZM81.471 185.777H79.4613V185.222H81.4056L81.471 185.777ZM68.3996 611.808V611.236H70.0335V611.808H68.3996ZM62.109 591.874H74.6902V596.155H62.109V591.874ZM41.9299 324.531H29.0546V320.152H41.9299V324.531ZM61.5371 605.256H73.9549V609.471H61.5371V605.256ZM112.189 473.12H121.992V472.221H125.996V473.594H124.362V474.215H131.126V477.695H120.914V477.319H112.025L112.189 473.12ZM96.4705 574.93H84.167V570.829H96.4705V574.93ZM111.176 568.737V567.218H115.653V568.737H111.176ZM61.2593 585.992H75.1804V590.73H61.2593V585.992ZM79.9188 554.49H87.1244V550.552H100.523V555.11H90.4739V556.973H102.647V560.241H113.692V564.555H117.254V566.858H110.506V564.767H100.392V561.908H88.3335V558.15H79.9188V554.49ZM109.754 558.689H108.235V558.182H109.754V558.689ZM74.2654 484.803V480.554H81.0135V480.228H87.7943V482.531H86.7486V484.803H74.2654ZM66.5696 529.768V525.896H79.9841V528.804H77.8273V529.768H66.5696ZM78.5953 470.947V471.6H76.6509V470.947H78.5953ZM104.738 534.065H114.003V537.219H104.738V534.065ZM104.934 540.471H113.3V543.33H104.934V540.471ZM111.29 548.199H109.117V547.464H111.29V548.199ZM49.3316 453.676V450.703H58.0568V453.676H49.3316ZM35.3452 335.805V337.177H37.7307V341.344H25.4763V337.177H27.9599V335.772L35.3452 335.805ZM23.7607 298.224H29.5938V300.201H23.7607V298.224ZM39.8222 473.823H52.3871V478.103H39.8222V473.823ZM79.4613 478.398H66.9617V474.149H79.4613V478.398ZM32.6492 277.424V278.405H29.7899V277.424H32.6492ZM48.8741 434.282H60.2136V438.138H48.8741V434.282ZM52.959 496.91H48.6127V495.439H52.959V496.91ZM123.218 259.37H117.81V257.54H123.218V259.37ZM96.6829 270.186H85.0166V266.216H96.6829V270.186ZM105.8 216.936H98.4475V214.388H105.8V216.936ZM100.081 240.71H91.5197V237.802H100.081V240.71ZM111.519 222.639H105.147V220.417H111.519V222.639ZM127.629 270.186H132.433V273.83H129.525V277.098H117.744V273.095H126.404V270.823H124.345V272.065H114.28V268.65H117.417V267.343H127.629V270.186ZM123.005 242.181H111.388V238.227H123.005V242.181ZM117.973 250.023H113.659V248.553H117.973V250.023ZM46.4559 464.836V461.813H52.8609V458.692H63.122V457.99H68.2689V456.16H79.1345V459.869H74.5595V461.911H66.7656V463.464H55.3282V464.836H46.4559ZM87.6309 337.488H92.2549V342.308H78.0724V339.955H75.5235V335.837H87.6309V337.488ZM86.5362 454.559H85.8172V451.814H93.8725V454.559H92.598V456.094H86.5362V454.559ZM91.3236 461.192H104.395V465.653H91.3236V461.192ZM83.4154 297.13H76.8796V294.908H83.4154V297.13ZM82.5494 287.244H78.7914V285.97H82.5494V287.244ZM79.0038 297.293V297.947H77.0757V297.293H79.0038ZM89.5099 276.902H81.0952V274.059H89.4609L89.5099 276.902ZM97.6795 457.5H102.058V459.003H97.6795V457.5ZM113.333 519.409H111.535V518.788H113.333V519.409ZM112.205 506.338H101.536V502.694H112.205V506.338ZM142.204 377.372H143.691V381.767H142.204V377.372ZM99.1828 505.766V506.812H96.1273V505.766H99.1828ZM105.408 458.545H112.14V460.817H105.457L105.408 458.545ZM97.6142 527.579H112.32V532.595H97.6142V527.579ZM95.9803 512.351H104.803V515.275H95.9803V512.351ZM111.682 525.945H109.624V525.242H111.682V525.945ZM130.44 382.6H139.067V385.541H130.44V382.6ZM125.342 396.227H111.65V391.456H125.636V394.365H133.659V397.191H125.342V396.227ZM138.168 387.437H143.691V389.332H138.168V387.437ZM133.136 458.088H128.61V456.536H133.136V458.088ZM126.371 477.924H132.809V480.113H126.371V477.924ZM132.744 430.213H124.296V427.337H132.744V430.213ZM109.084 444.33H123.005V449.052H109.084V444.33ZM119.574 384.349H126.731V386.8H119.574V384.349ZM125.375 302.326H127.907V299.793H132.433V304.401H125.211V302.456H114.95V298.894H125.375V302.326ZM118.577 310.185H106.993V306.247H118.577V310.185ZM128.741 357.879H114.15V352.977H128.741V357.879ZM122.597 373.205V372.584H124.46V373.205H122.597ZM112.058 285.643H101.585V282.081H112.058V285.643ZM115.408 362.062H125.211V365.33H115.408V362.062ZM118.855 334.073V334.824H116.649V334.073H118.855ZM109.052 370.493H101.013V367.764H109.052V370.493ZM100.065 386.832H95.8005V385.362H100.098L100.065 386.832ZM102.108 326.377H95.8169V324.237H102.108V326.377ZM108.872 256.298H103.039V254.321H108.872V256.298ZM86.5688 400.247H75.8666V396.603H86.5688V400.247ZM102.908 303.224H99.6403V302.08H102.908V303.224ZM126.028 347.275H121.486V345.641H126.028V347.275ZM108.349 345.347V346.654H104.493V345.347H108.349ZM111.846 378.728H114.264V379.545H111.846V378.728ZM97.4835 379.398H111.715V384.3H97.4345L97.4835 379.398ZM114.133 372.323H122.107V375.035H114.133V372.323ZM127.286 290.431H132.433V292.832H127.286V290.431ZM110.506 313.371H124.901V317.162H125.538V319.008H120.13V318.256H110.506V313.371ZM102.843 426.112V424.821H106.65V426.112H102.843ZM101.666 408.645H98.7089V405.557H107.794V408.106H111.437V411.374H101.634L101.666 408.645ZM102.614 423.089H107.058V424.592H102.614V423.089ZM103.578 442.402H97.941V441.209H96.013V437.647H106.486V441.209H103.578V442.402ZM137.302 333.73L137.76 334.203H137.302V333.73ZM132.401 290.218H121.6V286.215H132.401V290.218ZM135.374 333.256H132.27V332.275H135.374V333.256ZM126.371 369.725H136.175V372.993H126.371V369.725ZM115.408 387.829H125.701V391.342H115.408V387.829ZM118.398 376.98H121.502V378.025H118.398V376.98ZM81.7814 370.444H75.0823V368.222H81.7814V370.444ZM72.2556 419.462H81.0952V422.501H72.1903L72.2556 419.462ZM-17.6104 674.698H-11.7773V676.675H-17.6104V674.698ZM42.6652 83.9184H42.5835V87.1863H32.7799V80.6506H42.7142L42.6652 83.9184ZM52.191 174.258H46.2435V172.298H52.191V174.258ZM-0.927994 347.291H-5.82979V345.657H-0.927994V347.291ZM-19.8162 390.786V391.669H-22.3978V390.786H-19.8162ZM3.05879 362.046H-3.47693V359.84H3.05879V362.046ZM-5.68268 362.617H-8.57477V361.686H-5.68268V362.617ZM32.0774 70.847H42.1914V74.2782H32.0774V70.847ZM71.406 106.94V107.757H69.0041V106.94H71.406ZM103.006 78.7552H91.1765V74.7357H103.006V78.7552ZM0.166748 454.934H-9.4734V451.667H0.166748V454.934ZM73.285 113.329H77.9744V117.349H66.1774V113.607H58.4653V108.558H73.285V113.329ZM51.8315 165.451H46.4069V163.605H51.8315V165.451ZM67.2722 103.003H60.5567V100.715H67.2722V103.003ZM65.4585 69.8176H63.8246V69.2131H65.4585V69.8176ZM51.1943 58.5762V59.5566H48.3022V58.5762H51.1943ZM-9.17932 521.811H-15.6006V519.687H-9.17932V521.811ZM-0.862625 420.818V421.39H-2.49655V420.818H-0.862625ZM-24.7343 546.483H-11.4668V551.009H-24.7343V546.483ZM-13.9341 491.73H-16.0418V490.57H-13.9341V491.73ZM-9.84923 557.937H-21.1887V554.081H-9.84923V557.937ZM-17.3653 689.24V687.524H-12.2838V689.24H-17.3653ZM-0.601196 506.256H-9.81657V503.135H-0.601196V506.256ZM4.83977 516.484H-1.69595V514.279H4.83977V516.484ZM-4.71867 542.17H0.705933V537.693H14.2839V542.317H3.94112V545.143H-4.78404L-4.71867 542.17ZM-10.5028 667.525H-22.6102V663.407H-10.5682L-10.5028 667.525ZM4.20256 450.604H-7.80682V446.52H4.13719L4.20256 450.604ZM-7.79047 643.686H-13.2968V641.807H-7.79047V643.686ZM14.5453 480.652V483.038H7.53578V480.652H14.5453ZM4.9705 561.859H3.33658V561.319H4.9705V561.859ZM15.1335 489.394H0.428192V484.394H15.1335V489.394ZM111.535 92.7253H97.9247V95.0781H87.01V91.3528H96.9443V87.7908H111.437L111.535 92.7253ZM92.5327 25.8813V27.5152H87.7289V25.8813H92.5327ZM95.0326 29.9988H108.872V34.7209H100.457V36.9267H87.7453V32.5968H94.9509V30.1622H87.5656V27.6133H95.0489L95.0326 29.9988ZM72.1576 57.2364H57.779V52.3346H72.1576V57.2364ZM52.093 34.5738V31.404H61.4064V34.5738H52.093ZM126.159 36.6489V39.2305H118.545V36.6489H126.159ZM50.1486 25.5872H62.6318V29.8354H50.1486V25.5872ZM69.7557 30.2766V31.3876H66.4879V30.2766H69.7557ZM127.156 52.6124H116.176V48.8707H127.156V52.6124ZM26.2932 755.561H23.3849V753.094H30.6395V755.463H34.4629V758.24H26.2932V755.561ZM-32.7569 736.82V733.699H-23.6069V736.82H-32.7569ZM-37.2175 733.715H-38.5574V731.215L-37.2175 731.215V733.715ZM69.3799 766.067V765.707H61.3246V760.904H75.4418V765.707H74.053V766.067H69.3799ZM71.7328 713.896V711.804H77.6966V711.428H84.363V713.7H77.8273V713.896H71.7328ZM30.8846 791.491V790.609H33.4825V791.491H30.8846ZM64.5762 40.554H56.1615V42.7598H46.5866V39.4919H51.7825V36.2241H64.5762V40.554ZM89.8204 783.239V783.991H87.6309V783.239H89.8204ZM120.309 85.8301H124.786V87.3497H120.309V85.8301ZM114.15 75.5854H105.784V72.726H114.15V75.5854ZM124.329 98.6238V96.6631H129.525V95.4539H136.469V97.8232H130.113V98.6238H124.329ZM99.3788 61.0434H90.7027V58.1514H99.3788V61.0434ZM108.513 45.276H106.16V44.4754H108.513V45.276ZM120.489 598.083H132.221V602.086H120.489V598.083ZM119.198 86.6634H104.918V81.7616H119.198V86.6634ZM126.028 602.985H128.577V603.851H126.028V602.985ZM48.3022 711.935H59.7397V715.824H48.3022V711.935ZM51.2597 746.836V746.117H53.3184V746.836H51.2597ZM46.3579 725.398H42.3221V724.026H46.2925L46.3579 725.398ZM57.0765 687.818H44.871V683.733H57.0765V687.818ZM94.3463 82.2845H101.143V85.9608H90.3269V82.5786H88.6929V80.6506H94.3627L94.3463 82.2845ZM24.2345 524H28.45V525.291H35.5249V528.559H26.0645V525.487H24.2345V524ZM126.469 631.006H128.855V631.807H126.469V631.006ZM128.234 608.573H130.472V609.324H128.234V608.573ZM62.8769 148.883V147.446H67.0598V148.883H62.8769ZM58.8084 211.724H62.5011V215.515H51.3904V215.172H45.3285V210.58H58.8084V211.724ZM70.0172 138.198H57.5993V133.917H70.0172V138.198ZM29.3487 124.146H39.1523V127.414H29.3487V124.146ZM34.2505 136.09V134.57H38.6131V136.073L34.2505 136.09ZM54.9523 193.882V194.846H52.1093V193.882H54.9523ZM54.0374 131.531V129.423H60.2626V131.531H54.0374ZM41.1293 164.34H27.241V159.618H41.1293V164.34ZM54.07 120.355H66.5859V124.62H54.07V120.355ZM126.845 160.599H112.793V155.811H126.845V160.599ZM121.943 144.799H118.381V143.589H121.943V144.799ZM113.022 133.443H99.6403V128.884H113.12L113.022 133.443ZM88.0394 119.277V120.077H85.7192V119.277H88.0394ZM88.0394 144.913H74.6739V140.371H88.0394V144.913ZM107.156 117.218V117.773H105.522V117.218H107.156ZM21.6365 238.913V237.165H26.7998V238.913H21.6365ZM13.565 232.655H19.0059V234.501H13.565V232.655ZM20.7379 382.47V383.728H17.0452V382.47H20.7379ZM17.7805 583.721H19.7085V584.39H17.7805V583.721ZM16.5551 555.143H30.4434V559.849H16.6041L16.5551 555.143ZM18.189 566.924H20.6399V567.773H18.1073L18.189 566.924ZM28.254 551.058H19.0059V547.954H28.2213L28.254 551.058ZM24.8391 389.773H25.2639V390.509H23.1071V389.871H16.1792V386.914H24.8391V389.773ZM17.6825 515.586V511.109H30.8846V515.275H33.0904V519.344H29.5448V520.88H17.9929V516.942H21.13V515.488L17.6825 515.586ZM3.30392 222.802H15.7381V227.034H3.28757L3.30392 222.802ZM16.7021 219.224H13.1075V218.064H16.7021V219.224ZM21.6039 241.511H18.7772V240.547H21.6039V241.511ZM29.5938 291.917H17.5517V287.816H29.5938V291.917ZM24.4142 272.931V274.402H20.1334V272.931H24.4142ZM28.7769 199.404H16.0975V195.025H28.8095L28.7769 199.404ZM115.114 119.13H121.943V121.499H115.048L115.114 119.13ZM-24.3258 632.657H-26.9401V630.516H-24.3258V632.657ZM-5.97684 407.91H-16.0418L-16.0418 407.632L-19.1299 405.394V403.433H-6.0585L-5.97684 407.91ZM-7.61076 411.014V414.74H-14.3262V418.334H-15.9601V411.014H-7.61076ZM-11.5812 428.906V431.7H-15.9601V428.906H-11.5812ZM-8.78719 371.343H-10.7479V370.673H-8.78719V371.343ZM1.03273 376.784H-10.0289V373.009H1.03273V376.784ZM-5.17618 393.744H0.624252V397.91H-11.6466V396.276H-17.9371V391.914H-5.17618V393.744ZM7.71548 420.932H2.25818V419.07H7.71548V420.932ZM-8.88522 486.551H-16.0255V481.649H-8.88522V486.551ZM-8.395 627.673H-5.92781V628.506H-8.395V627.673ZM-4.0161 657.901H-8.77083V656.267H-4.03246L-4.0161 657.901ZM-11.2707 528.821H-9.63681V526.517H-2.69261V528.821H2.42159V533.477H-11.2707V528.821ZM-19.8652 623.833H-26.9238V618.932H-19.8815L-19.8652 623.833ZM-5.56834 457.794H-11.4668V455.784H-5.56834V457.794ZM-21.5645 590.452H-8.77083V594.815H-21.5808L-21.5645 590.452ZM-26.9238 633.31H-18.8685V637.444H-26.9238V633.31ZM133.381 142.38H124.966V139.472H133.381V142.38ZM99.0684 588.067V587.168H101.634V588.05L99.0684 588.067ZM107.581 588.72H119.721V592.854H107.581V588.72ZM101.928 582.838V582.266H103.97V582.887L101.928 582.838ZM114.264 595.91V595.109H116.715V595.91H114.264ZM132.417 128.034V129.391H128.479V128.034H132.417ZM140.783 161.955H129.165V157.984H140.783V161.955ZM135.489 155.239V156.105H132.923V155.239H135.489ZM23.9077 586.694H33.9073V590.109H23.9077V586.694ZM26.1462 602.217H30.231V603.605H26.1462V602.217ZM25.4273 610.19H27.0612V610.746H25.4273V610.19ZM24.0874 613.818H25.7214V614.389H24.0874V613.818ZM16.2773 480.26H1.66998V475.358H16.2773V480.26ZM59.5273 702.703H67.0107V705.236H59.5273V702.703ZM93.6274 566.238H106.111V570.486H93.6274V566.238ZM66.3898 717.065V717.605H68.0238V721.15H57.5503V717.588H61.7658V717.049L66.3898 717.065ZM35.9825 784.056H50.41V788.958H35.9825V784.056ZM72.6478 707.36H82.9415V710.873H72.6478V707.36ZM80.2292 705.53H83.0232V706.445H80.2292V705.53ZM81.5363 667.819H75.2784V665.695H81.5363V667.819ZM74.5758 737.947H64.7722V734.679H74.5758V737.947ZM62.7625 740.12H66.5369V741.411H62.7625V740.12ZM138.904 590.338H144.296V592.184H138.904V590.338ZM68.8897 642.379H79.6737V645.99H68.8897V642.379ZM79.6737 663.718H84.412V665.352H79.6737V663.718ZM112.14 605.991H122.777V609.602H112.14V605.991ZM130.113 558.721H141.551V554.898H144.443V559.685H143.642V563.28H130.227L130.113 558.721ZM106.258 613.589H116.584V617.102H106.258V613.589ZM86.095 631.938H94.7058V634.879H86.095V631.938ZM100.114 635.336H110.212V638.768H100.114V635.336ZM84.363 728.928H88.1701V730.219H84.363V728.928ZM88.938 698.275H100.196V702.115H88.938V698.275ZM67.8931 708.079H70.4256V708.945H67.8931V708.079ZM9.92131 703.046H24.8227V708.079H9.92131V703.046ZM15.542 638.245H10.1337V636.349H15.542V638.245ZM18.3197 679.632V680.809H14.9048V679.632H18.3197ZM18.7445 664.796H13.1892V662.901H18.7445V664.796ZM6.58807 586.466H15.444V589.472H6.58807V586.466ZM31.9793 642.395H17.5027V637.493H31.9793V642.395ZM10.5422 616.824H20.3458V620.174H10.5422V616.824ZM55.9654 729.271H54.5439V727.457H59.8541V727.539H66.6513V731.199H55.9327L55.9654 729.271ZM40.8679 672.263H49.6258V675.237H40.8679V672.263ZM47.3219 695.383H49.3643V696.069H47.3219V695.383ZM52.4524 698.553V699.615H49.299V698.553H52.4524ZM26.0972 678.292H29.6265V679.501H26.0972V678.292ZM22.4372 671.43H26.6037V672.851H22.4372V671.43ZM13.8591 600.86H16.9962V601.873H13.8591V600.86ZM36.8321 675.645H41.6358V677.279H36.8321V675.645ZM112.14 102.202V101.499H114.215V102.202H112.14ZM13.1401 203.963H3.23854V200.597H13.1401V203.963ZM65.4258 191.921H50.7205V186.856H65.4258V191.921ZM2.4706 252.916H16.7675V254.893H28.205V259.909H13.4996V257.785H2.4706V252.916ZM15.542 209.453H4.66005V205.744H15.542V209.453ZM26.9795 182.624H14.3329V178.327H26.9795V182.624ZM51.6845 204.829H38.6131V200.401H51.6845V204.829ZM25.7214 100.568H35.5249V103.836H25.7214V100.568ZM21.5549 260.383V260.922H19.9209V260.383H21.5549ZM12.1598 460.817H8.74487V459.722H12.1598V460.817ZM24.7083 540.258H15.7381V537.203H24.6757L24.7083 540.258ZM21.0483 382.11H11.6206V378.842H21.0483V382.11ZM15.8035 282.931V284.009H12.5356V282.931H15.8035ZM23.5973 358.5H14.4963V355.395H23.5973V358.5ZM7.35603 264.941H17.5681V266.069H27.9925V270.464H15.0518V268.405H7.35603V264.941ZM12.0618 331.573H20.9503V334.596H12.0618V331.573ZM121.617 71.4352H117.45V70.0137H121.617V71.4352ZM121.47 111.81H117.254V112.055H114.787V111.81H107.516V107.071H121.47V111.81ZM124.084 116.025H115.914V113.329H124.084V116.025ZM115.783 94.6206H120.783V96.2546H115.783V94.6206ZM141.551 582.724H144.41V585.698H141.551V582.724ZM142.041 148.181H132.515V144.668H142.041V148.181ZM134.361 121.107H124.786V117.839H134.361V121.107ZM128.479 149.079H119.329V146.138H115.931V144.88H119.656V146.008H128.479V149.079ZM63.122 87.9215H55.949V85.5524H63.122V87.9215ZM119.656 80.0623H116.388V79.0166H119.656V80.0623ZM60.7365 64.5237H55.704V62.8898H60.7365V64.5237ZM57.73 94.4409H53.9066V93.1501H57.73V94.4409ZM64.5762 51.9588H54.9523V48.6909H64.6252L64.5762 51.9588ZM61.4881 156.203H68.4813V158.622H61.341V157.821H53.8086V155.207H61.4881V156.203ZM4.46399 612.069H9.20238V613.703H4.44763L4.46399 612.069ZM91.2582 101.336H95.0653V103.771H87.876V103.428H77.6149V98.7872H91.2582V101.336ZM27.7148 701.543H40.0182V705.726H27.7148V701.543ZM52.2237 760.168H60.8508V763.109H52.2237V760.168ZM58.5633 778.419H72.2556V783.076H58.5633V778.419ZM78.1705 774.547H80.3109V775.282H78.1705V774.547ZM35.6883 736.787H39.283V738.012H35.6883V736.787ZM79.7064 775.838H91.7811V779.972H79.7064V775.838ZM41.4398 771.23H51.1126V774.498H41.4398V771.23ZM45.3285 755.299H59.0372V759.972H45.2958L45.3285 755.299ZM136.012 77.154H125.963V73.7391H136.012V77.154ZM30.0676 715.317H43.3842V719.843H30.0676V715.317ZM139.165 84.3759H128.937V80.8957H139.165V84.3759ZM74.0857 515.439H78.775V517.073H74.0857V515.439ZM138.413 612.249H144.475V616.873H138.413V612.249ZM144.345 632.412H144.475V635.794H144.345V632.412ZM142.041 103.248H141.551V101.614H142.073L142.041 103.248ZM142.041 108.231H130.309V106.074H119.264V101.973H131.338V103.607H142.041V108.231ZM-19.8652 718.323H-28.378V714.124H-15.9601V716.902H-10.5682V720.055H-19.8652V718.323ZM118.512 69.932H110.342V67.1707H118.512V69.932ZM38.5804 22.5481H33.5479V21.9435H38.6131L38.5804 22.5481ZM-23.5088 352.275V355.641H-24.9957V348.615H-23.4762L-23.5088 352.275ZM-18.6071 337.569H-25.0121V334.971H-18.5744L-18.6071 337.569ZM97.124 25.2931H84.216V22.0252H97.124V25.2931ZM14.3492 718.209H25.5417V722H14.3656L14.3492 718.209ZM142.041 66.3374H139.067V62.3833H142.041V66.3374ZM143.184 639.176H144.508V642.885H143.184V639.176ZM-1.23845 659.371H7.50307V662.329H-1.23845V659.371ZM3.05879 621.366H13.2708V623.637H18.5811V626.17H11.1794V624.846H3.00977L3.05879 621.366ZM9.79056 728.601H19.8393V732.016H9.79056V728.601ZM-0.43779 682.099H6.09792V684.338H-0.43779V682.099ZM-11.6792 725.055H1.22879V729.451H-11.6792V725.055ZM-8.41136 723.732V721.232H-1.05869V723.732H-8.41136ZM-8.96689 701.265H1.91507V704.958H-8.96689V701.265ZM-16.3032 668.685H-2.95406V673.227H-16.3032V668.685ZM-9.40808 329.367H-15.4536V327.374H-9.40808V329.367ZM-12.97 346.409H-17.1529V344.987H-13.0191L-12.97 346.409ZM-19.5058 361.833H-24.8323V359.399H-19.5058V361.833ZM-11.5158 378.172H-14.8654V381.702H-24.8323V376.065H-22.9697V377.568H-21.8259V374.66H-11.5158V378.172ZM7.56845 336.556H16.0159V341.164H2.43788V339.726H-6.31995V335.004H7.56845V336.556ZM-3.06844 343.092H-8.60744V341.213H-3.05208L-3.06844 343.092ZM-5.37228 369.529H-16.3032V365.82H-5.37228V369.529ZM-33.7699 710.301H-31.4988V711.069H-33.7699V710.301ZM0.542572 582.152H10.9997V585.714H0.542572V582.152ZM1.32683 700.383H-13.4602V696.478H-17.3653V694.06H-23.7213V690.383H-12.8557V692.753H-6.31995V695.35H1.40855L1.32683 700.383ZM-6.33629 574.718H-6.66306V570.714H5.06854V574.603H7.40504V579.276H-6.33629V574.718ZM14.3002 174.209H1.03273V169.716H14.2348L14.3002 174.209ZM-24.1134 651.757H-16.3686V654.388H-24.1134V651.757ZM-33.2798 700.922H-25.8454V703.438H-33.2798V700.922ZM114.117 57.1547H108.088V55.1286H114.117V57.1547ZM-26.4009 646.725H-18.0189V649.568H-26.4009V646.725ZM36.44 39.3449H29.7572V37.0737H36.44V39.3449ZM76.3405 76.9252H63.8082V72.628H76.3405V76.9252ZM43.6619 44.4754H53.9066V48.789H41.2437V45.2434H32.4042V41.4363H43.6619V44.4754ZM72.468 66.1576H64.184V63.5107H61.8312V60.7003H70.0989V63.3309H72.468V66.1576ZM87.5492 41.4363H82.4514V39.7043H87.5492V41.4363ZM79.0364 66.7949H75.7686V65.6674H79.0364V66.7949ZM90.1145 88.5588H77.3045V84.1962H90.1145V88.5588ZM13.8264 138.263H5.80382V135.534H13.8264V138.263ZM14.9701 120.633H6.57178V117.773H14.9701V120.633ZM20.9667 105.699H11.4245V102.431H20.9667V105.699ZM9.7579 142.38V141.106H13.4669V142.364L9.7579 142.38ZM35.0511 92.0881H26.4566V89.2123H35.0511V92.0881ZM26.375 151.775H18.9079V154.014H8.27103V150.419H12.4702V147.151H26.2932L26.375 151.775ZM33.6133 55.3737H28.3193V53.511H33.6133V55.3737ZM28.254 77.8239H24.545V76.5167H28.254V77.8239ZM116.208 63.1185H120.309V64.5237H116.176L116.208 63.1185ZM77.2718 279.189H71.7001V277.294H77.2718V279.189ZM108.039 145.256H99.6893V142.413H108.039V145.256ZM87.5492 240.498H74.4778V236.037H87.5492V240.498ZM98.3821 223.505H84.5755V218.815H98.3821V223.505ZM109.82 171.219H102.042V168.523H109.82V171.219ZM124.117 166.121H118.087V163.981H124.117V166.121ZM122.303 207.068H116.649V207.476H114.754V207.068H108.48V202.313H122.303V207.068ZM59.8541 347.193H45.4919V342.602H45.0344V342.079H46.6683V342.34H59.8541V347.193ZM51.1616 318.632H39.7241V314.743H51.1616V318.632ZM71.2916 281.624H72.3864V286.28H58.694V281.624H65.9323V281.052H71.2916V281.624ZM31.9467 366.898H40.4104V369.774H31.9467V366.898ZM126.714 197.28H123.3V196.12H126.714V197.28ZM67.5663 221.087H62.8605V219.453H67.5663V221.087ZM64.2984 228.782H60.3116V227.426H64.2984V228.782ZM65.6056 237.851H52.8282V233.505H65.6056V237.851ZM138.283 416.815H132.842V417.599H125.211V415.018H125.62V412.158H139.296V416.194H143.348L138.887 420.72H138.234L138.283 416.815ZM74.1673 565.747H77.8273V566.989H74.151L74.1673 565.747ZM73.8732 547.692H78.5789V549.326H73.8732V547.692ZM109.526 550.96H119.607V554.49H109.526V550.96ZM75.981 536.958H81.9775V536.288H93.6764V540.258H86.3891V540.487H76.0137L75.981 536.958ZM41.1783 506.174H54.6583V510.766H41.1783V506.174ZM56.5863 467.418H62.109V469.297H56.5863V467.418ZM57.6647 563.084H64.2004V565.29H57.6647V563.084ZM141.273 249.37L134.247 256.396H134.051V253.128H127.417V248.455H141.273V249.37ZM142.057 237.638H141.485V233.178H142.057V237.638ZM125.211 245.955H121.943V247.589H114.738V245.138H115.751V242.72H125.211V245.955ZM132.482 265.971H120.816V262.017H119.492V261.036H122.368V261.363H132.482V265.971ZM110.408 493.446H122.711V497.629H110.408V493.446ZM114.754 502.629V501.24H118.872V502.629H114.754ZM43.2534 573.999H49.1519V576.008H43.2534V573.999ZM34.708 385.623H30.0676V383.989H34.708V385.623ZM144.067 485.456H144.524V489.132H144.067V485.456ZM60.2626 497.188H73.9386V501.844H60.2626V497.188ZM60.5894 511.305H61.4881V510.602H71.8308V514.132H69.4943V514.36H60.5077L60.5894 511.305ZM67.6806 549.931H65.4749V549.179H67.6806V549.931ZM62.7789 453.398H68.661V455.408H62.7789V453.398ZM79.4613 465.718H93.9869V470.62H84.7715V471.715H79.3469V469.868H79.4613V465.718ZM63.9226 581.155H69.3146V582.985H63.9226V581.155ZM69.1512 449.559H65.4258V447.68H70.9485V448.807H80.9645V452.827H69.1512V449.559ZM33.2048 418.514H21.5712V414.56H33.2211L33.2048 418.514ZM65.7199 505.014H74.4451V507.988H65.7199V505.014ZM68.4323 575.273H72.1576V576.548H68.4323V575.273ZM74.968 500.88H81.3566V503.054H74.968V500.88ZM72.7131 493.283H79.0201V495.423H72.7131V493.283ZM67.3375 487.956H79.9841V492.253H67.3375V487.956ZM54.1027 422.174H60.2789V420.981H66.5859V422.141H68.0074V426.88H54.1027V422.174ZM73.3831 519.605H84.8206V523.445H73.3831V519.605ZM71.2916 554.359H73.6118V555.159H71.2916V554.359ZM36.3582 444.494H44.6586V447.32H36.3419L36.3582 444.494ZM36.7341 442.271H22.1267V437.37H36.7341V442.271ZM39.5117 474.623H31.3421V471.846H39.5117V474.623ZM37.1425 489.149H40.247V490.211H37.1425V489.149ZM19.9699 481.404H26.9468V483.773H19.9699V481.404ZM37.7144 423.596H25.8521V419.56H37.7144V423.596ZM24.3652 501.746H38.9399V506.648H24.3652V501.746ZM37.6654 428.138H52.3707V433.121H37.6654V428.138ZM33.9727 354.317H43.5149V357.585H34.0217L33.9727 354.317ZM35.7047 325.266H46.2925V328.861H35.7047V325.266ZM47.3056 330.887H42.2567V329.171H47.3056V330.887ZM48.4166 395.803V399.266H38.1719V395.786L48.4166 395.803ZM46.9461 363.598H35.9334V359.856H46.9461V363.598ZM36.3746 405.639H31.2277V403.891H36.3746V405.639ZM34.1198 392.371V393.205H31.6362V392.371H34.1198ZM16.1466 590.403H21.5875V592.25H16.1466V590.403ZM92.5327 628.212H96.7319V629.65H92.5327V628.212ZM92.9575 612.02V610.762H96.6829V612.02H92.9575ZM92.2059 612.445H95.147V613.458H92.1569L92.2059 612.445ZM77.7456 623.801H89.755V627.902H77.6966L77.7456 623.801ZM105.931 579.407H109.673V580.632H105.931V579.407ZM81.8958 603.916H94.6241V608.246H81.8958V603.916ZM88.4315 622.134H78.9057V618.866H88.4315V622.134ZM123.512 544.604H131.24V547.235H123.512V544.604ZM130.113 523.706H139.067V526.713H130.113V523.706ZM140.292 550.96H144.426V554.228H140.292V550.96ZM132.597 540.83H139.132V538.935H137.498V534.686H144.345V545.895H132.515L132.597 540.83ZM120.604 548.885H129.77V552.006H120.604V548.885ZM110.506 584.129H122.352V588.148H110.506V584.129ZM130.946 581.629H120.44V580.943H118.153V577.446H128.43V578.051H130.946V581.629ZM130.718 574.93H123.577V572.463H130.685L130.718 574.93ZM76.6836 630.68H80.2946V631.905H76.6836V630.68ZM33.4825 578.998H37.3876V578.819H51.2107V583.524H37.3876V580.616H33.4825V578.998ZM36.0151 659.061H45.3612V662.329H36.0151V659.061ZM44.6913 617.412H54.6909V620.811H44.6913V617.412ZM20.5255 570.714H19.8065V568.068H27.5841V569.701H31.5055V573.443H20.5255V570.714ZM47.0278 637.624H51.9296V639.258H47.0278V637.624ZM32.4042 652.525H26.7507V650.597H32.4042V652.525ZM21.0974 654.257H34.3648V658.767H21.0974V654.257ZM56.864 678.766H65.1807V681.593H56.864V678.766ZM58.8411 624.438H73.5464V629.438H58.8411V624.438ZM68.3506 623.115H60.426V620.419H68.3506V623.115ZM64.5272 617.51H61.1449V614.781H76.2914V618.785H64.5272V617.51ZM64.5272 689.828V691.331H60.1156V689.828H64.5272ZM53.0897 632.314H61.5371V635.189H53.0897V632.314ZM76.3731 598.606H75.4908V593.884H89.2648V597.348H89.4282V601.873H76.3568L76.3731 598.606ZM50.5898 647.411H54.9523V648.914H50.5407L50.5898 647.411ZM79.2325 209.404H74.3307V207.77H79.2325V209.404ZM43.7436 270.039H30.0349V265.382H43.7436V270.039ZM41.8809 227.443H35.7373V225.351H41.8809V227.443ZM36.5053 184.634H41.064V186.268H36.44L36.5053 184.634ZM50.0506 242.409V243.913H45.6389V242.409H50.0506ZM37.4857 228.799H41.4561V230.155H37.4857V228.799ZM38.6131 292.898V292.179H40.7209V292.898H38.6131ZM50.7695 307.178H37.8451V302.865H50.7695V307.178ZM34.9204 552.513H43.3514V555.372H34.9204V552.513ZM33.7113 531.615H39.3484V533.543H33.7113V531.615ZM15.7381 409.577H23.5482V412.338H15.7381V409.577ZM71.2916 200.058H56.5863V195.156H71.1282L71.2916 200.058ZM16.0812 314.351H28.1069V318.436H16.0812V314.351ZM32.9107 379.333H24.741V376.555H32.9107V379.333ZM24.9044 314.204H16.8982V311.492H24.9044V314.204ZM30.8846 246.282H40.247V249.55H30.6722L30.8846 246.282ZM91.487 152.772H82.3533V149.668H91.487V152.772ZM94.6404 156.808H85.1473V153.54H94.6404V156.808ZM142.024 190.712H137.596V186.317H142.041L142.024 190.712ZM100.114 137.07H110.375V141.188H98.2351V137.201H91.6994V134.341H100.065L100.114 137.07ZM85.8663 195.189H74.6575V191.366H85.8663V195.189ZM99.8036 126.989H92.4347V124.489H99.8036V126.989ZM133.92 167.249H140.162V169.373H133.92V167.249ZM136.779 206.038H125.13V202.035H136.779V206.038ZM81.9775 230.972H72.37V227.704H81.9775V230.972ZM60.3933 177.216H66.7003V179.372H60.3933V177.216ZM40.7862 558.427H48.7434V561.14H40.7862V558.427ZM56.5863 180.173H65.0827V183.065H56.5863V180.173ZM72.0923 171.301H58.6614V166.742H72.0923V171.301ZM73.0726 120.192H70.2296V119.228H73.0726V120.192ZM71.8308 203.081H68.3669V201.904H71.8308V203.081ZM74.053 210.515H67.7623V208.375H74.053V210.515Z" fill="url(#paint5_linear_427_198)"/>
<path d="M-14.0485 802.798H122.548L118.022 790.56H-10.0454L-14.0485 802.798Z" fill="#C265AF"/>
<path d="M-0.421585 541.451V542.709H-21.4339V541.451H-0.421585Z" fill="#570A57"/>
<path d="M-0.421585 548.199V549.457H-21.4339V548.199H-0.421585Z" fill="#570A57"/>
<path d="M-0.405289 554.931V556.189H-21.4176V554.931H-0.405289Z" fill="#570A57"/>
<path d="M-0.421585 561.679V562.937H-21.4339V561.679H-0.421585Z" fill="#570A57"/>
<path d="M-0.421585 568.411V569.669H-21.4339V568.411H-0.421585Z" fill="#570A57"/>
<path d="M-0.421585 575.159V576.417H-21.4339V575.159H-0.421585Z" fill="#570A57"/>
<path d="M-0.421585 581.907V583.165H-21.4339V581.907H-0.421585Z" fill="#570A57"/>
<path d="M-0.405289 588.639V589.897H-21.4176V588.639H-0.405289Z" fill="#570A57"/>
<path d="M-0.421585 595.387V596.645H-21.4339V595.387H-0.421585Z" fill="#570A57"/>
<path d="M-0.421585 602.135V603.393H-21.4339V602.135H-0.421585Z" fill="#570A57"/>
<path d="M-0.405289 608.867V610.125H-21.4176V608.867H-0.405289Z" fill="#570A57"/>
<path d="M-0.421585 615.615V616.873H-21.4339V615.615H-0.421585Z" fill="#570A57"/>
<path d="M-0.405289 622.347V623.605H-21.4176V622.347H-0.405289Z" fill="#570A57"/>
<path d="M-0.421585 629.095V630.353H-21.4339V629.095H-0.421585Z" fill="#570A57"/>
<path d="M-0.421585 635.843V637.101H-21.4339V635.843H-0.421585Z" fill="#570A57"/>
<path d="M-0.405289 642.575V643.833H-21.4176V642.575H-0.405289Z" fill="#570A57"/>
<path d="M-0.421585 649.323V650.581H-21.4339V649.323H-0.421585Z" fill="#570A57"/>
<path d="M-0.421585 656.055V657.313H-21.4339V656.055H-0.421585Z" fill="#570A57"/>
<path d="M-0.421585 662.803V664.061H-21.4339V662.803H-0.421585Z" fill="#570A57"/>
<path d="M-0.421585 669.551V670.809H-21.4339V669.551H-0.421585Z" fill="#570A57"/>
<path d="M-0.405289 676.283V677.541H-21.4176V676.283H-0.405289Z" fill="#570A57"/>
<path d="M-0.421585 683.031V684.289H-21.4339V683.031H-0.421585Z" fill="#570A57"/>
<path d="M-0.421585 689.779V691.037H-21.4339V689.779H-0.421585Z" fill="#570A57"/>
<path d="M-0.421585 696.511V697.769H-21.4339V696.511H-0.421585Z" fill="#570A57"/>
<path d="M-0.421585 703.259V704.517H-21.4339V703.259H-0.421585Z" fill="#570A57"/>
<path d="M-0.421585 709.991V711.249H-21.4339V709.991H-0.421585Z" fill="#570A57"/>
<path d="M-0.421585 716.739V717.997H-21.4339V716.739H-0.421585Z" fill="#570A57"/>
<path d="M14.5943 322.374V323.632H-6.41803V322.374H14.5943Z" fill="#570A57"/>
<path d="M14.6106 329.122V330.38H-6.40167V329.122H14.6106Z" fill="#570A57"/>
<path d="M14.5943 335.87V337.128H-6.41803V335.87H14.5943Z" fill="#570A57"/>
<path d="M14.5943 342.602V343.86H-6.41803V342.602H14.5943Z" fill="#570A57"/>
<path d="M14.6106 349.35V350.608H-6.40167V349.35H14.6106Z" fill="#570A57"/>
<path d="M14.5943 356.082V357.34H-6.41803V356.082H14.5943Z" fill="#570A57"/>
<path d="M14.6106 362.83V364.088H-6.40167V362.83H14.6106Z" fill="#570A57"/>
<path d="M14.5943 369.578V370.836H-6.41803V369.578H14.5943Z" fill="#570A57"/>
<path d="M14.5943 376.31V377.568H-6.41803V376.31H14.5943Z" fill="#570A57"/>
<path d="M14.6106 383.058V384.316H-6.40167V383.058H14.6106Z" fill="#570A57"/>
<path d="M14.5943 389.806V391.064H-6.41803V389.806H14.5943Z" fill="#570A57"/>
<path d="M14.5943 396.538V397.796H-6.41803V396.538H14.5943Z" fill="#570A57"/>
<path d="M14.5943 403.286V404.544H-6.41803V403.286H14.5943Z" fill="#570A57"/>
<path d="M14.5943 410.018V411.276H-6.41803V410.018H14.5943Z" fill="#570A57"/>
<path d="M14.6106 416.766V418.024H-6.40167V416.766H14.6106Z" fill="#570A57"/>
<path d="M14.5943 423.514V424.772H-6.41803V423.514H14.5943Z" fill="#570A57"/>
<path d="M14.5943 430.246V431.504H-6.41803V430.246H14.5943Z" fill="#570A57"/>
<path d="M14.6106 436.994V438.252H-6.40167V436.994H14.6106Z" fill="#570A57"/>
<path d="M14.5943 443.742V445H-6.41803V443.742H14.5943Z" fill="#570A57"/>
<path d="M14.6106 450.474V451.732H-6.40167V450.474H14.6106Z" fill="#570A57"/>
<path d="M137.188 644.258V645.516H116.176V644.258H137.188Z" fill="#570A57"/>
<path d="M137.188 637.526V638.784H116.176V637.526H137.188Z" fill="#570A57"/>
<path d="M137.204 630.778V632.036H116.192V630.778H137.204Z" fill="#570A57"/>
<path d="M137.188 624.046V625.304H116.176V624.046H137.188Z" fill="#570A57"/>
<path d="M137.204 617.298V618.556H116.192V617.298H137.204Z" fill="#570A57"/>
<path d="M137.188 610.55V611.808H116.176V610.55H137.188Z" fill="#570A57"/>
<path d="M137.188 603.818V605.076H116.176V603.818H137.188Z" fill="#570A57"/>
<path d="M137.204 597.07V598.328H116.192V597.07H137.204Z" fill="#570A57"/>
<path d="M137.188 590.338V591.596H116.176V590.338H137.188Z" fill="#570A57"/>
<path d="M137.188 583.59V584.848H116.176V583.59H137.188Z" fill="#570A57"/>
<path d="M137.188 576.842V578.1H116.176V576.842H137.188Z" fill="#570A57"/>
<path d="M137.188 570.11V571.368H116.176V570.11H137.188Z" fill="#570A57"/>
<path d="M137.204 563.362V564.62H116.192V563.362H137.204Z" fill="#570A57"/>
<path d="M137.188 556.614V557.872H116.176V556.614H137.188Z" fill="#570A57"/>
<path d="M137.188 549.882V551.14H116.176V549.882H137.188Z" fill="#570A57"/>
<path d="M137.204 543.134V544.392H116.192V543.134H137.204Z" fill="#570A57"/>
<path d="M137.188 536.402V537.66H116.176V536.402H137.188Z" fill="#570A57"/>
<path d="M137.204 529.654V530.912H116.192V529.654H137.204Z" fill="#570A57"/>
<path d="M137.188 522.906V524.164H116.176V522.906H137.188Z" fill="#570A57"/>
<path d="M137.188 516.174V517.432H116.176V516.174H137.188Z" fill="#570A57"/>
<path d="M137.204 509.426V510.684H116.192V509.426H137.204Z" fill="#570A57"/>
<path d="M137.188 502.678V503.936H116.176V502.678H137.188Z" fill="#570A57"/>
<path d="M137.188 495.946V497.204H116.176V495.946H137.188Z" fill="#570A57"/>
<path d="M137.204 489.198V490.456H116.192V489.198H137.204Z" fill="#570A57"/>
<path d="M137.188 482.466V483.724H116.176V482.466H137.188Z" fill="#570A57"/>
<path d="M134.753 26.6331V27.8913H113.741V26.6331H134.753Z" fill="#570A57"/>
<path d="M134.737 33.3647V34.6228H113.725V33.3647H134.737Z" fill="#570A57"/>
<path d="M134.753 40.113V41.3712H113.741V40.113H134.753Z" fill="#570A57"/>
<path d="M134.737 46.8446V48.1027H113.725V46.8446H134.737Z" fill="#570A57"/>
<path d="M134.737 53.5927V54.8509H113.725V53.5927H134.737Z" fill="#570A57"/>
<path d="M134.753 60.3409V61.599H113.741V60.3409H134.753Z" fill="#570A57"/>
<path d="M134.737 67.0727V68.3308H113.725V67.0727H134.737Z" fill="#570A57"/>
<path d="M134.753 73.8208V75.0789H113.741V73.8208H134.753Z" fill="#570A57"/>
<path d="M134.753 80.5689V81.827H113.741V80.5689H134.753Z" fill="#570A57"/>
<path d="M134.737 87.3007V88.5588H113.725V87.3007H134.737Z" fill="#570A57"/>
<path d="M134.753 94.0488V95.3069H113.741V94.0488H134.753Z" fill="#570A57"/>
<path d="M134.737 100.781V102.039H113.725V100.781H134.737Z" fill="#570A57"/>
<path d="M134.753 107.529V108.787H113.741V107.529H134.753Z" fill="#570A57"/>
<path d="M134.753 114.277V115.535H113.741V114.277H134.753Z" fill="#570A57"/>
<path d="M134.737 121.009V122.267H113.725V121.009H134.737Z" fill="#570A57"/>
<path d="M134.753 127.757V129.015H113.741V127.757H134.753Z" fill="#570A57"/>
<path d="M134.737 134.489V135.747H113.725V134.489H134.737Z" fill="#570A57"/>
<path d="M134.737 141.237V142.495H113.725V141.237H134.737Z" fill="#570A57"/>
<path d="M134.753 147.985V149.243H113.741V147.985H134.753Z" fill="#570A57"/>
<path d="M134.737 154.717V155.975H113.725V154.717H134.737Z" fill="#570A57"/>
<path d="M134.753 161.465V162.723H113.741V161.465H134.753Z" fill="#570A57"/>
<path d="M134.753 168.213V169.471H113.741V168.213H134.753Z" fill="#570A57"/>
<path d="M134.737 174.945V176.203H113.725V174.945H134.737Z" fill="#570A57"/>
<path d="M134.753 181.693V182.951H113.741V181.693H134.753Z" fill="#570A57"/>
<path d="M134.737 188.424V189.683H113.725V188.424H134.737Z" fill="#570A57"/>
<path d="M134.753 195.173V196.431H113.741V195.173H134.753Z" fill="#570A57"/>
<path d="M134.753 201.921V203.179H113.741V201.921H134.753Z" fill="#570A57"/>
<path d="M134.737 208.653V209.911H113.725V208.653H134.737Z" fill="#570A57"/>
<path d="M134.753 215.401V216.659H113.741V215.401H134.753Z" fill="#570A57"/>
<path d="M134.753 222.132V223.391H113.741V222.132H134.753Z" fill="#570A57"/>
<path d="M76.994 791.344H78.6279V697.148L104.983 670.809L103.823 669.649L76.994 696.478V791.344Z" fill="#570A57"/>
<path d="M26.4076 791.736H28.0415V593.557L12.0617 577.561V469.819L5.05215 462.81L4.92142 451.095L3.28749 451.111L3.43454 463.496L10.4277 470.489V578.247L26.4076 594.227V791.736Z" fill="#570A57"/>
<path d="M92.7123 682.443H94.3462V390.296L157.22 327.439L156.06 326.279L92.7123 389.626V682.443Z" fill="#570A57"/>
<path d="M91.8464 441.912L93.0065 440.752L49.3479 397.093V0H47.714V397.763L91.8464 441.912Z" fill="#570A57"/>
<path d="M195.437 804.579H318.913L316.103 794.939H200.993L195.437 804.579Z" fill="#C265AF"/>
<path d="M243.557 792.994H262.085V791.36H245.19V678.652L267.003 656.823V581.041L319.485 528.559L318.341 527.399L265.37 580.371V656.153L243.557 677.966V792.994Z" fill="#570A57"/>
<path d="M-9.27737 864.397H38.3026V866.031H-9.27737V864.397Z" fill="#570A57"/>
<path d="M75.7521 842.698H107.548V844.332H75.7521V842.698Z" fill="#570A57"/>
<path d="M246.04 806H273.588V807.634H246.04V806Z" fill="#570A57"/>
<path d="M182.644 816H219.358V817.634H182.644V816Z" fill="#570A57"/>
<path d="M316.103 864.397H351.183V866.031H316.103V864.397Z" fill="#570A57"/>
<path d="M214.538 798.811H240.566L238.312 784.824H216.793L214.538 798.811Z" fill="#C265AF"/>
<path d="M235.632 786.164L234.096 738.699L233.394 786.164H235.632Z" fill="#C265AF"/>
<path d="M231.907 786.164L231.057 748.845L230.567 786.164H231.907Z" fill="#C265AF"/>
<path d="M227.56 786.164L226.694 767.505L226.221 786.164H227.56Z" fill="#C265AF"/>
<path d="M98.3984 797.553H124.427L122.172 783.566H100.653L98.3984 797.553Z" fill="#C265AF"/>
<path d="M119.476 784.89L117.94 737.441L117.238 784.89H119.476Z" fill="#C265AF"/>
<path d="M115.767 784.89L114.917 747.571L114.427 784.89H115.767Z" fill="#C265AF"/>
<path d="M111.405 784.89L110.555 766.23L110.065 784.89H111.405Z" fill="#C265AF"/>
<path d="M205.551 164.536H165.585V150.942H205.551V164.536Z" fill="#570A57"/>
<path d="M205.551 147.364H165.585V133.77H205.551V147.364Z" fill="#570A57"/>
<path d="M205.551 130.175H165.585V116.581H205.551V130.175Z" fill="#570A57"/>
<path d="M205.551 112.986H165.585V99.3917H205.551V112.986Z" fill="#570A57"/>
<path d="M205.551 95.7972H165.585V82.2029H205.551V95.7972Z" fill="#570A57"/>
<path d="M205.551 78.6246H165.585V65.0303H205.551V78.6246Z" fill="#570A57"/>
<path d="M205.551 61.4356H165.585V47.8414H205.551V61.4356Z" fill="#570A57"/>
<path d="M60.6057 82.8074H62.4846V74.8828H60.6057V82.8074ZM76.5364 74.8828H78.4155V82.8074H76.5364V74.8828ZM84.7061 74.8828H86.5851V82.8074H84.7061V74.8828ZM98.5618 74.8828H100.441V82.8074H98.5618V74.8828ZM111.633 74.8828H113.512V82.8074H111.633V74.8828ZM119.983 74.8828H121.862V82.8074H119.983V74.8828ZM79.4612 98.6238H81.3402V106.548H79.4612V98.6238ZM59.6743 123.247H61.5533V131.172H59.6743V123.247ZM72.9255 123.247H74.8044V131.172H72.9255V123.247ZM88.5295 123.247H90.4085V131.172H88.5295V123.247ZM98.6925 123.247H100.572V131.172H98.6925V123.247ZM108.251 123.247H110.13V131.172H108.251V123.247ZM56.3901 143.72H58.2201V151.645H56.3574L56.3901 143.72ZM75.8175 143.72H77.6965V151.645H75.8175V143.72ZM86.5851 143.72H88.4641V151.645H86.5851V143.72ZM38.2208 102.415H40.0998V110.339H38.2208V102.415ZM55.9326 102.415H57.8116V110.339H55.9326V102.415ZM69.9027 102.415H71.7817V110.339H69.9027V102.415ZM93.3332 163.327H95.2122V171.252H93.3332V163.327ZM104.117 163.327H105.98V171.252H104.117V163.327ZM71.2915 176.252H73.1705V184.176H71.2915V176.252ZM85.3106 176.252H87.1733V184.176H85.3106V176.252ZM75.9645 251.756H77.8272V259.68H75.9482L75.9645 251.756ZM87.6308 251.756H89.4935V259.68H87.6308V251.756ZM96.1436 251.756H98.0226V259.68H96.1436V251.756ZM66.0303 239.24H67.893V247.164H66.0303V239.24ZM83.6277 239.24H85.5067V247.164H83.6277V239.24ZM87.353 315.593H89.2647V323.518H87.3857L87.353 315.593ZM105.326 315.593H107.238V323.518H105.359L105.326 315.593ZM105.163 332.7H107.075V340.625H105.196L105.163 332.7ZM120.342 332.7H122.221V340.625H120.309L120.342 332.7ZM86.4054 346.458H88.2844V354.383H86.4054V346.458ZM103.235 346.458H105.114V354.383H103.235V346.458ZM72.9255 303.486H74.7881V311.41H72.9255V303.486ZM94.9182 303.486H96.7971V311.41H94.9182V303.486ZM61.733 362.307H63.6121V370.232H61.733V362.307ZM74.4777 362.307H76.3567V370.232H74.5594L74.4777 362.307ZM81.9774 376.914H83.8728V384.839H81.9938L81.9774 376.914ZM33.7929 444.494H35.6719V452.418H33.7929V444.494ZM46.129 444.494H48.008V452.418H46.129V444.494ZM62.3703 444.494H64.2656V452.418H62.3866L62.3703 444.494ZM53.6124 460.343H55.4915V468.267H53.6124V460.343ZM51.4066 487.874H53.3183V495.799H51.4556L51.4066 487.874ZM64.8865 487.874H66.7492V495.799H64.8865V487.874ZM29.1525 509.116H31.0315V517.056H29.1525V509.116ZM39.5116 509.116H41.3907V517.056H39.528L39.5116 509.116ZM50.753 509.116H52.6321V517.056H50.753V509.116ZM63.6284 509.116H65.5074V517.056H63.6284V509.116ZM36.1784 527.481H38.0574V535.405H36.1784V527.481ZM47.7466 527.481H49.6257V535.405H47.7466V527.481ZM56.9456 527.481H58.8246V535.405H56.9456V527.481ZM38.1555 544.163H40.0345V552.088H38.1555V544.163ZM59.0371 544.163H60.9161V552.088H59.0371V544.163ZM48.8904 556.679H50.7694V564.604H48.8904V556.679ZM57.1907 556.679H59.0697V564.604H57.1907V556.679ZM73.2195 556.679H75.0986V564.604H73.2195V556.679ZM45.0506 569.62H46.946V577.544H45.067L45.0506 569.62ZM56.4881 569.62H58.3672V577.544H56.5862L56.4881 569.62ZM59.854 586.76H61.7167V594.684H59.854V586.76ZM81.0951 586.76H82.9741V594.684H81.0951V586.76ZM66.0466 611.775H68.0237V619.716H66.1447L66.0466 611.775ZM79.8533 611.775H81.7323V619.716H79.8533V611.775ZM69.004 630.974H70.883V638.898H69.004V630.974ZM64.4127 660.597H66.3897V668.521H64.5107L64.4127 660.597ZM21.6364 191.758H23.5155V199.682H21.6364V191.758ZM34.0217 191.758H35.9007V199.682H34.0217V191.758ZM12.6172 203.44H14.4962V211.365H12.6172V203.44ZM22.7638 203.44H24.6429V211.365H22.7638V203.44ZM14.4472 225.122H16.3262V233.047H14.4472V225.122ZM25.2637 225.122H27.1755V233.047H25.2965L25.2637 225.122ZM34.0217 247.654H35.9007V255.481H34.0217V247.654ZM25.2637 276.722H27.1755V284.646H25.2965L25.2637 276.722ZM17.7314 317.194H19.6104V325.119H17.7314V317.194ZM28.1885 317.194H30.0675V325.119H28.1885V317.194ZM29.4303 340.56H31.3093V348.615H29.4303V340.56ZM70.736 272.964H72.615V280.905H70.736V272.964ZM38.1881 383.107H40.0672V391.097H38.1881V383.107ZM39.9364 410.165H41.8808V418.089H40.0018L39.9364 410.165ZM126.633 393.531H128.479V401.456H126.6L126.633 393.531ZM118.708 405.214H120.587V413.139H118.675L118.708 405.214ZM114.95 391.032H116.829V398.956H114.95V391.032ZM54.9523 638.065H56.8313V645.99H54.9523V638.065ZM52.0275 651.414H53.9065V659.339H52.0275V651.414ZM54.119 675.613H55.9326V683.57H54.0536L54.119 675.613ZM50.8511 617.2H52.7301V625.124H50.8511V617.2ZM45.4265 626.791H47.3055V634.732H45.4265V626.791ZM62.5337 626.791H64.2656V634.732H62.3866L62.5337 626.791ZM67.125 721.559H69.004V729.483H67.125V721.559ZM37.8777 741.591H39.7567V749.515H37.8777V741.591ZM46.4722 741.591H48.3512V749.515H46.4722V741.591ZM60.8671 741.591H62.7461V749.515H60.8671V741.591ZM52.9425 721.984H54.8215V729.908H52.9425V721.984ZM230.518 526.059H232.397V533.984H230.518V526.059ZM251.89 526.059H253.769V533.984H251.89V526.059ZM260.696 526.059H262.461V533.984H260.582L260.696 526.059ZM278.245 526.059H280.108V533.984H278.245V526.059ZM295.254 526.059H297.133V533.984H295.14L295.254 526.059ZM237.674 512.71H239.553V520.635H237.674V512.71ZM246.857 512.71H248.736V520.635H246.857V512.71ZM304.714 512.71H306.577V520.635H304.698L304.714 512.71ZM241.629 544.408H243.508V552.333H241.629V544.408ZM254.389 544.408H256.268V552.333H254.291L254.389 544.408ZM266.889 544.408H268.768V552.333H266.889V544.408ZM242.527 566.107H244.324V574.097H242.445L242.527 566.107ZM252.984 566.107H254.782V574.097H252.903L252.984 566.107ZM251.35 581.123H253.229V589.047H251.35V581.123ZM249.716 618.393H251.595V626.382H249.716V618.393ZM222.152 638.98H224.031V646.905H222.152V638.98ZM239.57 638.98H241.22V646.905H239.357L239.57 638.98ZM259.716 638.98H261.595V646.905H259.716V638.98ZM276.055 596.694H277.934V604.619H276.055V596.694ZM286.039 596.694H287.918V604.619H286.039V596.694ZM298.113 596.694H299.992V604.619H298.113V596.694ZM293.506 608.409H295.385V616.334H293.506V608.409ZM269.438 699.076H271.317V707H269.438V699.076ZM285.156 699.076H286.97V707H285.091L285.156 699.076ZM265.827 712.425H267.706V720.35H265.827V712.425ZM278.49 712.425H280.434V720.35H278.555L278.49 712.425ZM277.934 740.79H279.813V748.715H277.934V740.79ZM282.379 771.394H284.258V779.318H282.379V771.394Z" fill="url(#paint6_linear_427_198)"/>
<defs>
<linearGradient id="paint0_linear_427_198" x1="195.053" y1="1513.8" x2="195.053" y2="-848.7" gradientUnits="userSpaceOnUse">
<stop stop-color="#C165B4"/>
<stop offset="0.55" stop-color="#774584"/>
<stop offset="1" stop-color="#3F2D60"/>
</linearGradient>
<linearGradient id="paint1_linear_427_198" x1="195.053" y1="1361.7" x2="195.053" y2="-1000.8" gradientUnits="userSpaceOnUse">
<stop stop-color="#C165B4"/>
<stop offset="0.55" stop-color="#774584"/>
<stop offset="1" stop-color="#3F2D60"/>
</linearGradient>
<linearGradient id="paint2_linear_427_198" x1="195.053" y1="1371.6" x2="195.053" y2="-991.8" gradientUnits="userSpaceOnUse">
<stop stop-color="#C165B4"/>
<stop offset="0.55" stop-color="#774584"/>
<stop offset="1" stop-color="#3F2D60"/>
</linearGradient>
<linearGradient id="paint3_linear_427_198" x1="195.053" y1="1059.3" x2="195.053" y2="42.3" gradientUnits="userSpaceOnUse">
<stop stop-color="#C165B4"/>
<stop offset="0.55" stop-color="#774584"/>
<stop offset="1" stop-color="#3F2D60"/>
</linearGradient>
<linearGradient id="paint4_linear_427_198" x1="195.053" y1="951.3" x2="195.053" y2="39.6" gradientUnits="userSpaceOnUse">
<stop stop-color="#C165B4"/>
<stop offset="0.55" stop-color="#774584"/>
<stop offset="1" stop-color="#3F2D60"/>
</linearGradient>
<linearGradient id="paint5_linear_427_198" x1="195.053" y1="1020.6" x2="195.053" y2="4.50005" gradientUnits="userSpaceOnUse">
<stop stop-color="#C165B4"/>
<stop offset="0.55" stop-color="#774584"/>
<stop offset="1" stop-color="#3F2D60"/>
</linearGradient>
<linearGradient id="paint6_linear_427_198" x1="-266.384" y1="809.256" x2="-266.384" y2="68.403" gradientUnits="userSpaceOnUse">
<stop stop-color="#F4FFDB"/>
<stop offset="0.05" stop-color="#E2FCD6"/>
<stop offset="0.21" stop-color="#B2F6C9"/>
<stop offset="0.33" stop-color="#94F2C1"/>
<stop offset="0.39" stop-color="#89F0BE"/>
<stop offset="0.48" stop-color="#7FEABB"/>
<stop offset="0.62" stop-color="#64D9B3"/>
<stop offset="0.8" stop-color="#38BEA6"/>
<stop offset="1" stop-color="#009C96"/>
</linearGradient>
</defs>
</svg>
