<svg width="1440" height="766" viewBox="0 0 1440 766" fill="none" xmlns="http://www.w3.org/2000/svg">
<g style="mix-blend-mode:multiply" opacity="0.3">
<path d="M921 10C921 9.44772 920.552 9 920 9C919.448 9 919 9.44772 919 10H921ZM920 355.5H919V355.914L919.293 356.207L920 355.5ZM1016 451.5H1017V451.086L1016.71 450.793L1016 451.5ZM1016 764.5H1015V765.5H1016V764.5ZM1288.5 764.5V765.5H1289.5V764.5H1288.5ZM1288.5 723V722H1287.5V723H1288.5ZM1440 724C1440.55 724 1441 723.552 1441 723C1441 722.448 1440.55 722 1440 722V724ZM1.06996e-05 109C-0.552274 109 -0.999989 109.448 -0.999989 110C-0.999989 110.552 -0.552274 111 1.08064e-05 111L1.06996e-05 109ZM285.5 110L286.152 109.242L285.871 109H285.5V110ZM571.5 356L570.848 356.758L571.129 357H571.5V356ZM1084 357H1085V355H1084V357ZM1084 511C1084.55 511 1085 510.552 1085 510C1085 509.448 1084.55 509 1084 509V511ZM798.5 510V509H798.129L797.848 509.242L798.5 510ZM512.5 756V757H512.871L513.152 756.758L512.5 756ZM1.19093e-07 755H-1L-1 757H-1.19093e-07L1.19093e-07 755ZM1441.5 159.5C1442.05 159.5 1442.5 159.052 1442.5 158.5C1442.5 157.948 1442.05 157.5 1441.5 157.5V159.5ZM1150.5 158.5V157.5H1149.5V158.5H1150.5ZM1150.5 410H1149.5V410.449L1149.84 410.748L1150.5 410ZM1240 489.5H1241V489.051L1240.66 488.752L1240 489.5ZM1239 762.5V763.5H1241V762.5H1239ZM919 10V355.5H921V10H919ZM919.293 356.207L1015.29 452.207L1016.71 450.793L920.707 354.793L919.293 356.207ZM1015 451.5V764.5H1017V451.5H1015ZM1289.5 764.5V723H1287.5V764.5H1289.5ZM1288.5 724H1440V722H1288.5V724ZM1.08064e-05 111L285.5 111V109L1.06996e-05 109L1.08064e-05 111ZM284.848 110.758L570.848 356.758L572.152 355.242L286.152 109.242L284.848 110.758ZM571.5 357H1084V355H571.5V357ZM1084 509H798.5V511H1084V509ZM797.848 509.242L511.848 755.242L513.152 756.758L799.152 510.758L797.848 509.242ZM512.5 755L1.19093e-07 755L-1.19093e-07 757L512.5 757V755ZM1441.5 157.5H1150.5V159.5H1441.5V157.5ZM1149.5 158.5V410H1151.5V158.5H1149.5ZM1149.84 410.748L1239.34 490.248L1240.66 488.752L1151.16 409.252L1149.84 410.748ZM1239 489.5V762.5H1241V489.5H1239ZM1016 765.5H1288.5V763.5H1016V765.5Z" fill="black"/>
</g>
<path d="M100 343H108V351H100V343Z" fill="#A91079"/>
<path d="M912 416H920V424H912V416Z" fill="#A91079"/>
<path d="M734 635H742V643H734V635Z" fill="#A91079"/>
<path d="M820 253H828V261H820V253Z" fill="#A91079"/>
<path d="M240 723H248V731H240V723Z" fill="#A91079"/>
<path d="M961 790H969V798H961V790Z" fill="#A91079"/>
<path d="M1316 383H1324V391H1316V383Z" fill="#A91079"/>
<path d="M60 597H68V605H60V597Z" fill="#A91079"/>
<path d="M1082 617H1090V625H1082V617Z" fill="#A91079"/>
<path d="M742 30H750V38H742V30Z" fill="#A91079"/>
<path d="M300 -26H308V-18H300V-26Z" fill="#A91079"/>
<path d="M23 101H31V109H23V101Z" fill="#A91079"/>
<path d="M308 784H326V804.25H308V784Z" fill="#A91079"/>
<path d="M1423 139H1441V159.25H1423V139Z" fill="#A91079"/>
<path d="M1087 296H1105V316.25H1087V296Z" fill="#A91079"/>
<path d="M1038 731H1046V739H1038V731Z" fill="#A91079"/>
</svg>
