<svg width="207" height="36" viewBox="0 0 207 36" fill="none" xmlns="http://www.w3.org/2000/svg">
<path d="M0 5.43848V9.96125H17.689C18.4353 9.96125 18.9853 9.57764 19.3342 8.81279L20.5959 5.44084H0V5.43848ZM0 15.8101V30.5623H5.07907V21.0882C5.07907 20.8254 5.16688 20.6122 5.3425 20.4441C5.51581 20.276 5.72147 20.1908 5.95486 20.1908H13.0651C13.8115 20.1908 14.3614 19.7858 14.7104 18.9713L15.7964 15.8101H0Z" fill="#F5F2EF"/>
<path d="M41.6722 7.2324C41.113 6.03659 40.2488 5.4375 39.0818 5.4375H35.0888L25 30.5614H30.2894L37.9241 10.5333L45.4203 30.5614H50.9199L41.6722 7.2324Z" fill="#F5F2EF"/>
<path d="M63.9967 25.9676V7.2324C63.9967 6.72803 63.828 6.30653 63.4906 5.95608C63.1533 5.61036 62.7373 5.4375 62.2474 5.4375H58.9199V30.5614H74.4714C75.1716 30.5614 75.71 30.1801 76.0843 29.4153L77.413 25.9676H63.9967Z" fill="#F5F2EF"/>
<path d="M103.787 24.0169C103.438 24.0169 103.086 24.1377 102.737 24.3768C101.219 25.549 99.514 26.1338 97.6215 26.1338C95.3338 26.1338 93.4297 25.35 91.9115 23.7825C90.3934 22.2149 89.6354 20.2969 89.6354 18.0213C89.6354 15.7457 90.3887 13.7258 91.8931 12.1701C93.3974 10.6143 95.2622 9.83529 97.4782 9.83529C99.4192 9.83529 101.168 10.4581 102.733 11.7012C103.082 11.9404 103.433 12.0588 103.782 12.0588C104.131 12.0588 104.473 11.9522 104.799 11.7368L107.636 9.72637C106.518 8.33875 105.058 7.21398 103.26 6.35205C101.46 5.49249 99.5348 5.06152 97.4782 5.06152C95.075 5.06152 92.8798 5.62983 90.8925 6.76407C88.9098 7.90069 87.3316 9.44458 86.1647 11.3958C84.9977 13.347 84.4131 15.5515 84.4131 18.0165C84.4131 20.3371 84.9677 22.4801 86.0745 24.4431C87.1837 26.4038 88.7181 27.9761 90.6799 29.1624C92.6417 30.3464 94.9063 30.9384 97.4736 30.9384C99.4146 30.9384 101.275 30.5193 103.061 29.681C104.847 28.8428 106.335 27.7204 107.528 26.3067L104.794 24.3342C104.468 24.1187 104.131 24.0098 103.777 24.0098" fill="#F5F2EF"/>
<path d="M139.805 11.2876C138.615 9.35064 137.032 7.82568 135.061 6.71275C133.707 5.95027 132.267 5.44827 130.745 5.20911V10.0847C132.071 10.4328 133.217 11.1266 134.185 12.1661C135.643 13.7337 136.374 15.6801 136.374 17.9984C136.374 20.3166 135.643 22.2678 134.185 23.833C133.217 24.8725 132.071 25.5687 130.745 25.9168V30.8018C132.374 30.5556 133.878 30.0228 135.253 29.2011C137.212 28.029 138.761 26.4614 139.893 24.4984C141.025 22.5377 141.591 20.371 141.591 17.9984C141.591 15.4647 140.995 13.227 139.805 11.2876ZM117.335 11.5031C116.203 13.4661 115.637 15.6304 115.637 17.9984C115.637 20.5368 116.238 22.7816 117.441 24.7304C118.643 26.6816 120.231 28.2066 122.204 29.3053C123.558 30.0607 124.984 30.5579 126.486 30.7947V25.9097C125.194 25.5616 124.057 24.8678 123.08 23.833C121.596 22.2678 120.854 20.3213 120.854 17.9984C120.854 15.6754 121.596 13.7053 123.08 12.1495C124.057 11.1219 125.194 10.4352 126.486 10.0871V5.19727C124.861 5.44116 123.359 5.97395 121.977 6.80036C120.016 7.97486 118.47 9.54244 117.335 11.5031Z" fill="#F5F2EF"/>
<path d="M171.377 5.4375H166.614V23.4883C164.16 19.8441 158.614 11.5302 155.989 7.59233C155.095 6.25207 153.614 5.44697 152.029 5.44224L149.591 5.4375V30.5614H154.39V13.7656L163.779 28.3473C164.669 29.7302 166.178 30.5614 167.795 30.5614H171.379V5.4375H171.377Z" fill="#F5F2EF"/>
<path d="M185.359 5.50098H179.379L188.072 18.1742L179.654 30.497H185.636L193.909 18.1766L185.359 5.50098ZM196.661 5.50098L193.128 10.6726L196.07 14.9585L202.607 5.50098H196.661ZM196.072 21.0418L193.123 25.3396L196.663 30.4993H202.609L196.072 21.0441V21.0418Z" fill="#F5F2EF"/>
</svg>
